G04 #@! TF.GenerationSoftware,KiCad,Pcbnew,(5.1.0)-1*
G04 #@! TF.CreationDate,2019-06-28T01:07:09+08:00*
G04 #@! TF.ProjectId,Kamaitachi_TopPlate,4b616d61-6974-4616-9368-695f546f7050,rev?*
G04 #@! TF.SameCoordinates,Original*
G04 #@! TF.FileFunction,Profile,NP*
%FSLAX46Y46*%
G04 Gerber Fmt 4.6, Leading zero omitted, Abs format (unit mm)*
G04 Created by KiCad (PCBNEW (5.1.0)-1) date 2019-06-28 01:07:09*
%MOMM*%
%LPD*%
G04 APERTURE LIST*
%ADD10C,0.200000*%
G04 APERTURE END LIST*
D10*
X104019646Y-129110639D02*
X21001095Y-129110639D01*
X159645295Y-75484639D02*
X159645295Y-70572639D01*
X58659295Y-59546639D02*
X44893895Y-58342639D01*
X24256095Y-75659639D02*
X25460395Y-61894639D01*
X13001095Y-38044337D02*
G75*
G02X21001095Y-30044339I7999999J-1D01*
G01*
X293249828Y-34508805D02*
G75*
G03X293249828Y-34508805I-1100000J0D01*
G01*
X171895795Y-33044339D02*
G75*
G03X171895795Y-33044339I-1100000J0D01*
G01*
X296614295Y-38044339D02*
X296614295Y-121110639D01*
X288614295Y-129110639D02*
X205596166Y-129110639D01*
X40885695Y-44121639D02*
X39681395Y-57886639D01*
X154781505Y-142404782D02*
X104019646Y-129110639D01*
X13001094Y-121110639D02*
X13001094Y-38044339D01*
X38021095Y-76863639D02*
X24256095Y-75659639D01*
X39225395Y-63098639D02*
X38021095Y-76863639D01*
X165614295Y-30044339D02*
X165614295Y-36044339D01*
X144001095Y-30044339D02*
X144001095Y-36044339D01*
X149970295Y-75484639D02*
X159645295Y-75484639D01*
X159645295Y-70572639D02*
X149970295Y-70572639D01*
X27120695Y-42917639D02*
X40885695Y-44121639D01*
X44893895Y-58342639D02*
X46098195Y-44577639D01*
X139919696Y-33044339D02*
G75*
G03X139919696Y-33044339I-1100000J0D01*
G01*
X21001095Y-30044339D02*
X144001095Y-30044339D01*
X149970295Y-70572639D02*
X149970295Y-75484639D01*
X39681395Y-57886639D02*
X25916395Y-56682639D01*
X18565561Y-34508805D02*
G75*
G03X18565561Y-34508805I-1100000J0D01*
G01*
X46098195Y-44577639D02*
X59863295Y-45781639D01*
X144001095Y-36044339D02*
X165614295Y-36044339D01*
X25916395Y-56682639D02*
X27120695Y-42917639D01*
X296614296Y-121110638D02*
G75*
G02X288614295Y-129110639I-8000001J0D01*
G01*
X165614295Y-30044339D02*
X288614295Y-30044339D01*
X21001095Y-129110639D02*
G75*
G02X13001095Y-121110639I0J8000000D01*
G01*
X59863295Y-45781639D02*
X58659295Y-59546639D01*
X288614295Y-30044339D02*
G75*
G02X296614295Y-38044339I0J-8000000D01*
G01*
X205596166Y-129110639D02*
X154781505Y-142404782D01*
X74772295Y-93943639D02*
X61007295Y-92738639D01*
X80192295Y-92027639D02*
X81396294Y-78262639D01*
X25460395Y-61894639D02*
X39225395Y-63098639D01*
X50138295Y-102299639D02*
X48934295Y-116064639D01*
X35169095Y-114859639D02*
X36373395Y-101094639D01*
X58203295Y-64759639D02*
X56998295Y-78524639D01*
X44437995Y-63554639D02*
X58203295Y-64759639D01*
X43233695Y-77319639D02*
X44437995Y-63554639D01*
X61007295Y-92738639D02*
X62211295Y-78973639D01*
X41573295Y-96297639D02*
X42777595Y-82532639D01*
X56998295Y-78524639D02*
X43233695Y-77319639D01*
X22595795Y-94637639D02*
X23800095Y-80872639D01*
X23800095Y-80872639D02*
X37565095Y-82076639D01*
X36360795Y-95841638D02*
X22595795Y-94637639D01*
X37565095Y-82076639D02*
X36360795Y-95841638D01*
X55338295Y-97501639D02*
X41573295Y-96297639D01*
X48934295Y-116064639D02*
X35169095Y-114859639D01*
X62211295Y-78973639D02*
X75976295Y-80178639D01*
X93957295Y-93231639D02*
X80192295Y-92027639D01*
X56542295Y-83736639D02*
X55338295Y-97501639D01*
X42777595Y-82532639D02*
X56542295Y-83736639D01*
X36373395Y-101094639D02*
X50138295Y-102299639D01*
X75976295Y-80178639D02*
X74772295Y-93943639D01*
X83057294Y-59284639D02*
X96822295Y-60488639D01*
X98482295Y-41511639D02*
X97278295Y-55276639D01*
X102575295Y-104018638D02*
X101371295Y-117783639D01*
X84717295Y-40307639D02*
X98482295Y-41511639D01*
X65532295Y-41018639D02*
X79297294Y-42223639D01*
X83513295Y-54072639D02*
X84717295Y-40307639D01*
X101371295Y-117783639D02*
X87605295Y-116579639D01*
X95161295Y-79466638D02*
X93957295Y-93231639D01*
X81852295Y-73049639D02*
X83057294Y-59284639D01*
X64328295Y-54783639D02*
X65532295Y-41018639D01*
X79297294Y-42223639D02*
X78093295Y-55988639D01*
X97278295Y-55276639D02*
X83513295Y-54072639D01*
X87605295Y-116579639D02*
X88810295Y-102814639D01*
X62667295Y-73761639D02*
X63872295Y-59996639D01*
X81396294Y-78262639D02*
X95161295Y-79466638D01*
X76432294Y-74965638D02*
X62667295Y-73761639D01*
X88810295Y-102814639D02*
X102575295Y-104018638D01*
X77637295Y-61200639D02*
X76432294Y-74965638D01*
X63872295Y-59996639D02*
X77637295Y-61200639D01*
X115507295Y-107224639D02*
X128853295Y-110800639D01*
X95617294Y-74253639D02*
X81852295Y-73049639D01*
X78093295Y-55988639D02*
X64328295Y-54783639D01*
X96822295Y-60488639D02*
X95617294Y-74253639D01*
X113724294Y-85871639D02*
X112520295Y-99636639D01*
X102075295Y-60476639D02*
X103279295Y-46711639D01*
X111930295Y-120571639D02*
X115507295Y-107224639D01*
X125277295Y-124147639D02*
X111930295Y-120571639D01*
X114180295Y-80658639D02*
X100415295Y-79454639D01*
X134362295Y-68553639D02*
X133157295Y-82318639D01*
X117044295Y-47915639D02*
X115840295Y-61681639D01*
X101619295Y-65689639D02*
X115384294Y-66893639D01*
X100415295Y-79454639D02*
X101619295Y-65689639D01*
X115384294Y-66893639D02*
X114180295Y-80658639D01*
X115840295Y-61681639D02*
X102075295Y-60476639D01*
X133157295Y-82318639D02*
X119392295Y-81114639D01*
X128853295Y-110800639D02*
X125277295Y-124147639D01*
X117732295Y-100092639D02*
X118936295Y-86327639D01*
X131497295Y-101296639D02*
X117732295Y-100092639D01*
X118936295Y-86327639D02*
X132701295Y-87531638D01*
X132701295Y-87531638D02*
X131497295Y-101296639D01*
X98755295Y-98431639D02*
X99959295Y-84666639D01*
X99959295Y-84666639D02*
X113724294Y-85871639D01*
X103279295Y-46711639D02*
X117044295Y-47915639D01*
X112520295Y-99636639D02*
X98755295Y-98431639D01*
X119392295Y-81114639D02*
X120597295Y-67349639D01*
X120597295Y-67349639D02*
X134362295Y-68553639D01*
X173592295Y-49576639D02*
X187357295Y-48372639D01*
X207539295Y-60476639D02*
X193774295Y-61681639D01*
X195434295Y-80658639D02*
X194230295Y-66893639D01*
X121053295Y-62137639D02*
X122257295Y-48372639D01*
X134818295Y-63341639D02*
X121053295Y-62137639D01*
X174796295Y-63341639D02*
X173592295Y-49576639D01*
X136022295Y-49576639D02*
X134818295Y-63341639D01*
X122257295Y-48372639D02*
X136022295Y-49576639D01*
X147898295Y-101368639D02*
X147898295Y-87551639D01*
X187357295Y-48372639D02*
X188561295Y-62137639D01*
X192570295Y-47915639D02*
X206335295Y-46711639D01*
X207995295Y-65689639D02*
X209199294Y-79454639D01*
X193774295Y-61681639D02*
X192570295Y-47915639D01*
X161716295Y-101368639D02*
X147898295Y-101368639D01*
X176457295Y-82318639D02*
X175253295Y-68553639D01*
X175253295Y-68553639D02*
X189018295Y-67349639D01*
X161716295Y-87551639D02*
X161716295Y-101368639D01*
X147898295Y-87551639D02*
X161716295Y-87551639D01*
X189018295Y-67349639D02*
X190222295Y-81114639D01*
X188561295Y-62137639D02*
X174796295Y-63341639D01*
X206335295Y-46711639D02*
X207539295Y-60476639D01*
X209199294Y-79454639D02*
X195434295Y-80658639D01*
X190222295Y-81114639D02*
X176457295Y-82318639D01*
X176913295Y-87531638D02*
X190678295Y-86327639D01*
X213997295Y-74253639D02*
X212792295Y-60488639D01*
X210860294Y-98431639D02*
X197095295Y-99636639D01*
X208244295Y-117783639D02*
X207039295Y-104018638D01*
X227762295Y-73049639D02*
X213997295Y-74253639D01*
X194230295Y-66893639D02*
X207995295Y-65689639D01*
X178117295Y-101296639D02*
X176913295Y-87531638D01*
X207039295Y-104018638D02*
X220804295Y-102814639D01*
X191882295Y-100092639D02*
X178117295Y-101296639D01*
X194030295Y-107231639D02*
X197606295Y-120577639D01*
X184260295Y-124154639D02*
X180683295Y-110807639D01*
X215657295Y-93231639D02*
X214453295Y-79466638D01*
X220804295Y-102814639D02*
X222009295Y-116579639D01*
X190678295Y-86327639D02*
X191882295Y-100092639D01*
X197095295Y-99636639D02*
X195890295Y-85871639D01*
X228218295Y-78262639D02*
X229422295Y-92027639D01*
X197606295Y-120577639D02*
X184260295Y-124154639D01*
X222009295Y-116579639D02*
X208244295Y-117783639D01*
X209655295Y-84666639D02*
X210860294Y-98431639D01*
X180683295Y-110807639D02*
X194030295Y-107231639D01*
X214453295Y-79466638D02*
X228218295Y-78262639D01*
X195890295Y-85871639D02*
X209655295Y-84666639D01*
X229422295Y-92027639D02*
X215657295Y-93231639D01*
X274446295Y-114859639D02*
X260681295Y-116064639D01*
X233182295Y-74965638D02*
X231977295Y-61200639D01*
X246947295Y-73761639D02*
X233182295Y-74965638D01*
X273242295Y-101094639D02*
X274446295Y-114859639D01*
X231977295Y-61200639D02*
X245743295Y-59996639D01*
X245286294Y-54783639D02*
X231521295Y-55988639D01*
X260681295Y-116064639D02*
X259477295Y-102299639D01*
X273254295Y-95841638D02*
X272049295Y-82076639D01*
X259477295Y-102299639D02*
X273242295Y-101094639D01*
X226557295Y-59284639D02*
X227762295Y-73049639D01*
X231521295Y-55988639D02*
X230317295Y-42223639D01*
X244082295Y-41018639D02*
X245286294Y-54783639D01*
X212792295Y-60488639D02*
X226557295Y-59284639D01*
X212336294Y-55276639D02*
X211132295Y-41511639D01*
X230317295Y-42223639D02*
X244082295Y-41018639D01*
X211132295Y-41511639D02*
X224897295Y-40307639D01*
X234842295Y-93943639D02*
X233638295Y-80178639D01*
X226101294Y-54072639D02*
X212336294Y-55276639D01*
X245743295Y-59996639D02*
X246947295Y-73761639D01*
X224897295Y-40307639D02*
X226101294Y-54072639D01*
X248607295Y-92738639D02*
X234842295Y-93943639D01*
X247403295Y-78973639D02*
X248607295Y-92738639D01*
X233638295Y-80178639D02*
X247403295Y-78973639D01*
X263516295Y-44577639D02*
X264721294Y-58342639D01*
X264721294Y-58342639D02*
X250956295Y-59546639D01*
X285358295Y-75659639D02*
X271593295Y-76863639D01*
X272049295Y-82076639D02*
X285814295Y-80872639D01*
X266381295Y-77319639D02*
X252616295Y-78524639D01*
X265177295Y-63554639D02*
X266381295Y-77319639D01*
X254276295Y-97501639D02*
X253072295Y-83736639D01*
X268041295Y-96297639D02*
X254276295Y-97501639D01*
X253072295Y-83736639D02*
X266837295Y-82532639D01*
X271593295Y-76863639D02*
X270389295Y-63098639D01*
X284154294Y-61894639D02*
X285358295Y-75659639D01*
X252616295Y-78524639D02*
X251412295Y-64759639D01*
X282494295Y-42917639D02*
X283698295Y-56682639D01*
X283698295Y-56682639D02*
X269933295Y-57886639D01*
X268729295Y-44121639D02*
X282494295Y-42917639D01*
X287019295Y-94637639D02*
X273254295Y-95841638D01*
X285814295Y-80872639D02*
X287019295Y-94637639D01*
X266837295Y-82532639D02*
X268041295Y-96297639D01*
X270389295Y-63098639D02*
X284154294Y-61894639D01*
X251412295Y-64759639D02*
X265177295Y-63554639D01*
X249751295Y-45781639D02*
X263516295Y-44577639D01*
X269933295Y-57886639D02*
X268729295Y-44121639D01*
X250956295Y-59546639D02*
X249751295Y-45781639D01*
X17101094Y-79577489D02*
G75*
G03X17101094Y-79577489I-1099999J0D01*
G01*
X105505970Y-126110639D02*
G75*
G03X105505970Y-126110639I-1100000J0D01*
G01*
X18565561Y-124646172D02*
G75*
G03X18565561Y-124646172I-1100000J0D01*
G01*
X293249828Y-124646172D02*
G75*
G03X293249828Y-124646172I-1100000J0D01*
G01*
X206310230Y-126110639D02*
G75*
G03X206310230Y-126110639I-1100000J0D01*
G01*
X294714295Y-79577489D02*
G75*
G03X294714295Y-79577489I-1100000J0D01*
G01*
X155881900Y-139303710D02*
G75*
G03X155881900Y-139303710I-1100000J0D01*
G01*
M02*
