0
SECTION
2
HEADER
9
$INSUNITS
70
4
9
$ACADVER
1
AC1014
9
$HANDSEED
5
FFFF
0
ENDSEC
0
SECTION
2
TABLES
0
TABLE
2
VPORT
5
8
100
AcDbSymbolTable
0
ENDTAB
0
TABLE
2
LTYPE
5
5
100
AcDbSymbolTable
0
LTYPE
5
14
100
AcDbSymbolTableRecord
100
AcDbLinetypeTableRecord
2
BYBLOCK
70
0
0
LTYPE
5
15
100
AcDbSymbolTableRecord
100
AcDbLinetypeTableRecord
2
BYLAYER
70
0
0
ENDTAB
0
TABLE
2
LAYER
5
2
100
AcDbSymbolTable
70
2
0
LAYER
5
50
100
AcDbSymbolTableRecord
100
AcDbLayerTableRecord
2
0
70
0
6
CONTINUOUS
0
ENDTAB
0
TABLE
2
STYLE
5
3
100
AcDbSymbolTable
70
1
0
STYLE
5
11
100
AcDbSymbolTableRecord
100
AcDbTextStyleTableRecord
2
STANDARD
70
0
0
ENDTAB
0
TABLE
2
VIEW
5
6
100
AcDbSymbolTable
70
0
0
ENDTAB
0
TABLE
2
UCS
5
7
100
AcDbSymbolTable
70
0
0
ENDTAB
0
TABLE
2
APPID
5
9
100
AcDbSymbolTable
70
2
0
APPID
5
12
100
AcDbSymbolTableRecord
100
AcDbRegAppTableRecord
2
ACAD
70
0
0
ENDTAB
0
TABLE
2
DIMSTYLE
5
A
100
AcDbSymbolTable
70
1
0
ENDTAB
0
TABLE
2
BLOCK_RECORD
5
1
100
AcDbSymbolTable
70
1
0
BLOCK_RECORD
5
1F
100
AcDbSymbolTableRecord
100
AcDbBlockTableRecord
2
*MODEL_SPACE
0
BLOCK_RECORD
5
1B
100
AcDbSymbolTableRecord
100
AcDbBlockTableRecord
2
*PAPER_SPACE
0
ENDTAB
0
ENDSEC
0
SECTION
2
BLOCKS
0
BLOCK
5
20
100
AcDbEntity
100
AcDbBlockBegin
2
*MODEL_SPACE
0
ENDBLK
5
21
100
AcDbEntity
100
AcDbBlockEnd
0
BLOCK
5
1C
100
AcDbEntity
100
AcDbBlockBegin
2
*PAPER_SPACE
0
ENDBLK
5
1D
100
AcDbEntity
100
AcDbBlockEnd
0
ENDSEC
0
SECTION
2
ENTITIES
0
LWPOLYLINE
5
100
100
AcDbEntity
8
0
100
AcDbPolyline
90
4
70
1
43
0.0
10
321.09100000000007
20
-105.63400000000001
10
334.85599999999999
20
-104.43000000000001
10
336.06
20
-118.19499999999999
10
322.29500000000002
20
-119.39900000000002
0
LWPOLYLINE
5
101
100
AcDbEntity
8
0
100
AcDbPolyline
90
4
70
1
43
0.0
10
315.87800000000004
20
-106.09000000000002
10
317.08299999999997
20
-119.85500000000002
10
303.31799999999998
20
-121.059
10
302.113
20
-107.294
0
LWPOLYLINE
5
102
100
AcDbEntity
8
0
100
AcDbPolyline
90
4
70
1
43
0.0
10
303.774
20
-126.27200000000002
10
317.53899999999999
20
-125.06700000000002
10
318.74299999999999
20
-138.83199999999999
10
304.97800000000001
20
-140.03700000000003
0
LWPOLYLINE
5
103
100
AcDbEntity
8
0
100
AcDbPolyline
90
4
70
1
43
0.0
10
322.75100000000003
20
-124.61100000000002
10
336.51599999999996
20
-123.40700000000001
10
337.72000000000003
20
-137.172
10
323.95499999999998
20
-138.37600000000003
0
LWPOLYLINE
5
104
100
AcDbEntity
8
0
100
AcDbPolyline
90
4
70
1
43
0.0
10
305.43400000000008
20
-145.249
10
319.19900000000001
20
-144.04499999999999
10
320.40300000000002
20
-157.81
10
306.63799999999998
20
-159.01400000000001
0
LWPOLYLINE
5
105
100
AcDbEntity
8
0
100
AcDbPolyline
90
4
70
1
43
0.0
10
324.411
20
-143.589
10
338.17599999999999
20
-142.38499999999999
10
339.38099999999997
20
-156.15000000000003
10
325.61599999999999
20
-157.35399999999998
0
LWPOLYLINE
5
106
100
AcDbEntity
8
0
100
AcDbPolyline
90
4
70
1
43
0.0
10
311.839
20
-163.81200000000004
10
325.6040000000001
20
-162.607
10
326.80799999999999
20
-176.37200000000004
10
313.04300000000001
20
-177.577
0
LWPOLYLINE
5
107
100
AcDbEntity
8
0
100
AcDbPolyline
90
4
70
1
43
0.0
10
282.67900000000003
20
-103.73600000000002
10
296.44400000000007
20
-102.53100000000002
10
297.64799999999997
20
-116.29600000000002
10
283.88300000000004
20
-117.50100000000002
0
LWPOLYLINE
5
108
100
AcDbEntity
8
0
100
AcDbPolyline
90
4
70
1
43
0.0
10
284.339
20
-122.71299999999999
10
298.10500000000002
20
-121.509
10
299.30900000000003
20
-135.274
10
285.54400000000004
20
-136.47799999999998
0
LWPOLYLINE
5
109
100
AcDbEntity
8
0
100
AcDbPolyline
90
4
70
1
43
0.0
10
286
20
-141.691
10
299.76499999999999
20
-140.48599999999999
10
300.96899999999999
20
-154.251
10
287.20400000000001
20
-155.45600000000002
0
LWPOLYLINE
5
110
100
AcDbEntity
8
0
100
AcDbPolyline
90
4
70
1
43
0.0
10
263.49400000000003
20
-103.024
10
277.25900000000001
20
-101.82000000000001
10
278.46299999999997
20
-115.58500000000001
10
264.69799999999998
20
-116.789
0
LWPOLYLINE
5
111
100
AcDbEntity
8
0
100
AcDbPolyline
90
4
70
1
43
0.0
10
265.154
20
-122.001
10
278.9190000000001
20
-120.79700000000003
10
280.12400000000002
20
-134.56200000000001
10
266.35900000000004
20
-135.76599999999999
0
LWPOLYLINE
5
112
100
AcDbEntity
8
0
100
AcDbPolyline
90
4
70
1
43
0.0
10
266.815
20
-140.97899999999998
10
280.57999999999998
20
-139.77500000000001
10
281.78399999999999
20
-153.53999999999999
10
268.01900000000001
20
-154.744
0
LWPOLYLINE
5
113
100
AcDbEntity
8
0
100
AcDbPolyline
90
4
70
1
43
0.0
10
274.37099999999998
20
-178.09200000000001
10
260.60599999999999
20
-179.29599999999999
10
259.40100000000001
20
-165.53099999999998
10
273.166
20
-164.327
0
LWPOLYLINE
5
114
100
AcDbEntity
8
0
100
AcDbPolyline
90
4
70
1
43
0.0
10
236.62200000000001
20
-185.667
10
233.04500000000002
20
-172.31999999999999
10
246.39200000000002
20
-168.74400000000006
10
249.96800000000002
20
-182.09
0
LWPOLYLINE
5
115
100
AcDbEntity
8
0
100
AcDbPolyline
90
4
70
1
43
0.0
10
248.25200000000001
20
-147.38399999999999
10
262.01700000000005
20
-146.179
10
263.22199999999998
20
-159.94399999999999
10
249.45700000000002
20
-161.14900000000003
0
LWPOLYLINE
5
116
100
AcDbEntity
8
0
100
AcDbPolyline
90
4
70
1
43
0.0
10
229.27500000000003
20
-149.04399999999998
10
243.04000000000002
20
-147.84
10
244.24400000000006
20
-161.60499999999999
10
230.47900000000001
20
-162.809
0
LWPOLYLINE
5
117
100
AcDbEntity
8
0
100
AcDbPolyline
90
4
70
1
43
0.0
10
246.59200000000001
20
-128.40600000000001
10
260.35700000000008
20
-127.20200000000003
10
261.56099999999998
20
-140.96700000000001
10
247.79600000000002
20
-142.17099999999999
0
LWPOLYLINE
5
118
100
AcDbEntity
8
0
100
AcDbPolyline
90
4
70
1
43
0.0
10
244.93200000000002
20
-109.428
10
258.697
20
-108.224
10
259.90100000000001
20
-121.989
10
246.13600000000002
20
-123.19400000000002
0
LWPOLYLINE
5
119
100
AcDbEntity
8
0
100
AcDbPolyline
90
4
70
1
43
0.0
10
225.95400000000001
20
-111.089
10
239.71900000000005
20
-109.88500000000002
10
240.923
20
-123.65000000000002
10
227.15800000000002
20
-124.854
0
LWPOLYLINE
5
120
100
AcDbEntity
8
0
100
AcDbPolyline
90
4
70
1
43
0.0
10
227.61500000000001
20
-130.066
10
241.38000000000002
20
-128.86199999999999
10
242.584
20
-142.62700000000001
10
228.81900000000002
20
-143.83100000000002
0
LWPOLYLINE
5
121
100
AcDbEntity
8
0
100
AcDbPolyline
90
4
70
1
43
0.0
10
200.25999999999999
20
-149.06399999999999
10
214.07800000000003
20
-149.06399999999999
10
214.07800000000003
20
-162.881
10
200.25999999999999
20
-162.881
0
LWPOLYLINE
5
122
100
AcDbEntity
8
0
100
AcDbPolyline
90
4
70
1
43
0.0
10
174.61900000000003
20
-109.88500000000002
10
188.38400000000004
20
-111.089
10
187.18000000000001
20
-124.854
10
173.41499999999999
20
-123.65000000000002
0
LWPOLYLINE
5
123
100
AcDbEntity
8
0
100
AcDbPolyline
90
4
70
1
43
0.0
10
169.40600000000001
20
-109.428
10
168.202
20
-123.19400000000002
10
154.43700000000001
20
-121.989
10
155.64099999999999
20
-108.224
0
LWPOLYLINE
5
124
100
AcDbEntity
8
0
100
AcDbPolyline
90
4
70
1
43
0.0
10
153.98099999999999
20
-127.20200000000003
10
167.74599999999998
20
-128.40600000000001
10
166.542
20
-142.17099999999999
10
152.77700000000004
20
-140.96700000000001
0
LWPOLYLINE
5
125
100
AcDbEntity
8
0
100
AcDbPolyline
90
4
70
1
43
0.0
10
171.75400000000002
20
-142.62700000000001
10
172.959
20
-128.86199999999999
10
186.72400000000005
20
-130.066
10
185.51900000000001
20
-143.83100000000002
0
LWPOLYLINE
5
126
100
AcDbEntity
8
0
100
AcDbPolyline
90
4
70
1
43
0.0
10
152.321
20
-146.179
10
166.08599999999998
20
-147.38399999999999
10
164.88200000000003
20
-161.14900000000003
10
151.11700000000002
20
-159.94399999999999
0
LWPOLYLINE
5
127
100
AcDbEntity
8
0
100
AcDbPolyline
90
4
70
1
43
0.0
10
171.298
20
-147.84
10
185.06299999999999
20
-149.04399999999998
10
183.85900000000004
20
-162.809
10
170.09400000000002
20
-161.60499999999999
0
LWPOLYLINE
5
128
100
AcDbEntity
8
0
100
AcDbPolyline
90
4
70
1
43
0.0
10
181.215
20
-172.31300000000002
10
177.63900000000004
20
-185.66
10
164.29200000000003
20
-182.084
10
167.86900000000003
20
-168.73699999999999
0
LWPOLYLINE
5
129
100
AcDbEntity
8
0
100
AcDbPolyline
90
4
70
1
43
0.0
10
141.172
20
-164.327
10
154.93700000000001
20
-165.53099999999998
10
153.733
20
-179.29599999999999
10
139.96700000000001
20
-178.09200000000001
0
LWPOLYLINE
5
130
100
AcDbEntity
8
0
100
AcDbPolyline
90
4
70
1
43
0.0
10
137.07900000000001
20
-101.82000000000001
10
150.84399999999999
20
-103.024
10
149.63999999999999
20
-116.789
10
135.875
20
-115.58500000000001
0
LWPOLYLINE
5
131
100
AcDbEntity
8
0
100
AcDbPolyline
90
4
70
1
43
0.0
10
131.65899999999999
20
-103.73600000000002
10
130.45500000000001
20
-117.50100000000002
10
116.69
20
-116.29600000000002
10
117.89400000000001
20
-102.53100000000002
0
LWPOLYLINE
5
132
100
AcDbEntity
8
0
100
AcDbPolyline
90
4
70
1
43
0.0
10
116.23400000000001
20
-121.509
10
129.999
20
-122.71299999999999
10
128.79399999999998
20
-136.47799999999998
10
115.029
20
-135.274
0
LWPOLYLINE
5
133
100
AcDbEntity
8
0
100
AcDbPolyline
90
4
70
1
43
0.0
10
134.214
20
-134.56200000000001
10
135.41899999999998
20
-120.79700000000003
10
149.184
20
-122.001
10
147.97899999999998
20
-135.76599999999999
0
LWPOLYLINE
5
134
100
AcDbEntity
8
0
100
AcDbPolyline
90
4
70
1
43
0.0
10
133.75799999999998
20
-139.77500000000001
10
147.523
20
-140.97899999999998
10
146.31899999999999
20
-154.744
10
132.55400000000003
20
-153.53999999999999
0
LWPOLYLINE
5
135
100
AcDbEntity
8
0
100
AcDbPolyline
90
4
70
1
43
0.0
10
128.33799999999999
20
-141.691
10
127.134
20
-155.45600000000002
10
113.369
20
-154.251
10
114.57300000000001
20
-140.48599999999999
0
LWPOLYLINE
5
136
100
AcDbEntity
8
0
100
AcDbPolyline
90
4
70
1
43
0.0
10
101.29600000000002
20
-177.577
10
87.530799999999999
20
-176.37200000000004
10
88.735100000000017
20
-162.607
10
102.5
20
-163.81200000000004
0
LWPOLYLINE
5
137
100
AcDbEntity
8
0
100
AcDbPolyline
90
4
70
1
43
0.0
10
107.70000000000002
20
-159.01400000000001
10
93.935000000000016
20
-157.81
10
95.139300000000006
20
-144.04499999999999
10
108.904
20
-145.249
0
LWPOLYLINE
5
138
100
AcDbEntity
8
0
100
AcDbPolyline
90
4
70
1
43
0.0
10
89.9268
20
-143.589
10
88.722499999999997
20
-157.35399999999998
10
74.957499999999996
20
-156.15000000000003
10
76.161799999999999
20
-142.38499999999999
0
LWPOLYLINE
5
139
100
AcDbEntity
8
0
100
AcDbPolyline
90
4
70
1
43
0.0
10
109.36
20
-140.03700000000003
10
95.595399999999998
20
-138.83199999999999
10
96.799700000000001
20
-125.06700000000002
10
110.565
20
-126.27200000000002
0
LWPOLYLINE
5
140
100
AcDbEntity
8
0
100
AcDbPolyline
90
4
70
1
43
0.0
10
77.822100000000006
20
-123.40700000000001
10
91.587100000000007
20
-124.61100000000002
10
90.382800000000003
20
-138.37600000000003
10
76.617800000000003
20
-137.172
0
LWPOLYLINE
5
141
100
AcDbEntity
8
0
100
AcDbPolyline
90
4
70
1
43
0.0
10
79.482399999999998
20
-104.43000000000001
10
93.247399999999999
20
-105.63400000000001
10
92.043099999999995
20
-119.39900000000002
10
78.278099999999995
20
-118.19499999999999
0
LWPOLYLINE
5
142
100
AcDbEntity
8
0
100
AcDbPolyline
90
4
70
1
43
0.0
10
97.255600000000015
20
-119.85500000000002
10
98.459900000000005
20
-106.09000000000002
10
112.22499999999999
20
-107.294
10
111.021
20
-121.059
0
LINE
5
143
100
AcDbEntity
8
0
100
AcDbLine
10
340.976
20
-184.62299999999999
30
0
11
257.18599999999998
21
-184.62299999999999
31
0
0
LINE
5
144
100
AcDbEntity
8
0
100
AcDbLine
10
257.18599999999998
20
-184.62299999999999
30
0
11
207.14400000000001
21
-197.71500000000003
31
0
0
LINE
5
145
100
AcDbEntity
8
0
100
AcDbLine
10
207.14400000000001
20
-197.71500000000003
30
0
11
157.154
21
-184.62299999999999
31
0
0
LINE
5
146
100
AcDbEntity
8
0
100
AcDbLine
10
157.154
20
-184.62299999999999
30
0
11
73.362800000000007
21
-184.62299999999999
31
0
0
LINE
5
147
100
AcDbEntity
8
0
100
AcDbLine
10
71.362799999999993
20
-182.62300000000005
30
0
11
71.362799999999993
21
-99.556700000000006
31
0
0
LINE
5
148
100
AcDbEntity
8
0
100
AcDbLine
10
342.976
20
-99.556700000000006
30
0
11
342.976
21
-182.62299999999999
31
0
0
ARC
5
149
100
AcDbEntity
8
0
100
AcDbCircle
10
73.362799999999993
20
-182.62299999999999
30
0
40
1.9999999999999929
100
AcDbArc
50
180
51
270.0000000000004
0
ARC
5
150
100
AcDbEntity
8
0
100
AcDbCircle
10
73.362799999999979
20
-99.556699999999992
30
0
40
1.9999999999999751
100
AcDbArc
50
89.999999999999588
51
180
0
ARC
5
151
100
AcDbEntity
8
0
100
AcDbCircle
10
340.976
20
-99.556700000000049
30
0
40
2.0000000000000284
100
AcDbArc
50
0
51
90
0
ARC
5
152
100
AcDbEntity
8
0
100
AcDbCircle
10
340.976
20
-182.62299999999996
30
0
40
2.0000000000000284
100
AcDbArc
50
270
51
360
0
LWPOLYLINE
5
153
100
AcDbEntity
8
0
100
AcDbPolyline
90
4
70
1
43
0.0
10
212.00700000000001
20
-132.08500000000001
10
202.33199999999999
20
-132.08500000000001
10
202.33199999999999
20
-136.99700000000001
10
212.00700000000001
20
-136.99700000000001
0
LINE
5
154
100
AcDbEntity
8
0
100
AcDbLine
10
196.36279999999999
20
-91.556700000000021
30
0
11
196.36279999999999
21
-97.556700000000021
31
0
0
LINE
5
155
100
AcDbEntity
8
0
100
AcDbLine
10
217.97600000000006
20
-91.556700000000021
30
0
11
217.97600000000003
21
-97.556700000000021
31
0
0
ARC
5
156
100
AcDbEntity
8
0
100
AcDbCircle
10
340.976
20
-99.556700000000049
30
0
40
8.0000000000000426
100
AcDbArc
50
0
51
89.999999999999588
0
ARC
5
157
100
AcDbEntity
8
0
100
AcDbCircle
10
73.362799999999979
20
-99.556699999999992
30
0
40
7.9999999999999716
100
AcDbArc
50
89.999999999999901
51
180
0
LINE
5
158
100
AcDbEntity
8
0
100
AcDbLine
10
65.362799999999993
20
-182.62300000000005
30
0
11
65.362799999999993
21
-99.556700000000063
31
0
0
ARC
5
159
100
AcDbEntity
8
0
100
AcDbCircle
10
73.362799999999993
20
-182.62299999999999
30
0
40
7.9999999999999893
100
AcDbArc
50
180
51
270.0000000000004
0
LINE
5
160
100
AcDbEntity
8
0
100
AcDbLine
10
156.38135169193987
20
-190.62299999999999
30
0
11
73.36280000000005
21
-190.62299999999999
31
0
0
LINE
5
161
100
AcDbEntity
8
0
100
AcDbLine
10
207.14321019076576
20
-203.91714385810423
30
0
11
156.38135169193987
21
-190.62299999999999
31
0
0
LINE
5
162
100
AcDbEntity
8
0
100
AcDbLine
10
257.95787158300902
20
-190.62299999999999
30
0
11
207.14321019076576
21
-203.91714385810423
31
0
0
LINE
5
163
100
AcDbEntity
8
0
100
AcDbLine
10
340.976
20
-190.62299999999999
30
0
11
257.95787158300902
21
-190.62299999999999
31
0
0
ARC
5
164
100
AcDbEntity
8
0
100
AcDbCircle
10
340.976
20
-182.62299999999996
30
0
40
8.0000000000000426
100
AcDbArc
50
270
51
360
0
LINE
5
165
100
AcDbEntity
8
0
100
AcDbLine
10
348.97600000000006
20
-99.556700000000006
30
0
11
348.97600000000006
21
-182.6230000000001
31
0
0
LINE
5
166
100
AcDbEntity
8
0
100
AcDbLine
10
73.362799999999993
20
-91.556700000000021
30
0
11
196.36279999999999
21
-91.556700000000021
31
0
0
LINE
5
167
100
AcDbEntity
8
0
100
AcDbLine
10
217.97600000000006
20
-91.556700000000021
30
0
11
340.97600000000006
21
-91.556700000000021
31
0
0
LINE
5
168
100
AcDbEntity
8
0
100
AcDbLine
10
73.362799999999993
20
-97.556700000000021
30
0
11
196.36279999999999
21
-97.556700000000021
31
0
0
LINE
5
169
100
AcDbEntity
8
0
100
AcDbLine
10
217.97600000000003
20
-97.556700000000021
30
0
11
340.976
21
-97.556700000000021
31
0
0
LINE
5
170
100
AcDbEntity
8
0
100
AcDbLine
10
196.36279999999999
20
-97.556700000000021
30
0
11
217.97600000000003
21
-97.556700000000021
31
0
0
CIRCLE
5
171
100
AcDbEntity
8
0
100
AcDbCircle
10
69.827266094067241
20
-96.021166094067283
30
0
40
1.1000000000000032
0
CIRCLE
5
172
100
AcDbEntity
8
0
100
AcDbCircle
10
191.18140138580799
20
-94.556700000000006
30
0
40
1.0999999999999983
0
CIRCLE
5
173
100
AcDbEntity
8
0
100
AcDbCircle
10
223.15750000000003
20
-94.556700000000049
30
0
40
1.0999999999999943
0
CIRCLE
5
174
100
AcDbEntity
8
0
100
AcDbCircle
10
344.51153390593277
20
-96.021166094067297
30
0
40
1.0999999999999943
0
CIRCLE
5
175
100
AcDbEntity
8
0
100
AcDbCircle
10
345.976
20
-141.08985000000001
30
0
40
1.0999999999999983
0
CIRCLE
5
176
100
AcDbEntity
8
0
100
AcDbCircle
10
344.51153390593277
20
-186.15853390593276
30
0
40
1.0999999999999828
0
CIRCLE
5
177
100
AcDbEntity
8
0
100
AcDbCircle
10
68.362799999999993
20
-141.08985000000004
30
0
40
1.0999999999999943
0
CIRCLE
5
178
100
AcDbEntity
8
0
100
AcDbCircle
10
69.827266094067284
20
-186.15853390593276
30
0
40
1.1000000000000032
0
CIRCLE
5
179
100
AcDbEntity
8
0
100
AcDbCircle
10
257.57193579150453
20
-187.62299999999999
30
0
40
1.0999999999999943
0
CIRCLE
5
180
100
AcDbEntity
8
0
100
AcDbCircle
10
156.76767584596996
20
-187.62299999999999
30
0
40
1.1000000000000023
0
CIRCLE
5
181
100
AcDbEntity
8
0
100
AcDbCircle
10
207.1436050953829
20
-200.81607192905213
30
0
40
1.0999999999999943
0
ENDSEC
0
SECTION
2
OBJECTS
0
DICTIONARY
5
C
100
AcDbDictionary
3
ACAD_GROUP
350
D
3
ACAD_MLINESTYLE
350
17
0
DICTIONARY
5
D
100
AcDbDictionary
0
DICTIONARY
5
1A
330
C
100
AcDbDictionary
0
DICTIONARY
5
17
100
AcDbDictionary
0
ENDSEC
0
EOF
