  0
SECTION
  2
HEADER
  9
$ANGBASE
  50
0.0
  9
$ANGDIR
  70
  1
  9
$MEASUREMENT
  70
0
  0
ENDSEC
  0
SECTION
  2
TABLES
  0
TABLE
  2
LTYPE
  70
4
  0
LTYPE
  5
40F
  2
CONTINUOUS
  70
0
  3
Solid line
  72
65
  73
0
  40
0.0
  0
LTYPE
  5
410
  2
DASHDOT
 70
0
  3
Dash Dot ____ _ ____ _
 72
65
 73
4
 40
2.0
 49
1.25
 49
-0.25
 49
0.25
 49
-0.25
  0
LTYPE
  5
411
  2
DASHED
 70
0
  3
Dashed __ __ __ __ __
 72
65
 73
2
 40
0.75
 49
0.5
 49
-0.25
  0
LTYPE
  5
43B
  2
DOTTED
 70
0
  3
Dotted .  .  .  .
 72
65
 73
2
 40
0.2
 49
0.0
 49
-0.2
  0
ENDTAB
  0
TABLE
  2
STYLE
  70
4
  0
STYLE
  2
KICAD
  70
0
  40
0
  41
1
  42
1
  50
0
  71
0
  3
isocp.shx
  0
STYLE
  2
KICADB
  70
0
  40
0
  41
1
  42
1
  50
0
  71
0
  3
isocp.shx
  0
STYLE
  2
KICADI
  70
0
  40
0
  41
1
  42
1
  50
15
  71
0
  3
isocp.shx
  0
STYLE
  2
KICADBI
  70
0
  40
0
  41
1
  42
1
  50
15
  71
0
  3
isocp.shx
  0
ENDTAB
  0
TABLE
  2
LAYER
  70
30
  0
LAYER
  2
BLACK
  70
0
  62
7
  6
CONTINUOUS
  0
LAYER
  2
GRAY1
  70
0
  62
251
  6
CONTINUOUS
  0
LAYER
  2
GRAY2
  70
0
  62
8
  6
CONTINUOUS
  0
LAYER
  2
GRAY3
  70
0
  62
9
  6
CONTINUOUS
  0
LAYER
  2
WHITE
  70
0
  62
7
  6
CONTINUOUS
  0
LAYER
  2
LYELLOW
  70
0
  62
51
  6
CONTINUOUS
  0
LAYER
  2
BLUE1
  70
0
  62
178
  6
CONTINUOUS
  0
LAYER
  2
GREEN1
  70
0
  62
98
  6
CONTINUOUS
  0
LAYER
  2
CYAN1
  70
0
  62
138
  6
CONTINUOUS
  0
LAYER
  2
RED1
  70
0
  62
18
  6
CONTINUOUS
  0
LAYER
  2
MAGENTA1
  70
0
  62
228
  6
CONTINUOUS
  0
LAYER
  2
BROWN1
  70
0
  62
58
  6
CONTINUOUS
  0
LAYER
  2
BLUE2
  70
0
  62
5
  6
CONTINUOUS
  0
LAYER
  2
GREEN2
  70
0
  62
3
  6
CONTINUOUS
  0
LAYER
  2
CYAN2
  70
0
  62
4
  6
CONTINUOUS
  0
LAYER
  2
RED2
  70
0
  62
1
  6
CONTINUOUS
  0
LAYER
  2
MAGENTA2
  70
0
  62
6
  6
CONTINUOUS
  0
LAYER
  2
BROWN2
  70
0
  62
54
  6
CONTINUOUS
  0
LAYER
  2
BLUE3
  70
0
  62
171
  6
CONTINUOUS
  0
LAYER
  2
GREEN3
  70
0
  62
91
  6
CONTINUOUS
  0
LAYER
  2
CYAN3
  70
0
  62
131
  6
CONTINUOUS
  0
LAYER
  2
RED3
  70
0
  62
11
  6
CONTINUOUS
  0
LAYER
  2
MAGENTA3
  70
0
  62
221
  6
CONTINUOUS
  0
LAYER
  2
YELLOW3
  70
0
  62
2
  6
CONTINUOUS
  0
LAYER
  2
BLUE4
  70
0
  62
5
  6
CONTINUOUS
  0
LAYER
  2
GREEN4
  70
0
  62
3
  6
CONTINUOUS
  0
LAYER
  2
CYAN4
  70
0
  62
4
  6
CONTINUOUS
  0
LAYER
  2
RED4
  70
0
  62
1
  6
CONTINUOUS
  0
LAYER
  2
MAGENTA4
  70
0
  62
6
  6
CONTINUOUS
  0
LAYER
  2
YELLOW4
  70
0
  62
2
  6
CONTINUOUS
  0
ENDTAB
  0
ENDSEC
  0
SECTION
  2
ENTITIES
0
LINE
8
BLACK
6
CONTINUOUS
10
341.971
20
-184.595
11
341.965
21
-184.597
0
LINE
8
BLACK
6
CONTINUOUS
10
341.965
20
-184.597
11
341.958
21
-184.598
0
LINE
8
BLACK
6
CONTINUOUS
10
341.958
20
-184.598
11
341.727
21
-184.622
0
LINE
8
BLACK
6
CONTINUOUS
10
341.727
20
-184.622
11
341.726
21
-184.622
0
LINE
8
BLACK
6
CONTINUOUS
10
341.726
20
-184.622
11
341.723
21
-184.622
0
LINE
8
BLACK
6
CONTINUOUS
10
341.723
20
-184.622
11
341.719
21
-184.623
0
LINE
8
BLACK
6
CONTINUOUS
10
341.719
20
-184.623
11
341.715
21
-184.623
0
LINE
8
BLACK
6
CONTINUOUS
10
341.715
20
-184.623
11
341.714
21
-184.623
0
LINE
8
BLACK
6
CONTINUOUS
10
341.714
20
-184.623
11
257.186
21
-184.623
0
LINE
8
BLACK
6
CONTINUOUS
10
257.186
20
-184.623
11
207.195
21
-197.715
0
LINE
8
BLACK
6
CONTINUOUS
10
207.195
20
-197.715
11
207.194
21
-197.716
0
LINE
8
BLACK
6
CONTINUOUS
10
207.194
20
-197.716
11
207.188
21
-197.717
0
LINE
8
BLACK
6
CONTINUOUS
10
207.188
20
-197.717
11
207.185
21
-197.718
0
LINE
8
BLACK
6
CONTINUOUS
10
207.185
20
-197.718
11
207.184
21
-197.718
0
LINE
8
BLACK
6
CONTINUOUS
10
207.184
20
-197.718
11
207.18
21
-197.719
0
LINE
8
BLACK
6
CONTINUOUS
10
207.18
20
-197.719
11
207.177
21
-197.719
0
LINE
8
BLACK
6
CONTINUOUS
10
207.177
20
-197.719
11
207.174
21
-197.72
0
LINE
8
BLACK
6
CONTINUOUS
10
207.174
20
-197.72
11
207.17
21
-197.72
0
LINE
8
BLACK
6
CONTINUOUS
10
207.17
20
-197.72
11
207.165
21
-197.72
0
LINE
8
BLACK
6
CONTINUOUS
10
207.165
20
-197.72
11
207.162
21
-197.719
0
LINE
8
BLACK
6
CONTINUOUS
10
207.162
20
-197.719
11
207.159
21
-197.719
0
LINE
8
BLACK
6
CONTINUOUS
10
207.159
20
-197.719
11
207.155
21
-197.718
0
LINE
8
BLACK
6
CONTINUOUS
10
207.155
20
-197.718
11
207.154
21
-197.718
0
LINE
8
BLACK
6
CONTINUOUS
10
207.154
20
-197.718
11
207.151
21
-197.717
0
LINE
8
BLACK
6
CONTINUOUS
10
207.151
20
-197.717
11
207.145
21
-197.716
0
LINE
8
BLACK
6
CONTINUOUS
10
207.145
20
-197.716
11
207.144
21
-197.715
0
LINE
8
BLACK
6
CONTINUOUS
10
207.144
20
-197.715
11
157.154
21
-184.623
0
LINE
8
BLACK
6
CONTINUOUS
10
157.154
20
-184.623
11
72.6248
21
-184.623
0
LINE
8
BLACK
6
CONTINUOUS
10
72.6248
20
-184.623
11
72.6211
21
-184.622
0
LINE
8
BLACK
6
CONTINUOUS
10
72.6211
20
-184.622
11
72.6211
21
-184.622
0
LINE
8
BLACK
6
CONTINUOUS
10
72.6211
20
-184.622
11
72.3899
21
-184.6
0
LINE
8
BLACK
6
CONTINUOUS
10
72.3899
20
-184.6
11
72.3899
21
-184.6
0
LINE
8
BLACK
6
CONTINUOUS
10
72.3899
20
-184.6
11
72.3898
21
-184.6
0
LINE
8
BLACK
6
CONTINUOUS
10
72.3898
20
-184.6
11
72.3888
21
-184.6
0
LINE
8
BLACK
6
CONTINUOUS
10
72.3888
20
-184.6
11
72.3822
21
-184.598
0
LINE
8
BLACK
6
CONTINUOUS
10
72.3822
20
-184.598
11
72.3755
21
-184.597
0
LINE
8
BLACK
6
CONTINUOUS
10
72.3755
20
-184.597
11
72.153
21
-184.53
0
LINE
8
BLACK
6
CONTINUOUS
10
72.153
20
-184.53
11
72.152
21
-184.529
0
LINE
8
BLACK
6
CONTINUOUS
10
72.152
20
-184.529
11
72.1458
21
-184.527
0
LINE
8
BLACK
6
CONTINUOUS
10
72.1458
20
-184.527
11
72.1395
21
-184.524
0
LINE
8
BLACK
6
CONTINUOUS
10
72.1395
20
-184.524
11
71.9343
21
-184.415
0
LINE
8
BLACK
6
CONTINUOUS
10
71.9343
20
-184.415
11
71.9343
21
-184.415
0
LINE
8
BLACK
6
CONTINUOUS
10
71.9343
20
-184.415
11
71.9343
21
-184.415
0
LINE
8
BLACK
6
CONTINUOUS
10
71.9343
20
-184.415
11
71.9334
21
-184.414
0
LINE
8
BLACK
6
CONTINUOUS
10
71.9334
20
-184.414
11
71.9278
21
-184.411
0
LINE
8
BLACK
6
CONTINUOUS
10
71.9278
20
-184.411
11
71.9221
21
-184.407
0
LINE
8
BLACK
6
CONTINUOUS
10
71.9221
20
-184.407
11
71.7421
21
-184.26
0
LINE
8
BLACK
6
CONTINUOUS
10
71.7421
20
-184.26
11
71.7421
21
-184.26
0
LINE
8
BLACK
6
CONTINUOUS
10
71.7421
20
-184.26
11
71.7421
21
-184.26
0
LINE
8
BLACK
6
CONTINUOUS
10
71.7421
20
-184.26
11
71.7413
21
-184.259
0
LINE
8
BLACK
6
CONTINUOUS
10
71.7413
20
-184.259
11
71.7365
21
-184.254
0
LINE
8
BLACK
6
CONTINUOUS
10
71.7365
20
-184.254
11
71.7317
21
-184.25
0
LINE
8
BLACK
6
CONTINUOUS
10
71.7317
20
-184.25
11
71.5836
21
-184.071
0
LINE
8
BLACK
6
CONTINUOUS
10
71.5836
20
-184.071
11
71.5829
21
-184.07
0
LINE
8
BLACK
6
CONTINUOUS
10
71.5829
20
-184.07
11
71.5792
21
-184.064
0
LINE
8
BLACK
6
CONTINUOUS
10
71.5792
20
-184.064
11
71.5754
21
-184.058
0
LINE
8
BLACK
6
CONTINUOUS
10
71.5754
20
-184.058
11
71.4649
21
-183.854
0
LINE
8
BLACK
6
CONTINUOUS
10
71.4649
20
-183.854
11
71.4644
21
-183.853
0
LINE
8
BLACK
6
CONTINUOUS
10
71.4644
20
-183.853
11
71.4618
21
-183.847
0
LINE
8
BLACK
6
CONTINUOUS
10
71.4618
20
-183.847
11
71.4592
21
-183.841
0
LINE
8
BLACK
6
CONTINUOUS
10
71.4592
20
-183.841
11
71.3905
21
-183.619
0
LINE
8
BLACK
6
CONTINUOUS
10
71.3905
20
-183.619
11
71.3902
21
-183.618
0
LINE
8
BLACK
6
CONTINUOUS
10
71.3902
20
-183.618
11
71.3889
21
-183.611
0
LINE
8
BLACK
6
CONTINUOUS
10
71.3889
20
-183.611
11
71.3875
21
-183.604
0
LINE
8
BLACK
6
CONTINUOUS
10
71.3875
20
-183.604
11
71.3632
21
-183.373
0
LINE
8
BLACK
6
CONTINUOUS
10
71.3632
20
-183.373
11
71.3631
21
-183.372
0
LINE
8
BLACK
6
CONTINUOUS
10
71.3631
20
-183.372
11
71.3632
21
-183.369
0
LINE
8
BLACK
6
CONTINUOUS
10
71.3632
20
-183.369
11
71.3628
21
-183.366
0
LINE
8
BLACK
6
CONTINUOUS
10
71.3628
20
-183.366
11
71.3628
21
-183.361
0
LINE
8
BLACK
6
CONTINUOUS
10
71.3628
20
-183.361
11
71.3628
21
-183.361
0
LINE
8
BLACK
6
CONTINUOUS
10
71.3628
20
-183.361
11
71.3628
21
-183.357
0
LINE
8
BLACK
6
CONTINUOUS
10
71.3628
20
-183.357
11
71.3628
21
-183.357
0
LINE
8
BLACK
6
CONTINUOUS
10
71.3628
20
-183.357
11
71.3628
21
-183.357
0
LINE
8
BLACK
6
CONTINUOUS
10
71.3628
20
-183.357
11
71.3628
21
-98.8186
0
LINE
8
BLACK
6
CONTINUOUS
10
71.3628
20
-98.8186
11
71.3632
21
-98.815
0
LINE
8
BLACK
6
CONTINUOUS
10
71.3632
20
-98.815
11
71.3632
21
-98.815
0
LINE
8
BLACK
6
CONTINUOUS
10
71.3632
20
-98.815
11
71.3858
21
-98.5837
0
LINE
8
BLACK
6
CONTINUOUS
10
71.3858
20
-98.5837
11
71.3858
21
-98.5837
0
LINE
8
BLACK
6
CONTINUOUS
10
71.3858
20
-98.5837
11
71.3858
21
-98.5837
0
LINE
8
BLACK
6
CONTINUOUS
10
71.3858
20
-98.5837
11
71.3859
21
-98.5827
0
LINE
8
BLACK
6
CONTINUOUS
10
71.3859
20
-98.5827
11
71.3873
21
-98.5761
0
LINE
8
BLACK
6
CONTINUOUS
10
71.3873
20
-98.5761
11
71.3887
21
-98.5694
0
LINE
8
BLACK
6
CONTINUOUS
10
71.3887
20
-98.5694
11
71.4558
21
-98.3469
0
LINE
8
BLACK
6
CONTINUOUS
10
71.4558
20
-98.3469
11
71.4558
21
-98.3469
0
LINE
8
BLACK
6
CONTINUOUS
10
71.4558
20
-98.3469
11
71.4558
21
-98.3469
0
LINE
8
BLACK
6
CONTINUOUS
10
71.4558
20
-98.3469
11
71.4561
21
-98.3459
0
LINE
8
BLACK
6
CONTINUOUS
10
71.4561
20
-98.3459
11
71.4588
21
-98.3396
0
LINE
8
BLACK
6
CONTINUOUS
10
71.4588
20
-98.3396
11
71.4614
21
-98.3334
0
LINE
8
BLACK
6
CONTINUOUS
10
71.4614
20
-98.3334
11
71.5705
21
-98.1282
0
LINE
8
BLACK
6
CONTINUOUS
10
71.5705
20
-98.1282
11
71.5705
21
-98.1282
0
LINE
8
BLACK
6
CONTINUOUS
10
71.5705
20
-98.1282
11
71.5705
21
-98.1282
0
LINE
8
BLACK
6
CONTINUOUS
10
71.5705
20
-98.1282
11
71.571
21
-98.1273
0
LINE
8
BLACK
6
CONTINUOUS
10
71.571
20
-98.1273
11
71.5748
21
-98.1217
0
LINE
8
BLACK
6
CONTINUOUS
10
71.5748
20
-98.1217
11
71.5786
21
-98.116
0
LINE
8
BLACK
6
CONTINUOUS
10
71.5786
20
-98.116
11
71.7255
21
-97.9359
0
LINE
8
BLACK
6
CONTINUOUS
10
71.7255
20
-97.9359
11
71.7261
21
-97.9351
0
LINE
8
BLACK
6
CONTINUOUS
10
71.7261
20
-97.9351
11
71.731
21
-97.9304
0
LINE
8
BLACK
6
CONTINUOUS
10
71.731
20
-97.9304
11
71.7358
21
-97.9255
0
LINE
8
BLACK
6
CONTINUOUS
10
71.7358
20
-97.9255
11
71.9148
21
-97.7774
0
LINE
8
BLACK
6
CONTINUOUS
10
71.9148
20
-97.7774
11
71.9156
21
-97.7768
0
LINE
8
BLACK
6
CONTINUOUS
10
71.9156
20
-97.7768
11
71.9213
21
-97.7731
0
LINE
8
BLACK
6
CONTINUOUS
10
71.9213
20
-97.7731
11
71.927
21
-97.7692
0
LINE
8
BLACK
6
CONTINUOUS
10
71.927
20
-97.7692
11
72.1314
21
-97.6587
0
LINE
8
BLACK
6
CONTINUOUS
10
72.1314
20
-97.6587
11
72.1323
21
-97.6582
0
LINE
8
BLACK
6
CONTINUOUS
10
72.1323
20
-97.6582
11
72.1386
21
-97.6557
0
LINE
8
BLACK
6
CONTINUOUS
10
72.1386
20
-97.6557
11
72.1449
21
-97.653
0
LINE
8
BLACK
6
CONTINUOUS
10
72.1449
20
-97.653
11
72.3668
21
-97.5843
0
LINE
8
BLACK
6
CONTINUOUS
10
72.3668
20
-97.5843
11
72.3678
21
-97.584
0
LINE
8
BLACK
6
CONTINUOUS
10
72.3678
20
-97.584
11
72.3745
21
-97.5828
0
LINE
8
BLACK
6
CONTINUOUS
10
72.3745
20
-97.5828
11
72.3812
21
-97.5814
0
LINE
8
BLACK
6
CONTINUOUS
10
72.3812
20
-97.5814
11
72.6123
21
-97.5571
0
LINE
8
BLACK
6
CONTINUOUS
10
72.6123
20
-97.5571
11
72.6133
21
-97.557
0
LINE
8
BLACK
6
CONTINUOUS
10
72.6133
20
-97.557
11
72.6166
21
-97.557
0
LINE
8
BLACK
6
CONTINUOUS
10
72.6166
20
-97.557
11
72.6199
21
-97.5567
0
LINE
8
BLACK
6
CONTINUOUS
10
72.6199
20
-97.5567
11
72.6246
21
-97.5567
0
LINE
8
BLACK
6
CONTINUOUS
10
72.6246
20
-97.5567
11
72.6248
21
-97.5567
0
LINE
8
BLACK
6
CONTINUOUS
10
72.6248
20
-97.5567
11
341.714
21
-97.5567
0
LINE
8
BLACK
6
CONTINUOUS
10
341.714
20
-97.5567
11
341.718
21
-97.557
0
LINE
8
BLACK
6
CONTINUOUS
10
341.718
20
-97.557
11
341.718
21
-97.557
0
LINE
8
BLACK
6
CONTINUOUS
10
341.718
20
-97.557
11
341.949
21
-97.5797
0
LINE
8
BLACK
6
CONTINUOUS
10
341.949
20
-97.5797
11
341.949
21
-97.5797
0
LINE
8
BLACK
6
CONTINUOUS
10
341.949
20
-97.5797
11
341.949
21
-97.5797
0
LINE
8
BLACK
6
CONTINUOUS
10
341.949
20
-97.5797
11
341.95
21
-97.5798
0
LINE
8
BLACK
6
CONTINUOUS
10
341.95
20
-97.5798
11
341.957
21
-97.5812
0
LINE
8
BLACK
6
CONTINUOUS
10
341.957
20
-97.5812
11
341.964
21
-97.5825
0
LINE
8
BLACK
6
CONTINUOUS
10
341.964
20
-97.5825
11
342.186
21
-97.6497
0
LINE
8
BLACK
6
CONTINUOUS
10
342.186
20
-97.6497
11
342.186
21
-97.6497
0
LINE
8
BLACK
6
CONTINUOUS
10
342.186
20
-97.6497
11
342.186
21
-97.6497
0
LINE
8
BLACK
6
CONTINUOUS
10
342.186
20
-97.6497
11
342.187
21
-97.65
0
LINE
8
BLACK
6
CONTINUOUS
10
342.187
20
-97.65
11
342.193
21
-97.6527
0
LINE
8
BLACK
6
CONTINUOUS
10
342.193
20
-97.6527
11
342.2
21
-97.6553
0
LINE
8
BLACK
6
CONTINUOUS
10
342.2
20
-97.6553
11
342.405
21
-97.7644
0
LINE
8
BLACK
6
CONTINUOUS
10
342.405
20
-97.7644
11
342.405
21
-97.7644
0
LINE
8
BLACK
6
CONTINUOUS
10
342.405
20
-97.7644
11
342.405
21
-97.7644
0
LINE
8
BLACK
6
CONTINUOUS
10
342.405
20
-97.7644
11
342.406
21
-97.7649
0
LINE
8
BLACK
6
CONTINUOUS
10
342.406
20
-97.7649
11
342.411
21
-97.7687
0
LINE
8
BLACK
6
CONTINUOUS
10
342.411
20
-97.7687
11
342.417
21
-97.7725
0
LINE
8
BLACK
6
CONTINUOUS
10
342.417
20
-97.7725
11
342.597
21
-97.9193
0
LINE
8
BLACK
6
CONTINUOUS
10
342.597
20
-97.9193
11
342.598
21
-97.92
0
LINE
8
BLACK
6
CONTINUOUS
10
342.598
20
-97.92
11
342.603
21
-97.9249
0
LINE
8
BLACK
6
CONTINUOUS
10
342.603
20
-97.9249
11
342.608
21
-97.9296
0
LINE
8
BLACK
6
CONTINUOUS
10
342.608
20
-97.9296
11
342.756
21
-98.1087
0
LINE
8
BLACK
6
CONTINUOUS
10
342.756
20
-98.1087
11
342.756
21
-98.1095
0
LINE
8
BLACK
6
CONTINUOUS
10
342.756
20
-98.1095
11
342.76
21
-98.1152
0
LINE
8
BLACK
6
CONTINUOUS
10
342.76
20
-98.1152
11
342.764
21
-98.1208
0
LINE
8
BLACK
6
CONTINUOUS
10
342.764
20
-98.1208
11
342.874
21
-98.3252
0
LINE
8
BLACK
6
CONTINUOUS
10
342.874
20
-98.3252
11
342.875
21
-98.3262
0
LINE
8
BLACK
6
CONTINUOUS
10
342.875
20
-98.3262
11
342.877
21
-98.3324
0
LINE
8
BLACK
6
CONTINUOUS
10
342.877
20
-98.3324
11
342.88
21
-98.3387
0
LINE
8
BLACK
6
CONTINUOUS
10
342.88
20
-98.3387
11
342.949
21
-98.5607
0
LINE
8
BLACK
6
CONTINUOUS
10
342.949
20
-98.5607
11
342.949
21
-98.5617
0
LINE
8
BLACK
6
CONTINUOUS
10
342.949
20
-98.5617
11
342.95
21
-98.5684
0
LINE
8
BLACK
6
CONTINUOUS
10
342.95
20
-98.5684
11
342.952
21
-98.575
0
LINE
8
BLACK
6
CONTINUOUS
10
342.952
20
-98.575
11
342.976
21
-98.8061
0
LINE
8
BLACK
6
CONTINUOUS
10
342.976
20
-98.8061
11
342.976
21
-98.8072
0
LINE
8
BLACK
6
CONTINUOUS
10
342.976
20
-98.8072
11
342.976
21
-98.8105
0
LINE
8
BLACK
6
CONTINUOUS
10
342.976
20
-98.8105
11
342.976
21
-98.8137
0
LINE
8
BLACK
6
CONTINUOUS
10
342.976
20
-98.8137
11
342.976
21
-98.8185
0
LINE
8
BLACK
6
CONTINUOUS
10
342.976
20
-98.8185
11
342.976
21
-98.8186
0
LINE
8
BLACK
6
CONTINUOUS
10
342.976
20
-98.8186
11
342.976
21
-183.361
0
LINE
8
BLACK
6
CONTINUOUS
10
342.976
20
-183.361
11
342.976
21
-183.364
0
LINE
8
BLACK
6
CONTINUOUS
10
342.976
20
-183.364
11
342.976
21
-183.364
0
LINE
8
BLACK
6
CONTINUOUS
10
342.976
20
-183.364
11
342.953
21
-183.596
0
LINE
8
BLACK
6
CONTINUOUS
10
342.953
20
-183.596
11
342.953
21
-183.596
0
LINE
8
BLACK
6
CONTINUOUS
10
342.953
20
-183.596
11
342.953
21
-183.596
0
LINE
8
BLACK
6
CONTINUOUS
10
342.953
20
-183.596
11
342.953
21
-183.597
0
LINE
8
BLACK
6
CONTINUOUS
10
342.953
20
-183.597
11
342.952
21
-183.603
0
LINE
8
BLACK
6
CONTINUOUS
10
342.952
20
-183.603
11
342.951
21
-183.61
0
LINE
8
BLACK
6
CONTINUOUS
10
342.951
20
-183.61
11
342.883
21
-183.832
0
LINE
8
BLACK
6
CONTINUOUS
10
342.883
20
-183.832
11
342.883
21
-183.833
0
LINE
8
BLACK
6
CONTINUOUS
10
342.883
20
-183.833
11
342.88
21
-183.84
0
LINE
8
BLACK
6
CONTINUOUS
10
342.88
20
-183.84
11
342.878
21
-183.846
0
LINE
8
BLACK
6
CONTINUOUS
10
342.878
20
-183.846
11
342.769
21
-184.051
0
LINE
8
BLACK
6
CONTINUOUS
10
342.769
20
-184.051
11
342.769
21
-184.051
0
LINE
8
BLACK
6
CONTINUOUS
10
342.769
20
-184.051
11
342.769
21
-184.051
0
LINE
8
BLACK
6
CONTINUOUS
10
342.769
20
-184.051
11
342.768
21
-184.052
0
LINE
8
BLACK
6
CONTINUOUS
10
342.768
20
-184.052
11
342.764
21
-184.058
0
LINE
8
BLACK
6
CONTINUOUS
10
342.764
20
-184.058
11
342.761
21
-184.063
0
LINE
8
BLACK
6
CONTINUOUS
10
342.761
20
-184.063
11
342.614
21
-184.243
0
LINE
8
BLACK
6
CONTINUOUS
10
342.614
20
-184.243
11
342.614
21
-184.243
0
LINE
8
BLACK
6
CONTINUOUS
10
342.614
20
-184.243
11
342.614
21
-184.243
0
LINE
8
BLACK
6
CONTINUOUS
10
342.614
20
-184.243
11
342.613
21
-184.244
0
LINE
8
BLACK
6
CONTINUOUS
10
342.613
20
-184.244
11
342.608
21
-184.249
0
LINE
8
BLACK
6
CONTINUOUS
10
342.608
20
-184.249
11
342.603
21
-184.254
0
LINE
8
BLACK
6
CONTINUOUS
10
342.603
20
-184.254
11
342.424
21
-184.402
0
LINE
8
BLACK
6
CONTINUOUS
10
342.424
20
-184.402
11
342.424
21
-184.403
0
LINE
8
BLACK
6
CONTINUOUS
10
342.424
20
-184.403
11
342.418
21
-184.406
0
LINE
8
BLACK
6
CONTINUOUS
10
342.418
20
-184.406
11
342.412
21
-184.41
0
LINE
8
BLACK
6
CONTINUOUS
10
342.412
20
-184.41
11
342.208
21
-184.521
0
LINE
8
BLACK
6
CONTINUOUS
10
342.208
20
-184.521
11
342.207
21
-184.521
0
LINE
8
BLACK
6
CONTINUOUS
10
342.207
20
-184.521
11
342.201
21
-184.524
0
LINE
8
BLACK
6
CONTINUOUS
10
342.201
20
-184.524
11
342.194
21
-184.526
0
LINE
8
BLACK
6
CONTINUOUS
10
342.194
20
-184.526
11
341.972
21
-184.595
0
LINE
8
BLACK
6
CONTINUOUS
10
341.972
20
-184.595
11
341.972
21
-184.595
0
LINE
8
BLACK
6
CONTINUOUS
10
341.972
20
-184.595
11
341.971
21
-184.595
0
LINE
8
BLACK
6
CONTINUOUS
10
157.168
20
-184.472
11
157.173
21
-184.473
0
LINE
8
BLACK
6
CONTINUOUS
10
157.173
20
-184.473
11
157.178
21
-184.474
0
LINE
8
BLACK
6
CONTINUOUS
10
157.178
20
-184.474
11
157.184
21
-184.475
0
LINE
8
BLACK
6
CONTINUOUS
10
157.184
20
-184.475
11
207.17
21
-197.567
0
LINE
8
BLACK
6
CONTINUOUS
10
207.17
20
-197.567
11
257.156
21
-184.475
0
LINE
8
BLACK
6
CONTINUOUS
10
257.156
20
-184.475
11
257.161
21
-184.474
0
LINE
8
BLACK
6
CONTINUOUS
10
257.161
20
-184.474
11
257.166
21
-184.473
0
LINE
8
BLACK
6
CONTINUOUS
10
257.166
20
-184.473
11
257.172
21
-184.472
0
LINE
8
BLACK
6
CONTINUOUS
10
257.172
20
-184.472
11
257.177
21
-184.473
0
LINE
8
BLACK
6
CONTINUOUS
10
257.177
20
-184.473
11
341.711
21
-184.473
0
LINE
8
BLACK
6
CONTINUOUS
10
341.711
20
-184.473
11
341.715
21
-184.473
0
LINE
8
BLACK
6
CONTINUOUS
10
341.715
20
-184.473
11
341.935
21
-184.45
0
LINE
8
BLACK
6
CONTINUOUS
10
341.935
20
-184.45
11
342.143
21
-184.385
0
LINE
8
BLACK
6
CONTINUOUS
10
342.143
20
-184.385
11
342.334
21
-184.282
0
LINE
8
BLACK
6
CONTINUOUS
10
342.334
20
-184.282
11
342.502
21
-184.143
0
LINE
8
BLACK
6
CONTINUOUS
10
342.502
20
-184.143
11
342.64
21
-183.974
0
LINE
8
BLACK
6
CONTINUOUS
10
342.64
20
-183.974
11
342.742
21
-183.782
0
LINE
8
BLACK
6
CONTINUOUS
10
342.742
20
-183.782
11
342.805
21
-183.574
0
LINE
8
BLACK
6
CONTINUOUS
10
342.805
20
-183.574
11
342.826
21
-183.353
0
LINE
8
BLACK
6
CONTINUOUS
10
342.826
20
-183.353
11
342.826
21
-98.8226
0
LINE
8
BLACK
6
CONTINUOUS
10
342.826
20
-98.8226
11
342.826
21
-98.818
0
LINE
8
BLACK
6
CONTINUOUS
10
342.826
20
-98.818
11
342.803
21
-98.598
0
LINE
8
BLACK
6
CONTINUOUS
10
342.803
20
-98.598
11
342.739
21
-98.3901
0
LINE
8
BLACK
6
CONTINUOUS
10
342.739
20
-98.3901
11
342.635
21
-98.1986
0
LINE
8
BLACK
6
CONTINUOUS
10
342.635
20
-98.1986
11
342.497
21
-98.0309
0
LINE
8
BLACK
6
CONTINUOUS
10
342.497
20
-98.0309
11
342.328
21
-97.8934
0
LINE
8
BLACK
6
CONTINUOUS
10
342.328
20
-97.8934
11
342.136
21
-97.7912
0
LINE
8
BLACK
6
CONTINUOUS
10
342.136
20
-97.7912
11
341.927
21
-97.7283
0
LINE
8
BLACK
6
CONTINUOUS
10
341.927
20
-97.7283
11
341.707
21
-97.7067
0
LINE
8
BLACK
6
CONTINUOUS
10
341.707
20
-97.7067
11
72.6287
21
-97.7067
0
LINE
8
BLACK
6
CONTINUOUS
10
72.6287
20
-97.7067
11
72.6242
21
-97.7067
0
LINE
8
BLACK
6
CONTINUOUS
10
72.6242
20
-97.7067
11
72.4042
21
-97.7298
0
LINE
8
BLACK
6
CONTINUOUS
10
72.4042
20
-97.7298
11
72.1962
21
-97.7942
0
LINE
8
BLACK
6
CONTINUOUS
10
72.1962
20
-97.7942
11
72.0048
21
-97.8977
0
LINE
8
BLACK
6
CONTINUOUS
10
72.0048
20
-97.8977
11
71.8371
21
-98.0364
0
LINE
8
BLACK
6
CONTINUOUS
10
71.8371
20
-98.0364
11
71.6995
21
-98.2051
0
LINE
8
BLACK
6
CONTINUOUS
10
71.6995
20
-98.2051
11
71.5973
21
-98.3973
0
LINE
8
BLACK
6
CONTINUOUS
10
71.5973
20
-98.3973
11
71.5344
21
-98.6057
0
LINE
8
BLACK
6
CONTINUOUS
10
71.5344
20
-98.6057
11
71.5128
21
-98.826
0
LINE
8
BLACK
6
CONTINUOUS
10
71.5128
20
-98.826
11
71.5128
21
-183.357
0
LINE
8
BLACK
6
CONTINUOUS
10
71.5128
20
-183.357
11
71.5128
21
-183.361
0
LINE
8
BLACK
6
CONTINUOUS
10
71.5128
20
-183.361
11
71.5359
21
-183.581
0
LINE
8
BLACK
6
CONTINUOUS
10
71.5359
20
-183.581
11
71.6003
21
-183.789
0
LINE
8
BLACK
6
CONTINUOUS
10
71.6003
20
-183.789
11
71.7038
21
-183.981
0
LINE
8
BLACK
6
CONTINUOUS
10
71.7038
20
-183.981
11
71.8426
21
-184.148
0
LINE
8
BLACK
6
CONTINUOUS
10
71.8426
20
-184.148
11
72.0112
21
-184.286
0
LINE
8
BLACK
6
CONTINUOUS
10
72.0112
20
-184.286
11
72.2034
21
-184.388
0
LINE
8
BLACK
6
CONTINUOUS
10
72.2034
20
-184.388
11
72.4118
21
-184.451
0
LINE
8
BLACK
6
CONTINUOUS
10
72.4118
20
-184.451
11
72.6321
21
-184.473
0
LINE
8
BLACK
6
CONTINUOUS
10
72.6321
20
-184.473
11
157.162
21
-184.473
0
LINE
8
BLACK
6
CONTINUOUS
10
157.162
20
-184.473
11
157.168
21
-184.472
  0
ENDSEC
  0
EOF
