  0
SECTION
  2
HEADER
  9
$ANGBASE
  50
0.0
  9
$ANGDIR
  70
  1
  9
$MEASUREMENT
  70
0
  0
ENDSEC
  0
SECTION
  2
TABLES
  0
TABLE
  2
LTYPE
  70
4
  0
LTYPE
  5
40F
  2
CONTINUOUS
  70
0
  3
Solid line
  72
65
  73
0
  40
0.0
  0
LTYPE
  5
410
  2
DASHDOT
 70
0
  3
Dash Dot ____ _ ____ _
 72
65
 73
4
 40
2.0
 49
1.25
 49
-0.25
 49
0.25
 49
-0.25
  0
LTYPE
  5
411
  2
DASHED
 70
0
  3
Dashed __ __ __ __ __
 72
65
 73
2
 40
0.75
 49
0.5
 49
-0.25
  0
LTYPE
  5
43B
  2
DOTTED
 70
0
  3
Dotted .  .  .  .
 72
65
 73
2
 40
0.2
 49
0.0
 49
-0.2
  0
ENDTAB
  0
TABLE
  2
STYLE
  70
4
  0
STYLE
  2
KICAD
  70
0
  40
0
  41
1
  42
1
  50
0
  71
0
  3
isocp.shx
  0
STYLE
  2
KICADB
  70
0
  40
0
  41
1
  42
1
  50
0
  71
0
  3
isocp.shx
  0
STYLE
  2
KICADI
  70
0
  40
0
  41
1
  42
1
  50
15
  71
0
  3
isocp.shx
  0
STYLE
  2
KICADBI
  70
0
  40
0
  41
1
  42
1
  50
15
  71
0
  3
isocp.shx
  0
ENDTAB
  0
TABLE
  2
LAYER
  70
30
  0
LAYER
  2
BLACK
  70
0
  62
7
  6
CONTINUOUS
  0
LAYER
  2
GRAY1
  70
0
  62
251
  6
CONTINUOUS
  0
LAYER
  2
GRAY2
  70
0
  62
8
  6
CONTINUOUS
  0
LAYER
  2
GRAY3
  70
0
  62
9
  6
CONTINUOUS
  0
LAYER
  2
WHITE
  70
0
  62
7
  6
CONTINUOUS
  0
LAYER
  2
LYELLOW
  70
0
  62
51
  6
CONTINUOUS
  0
LAYER
  2
BLUE1
  70
0
  62
178
  6
CONTINUOUS
  0
LAYER
  2
GREEN1
  70
0
  62
98
  6
CONTINUOUS
  0
LAYER
  2
CYAN1
  70
0
  62
138
  6
CONTINUOUS
  0
LAYER
  2
RED1
  70
0
  62
18
  6
CONTINUOUS
  0
LAYER
  2
MAGENTA1
  70
0
  62
228
  6
CONTINUOUS
  0
LAYER
  2
BROWN1
  70
0
  62
58
  6
CONTINUOUS
  0
LAYER
  2
BLUE2
  70
0
  62
5
  6
CONTINUOUS
  0
LAYER
  2
GREEN2
  70
0
  62
3
  6
CONTINUOUS
  0
LAYER
  2
CYAN2
  70
0
  62
4
  6
CONTINUOUS
  0
LAYER
  2
RED2
  70
0
  62
1
  6
CONTINUOUS
  0
LAYER
  2
MAGENTA2
  70
0
  62
6
  6
CONTINUOUS
  0
LAYER
  2
BROWN2
  70
0
  62
54
  6
CONTINUOUS
  0
LAYER
  2
BLUE3
  70
0
  62
171
  6
CONTINUOUS
  0
LAYER
  2
GREEN3
  70
0
  62
91
  6
CONTINUOUS
  0
LAYER
  2
CYAN3
  70
0
  62
131
  6
CONTINUOUS
  0
LAYER
  2
RED3
  70
0
  62
11
  6
CONTINUOUS
  0
LAYER
  2
MAGENTA3
  70
0
  62
221
  6
CONTINUOUS
  0
LAYER
  2
YELLOW3
  70
0
  62
2
  6
CONTINUOUS
  0
LAYER
  2
BLUE4
  70
0
  62
5
  6
CONTINUOUS
  0
LAYER
  2
GREEN4
  70
0
  62
3
  6
CONTINUOUS
  0
LAYER
  2
CYAN4
  70
0
  62
4
  6
CONTINUOUS
  0
LAYER
  2
RED4
  70
0
  62
1
  6
CONTINUOUS
  0
LAYER
  2
MAGENTA4
  70
0
  62
6
  6
CONTINUOUS
  0
LAYER
  2
YELLOW4
  70
0
  62
2
  6
CONTINUOUS
  0
ENDTAB
  0
ENDSEC
  0
SECTION
  2
ENTITIES
0
LINE
8
BLACK
6
CONTINUOUS
10
236.543
20
-185.833
11
236.537
21
-185.83
0
LINE
8
BLACK
6
CONTINUOUS
10
236.537
20
-185.83
11
236.53
21
-185.826
0
LINE
8
BLACK
6
CONTINUOUS
10
236.53
20
-185.826
11
236.526
21
-185.824
0
LINE
8
BLACK
6
CONTINUOUS
10
236.526
20
-185.824
11
236.517
21
-185.818
0
LINE
8
BLACK
6
CONTINUOUS
10
236.517
20
-185.818
11
236.507
21
-185.807
0
LINE
8
BLACK
6
CONTINUOUS
10
236.507
20
-185.807
11
236.499
21
-185.794
0
LINE
8
BLACK
6
CONTINUOUS
10
236.499
20
-185.794
11
236.495
21
-185.783
0
LINE
8
BLACK
6
CONTINUOUS
10
236.495
20
-185.783
11
236.495
21
-185.783
0
LINE
8
BLACK
6
CONTINUOUS
10
236.495
20
-185.783
11
236.494
21
-185.78
0
LINE
8
BLACK
6
CONTINUOUS
10
236.494
20
-185.78
11
236.493
21
-185.776
0
LINE
8
BLACK
6
CONTINUOUS
10
236.493
20
-185.776
11
232.879
21
-172.289
0
LINE
8
BLACK
6
CONTINUOUS
10
232.879
20
-172.289
11
232.878
21
-172.286
0
LINE
8
BLACK
6
CONTINUOUS
10
232.878
20
-172.286
11
232.876
21
-172.271
0
LINE
8
BLACK
6
CONTINUOUS
10
232.876
20
-172.271
11
232.876
21
-172.256
0
LINE
8
BLACK
6
CONTINUOUS
10
232.876
20
-172.256
11
232.88
21
-172.241
0
LINE
8
BLACK
6
CONTINUOUS
10
232.88
20
-172.241
11
232.886
21
-172.228
0
LINE
8
BLACK
6
CONTINUOUS
10
232.886
20
-172.228
11
232.895
21
-172.216
0
LINE
8
BLACK
6
CONTINUOUS
10
232.895
20
-172.216
11
232.906
21
-172.205
0
LINE
8
BLACK
6
CONTINUOUS
10
232.906
20
-172.205
11
232.918
21
-172.197
0
LINE
8
BLACK
6
CONTINUOUS
10
232.918
20
-172.197
11
232.928
21
-172.194
0
LINE
8
BLACK
6
CONTINUOUS
10
232.928
20
-172.194
11
232.932
21
-172.192
0
LINE
8
BLACK
6
CONTINUOUS
10
232.932
20
-172.192
11
232.936
21
-172.192
0
LINE
8
BLACK
6
CONTINUOUS
10
232.936
20
-172.192
11
246.423
21
-168.578
0
LINE
8
BLACK
6
CONTINUOUS
10
246.423
20
-168.578
11
246.426
21
-168.576
0
LINE
8
BLACK
6
CONTINUOUS
10
246.426
20
-168.576
11
246.438
21
-168.574
0
LINE
8
BLACK
6
CONTINUOUS
10
246.438
20
-168.574
11
246.441
21
-168.574
0
LINE
8
BLACK
6
CONTINUOUS
10
246.441
20
-168.574
11
246.441
21
-168.574
0
LINE
8
BLACK
6
CONTINUOUS
10
246.441
20
-168.574
11
246.456
21
-168.574
0
LINE
8
BLACK
6
CONTINUOUS
10
246.456
20
-168.574
11
246.471
21
-168.578
0
LINE
8
BLACK
6
CONTINUOUS
10
246.471
20
-168.578
11
246.484
21
-168.584
0
LINE
8
BLACK
6
CONTINUOUS
10
246.484
20
-168.584
11
246.497
21
-168.593
0
LINE
8
BLACK
6
CONTINUOUS
10
246.497
20
-168.593
11
246.507
21
-168.604
0
LINE
8
BLACK
6
CONTINUOUS
10
246.507
20
-168.604
11
246.515
21
-168.617
0
LINE
8
BLACK
6
CONTINUOUS
10
246.515
20
-168.617
11
246.519
21
-168.627
0
LINE
8
BLACK
6
CONTINUOUS
10
246.519
20
-168.627
11
246.519
21
-168.627
0
LINE
8
BLACK
6
CONTINUOUS
10
246.519
20
-168.627
11
246.52
21
-168.631
0
LINE
8
BLACK
6
CONTINUOUS
10
246.52
20
-168.631
11
246.521
21
-168.634
0
LINE
8
BLACK
6
CONTINUOUS
10
246.521
20
-168.634
11
250.134
21
-182.121
0
LINE
8
BLACK
6
CONTINUOUS
10
250.134
20
-182.121
11
250.136
21
-182.125
0
LINE
8
BLACK
6
CONTINUOUS
10
250.136
20
-182.125
11
250.138
21
-182.139
0
LINE
8
BLACK
6
CONTINUOUS
10
250.138
20
-182.139
11
250.138
21
-182.154
0
LINE
8
BLACK
6
CONTINUOUS
10
250.138
20
-182.154
11
250.134
21
-182.169
0
LINE
8
BLACK
6
CONTINUOUS
10
250.134
20
-182.169
11
250.128
21
-182.183
0
LINE
8
BLACK
6
CONTINUOUS
10
250.128
20
-182.183
11
250.119
21
-182.195
0
LINE
8
BLACK
6
CONTINUOUS
10
250.119
20
-182.195
11
250.108
21
-182.205
0
LINE
8
BLACK
6
CONTINUOUS
10
250.108
20
-182.205
11
250.096
21
-182.213
0
LINE
8
BLACK
6
CONTINUOUS
10
250.096
20
-182.213
11
250.085
21
-182.217
0
LINE
8
BLACK
6
CONTINUOUS
10
250.085
20
-182.217
11
250.085
21
-182.217
0
LINE
8
BLACK
6
CONTINUOUS
10
250.085
20
-182.217
11
250.082
21
-182.218
0
LINE
8
BLACK
6
CONTINUOUS
10
250.082
20
-182.218
11
250.078
21
-182.219
0
LINE
8
BLACK
6
CONTINUOUS
10
250.078
20
-182.219
11
236.591
21
-185.833
0
LINE
8
BLACK
6
CONTINUOUS
10
236.591
20
-185.833
11
236.588
21
-185.834
0
LINE
8
BLACK
6
CONTINUOUS
10
236.588
20
-185.834
11
236.584
21
-185.835
0
LINE
8
BLACK
6
CONTINUOUS
10
236.584
20
-185.835
11
236.584
21
-185.835
0
LINE
8
BLACK
6
CONTINUOUS
10
236.584
20
-185.835
11
236.573
21
-185.836
0
LINE
8
BLACK
6
CONTINUOUS
10
236.573
20
-185.836
11
236.558
21
-185.836
0
LINE
8
BLACK
6
CONTINUOUS
10
236.558
20
-185.836
11
236.543
21
-185.833
0
LINE
8
BLACK
6
CONTINUOUS
10
233.045
20
-172.32
11
236.622
21
-185.667
0
LINE
8
BLACK
6
CONTINUOUS
10
236.622
20
-185.667
11
249.968
21
-182.09
0
LINE
8
BLACK
6
CONTINUOUS
10
249.968
20
-182.09
11
246.392
21
-168.744
0
LINE
8
BLACK
6
CONTINUOUS
10
246.392
20
-168.744
11
233.045
21
-172.32
0
LINE
8
BLACK
6
CONTINUOUS
10
177.685
20
-185.829
11
177.673
21
-185.827
0
LINE
8
BLACK
6
CONTINUOUS
10
177.673
20
-185.827
11
177.67
21
-185.826
0
LINE
8
BLACK
6
CONTINUOUS
10
177.67
20
-185.826
11
164.183
21
-182.212
0
LINE
8
BLACK
6
CONTINUOUS
10
164.183
20
-182.212
11
164.179
21
-182.212
0
LINE
8
BLACK
6
CONTINUOUS
10
164.179
20
-182.212
11
164.165
21
-182.206
0
LINE
8
BLACK
6
CONTINUOUS
10
164.165
20
-182.206
11
164.152
21
-182.198
0
LINE
8
BLACK
6
CONTINUOUS
10
164.152
20
-182.198
11
164.141
21
-182.188
0
LINE
8
BLACK
6
CONTINUOUS
10
164.141
20
-182.188
11
164.133
21
-182.176
0
LINE
8
BLACK
6
CONTINUOUS
10
164.133
20
-182.176
11
164.127
21
-182.162
0
LINE
8
BLACK
6
CONTINUOUS
10
164.127
20
-182.162
11
164.123
21
-182.148
0
LINE
8
BLACK
6
CONTINUOUS
10
164.123
20
-182.148
11
164.123
21
-182.133
0
LINE
8
BLACK
6
CONTINUOUS
10
164.123
20
-182.133
11
164.123
21
-182.128
0
LINE
8
BLACK
6
CONTINUOUS
10
164.123
20
-182.128
11
164.125
21
-182.118
0
LINE
8
BLACK
6
CONTINUOUS
10
164.125
20
-182.118
11
164.126
21
-182.114
0
LINE
8
BLACK
6
CONTINUOUS
10
164.126
20
-182.114
11
167.74
21
-168.628
0
LINE
8
BLACK
6
CONTINUOUS
10
167.74
20
-168.628
11
167.741
21
-168.624
0
LINE
8
BLACK
6
CONTINUOUS
10
167.741
20
-168.624
11
167.742
21
-168.62
0
LINE
8
BLACK
6
CONTINUOUS
10
167.742
20
-168.62
11
167.742
21
-168.62
0
LINE
8
BLACK
6
CONTINUOUS
10
167.742
20
-168.62
11
167.746
21
-168.61
0
LINE
8
BLACK
6
CONTINUOUS
10
167.746
20
-168.61
11
167.754
21
-168.597
0
LINE
8
BLACK
6
CONTINUOUS
10
167.754
20
-168.597
11
167.764
21
-168.586
0
LINE
8
BLACK
6
CONTINUOUS
10
167.764
20
-168.586
11
167.776
21
-168.577
0
LINE
8
BLACK
6
CONTINUOUS
10
167.776
20
-168.577
11
167.776
21
-168.577
0
LINE
8
BLACK
6
CONTINUOUS
10
167.776
20
-168.577
11
167.776
21
-168.577
0
LINE
8
BLACK
6
CONTINUOUS
10
167.776
20
-168.577
11
167.784
21
-168.574
0
LINE
8
BLACK
6
CONTINUOUS
10
167.784
20
-168.574
11
167.79
21
-168.571
0
LINE
8
BLACK
6
CONTINUOUS
10
167.79
20
-168.571
11
167.805
21
-168.568
0
LINE
8
BLACK
6
CONTINUOUS
10
167.805
20
-168.568
11
167.82
21
-168.567
0
LINE
8
BLACK
6
CONTINUOUS
10
167.82
20
-168.567
11
167.831
21
-168.569
0
LINE
8
BLACK
6
CONTINUOUS
10
167.831
20
-168.569
11
167.831
21
-168.569
0
LINE
8
BLACK
6
CONTINUOUS
10
167.831
20
-168.569
11
167.835
21
-168.57
0
LINE
8
BLACK
6
CONTINUOUS
10
167.835
20
-168.57
11
167.838
21
-168.571
0
LINE
8
BLACK
6
CONTINUOUS
10
167.838
20
-168.571
11
181.325
21
-172.185
0
LINE
8
BLACK
6
CONTINUOUS
10
181.325
20
-172.185
11
181.329
21
-172.185
0
LINE
8
BLACK
6
CONTINUOUS
10
181.329
20
-172.185
11
181.332
21
-172.187
0
LINE
8
BLACK
6
CONTINUOUS
10
181.332
20
-172.187
11
181.332
21
-172.187
0
LINE
8
BLACK
6
CONTINUOUS
10
181.332
20
-172.187
11
181.343
21
-172.191
0
LINE
8
BLACK
6
CONTINUOUS
10
181.343
20
-172.191
11
181.355
21
-172.199
0
LINE
8
BLACK
6
CONTINUOUS
10
181.355
20
-172.199
11
181.366
21
-172.209
0
LINE
8
BLACK
6
CONTINUOUS
10
181.366
20
-172.209
11
181.375
21
-172.221
0
LINE
8
BLACK
6
CONTINUOUS
10
181.375
20
-172.221
11
181.381
21
-172.235
0
LINE
8
BLACK
6
CONTINUOUS
10
181.381
20
-172.235
11
181.385
21
-172.249
0
LINE
8
BLACK
6
CONTINUOUS
10
181.385
20
-172.249
11
181.385
21
-172.264
0
LINE
8
BLACK
6
CONTINUOUS
10
181.385
20
-172.264
11
181.383
21
-172.279
0
LINE
8
BLACK
6
CONTINUOUS
10
181.383
20
-172.279
11
181.381
21
-172.283
0
LINE
8
BLACK
6
CONTINUOUS
10
181.381
20
-172.283
11
177.768
21
-185.769
0
LINE
8
BLACK
6
CONTINUOUS
10
177.768
20
-185.769
11
177.767
21
-185.773
0
LINE
8
BLACK
6
CONTINUOUS
10
177.767
20
-185.773
11
177.766
21
-185.777
0
LINE
8
BLACK
6
CONTINUOUS
10
177.766
20
-185.777
11
177.766
21
-185.777
0
LINE
8
BLACK
6
CONTINUOUS
10
177.766
20
-185.777
11
177.762
21
-185.787
0
LINE
8
BLACK
6
CONTINUOUS
10
177.762
20
-185.787
11
177.754
21
-185.8
0
LINE
8
BLACK
6
CONTINUOUS
10
177.754
20
-185.8
11
177.743
21
-185.811
0
LINE
8
BLACK
6
CONTINUOUS
10
177.743
20
-185.811
11
177.731
21
-185.82
0
LINE
8
BLACK
6
CONTINUOUS
10
177.731
20
-185.82
11
177.718
21
-185.826
0
LINE
8
BLACK
6
CONTINUOUS
10
177.718
20
-185.826
11
177.703
21
-185.829
0
LINE
8
BLACK
6
CONTINUOUS
10
177.703
20
-185.829
11
177.688
21
-185.83
0
LINE
8
BLACK
6
CONTINUOUS
10
177.688
20
-185.83
11
177.688
21
-185.83
0
LINE
8
BLACK
6
CONTINUOUS
10
177.688
20
-185.83
11
177.685
21
-185.829
0
LINE
8
BLACK
6
CONTINUOUS
10
164.292
20
-182.084
11
177.639
21
-185.66
0
LINE
8
BLACK
6
CONTINUOUS
10
177.639
20
-185.66
11
181.215
21
-172.313
0
LINE
8
BLACK
6
CONTINUOUS
10
181.215
20
-172.313
11
167.869
21
-168.737
0
LINE
8
BLACK
6
CONTINUOUS
10
167.869
20
-168.737
11
164.292
21
-182.084
0
LINE
8
BLACK
6
CONTINUOUS
10
273.244
20
-164.168
11
273.259
21
-164.171
0
LINE
8
BLACK
6
CONTINUOUS
10
273.259
20
-164.171
11
273.273
21
-164.177
0
LINE
8
BLACK
6
CONTINUOUS
10
273.273
20
-164.177
11
273.285
21
-164.185
0
LINE
8
BLACK
6
CONTINUOUS
10
273.285
20
-164.185
11
273.295
21
-164.196
0
LINE
8
BLACK
6
CONTINUOUS
10
273.295
20
-164.196
11
273.304
21
-164.209
0
LINE
8
BLACK
6
CONTINUOUS
10
273.304
20
-164.209
11
273.309
21
-164.221
0
LINE
8
BLACK
6
CONTINUOUS
10
273.309
20
-164.221
11
273.309
21
-164.223
0
LINE
8
BLACK
6
CONTINUOUS
10
273.309
20
-164.223
11
273.312
21
-164.237
0
LINE
8
BLACK
6
CONTINUOUS
10
273.312
20
-164.237
11
273.312
21
-164.241
0
LINE
8
BLACK
6
CONTINUOUS
10
273.312
20
-164.241
11
274.529
21
-178.151
0
LINE
8
BLACK
6
CONTINUOUS
10
274.529
20
-178.151
11
274.53
21
-178.154
0
LINE
8
BLACK
6
CONTINUOUS
10
274.53
20
-178.154
11
274.529
21
-178.169
0
LINE
8
BLACK
6
CONTINUOUS
10
274.529
20
-178.169
11
274.526
21
-178.184
0
LINE
8
BLACK
6
CONTINUOUS
10
274.526
20
-178.184
11
274.52
21
-178.198
0
LINE
8
BLACK
6
CONTINUOUS
10
274.52
20
-178.198
11
274.512
21
-178.21
0
LINE
8
BLACK
6
CONTINUOUS
10
274.512
20
-178.21
11
274.501
21
-178.221
0
LINE
8
BLACK
6
CONTINUOUS
10
274.501
20
-178.221
11
274.489
21
-178.229
0
LINE
8
BLACK
6
CONTINUOUS
10
274.489
20
-178.229
11
274.475
21
-178.234
0
LINE
8
BLACK
6
CONTINUOUS
10
274.475
20
-178.234
11
274.464
21
-178.236
0
LINE
8
BLACK
6
CONTINUOUS
10
274.464
20
-178.236
11
274.464
21
-178.236
0
LINE
8
BLACK
6
CONTINUOUS
10
274.464
20
-178.236
11
274.46
21
-178.237
0
LINE
8
BLACK
6
CONTINUOUS
10
274.46
20
-178.237
11
274.456
21
-178.237
0
LINE
8
BLACK
6
CONTINUOUS
10
274.456
20
-178.237
11
260.547
21
-179.454
0
LINE
8
BLACK
6
CONTINUOUS
10
260.547
20
-179.454
11
260.543
21
-179.455
0
LINE
8
BLACK
6
CONTINUOUS
10
260.543
20
-179.455
11
260.528
21
-179.455
0
LINE
8
BLACK
6
CONTINUOUS
10
260.528
20
-179.455
11
260.513
21
-179.451
0
LINE
8
BLACK
6
CONTINUOUS
10
260.513
20
-179.451
11
260.5
21
-179.446
0
LINE
8
BLACK
6
CONTINUOUS
10
260.5
20
-179.446
11
260.487
21
-179.437
0
LINE
8
BLACK
6
CONTINUOUS
10
260.487
20
-179.437
11
260.477
21
-179.426
0
LINE
8
BLACK
6
CONTINUOUS
10
260.477
20
-179.426
11
260.469
21
-179.414
0
LINE
8
BLACK
6
CONTINUOUS
10
260.469
20
-179.414
11
260.463
21
-179.4
0
LINE
8
BLACK
6
CONTINUOUS
10
260.463
20
-179.4
11
260.461
21
-179.389
0
LINE
8
BLACK
6
CONTINUOUS
10
260.461
20
-179.389
11
260.461
21
-179.389
0
LINE
8
BLACK
6
CONTINUOUS
10
260.461
20
-179.389
11
260.46
21
-179.385
0
LINE
8
BLACK
6
CONTINUOUS
10
260.46
20
-179.385
11
260.46
21
-179.381
0
LINE
8
BLACK
6
CONTINUOUS
10
260.46
20
-179.381
11
259.243
21
-165.472
0
LINE
8
BLACK
6
CONTINUOUS
10
259.243
20
-165.472
11
259.243
21
-165.468
0
LINE
8
BLACK
6
CONTINUOUS
10
259.243
20
-165.468
11
259.243
21
-165.453
0
LINE
8
BLACK
6
CONTINUOUS
10
259.243
20
-165.453
11
259.246
21
-165.439
0
LINE
8
BLACK
6
CONTINUOUS
10
259.246
20
-165.439
11
259.252
21
-165.425
0
LINE
8
BLACK
6
CONTINUOUS
10
259.252
20
-165.425
11
259.26
21
-165.412
0
LINE
8
BLACK
6
CONTINUOUS
10
259.26
20
-165.412
11
259.271
21
-165.402
0
LINE
8
BLACK
6
CONTINUOUS
10
259.271
20
-165.402
11
259.284
21
-165.394
0
LINE
8
BLACK
6
CONTINUOUS
10
259.284
20
-165.394
11
259.297
21
-165.388
0
LINE
8
BLACK
6
CONTINUOUS
10
259.297
20
-165.388
11
259.308
21
-165.386
0
LINE
8
BLACK
6
CONTINUOUS
10
259.308
20
-165.386
11
259.308
21
-165.386
0
LINE
8
BLACK
6
CONTINUOUS
10
259.308
20
-165.386
11
259.312
21
-165.385
0
LINE
8
BLACK
6
CONTINUOUS
10
259.312
20
-165.385
11
259.316
21
-165.385
0
LINE
8
BLACK
6
CONTINUOUS
10
259.316
20
-165.385
11
273.225
21
-164.168
0
LINE
8
BLACK
6
CONTINUOUS
10
273.225
20
-164.168
11
273.229
21
-164.168
0
LINE
8
BLACK
6
CONTINUOUS
10
273.229
20
-164.168
11
273.244
21
-164.168
0
LINE
8
BLACK
6
CONTINUOUS
10
259.401
20
-165.531
11
260.606
21
-179.296
0
LINE
8
BLACK
6
CONTINUOUS
10
260.606
20
-179.296
11
274.371
21
-178.092
0
LINE
8
BLACK
6
CONTINUOUS
10
274.371
20
-178.092
11
273.166
21
-164.327
0
LINE
8
BLACK
6
CONTINUOUS
10
273.166
20
-164.327
11
259.401
21
-165.531
0
LINE
8
BLACK
6
CONTINUOUS
10
141.113
20
-164.168
11
155.022
21
-165.385
0
LINE
8
BLACK
6
CONTINUOUS
10
155.022
20
-165.385
11
155.026
21
-165.385
0
LINE
8
BLACK
6
CONTINUOUS
10
155.026
20
-165.385
11
155.03
21
-165.386
0
LINE
8
BLACK
6
CONTINUOUS
10
155.03
20
-165.386
11
155.03
21
-165.386
0
LINE
8
BLACK
6
CONTINUOUS
10
155.03
20
-165.386
11
155.041
21
-165.388
0
LINE
8
BLACK
6
CONTINUOUS
10
155.041
20
-165.388
11
155.055
21
-165.394
0
LINE
8
BLACK
6
CONTINUOUS
10
155.055
20
-165.394
11
155.067
21
-165.402
0
LINE
8
BLACK
6
CONTINUOUS
10
155.067
20
-165.402
11
155.078
21
-165.412
0
LINE
8
BLACK
6
CONTINUOUS
10
155.078
20
-165.412
11
155.086
21
-165.425
0
LINE
8
BLACK
6
CONTINUOUS
10
155.086
20
-165.425
11
155.092
21
-165.439
0
LINE
8
BLACK
6
CONTINUOUS
10
155.092
20
-165.439
11
155.095
21
-165.453
0
LINE
8
BLACK
6
CONTINUOUS
10
155.095
20
-165.453
11
155.096
21
-165.468
0
LINE
8
BLACK
6
CONTINUOUS
10
155.096
20
-165.468
11
155.095
21
-165.472
0
LINE
8
BLACK
6
CONTINUOUS
10
155.095
20
-165.472
11
153.878
21
-179.381
0
LINE
8
BLACK
6
CONTINUOUS
10
153.878
20
-179.381
11
153.878
21
-179.385
0
LINE
8
BLACK
6
CONTINUOUS
10
153.878
20
-179.385
11
153.877
21
-179.389
0
LINE
8
BLACK
6
CONTINUOUS
10
153.877
20
-179.389
11
153.877
21
-179.389
0
LINE
8
BLACK
6
CONTINUOUS
10
153.877
20
-179.389
11
153.875
21
-179.4
0
LINE
8
BLACK
6
CONTINUOUS
10
153.875
20
-179.4
11
153.87
21
-179.414
0
LINE
8
BLACK
6
CONTINUOUS
10
153.87
20
-179.414
11
153.861
21
-179.426
0
LINE
8
BLACK
6
CONTINUOUS
10
153.861
20
-179.426
11
153.851
21
-179.437
0
LINE
8
BLACK
6
CONTINUOUS
10
153.851
20
-179.437
11
153.839
21
-179.446
0
LINE
8
BLACK
6
CONTINUOUS
10
153.839
20
-179.446
11
153.825
21
-179.451
0
LINE
8
BLACK
6
CONTINUOUS
10
153.825
20
-179.451
11
153.81
21
-179.455
0
LINE
8
BLACK
6
CONTINUOUS
10
153.81
20
-179.455
11
153.795
21
-179.455
0
LINE
8
BLACK
6
CONTINUOUS
10
153.795
20
-179.455
11
153.791
21
-179.454
0
LINE
8
BLACK
6
CONTINUOUS
10
153.791
20
-179.454
11
139.882
21
-178.237
0
LINE
8
BLACK
6
CONTINUOUS
10
139.882
20
-178.237
11
139.878
21
-178.237
0
LINE
8
BLACK
6
CONTINUOUS
10
139.878
20
-178.237
11
139.875
21
-178.236
0
LINE
8
BLACK
6
CONTINUOUS
10
139.875
20
-178.236
11
139.875
21
-178.236
0
LINE
8
BLACK
6
CONTINUOUS
10
139.875
20
-178.236
11
139.864
21
-178.234
0
LINE
8
BLACK
6
CONTINUOUS
10
139.864
20
-178.234
11
139.85
21
-178.229
0
LINE
8
BLACK
6
CONTINUOUS
10
139.85
20
-178.229
11
139.837
21
-178.221
0
LINE
8
BLACK
6
CONTINUOUS
10
139.837
20
-178.221
11
139.826
21
-178.21
0
LINE
8
BLACK
6
CONTINUOUS
10
139.826
20
-178.21
11
139.818
21
-178.198
0
LINE
8
BLACK
6
CONTINUOUS
10
139.818
20
-178.198
11
139.812
21
-178.184
0
LINE
8
BLACK
6
CONTINUOUS
10
139.812
20
-178.184
11
139.809
21
-178.169
0
LINE
8
BLACK
6
CONTINUOUS
10
139.809
20
-178.169
11
139.809
21
-178.154
0
LINE
8
BLACK
6
CONTINUOUS
10
139.809
20
-178.154
11
139.809
21
-178.151
0
LINE
8
BLACK
6
CONTINUOUS
10
139.809
20
-178.151
11
141.026
21
-164.241
0
LINE
8
BLACK
6
CONTINUOUS
10
141.026
20
-164.241
11
141.026
21
-164.237
0
LINE
8
BLACK
6
CONTINUOUS
10
141.026
20
-164.237
11
141.027
21
-164.234
0
LINE
8
BLACK
6
CONTINUOUS
10
141.027
20
-164.234
11
141.027
21
-164.234
0
LINE
8
BLACK
6
CONTINUOUS
10
141.027
20
-164.234
11
141.029
21
-164.223
0
LINE
8
BLACK
6
CONTINUOUS
10
141.029
20
-164.223
11
141.035
21
-164.209
0
LINE
8
BLACK
6
CONTINUOUS
10
141.035
20
-164.209
11
141.043
21
-164.196
0
LINE
8
BLACK
6
CONTINUOUS
10
141.043
20
-164.196
11
141.053
21
-164.185
0
LINE
8
BLACK
6
CONTINUOUS
10
141.053
20
-164.185
11
141.066
21
-164.177
0
LINE
8
BLACK
6
CONTINUOUS
10
141.066
20
-164.177
11
141.079
21
-164.171
0
LINE
8
BLACK
6
CONTINUOUS
10
141.079
20
-164.171
11
141.094
21
-164.168
0
LINE
8
BLACK
6
CONTINUOUS
10
141.094
20
-164.168
11
141.109
21
-164.168
0
LINE
8
BLACK
6
CONTINUOUS
10
141.109
20
-164.168
11
141.113
21
-164.168
0
LINE
8
BLACK
6
CONTINUOUS
10
139.967
20
-178.092
11
153.733
21
-179.296
0
LINE
8
BLACK
6
CONTINUOUS
10
153.733
20
-179.296
11
154.937
21
-165.531
0
LINE
8
BLACK
6
CONTINUOUS
10
154.937
20
-165.531
11
141.172
21
-164.327
0
LINE
8
BLACK
6
CONTINUOUS
10
141.172
20
-164.327
11
139.967
21
-178.092
0
LINE
8
BLACK
6
CONTINUOUS
10
88.6762
20
-162.449
11
102.586
21
-163.666
0
LINE
8
BLACK
6
CONTINUOUS
10
102.586
20
-163.666
11
102.589
21
-163.666
0
LINE
8
BLACK
6
CONTINUOUS
10
102.589
20
-163.666
11
102.593
21
-163.667
0
LINE
8
BLACK
6
CONTINUOUS
10
102.593
20
-163.667
11
102.593
21
-163.667
0
LINE
8
BLACK
6
CONTINUOUS
10
102.593
20
-163.667
11
102.604
21
-163.669
0
LINE
8
BLACK
6
CONTINUOUS
10
102.604
20
-163.669
11
102.618
21
-163.674
0
LINE
8
BLACK
6
CONTINUOUS
10
102.618
20
-163.674
11
102.631
21
-163.683
0
LINE
8
BLACK
6
CONTINUOUS
10
102.631
20
-163.683
11
102.641
21
-163.693
0
LINE
8
BLACK
6
CONTINUOUS
10
102.641
20
-163.693
11
102.65
21
-163.706
0
LINE
8
BLACK
6
CONTINUOUS
10
102.65
20
-163.706
11
102.656
21
-163.719
0
LINE
8
BLACK
6
CONTINUOUS
10
102.656
20
-163.719
11
102.659
21
-163.734
0
LINE
8
BLACK
6
CONTINUOUS
10
102.659
20
-163.734
11
102.659
21
-163.749
0
LINE
8
BLACK
6
CONTINUOUS
10
102.659
20
-163.749
11
102.658
21
-163.753
0
LINE
8
BLACK
6
CONTINUOUS
10
102.658
20
-163.753
11
101.441
21
-177.662
0
LINE
8
BLACK
6
CONTINUOUS
10
101.441
20
-177.662
11
101.441
21
-177.666
0
LINE
8
BLACK
6
CONTINUOUS
10
101.441
20
-177.666
11
101.441
21
-177.67
0
LINE
8
BLACK
6
CONTINUOUS
10
101.441
20
-177.67
11
101.441
21
-177.67
0
LINE
8
BLACK
6
CONTINUOUS
10
101.441
20
-177.67
11
101.439
21
-177.681
0
LINE
8
BLACK
6
CONTINUOUS
10
101.439
20
-177.681
11
101.433
21
-177.695
0
LINE
8
BLACK
6
CONTINUOUS
10
101.433
20
-177.695
11
101.425
21
-177.707
0
LINE
8
BLACK
6
CONTINUOUS
10
101.425
20
-177.707
11
101.414
21
-177.718
0
LINE
8
BLACK
6
CONTINUOUS
10
101.414
20
-177.718
11
101.402
21
-177.726
0
LINE
8
BLACK
6
CONTINUOUS
10
101.402
20
-177.726
11
101.388
21
-177.732
0
LINE
8
BLACK
6
CONTINUOUS
10
101.388
20
-177.732
11
101.373
21
-177.735
0
LINE
8
BLACK
6
CONTINUOUS
10
101.373
20
-177.735
11
101.358
21
-177.736
0
LINE
8
BLACK
6
CONTINUOUS
10
101.358
20
-177.736
11
101.355
21
-177.735
0
LINE
8
BLACK
6
CONTINUOUS
10
101.355
20
-177.735
11
87.4453
21
-176.518
0
LINE
8
BLACK
6
CONTINUOUS
10
87.4453
20
-176.518
11
87.4416
21
-176.518
0
LINE
8
BLACK
6
CONTINUOUS
10
87.4416
20
-176.518
11
87.4379
21
-176.517
0
LINE
8
BLACK
6
CONTINUOUS
10
87.4379
20
-176.517
11
87.4379
21
-176.517
0
LINE
8
BLACK
6
CONTINUOUS
10
87.4379
20
-176.517
11
87.4268
21
-176.515
0
LINE
8
BLACK
6
CONTINUOUS
10
87.4268
20
-176.515
11
87.4129
21
-176.51
0
LINE
8
BLACK
6
CONTINUOUS
10
87.4129
20
-176.51
11
87.4003
21
-176.501
0
LINE
8
BLACK
6
CONTINUOUS
10
87.4003
20
-176.501
11
87.3896
21
-176.491
0
LINE
8
BLACK
6
CONTINUOUS
10
87.3896
20
-176.491
11
87.3811
21
-176.478
0
LINE
8
BLACK
6
CONTINUOUS
10
87.3811
20
-176.478
11
87.3752
21
-176.465
0
LINE
8
BLACK
6
CONTINUOUS
10
87.3752
20
-176.465
11
87.3721
21
-176.45
0
LINE
8
BLACK
6
CONTINUOUS
10
87.3721
20
-176.45
11
87.372
21
-176.435
0
LINE
8
BLACK
6
CONTINUOUS
10
87.372
20
-176.435
11
87.3727
21
-176.431
0
LINE
8
BLACK
6
CONTINUOUS
10
87.3727
20
-176.431
11
88.5896
21
-162.522
0
LINE
8
BLACK
6
CONTINUOUS
10
88.5896
20
-162.522
11
88.5895
21
-162.518
0
LINE
8
BLACK
6
CONTINUOUS
10
88.5895
20
-162.518
11
88.5902
21
-162.514
0
LINE
8
BLACK
6
CONTINUOUS
10
88.5902
20
-162.514
11
88.5902
21
-162.514
0
LINE
8
BLACK
6
CONTINUOUS
10
88.5902
20
-162.514
11
88.5923
21
-162.503
0
LINE
8
BLACK
6
CONTINUOUS
10
88.5923
20
-162.503
11
88.5979
21
-162.489
0
LINE
8
BLACK
6
CONTINUOUS
10
88.5979
20
-162.489
11
88.6061
21
-162.477
0
LINE
8
BLACK
6
CONTINUOUS
10
88.6061
20
-162.477
11
88.6166
21
-162.466
0
LINE
8
BLACK
6
CONTINUOUS
10
88.6166
20
-162.466
11
88.629
21
-162.458
0
LINE
8
BLACK
6
CONTINUOUS
10
88.629
20
-162.458
11
88.6428
21
-162.452
0
LINE
8
BLACK
6
CONTINUOUS
10
88.6428
20
-162.452
11
88.6575
21
-162.449
0
LINE
8
BLACK
6
CONTINUOUS
10
88.6575
20
-162.449
11
88.6725
21
-162.449
0
LINE
8
BLACK
6
CONTINUOUS
10
88.6725
20
-162.449
11
88.6762
21
-162.449
0
LINE
8
BLACK
6
CONTINUOUS
10
87.5308
20
-176.372
11
101.296
21
-177.577
0
LINE
8
BLACK
6
CONTINUOUS
10
101.296
20
-177.577
11
102.5
21
-163.812
0
LINE
8
BLACK
6
CONTINUOUS
10
102.5
20
-163.812
11
88.7351
21
-162.607
0
LINE
8
BLACK
6
CONTINUOUS
10
88.7351
20
-162.607
11
87.5308
21
-176.372
0
LINE
8
BLACK
6
CONTINUOUS
10
325.682
20
-162.449
11
325.696
21
-162.452
0
LINE
8
BLACK
6
CONTINUOUS
10
325.696
20
-162.452
11
325.71
21
-162.458
0
LINE
8
BLACK
6
CONTINUOUS
10
325.71
20
-162.458
11
325.723
21
-162.466
0
LINE
8
BLACK
6
CONTINUOUS
10
325.723
20
-162.466
11
325.733
21
-162.477
0
LINE
8
BLACK
6
CONTINUOUS
10
325.733
20
-162.477
11
325.741
21
-162.489
0
LINE
8
BLACK
6
CONTINUOUS
10
325.741
20
-162.489
11
325.746
21
-162.502
0
LINE
8
BLACK
6
CONTINUOUS
10
325.746
20
-162.502
11
325.747
21
-162.503
0
LINE
8
BLACK
6
CONTINUOUS
10
325.747
20
-162.503
11
325.75
21
-162.518
0
LINE
8
BLACK
6
CONTINUOUS
10
325.75
20
-162.518
11
325.75
21
-162.522
0
LINE
8
BLACK
6
CONTINUOUS
10
325.75
20
-162.522
11
326.967
21
-176.431
0
LINE
8
BLACK
6
CONTINUOUS
10
326.967
20
-176.431
11
326.967
21
-176.435
0
LINE
8
BLACK
6
CONTINUOUS
10
326.967
20
-176.435
11
326.967
21
-176.45
0
LINE
8
BLACK
6
CONTINUOUS
10
326.967
20
-176.45
11
326.964
21
-176.465
0
LINE
8
BLACK
6
CONTINUOUS
10
326.964
20
-176.465
11
326.958
21
-176.478
0
LINE
8
BLACK
6
CONTINUOUS
10
326.958
20
-176.478
11
326.95
21
-176.491
0
LINE
8
BLACK
6
CONTINUOUS
10
326.95
20
-176.491
11
326.939
21
-176.501
0
LINE
8
BLACK
6
CONTINUOUS
10
326.939
20
-176.501
11
326.926
21
-176.51
0
LINE
8
BLACK
6
CONTINUOUS
10
326.926
20
-176.51
11
326.912
21
-176.515
0
LINE
8
BLACK
6
CONTINUOUS
10
326.912
20
-176.515
11
326.901
21
-176.517
0
LINE
8
BLACK
6
CONTINUOUS
10
326.901
20
-176.517
11
326.901
21
-176.517
0
LINE
8
BLACK
6
CONTINUOUS
10
326.901
20
-176.517
11
326.898
21
-176.518
0
LINE
8
BLACK
6
CONTINUOUS
10
326.898
20
-176.518
11
326.894
21
-176.518
0
LINE
8
BLACK
6
CONTINUOUS
10
326.894
20
-176.518
11
312.984
21
-177.735
0
LINE
8
BLACK
6
CONTINUOUS
10
312.984
20
-177.735
11
312.981
21
-177.735
0
LINE
8
BLACK
6
CONTINUOUS
10
312.981
20
-177.735
11
312.966
21
-177.735
0
LINE
8
BLACK
6
CONTINUOUS
10
312.966
20
-177.735
11
312.951
21
-177.732
0
LINE
8
BLACK
6
CONTINUOUS
10
312.951
20
-177.732
11
312.937
21
-177.726
0
LINE
8
BLACK
6
CONTINUOUS
10
312.937
20
-177.726
11
312.925
21
-177.718
0
LINE
8
BLACK
6
CONTINUOUS
10
312.925
20
-177.718
11
312.914
21
-177.707
0
LINE
8
BLACK
6
CONTINUOUS
10
312.914
20
-177.707
11
312.906
21
-177.695
0
LINE
8
BLACK
6
CONTINUOUS
10
312.906
20
-177.695
11
312.901
21
-177.681
0
LINE
8
BLACK
6
CONTINUOUS
10
312.901
20
-177.681
11
312.899
21
-177.67
0
LINE
8
BLACK
6
CONTINUOUS
10
312.899
20
-177.67
11
312.899
21
-177.67
0
LINE
8
BLACK
6
CONTINUOUS
10
312.899
20
-177.67
11
312.898
21
-177.666
0
LINE
8
BLACK
6
CONTINUOUS
10
312.898
20
-177.666
11
312.898
21
-177.662
0
LINE
8
BLACK
6
CONTINUOUS
10
312.898
20
-177.662
11
311.681
21
-163.753
0
LINE
8
BLACK
6
CONTINUOUS
10
311.681
20
-163.753
11
311.68
21
-163.749
0
LINE
8
BLACK
6
CONTINUOUS
10
311.68
20
-163.749
11
311.68
21
-163.734
0
LINE
8
BLACK
6
CONTINUOUS
10
311.68
20
-163.734
11
311.684
21
-163.719
0
LINE
8
BLACK
6
CONTINUOUS
10
311.684
20
-163.719
11
311.689
21
-163.705
0
LINE
8
BLACK
6
CONTINUOUS
10
311.689
20
-163.705
11
311.698
21
-163.693
0
LINE
8
BLACK
6
CONTINUOUS
10
311.698
20
-163.693
11
311.709
21
-163.683
0
LINE
8
BLACK
6
CONTINUOUS
10
311.709
20
-163.683
11
311.721
21
-163.674
0
LINE
8
BLACK
6
CONTINUOUS
10
311.721
20
-163.674
11
311.735
21
-163.669
0
LINE
8
BLACK
6
CONTINUOUS
10
311.735
20
-163.669
11
311.746
21
-163.667
0
LINE
8
BLACK
6
CONTINUOUS
10
311.746
20
-163.667
11
311.746
21
-163.667
0
LINE
8
BLACK
6
CONTINUOUS
10
311.746
20
-163.667
11
311.75
21
-163.666
0
LINE
8
BLACK
6
CONTINUOUS
10
311.75
20
-163.666
11
311.754
21
-163.666
0
LINE
8
BLACK
6
CONTINUOUS
10
311.754
20
-163.666
11
325.663
21
-162.449
0
LINE
8
BLACK
6
CONTINUOUS
10
325.663
20
-162.449
11
325.667
21
-162.448
0
LINE
8
BLACK
6
CONTINUOUS
10
325.667
20
-162.448
11
325.682
21
-162.449
0
LINE
8
BLACK
6
CONTINUOUS
10
311.839
20
-163.812
11
313.043
21
-177.577
0
LINE
8
BLACK
6
CONTINUOUS
10
313.043
20
-177.577
11
326.808
21
-176.372
0
LINE
8
BLACK
6
CONTINUOUS
10
326.808
20
-176.372
11
325.604
21
-162.607
0
LINE
8
BLACK
6
CONTINUOUS
10
325.604
20
-162.607
11
311.839
21
-163.812
0
LINE
8
BLACK
6
CONTINUOUS
10
214.158
20
-148.911
11
214.169
21
-148.912
0
LINE
8
BLACK
6
CONTINUOUS
10
214.169
20
-148.912
11
214.183
21
-148.917
0
LINE
8
BLACK
6
CONTINUOUS
10
214.183
20
-148.917
11
214.197
21
-148.924
0
LINE
8
BLACK
6
CONTINUOUS
10
214.197
20
-148.924
11
214.208
21
-148.933
0
LINE
8
BLACK
6
CONTINUOUS
10
214.208
20
-148.933
11
214.218
21
-148.945
0
LINE
8
BLACK
6
CONTINUOUS
10
214.218
20
-148.945
11
214.225
21
-148.958
0
LINE
8
BLACK
6
CONTINUOUS
10
214.225
20
-148.958
11
214.229
21
-148.972
0
LINE
8
BLACK
6
CONTINUOUS
10
214.229
20
-148.972
11
214.231
21
-148.987
0
LINE
8
BLACK
6
CONTINUOUS
10
214.231
20
-148.987
11
214.23
21
-148.991
0
LINE
8
BLACK
6
CONTINUOUS
10
214.23
20
-148.991
11
214.23
21
-162.954
0
LINE
8
BLACK
6
CONTINUOUS
10
214.23
20
-162.954
11
214.231
21
-162.957
0
LINE
8
BLACK
6
CONTINUOUS
10
214.231
20
-162.957
11
214.229
21
-162.972
0
LINE
8
BLACK
6
CONTINUOUS
10
214.229
20
-162.972
11
214.225
21
-162.987
0
LINE
8
BLACK
6
CONTINUOUS
10
214.225
20
-162.987
11
214.218
21
-163
0
LINE
8
BLACK
6
CONTINUOUS
10
214.218
20
-163
11
214.208
21
-163.011
0
LINE
8
BLACK
6
CONTINUOUS
10
214.208
20
-163.011
11
214.197
21
-163.021
0
LINE
8
BLACK
6
CONTINUOUS
10
214.197
20
-163.021
11
214.183
21
-163.028
0
LINE
8
BLACK
6
CONTINUOUS
10
214.183
20
-163.028
11
214.169
21
-163.032
0
LINE
8
BLACK
6
CONTINUOUS
10
214.169
20
-163.032
11
214.158
21
-163.034
0
LINE
8
BLACK
6
CONTINUOUS
10
214.158
20
-163.034
11
214.154
21
-163.034
0
LINE
8
BLACK
6
CONTINUOUS
10
214.154
20
-163.034
11
214.15
21
-163.034
0
LINE
8
BLACK
6
CONTINUOUS
10
214.15
20
-163.034
11
200.188
21
-163.034
0
LINE
8
BLACK
6
CONTINUOUS
10
200.188
20
-163.034
11
200.184
21
-163.034
0
LINE
8
BLACK
6
CONTINUOUS
10
200.184
20
-163.034
11
200.169
21
-163.032
0
LINE
8
BLACK
6
CONTINUOUS
10
200.169
20
-163.032
11
200.155
21
-163.028
0
LINE
8
BLACK
6
CONTINUOUS
10
200.155
20
-163.028
11
200.142
21
-163.021
0
LINE
8
BLACK
6
CONTINUOUS
10
200.142
20
-163.021
11
200.13
21
-163.011
0
LINE
8
BLACK
6
CONTINUOUS
10
200.13
20
-163.011
11
200.12
21
-163
0
LINE
8
BLACK
6
CONTINUOUS
10
200.12
20
-163
11
200.113
21
-162.987
0
LINE
8
BLACK
6
CONTINUOUS
10
200.113
20
-162.987
11
200.109
21
-162.972
0
LINE
8
BLACK
6
CONTINUOUS
10
200.109
20
-162.972
11
200.108
21
-162.957
0
LINE
8
BLACK
6
CONTINUOUS
10
200.108
20
-162.957
11
200.108
21
-162.954
0
LINE
8
BLACK
6
CONTINUOUS
10
200.108
20
-162.954
11
200.108
21
-148.991
0
LINE
8
BLACK
6
CONTINUOUS
10
200.108
20
-148.991
11
200.108
21
-148.987
0
LINE
8
BLACK
6
CONTINUOUS
10
200.108
20
-148.987
11
200.109
21
-148.972
0
LINE
8
BLACK
6
CONTINUOUS
10
200.109
20
-148.972
11
200.113
21
-148.958
0
LINE
8
BLACK
6
CONTINUOUS
10
200.113
20
-148.958
11
200.12
21
-148.945
0
LINE
8
BLACK
6
CONTINUOUS
10
200.12
20
-148.945
11
200.13
21
-148.933
0
LINE
8
BLACK
6
CONTINUOUS
10
200.13
20
-148.933
11
200.142
21
-148.924
0
LINE
8
BLACK
6
CONTINUOUS
10
200.142
20
-148.924
11
200.155
21
-148.917
0
LINE
8
BLACK
6
CONTINUOUS
10
200.155
20
-148.917
11
200.169
21
-148.912
0
LINE
8
BLACK
6
CONTINUOUS
10
200.169
20
-148.912
11
200.18
21
-148.911
0
LINE
8
BLACK
6
CONTINUOUS
10
200.18
20
-148.911
11
200.184
21
-148.911
0
LINE
8
BLACK
6
CONTINUOUS
10
200.184
20
-148.911
11
200.188
21
-148.911
0
LINE
8
BLACK
6
CONTINUOUS
10
200.188
20
-148.911
11
214.15
21
-148.911
0
LINE
8
BLACK
6
CONTINUOUS
10
214.15
20
-148.911
11
214.154
21
-148.911
0
LINE
8
BLACK
6
CONTINUOUS
10
214.154
20
-148.911
11
214.158
21
-148.911
0
LINE
8
BLACK
6
CONTINUOUS
10
200.26
20
-149.064
11
200.26
21
-162.881
0
LINE
8
BLACK
6
CONTINUOUS
10
200.26
20
-162.881
11
214.078
21
-162.881
0
LINE
8
BLACK
6
CONTINUOUS
10
214.078
20
-162.881
11
214.078
21
-149.064
0
LINE
8
BLACK
6
CONTINUOUS
10
214.078
20
-149.064
11
200.26
21
-149.064
0
LINE
8
BLACK
6
CONTINUOUS
10
171.239
20
-147.681
11
185.149
21
-148.898
0
LINE
8
BLACK
6
CONTINUOUS
10
185.149
20
-148.898
11
185.153
21
-148.898
0
LINE
8
BLACK
6
CONTINUOUS
10
185.153
20
-148.898
11
185.156
21
-148.899
0
LINE
8
BLACK
6
CONTINUOUS
10
185.156
20
-148.899
11
185.156
21
-148.899
0
LINE
8
BLACK
6
CONTINUOUS
10
185.156
20
-148.899
11
185.167
21
-148.901
0
LINE
8
BLACK
6
CONTINUOUS
10
185.167
20
-148.901
11
185.181
21
-148.907
0
LINE
8
BLACK
6
CONTINUOUS
10
185.181
20
-148.907
11
185.194
21
-148.915
0
LINE
8
BLACK
6
CONTINUOUS
10
185.194
20
-148.915
11
185.205
21
-148.925
0
LINE
8
BLACK
6
CONTINUOUS
10
185.205
20
-148.925
11
185.213
21
-148.938
0
LINE
8
BLACK
6
CONTINUOUS
10
185.213
20
-148.938
11
185.219
21
-148.952
0
LINE
8
BLACK
6
CONTINUOUS
10
185.219
20
-148.952
11
185.222
21
-148.966
0
LINE
8
BLACK
6
CONTINUOUS
10
185.222
20
-148.966
11
185.222
21
-148.981
0
LINE
8
BLACK
6
CONTINUOUS
10
185.222
20
-148.981
11
185.222
21
-148.985
0
LINE
8
BLACK
6
CONTINUOUS
10
185.222
20
-148.985
11
184.005
21
-162.894
0
LINE
8
BLACK
6
CONTINUOUS
10
184.005
20
-162.894
11
184.005
21
-162.898
0
LINE
8
BLACK
6
CONTINUOUS
10
184.005
20
-162.898
11
184.004
21
-162.902
0
LINE
8
BLACK
6
CONTINUOUS
10
184.004
20
-162.902
11
184.004
21
-162.902
0
LINE
8
BLACK
6
CONTINUOUS
10
184.004
20
-162.902
11
184.002
21
-162.913
0
LINE
8
BLACK
6
CONTINUOUS
10
184.002
20
-162.913
11
183.996
21
-162.927
0
LINE
8
BLACK
6
CONTINUOUS
10
183.996
20
-162.927
11
183.988
21
-162.939
0
LINE
8
BLACK
6
CONTINUOUS
10
183.988
20
-162.939
11
183.978
21
-162.95
0
LINE
8
BLACK
6
CONTINUOUS
10
183.978
20
-162.95
11
183.965
21
-162.959
0
LINE
8
BLACK
6
CONTINUOUS
10
183.965
20
-162.959
11
183.951
21
-162.964
0
LINE
8
BLACK
6
CONTINUOUS
10
183.951
20
-162.964
11
183.937
21
-162.968
0
LINE
8
BLACK
6
CONTINUOUS
10
183.937
20
-162.968
11
183.922
21
-162.968
0
LINE
8
BLACK
6
CONTINUOUS
10
183.922
20
-162.968
11
183.918
21
-162.967
0
LINE
8
BLACK
6
CONTINUOUS
10
183.918
20
-162.967
11
170.009
21
-161.75
0
LINE
8
BLACK
6
CONTINUOUS
10
170.009
20
-161.75
11
170.005
21
-161.75
0
LINE
8
BLACK
6
CONTINUOUS
10
170.005
20
-161.75
11
170.001
21
-161.749
0
LINE
8
BLACK
6
CONTINUOUS
10
170.001
20
-161.749
11
170.001
21
-161.749
0
LINE
8
BLACK
6
CONTINUOUS
10
170.001
20
-161.749
11
169.99
21
-161.747
0
LINE
8
BLACK
6
CONTINUOUS
10
169.99
20
-161.747
11
169.976
21
-161.742
0
LINE
8
BLACK
6
CONTINUOUS
10
169.976
20
-161.742
11
169.964
21
-161.734
0
LINE
8
BLACK
6
CONTINUOUS
10
169.964
20
-161.734
11
169.953
21
-161.723
0
LINE
8
BLACK
6
CONTINUOUS
10
169.953
20
-161.723
11
169.944
21
-161.711
0
LINE
8
BLACK
6
CONTINUOUS
10
169.944
20
-161.711
11
169.938
21
-161.697
0
LINE
8
BLACK
6
CONTINUOUS
10
169.938
20
-161.697
11
169.935
21
-161.682
0
LINE
8
BLACK
6
CONTINUOUS
10
169.935
20
-161.682
11
169.935
21
-161.667
0
LINE
8
BLACK
6
CONTINUOUS
10
169.935
20
-161.667
11
169.936
21
-161.663
0
LINE
8
BLACK
6
CONTINUOUS
10
169.936
20
-161.663
11
171.153
21
-147.754
0
LINE
8
BLACK
6
CONTINUOUS
10
171.153
20
-147.754
11
171.153
21
-147.75
0
LINE
8
BLACK
6
CONTINUOUS
10
171.153
20
-147.75
11
171.153
21
-147.747
0
LINE
8
BLACK
6
CONTINUOUS
10
171.153
20
-147.747
11
171.153
21
-147.747
0
LINE
8
BLACK
6
CONTINUOUS
10
171.153
20
-147.747
11
171.156
21
-147.736
0
LINE
8
BLACK
6
CONTINUOUS
10
171.156
20
-147.736
11
171.161
21
-147.722
0
LINE
8
BLACK
6
CONTINUOUS
10
171.161
20
-147.722
11
171.169
21
-147.709
0
LINE
8
BLACK
6
CONTINUOUS
10
171.169
20
-147.709
11
171.18
21
-147.698
0
LINE
8
BLACK
6
CONTINUOUS
10
171.18
20
-147.698
11
171.192
21
-147.69
0
LINE
8
BLACK
6
CONTINUOUS
10
171.192
20
-147.69
11
171.206
21
-147.684
0
LINE
8
BLACK
6
CONTINUOUS
10
171.206
20
-147.684
11
171.221
21
-147.681
0
LINE
8
BLACK
6
CONTINUOUS
10
171.221
20
-147.681
11
171.236
21
-147.681
0
LINE
8
BLACK
6
CONTINUOUS
10
171.236
20
-147.681
11
171.239
21
-147.681
0
LINE
8
BLACK
6
CONTINUOUS
10
170.094
20
-161.605
11
183.859
21
-162.809
0
LINE
8
BLACK
6
CONTINUOUS
10
183.859
20
-162.809
11
185.063
21
-149.044
0
LINE
8
BLACK
6
CONTINUOUS
10
185.063
20
-149.044
11
171.298
21
-147.84
0
LINE
8
BLACK
6
CONTINUOUS
10
171.298
20
-147.84
11
170.094
21
-161.605
0
LINE
8
BLACK
6
CONTINUOUS
10
243.117
20
-147.681
11
243.132
21
-147.684
0
LINE
8
BLACK
6
CONTINUOUS
10
243.132
20
-147.684
11
243.146
21
-147.69
0
LINE
8
BLACK
6
CONTINUOUS
10
243.146
20
-147.69
11
243.158
21
-147.698
0
LINE
8
BLACK
6
CONTINUOUS
10
243.158
20
-147.698
11
243.169
21
-147.709
0
LINE
8
BLACK
6
CONTINUOUS
10
243.169
20
-147.709
11
243.177
21
-147.722
0
LINE
8
BLACK
6
CONTINUOUS
10
243.177
20
-147.722
11
243.182
21
-147.734
0
LINE
8
BLACK
6
CONTINUOUS
10
243.182
20
-147.734
11
243.183
21
-147.736
0
LINE
8
BLACK
6
CONTINUOUS
10
243.183
20
-147.736
11
243.185
21
-147.75
0
LINE
8
BLACK
6
CONTINUOUS
10
243.185
20
-147.75
11
243.185
21
-147.754
0
LINE
8
BLACK
6
CONTINUOUS
10
243.185
20
-147.754
11
244.402
21
-161.663
0
LINE
8
BLACK
6
CONTINUOUS
10
244.402
20
-161.663
11
244.403
21
-161.667
0
LINE
8
BLACK
6
CONTINUOUS
10
244.403
20
-161.667
11
244.403
21
-161.682
0
LINE
8
BLACK
6
CONTINUOUS
10
244.403
20
-161.682
11
244.4
21
-161.697
0
LINE
8
BLACK
6
CONTINUOUS
10
244.4
20
-161.697
11
244.394
21
-161.711
0
LINE
8
BLACK
6
CONTINUOUS
10
244.394
20
-161.711
11
244.385
21
-161.723
0
LINE
8
BLACK
6
CONTINUOUS
10
244.385
20
-161.723
11
244.375
21
-161.734
0
LINE
8
BLACK
6
CONTINUOUS
10
244.375
20
-161.734
11
244.362
21
-161.742
0
LINE
8
BLACK
6
CONTINUOUS
10
244.362
20
-161.742
11
244.348
21
-161.747
0
LINE
8
BLACK
6
CONTINUOUS
10
244.348
20
-161.747
11
244.337
21
-161.749
0
LINE
8
BLACK
6
CONTINUOUS
10
244.337
20
-161.749
11
244.337
21
-161.749
0
LINE
8
BLACK
6
CONTINUOUS
10
244.337
20
-161.749
11
244.333
21
-161.75
0
LINE
8
BLACK
6
CONTINUOUS
10
244.333
20
-161.75
11
244.33
21
-161.75
0
LINE
8
BLACK
6
CONTINUOUS
10
244.33
20
-161.75
11
230.42
21
-162.967
0
LINE
8
BLACK
6
CONTINUOUS
10
230.42
20
-162.967
11
230.417
21
-162.968
0
LINE
8
BLACK
6
CONTINUOUS
10
230.417
20
-162.968
11
230.402
21
-162.968
0
LINE
8
BLACK
6
CONTINUOUS
10
230.402
20
-162.968
11
230.387
21
-162.964
0
LINE
8
BLACK
6
CONTINUOUS
10
230.387
20
-162.964
11
230.373
21
-162.959
0
LINE
8
BLACK
6
CONTINUOUS
10
230.373
20
-162.959
11
230.361
21
-162.95
0
LINE
8
BLACK
6
CONTINUOUS
10
230.361
20
-162.95
11
230.35
21
-162.939
0
LINE
8
BLACK
6
CONTINUOUS
10
230.35
20
-162.939
11
230.342
21
-162.927
0
LINE
8
BLACK
6
CONTINUOUS
10
230.342
20
-162.927
11
230.336
21
-162.913
0
LINE
8
BLACK
6
CONTINUOUS
10
230.336
20
-162.913
11
230.334
21
-162.902
0
LINE
8
BLACK
6
CONTINUOUS
10
230.334
20
-162.902
11
230.334
21
-162.902
0
LINE
8
BLACK
6
CONTINUOUS
10
230.334
20
-162.902
11
230.334
21
-162.898
0
LINE
8
BLACK
6
CONTINUOUS
10
230.334
20
-162.898
11
230.334
21
-162.894
0
LINE
8
BLACK
6
CONTINUOUS
10
230.334
20
-162.894
11
229.117
21
-148.985
0
LINE
8
BLACK
6
CONTINUOUS
10
229.117
20
-148.985
11
229.116
21
-148.981
0
LINE
8
BLACK
6
CONTINUOUS
10
229.116
20
-148.981
11
229.116
21
-148.966
0
LINE
8
BLACK
6
CONTINUOUS
10
229.116
20
-148.966
11
229.119
21
-148.952
0
LINE
8
BLACK
6
CONTINUOUS
10
229.119
20
-148.952
11
229.125
21
-148.938
0
LINE
8
BLACK
6
CONTINUOUS
10
229.125
20
-148.938
11
229.134
21
-148.925
0
LINE
8
BLACK
6
CONTINUOUS
10
229.134
20
-148.925
11
229.144
21
-148.915
0
LINE
8
BLACK
6
CONTINUOUS
10
229.144
20
-148.915
11
229.157
21
-148.907
0
LINE
8
BLACK
6
CONTINUOUS
10
229.157
20
-148.907
11
229.171
21
-148.901
0
LINE
8
BLACK
6
CONTINUOUS
10
229.171
20
-148.901
11
229.182
21
-148.899
0
LINE
8
BLACK
6
CONTINUOUS
10
229.182
20
-148.899
11
229.182
21
-148.899
0
LINE
8
BLACK
6
CONTINUOUS
10
229.182
20
-148.899
11
229.186
21
-148.898
0
LINE
8
BLACK
6
CONTINUOUS
10
229.186
20
-148.898
11
229.189
21
-148.898
0
LINE
8
BLACK
6
CONTINUOUS
10
229.189
20
-148.898
11
243.099
21
-147.681
0
LINE
8
BLACK
6
CONTINUOUS
10
243.099
20
-147.681
11
243.102
21
-147.681
0
LINE
8
BLACK
6
CONTINUOUS
10
243.102
20
-147.681
11
243.117
21
-147.681
0
LINE
8
BLACK
6
CONTINUOUS
10
229.275
20
-149.044
11
230.479
21
-162.809
0
LINE
8
BLACK
6
CONTINUOUS
10
230.479
20
-162.809
11
244.244
21
-161.605
0
LINE
8
BLACK
6
CONTINUOUS
10
244.244
20
-161.605
11
243.04
21
-147.84
0
LINE
8
BLACK
6
CONTINUOUS
10
243.04
20
-147.84
11
229.275
21
-149.044
0
LINE
8
BLACK
6
CONTINUOUS
10
262.095
20
-146.021
11
262.11
21
-146.024
0
LINE
8
BLACK
6
CONTINUOUS
10
262.11
20
-146.024
11
262.123
21
-146.03
0
LINE
8
BLACK
6
CONTINUOUS
10
262.123
20
-146.03
11
262.136
21
-146.038
0
LINE
8
BLACK
6
CONTINUOUS
10
262.136
20
-146.038
11
262.146
21
-146.049
0
LINE
8
BLACK
6
CONTINUOUS
10
262.146
20
-146.049
11
262.155
21
-146.061
0
LINE
8
BLACK
6
CONTINUOUS
10
262.155
20
-146.061
11
262.159
21
-146.074
0
LINE
8
BLACK
6
CONTINUOUS
10
262.159
20
-146.074
11
262.16
21
-146.075
0
LINE
8
BLACK
6
CONTINUOUS
10
262.16
20
-146.075
11
262.163
21
-146.09
0
LINE
8
BLACK
6
CONTINUOUS
10
262.163
20
-146.09
11
262.163
21
-146.094
0
LINE
8
BLACK
6
CONTINUOUS
10
262.163
20
-146.094
11
263.38
21
-160.003
0
LINE
8
BLACK
6
CONTINUOUS
10
263.38
20
-160.003
11
263.38
21
-160.007
0
LINE
8
BLACK
6
CONTINUOUS
10
263.38
20
-160.007
11
263.38
21
-160.022
0
LINE
8
BLACK
6
CONTINUOUS
10
263.38
20
-160.022
11
263.377
21
-160.037
0
LINE
8
BLACK
6
CONTINUOUS
10
263.377
20
-160.037
11
263.371
21
-160.05
0
LINE
8
BLACK
6
CONTINUOUS
10
263.371
20
-160.05
11
263.363
21
-160.063
0
LINE
8
BLACK
6
CONTINUOUS
10
263.363
20
-160.063
11
263.352
21
-160.073
0
LINE
8
BLACK
6
CONTINUOUS
10
263.352
20
-160.073
11
263.34
21
-160.081
0
LINE
8
BLACK
6
CONTINUOUS
10
263.34
20
-160.081
11
263.326
21
-160.087
0
LINE
8
BLACK
6
CONTINUOUS
10
263.326
20
-160.087
11
263.315
21
-160.089
0
LINE
8
BLACK
6
CONTINUOUS
10
263.315
20
-160.089
11
263.315
21
-160.089
0
LINE
8
BLACK
6
CONTINUOUS
10
263.315
20
-160.089
11
263.311
21
-160.09
0
LINE
8
BLACK
6
CONTINUOUS
10
263.311
20
-160.09
11
263.307
21
-160.09
0
LINE
8
BLACK
6
CONTINUOUS
10
263.307
20
-160.09
11
249.398
21
-161.307
0
LINE
8
BLACK
6
CONTINUOUS
10
249.398
20
-161.307
11
249.394
21
-161.307
0
LINE
8
BLACK
6
CONTINUOUS
10
249.394
20
-161.307
11
249.379
21
-161.307
0
LINE
8
BLACK
6
CONTINUOUS
10
249.379
20
-161.307
11
249.364
21
-161.304
0
LINE
8
BLACK
6
CONTINUOUS
10
249.364
20
-161.304
11
249.351
21
-161.298
0
LINE
8
BLACK
6
CONTINUOUS
10
249.351
20
-161.298
11
249.338
21
-161.29
0
LINE
8
BLACK
6
CONTINUOUS
10
249.338
20
-161.29
11
249.328
21
-161.279
0
LINE
8
BLACK
6
CONTINUOUS
10
249.328
20
-161.279
11
249.319
21
-161.266
0
LINE
8
BLACK
6
CONTINUOUS
10
249.319
20
-161.266
11
249.314
21
-161.253
0
LINE
8
BLACK
6
CONTINUOUS
10
249.314
20
-161.253
11
249.312
21
-161.241
0
LINE
8
BLACK
6
CONTINUOUS
10
249.312
20
-161.241
11
249.312
21
-161.241
0
LINE
8
BLACK
6
CONTINUOUS
10
249.312
20
-161.241
11
249.311
21
-161.238
0
LINE
8
BLACK
6
CONTINUOUS
10
249.311
20
-161.238
11
249.311
21
-161.234
0
LINE
8
BLACK
6
CONTINUOUS
10
249.311
20
-161.234
11
248.094
21
-147.325
0
LINE
8
BLACK
6
CONTINUOUS
10
248.094
20
-147.325
11
248.094
21
-147.321
0
LINE
8
BLACK
6
CONTINUOUS
10
248.094
20
-147.321
11
248.094
21
-147.306
0
LINE
8
BLACK
6
CONTINUOUS
10
248.094
20
-147.306
11
248.097
21
-147.291
0
LINE
8
BLACK
6
CONTINUOUS
10
248.097
20
-147.291
11
248.103
21
-147.277
0
LINE
8
BLACK
6
CONTINUOUS
10
248.103
20
-147.277
11
248.111
21
-147.265
0
LINE
8
BLACK
6
CONTINUOUS
10
248.111
20
-147.265
11
248.122
21
-147.255
0
LINE
8
BLACK
6
CONTINUOUS
10
248.122
20
-147.255
11
248.134
21
-147.246
0
LINE
8
BLACK
6
CONTINUOUS
10
248.134
20
-147.246
11
248.148
21
-147.241
0
LINE
8
BLACK
6
CONTINUOUS
10
248.148
20
-147.241
11
248.159
21
-147.239
0
LINE
8
BLACK
6
CONTINUOUS
10
248.159
20
-147.239
11
248.159
21
-147.239
0
LINE
8
BLACK
6
CONTINUOUS
10
248.159
20
-147.239
11
248.163
21
-147.238
0
LINE
8
BLACK
6
CONTINUOUS
10
248.163
20
-147.238
11
248.167
21
-147.238
0
LINE
8
BLACK
6
CONTINUOUS
10
248.167
20
-147.238
11
262.076
21
-146.021
0
LINE
8
BLACK
6
CONTINUOUS
10
262.076
20
-146.021
11
262.08
21
-146.02
0
LINE
8
BLACK
6
CONTINUOUS
10
262.08
20
-146.02
11
262.095
21
-146.021
0
LINE
8
BLACK
6
CONTINUOUS
10
248.252
20
-147.384
11
249.457
21
-161.149
0
LINE
8
BLACK
6
CONTINUOUS
10
249.457
20
-161.149
11
263.222
21
-159.944
0
LINE
8
BLACK
6
CONTINUOUS
10
263.222
20
-159.944
11
262.017
21
-146.179
0
LINE
8
BLACK
6
CONTINUOUS
10
262.017
20
-146.179
11
248.252
21
-147.384
0
LINE
8
BLACK
6
CONTINUOUS
10
152.262
20
-146.021
11
166.171
21
-147.238
0
LINE
8
BLACK
6
CONTINUOUS
10
166.171
20
-147.238
11
166.175
21
-147.238
0
LINE
8
BLACK
6
CONTINUOUS
10
166.175
20
-147.238
11
166.179
21
-147.239
0
LINE
8
BLACK
6
CONTINUOUS
10
166.179
20
-147.239
11
166.179
21
-147.239
0
LINE
8
BLACK
6
CONTINUOUS
10
166.179
20
-147.239
11
166.19
21
-147.241
0
LINE
8
BLACK
6
CONTINUOUS
10
166.19
20
-147.241
11
166.204
21
-147.246
0
LINE
8
BLACK
6
CONTINUOUS
10
166.204
20
-147.246
11
166.216
21
-147.255
0
LINE
8
BLACK
6
CONTINUOUS
10
166.216
20
-147.255
11
166.227
21
-147.265
0
LINE
8
BLACK
6
CONTINUOUS
10
166.227
20
-147.265
11
166.236
21
-147.277
0
LINE
8
BLACK
6
CONTINUOUS
10
166.236
20
-147.277
11
166.241
21
-147.291
0
LINE
8
BLACK
6
CONTINUOUS
10
166.241
20
-147.291
11
166.245
21
-147.306
0
LINE
8
BLACK
6
CONTINUOUS
10
166.245
20
-147.306
11
166.245
21
-147.321
0
LINE
8
BLACK
6
CONTINUOUS
10
166.245
20
-147.321
11
166.244
21
-147.325
0
LINE
8
BLACK
6
CONTINUOUS
10
166.244
20
-147.325
11
165.027
21
-161.234
0
LINE
8
BLACK
6
CONTINUOUS
10
165.027
20
-161.234
11
165.027
21
-161.238
0
LINE
8
BLACK
6
CONTINUOUS
10
165.027
20
-161.238
11
165.026
21
-161.241
0
LINE
8
BLACK
6
CONTINUOUS
10
165.026
20
-161.241
11
165.026
21
-161.241
0
LINE
8
BLACK
6
CONTINUOUS
10
165.026
20
-161.241
11
165.024
21
-161.253
0
LINE
8
BLACK
6
CONTINUOUS
10
165.024
20
-161.253
11
165.019
21
-161.266
0
LINE
8
BLACK
6
CONTINUOUS
10
165.019
20
-161.266
11
165.011
21
-161.279
0
LINE
8
BLACK
6
CONTINUOUS
10
165.011
20
-161.279
11
165
21
-161.29
0
LINE
8
BLACK
6
CONTINUOUS
10
165
20
-161.29
11
164.988
21
-161.298
0
LINE
8
BLACK
6
CONTINUOUS
10
164.988
20
-161.298
11
164.974
21
-161.304
0
LINE
8
BLACK
6
CONTINUOUS
10
164.974
20
-161.304
11
164.959
21
-161.307
0
LINE
8
BLACK
6
CONTINUOUS
10
164.959
20
-161.307
11
164.944
21
-161.307
0
LINE
8
BLACK
6
CONTINUOUS
10
164.944
20
-161.307
11
164.94
21
-161.307
0
LINE
8
BLACK
6
CONTINUOUS
10
164.94
20
-161.307
11
151.031
21
-160.09
0
LINE
8
BLACK
6
CONTINUOUS
10
151.031
20
-160.09
11
151.027
21
-160.09
0
LINE
8
BLACK
6
CONTINUOUS
10
151.027
20
-160.09
11
151.024
21
-160.089
0
LINE
8
BLACK
6
CONTINUOUS
10
151.024
20
-160.089
11
151.024
21
-160.089
0
LINE
8
BLACK
6
CONTINUOUS
10
151.024
20
-160.089
11
151.013
21
-160.087
0
LINE
8
BLACK
6
CONTINUOUS
10
151.013
20
-160.087
11
150.999
21
-160.081
0
LINE
8
BLACK
6
CONTINUOUS
10
150.999
20
-160.081
11
150.986
21
-160.073
0
LINE
8
BLACK
6
CONTINUOUS
10
150.986
20
-160.073
11
150.975
21
-160.063
0
LINE
8
BLACK
6
CONTINUOUS
10
150.975
20
-160.063
11
150.967
21
-160.05
0
LINE
8
BLACK
6
CONTINUOUS
10
150.967
20
-160.05
11
150.961
21
-160.037
0
LINE
8
BLACK
6
CONTINUOUS
10
150.961
20
-160.037
11
150.958
21
-160.022
0
LINE
8
BLACK
6
CONTINUOUS
10
150.958
20
-160.022
11
150.958
21
-160.007
0
LINE
8
BLACK
6
CONTINUOUS
10
150.958
20
-160.007
11
150.958
21
-160.003
0
LINE
8
BLACK
6
CONTINUOUS
10
150.958
20
-160.003
11
152.175
21
-146.094
0
LINE
8
BLACK
6
CONTINUOUS
10
152.175
20
-146.094
11
152.175
21
-146.09
0
LINE
8
BLACK
6
CONTINUOUS
10
152.175
20
-146.09
11
152.176
21
-146.086
0
LINE
8
BLACK
6
CONTINUOUS
10
152.176
20
-146.086
11
152.176
21
-146.086
0
LINE
8
BLACK
6
CONTINUOUS
10
152.176
20
-146.086
11
152.178
21
-146.075
0
LINE
8
BLACK
6
CONTINUOUS
10
152.178
20
-146.075
11
152.184
21
-146.061
0
LINE
8
BLACK
6
CONTINUOUS
10
152.184
20
-146.061
11
152.192
21
-146.049
0
LINE
8
BLACK
6
CONTINUOUS
10
152.192
20
-146.049
11
152.202
21
-146.038
0
LINE
8
BLACK
6
CONTINUOUS
10
152.202
20
-146.038
11
152.215
21
-146.03
0
LINE
8
BLACK
6
CONTINUOUS
10
152.215
20
-146.03
11
152.229
21
-146.024
0
LINE
8
BLACK
6
CONTINUOUS
10
152.229
20
-146.024
11
152.243
21
-146.021
0
LINE
8
BLACK
6
CONTINUOUS
10
152.243
20
-146.021
11
152.258
21
-146.02
0
LINE
8
BLACK
6
CONTINUOUS
10
152.258
20
-146.02
11
152.262
21
-146.021
0
LINE
8
BLACK
6
CONTINUOUS
10
151.117
20
-159.944
11
164.882
21
-161.149
0
LINE
8
BLACK
6
CONTINUOUS
10
164.882
20
-161.149
11
166.086
21
-147.384
0
LINE
8
BLACK
6
CONTINUOUS
10
166.086
20
-147.384
11
152.321
21
-146.179
0
LINE
8
BLACK
6
CONTINUOUS
10
152.321
20
-146.179
11
151.117
21
-159.944
0
LINE
8
BLACK
6
CONTINUOUS
10
319.277
20
-143.886
11
319.291
21
-143.889
0
LINE
8
BLACK
6
CONTINUOUS
10
319.291
20
-143.889
11
319.305
21
-143.895
0
LINE
8
BLACK
6
CONTINUOUS
10
319.305
20
-143.895
11
319.317
21
-143.904
0
LINE
8
BLACK
6
CONTINUOUS
10
319.317
20
-143.904
11
319.328
21
-143.914
0
LINE
8
BLACK
6
CONTINUOUS
10
319.328
20
-143.914
11
319.336
21
-143.927
0
LINE
8
BLACK
6
CONTINUOUS
10
319.336
20
-143.927
11
319.34
21
-143.937
0
LINE
8
BLACK
6
CONTINUOUS
10
319.34
20
-143.937
11
319.342
21
-143.941
0
LINE
8
BLACK
6
CONTINUOUS
10
319.342
20
-143.941
11
319.344
21
-143.956
0
LINE
8
BLACK
6
CONTINUOUS
10
319.344
20
-143.956
11
319.344
21
-143.959
0
LINE
8
BLACK
6
CONTINUOUS
10
319.344
20
-143.959
11
320.561
21
-157.869
0
LINE
8
BLACK
6
CONTINUOUS
10
320.561
20
-157.869
11
320.562
21
-157.873
0
LINE
8
BLACK
6
CONTINUOUS
10
320.562
20
-157.873
11
320.562
21
-157.888
0
LINE
8
BLACK
6
CONTINUOUS
10
320.562
20
-157.888
11
320.559
21
-157.902
0
LINE
8
BLACK
6
CONTINUOUS
10
320.559
20
-157.902
11
320.553
21
-157.916
0
LINE
8
BLACK
6
CONTINUOUS
10
320.553
20
-157.916
11
320.544
21
-157.928
0
LINE
8
BLACK
6
CONTINUOUS
10
320.544
20
-157.928
11
320.534
21
-157.939
0
LINE
8
BLACK
6
CONTINUOUS
10
320.534
20
-157.939
11
320.521
21
-157.947
0
LINE
8
BLACK
6
CONTINUOUS
10
320.521
20
-157.947
11
320.507
21
-157.953
0
LINE
8
BLACK
6
CONTINUOUS
10
320.507
20
-157.953
11
320.496
21
-157.955
0
LINE
8
BLACK
6
CONTINUOUS
10
320.496
20
-157.955
11
320.496
21
-157.955
0
LINE
8
BLACK
6
CONTINUOUS
10
320.496
20
-157.955
11
320.492
21
-157.955
0
LINE
8
BLACK
6
CONTINUOUS
10
320.492
20
-157.955
11
320.489
21
-157.955
0
LINE
8
BLACK
6
CONTINUOUS
10
320.489
20
-157.955
11
306.579
21
-159.172
0
LINE
8
BLACK
6
CONTINUOUS
10
306.579
20
-159.172
11
306.576
21
-159.173
0
LINE
8
BLACK
6
CONTINUOUS
10
306.576
20
-159.173
11
306.561
21
-159.173
0
LINE
8
BLACK
6
CONTINUOUS
10
306.561
20
-159.173
11
306.546
21
-159.17
0
LINE
8
BLACK
6
CONTINUOUS
10
306.546
20
-159.17
11
306.532
21
-159.164
0
LINE
8
BLACK
6
CONTINUOUS
10
306.532
20
-159.164
11
306.52
21
-159.155
0
LINE
8
BLACK
6
CONTINUOUS
10
306.52
20
-159.155
11
306.509
21
-159.145
0
LINE
8
BLACK
6
CONTINUOUS
10
306.509
20
-159.145
11
306.501
21
-159.132
0
LINE
8
BLACK
6
CONTINUOUS
10
306.501
20
-159.132
11
306.495
21
-159.118
0
LINE
8
BLACK
6
CONTINUOUS
10
306.495
20
-159.118
11
306.493
21
-159.107
0
LINE
8
BLACK
6
CONTINUOUS
10
306.493
20
-159.107
11
306.493
21
-159.107
0
LINE
8
BLACK
6
CONTINUOUS
10
306.493
20
-159.107
11
306.493
21
-159.103
0
LINE
8
BLACK
6
CONTINUOUS
10
306.493
20
-159.103
11
306.493
21
-159.1
0
LINE
8
BLACK
6
CONTINUOUS
10
306.493
20
-159.1
11
305.276
21
-145.19
0
LINE
8
BLACK
6
CONTINUOUS
10
305.276
20
-145.19
11
305.275
21
-145.187
0
LINE
8
BLACK
6
CONTINUOUS
10
305.275
20
-145.187
11
305.275
21
-145.172
0
LINE
8
BLACK
6
CONTINUOUS
10
305.275
20
-145.172
11
305.278
21
-145.157
0
LINE
8
BLACK
6
CONTINUOUS
10
305.278
20
-145.157
11
305.284
21
-145.143
0
LINE
8
BLACK
6
CONTINUOUS
10
305.284
20
-145.143
11
305.293
21
-145.131
0
LINE
8
BLACK
6
CONTINUOUS
10
305.293
20
-145.131
11
305.303
21
-145.12
0
LINE
8
BLACK
6
CONTINUOUS
10
305.303
20
-145.12
11
305.316
21
-145.112
0
LINE
8
BLACK
6
CONTINUOUS
10
305.316
20
-145.112
11
305.33
21
-145.106
0
LINE
8
BLACK
6
CONTINUOUS
10
305.33
20
-145.106
11
305.341
21
-145.104
0
LINE
8
BLACK
6
CONTINUOUS
10
305.341
20
-145.104
11
305.341
21
-145.104
0
LINE
8
BLACK
6
CONTINUOUS
10
305.341
20
-145.104
11
305.345
21
-145.104
0
LINE
8
BLACK
6
CONTINUOUS
10
305.345
20
-145.104
11
305.348
21
-145.104
0
LINE
8
BLACK
6
CONTINUOUS
10
305.348
20
-145.104
11
319.258
21
-143.887
0
LINE
8
BLACK
6
CONTINUOUS
10
319.258
20
-143.887
11
319.262
21
-143.886
0
LINE
8
BLACK
6
CONTINUOUS
10
319.262
20
-143.886
11
319.277
21
-143.886
0
LINE
8
BLACK
6
CONTINUOUS
10
305.434
20
-145.249
11
306.638
21
-159.014
0
LINE
8
BLACK
6
CONTINUOUS
10
306.638
20
-159.014
11
320.403
21
-157.81
0
LINE
8
BLACK
6
CONTINUOUS
10
320.403
20
-157.81
11
319.199
21
-144.045
0
LINE
8
BLACK
6
CONTINUOUS
10
319.199
20
-144.045
11
305.434
21
-145.249
0
LINE
8
BLACK
6
CONTINUOUS
10
95.0804
20
-143.887
11
108.99
21
-145.104
0
LINE
8
BLACK
6
CONTINUOUS
10
108.99
20
-145.104
11
108.994
21
-145.104
0
LINE
8
BLACK
6
CONTINUOUS
10
108.994
20
-145.104
11
108.997
21
-145.104
0
LINE
8
BLACK
6
CONTINUOUS
10
108.997
20
-145.104
11
108.997
21
-145.104
0
LINE
8
BLACK
6
CONTINUOUS
10
108.997
20
-145.104
11
109.008
21
-145.106
0
LINE
8
BLACK
6
CONTINUOUS
10
109.008
20
-145.106
11
109.022
21
-145.112
0
LINE
8
BLACK
6
CONTINUOUS
10
109.022
20
-145.112
11
109.035
21
-145.12
0
LINE
8
BLACK
6
CONTINUOUS
10
109.035
20
-145.12
11
109.045
21
-145.131
0
LINE
8
BLACK
6
CONTINUOUS
10
109.045
20
-145.131
11
109.054
21
-145.143
0
LINE
8
BLACK
6
CONTINUOUS
10
109.054
20
-145.143
11
109.06
21
-145.157
0
LINE
8
BLACK
6
CONTINUOUS
10
109.06
20
-145.157
11
109.063
21
-145.172
0
LINE
8
BLACK
6
CONTINUOUS
10
109.063
20
-145.172
11
109.063
21
-145.187
0
LINE
8
BLACK
6
CONTINUOUS
10
109.063
20
-145.187
11
109.062
21
-145.19
0
LINE
8
BLACK
6
CONTINUOUS
10
109.062
20
-145.19
11
107.846
21
-159.1
0
LINE
8
BLACK
6
CONTINUOUS
10
107.846
20
-159.1
11
107.846
21
-159.103
0
LINE
8
BLACK
6
CONTINUOUS
10
107.846
20
-159.103
11
107.845
21
-159.107
0
LINE
8
BLACK
6
CONTINUOUS
10
107.845
20
-159.107
11
107.845
21
-159.107
0
LINE
8
BLACK
6
CONTINUOUS
10
107.845
20
-159.107
11
107.843
21
-159.118
0
LINE
8
BLACK
6
CONTINUOUS
10
107.843
20
-159.118
11
107.837
21
-159.132
0
LINE
8
BLACK
6
CONTINUOUS
10
107.837
20
-159.132
11
107.829
21
-159.145
0
LINE
8
BLACK
6
CONTINUOUS
10
107.829
20
-159.145
11
107.818
21
-159.155
0
LINE
8
BLACK
6
CONTINUOUS
10
107.818
20
-159.155
11
107.806
21
-159.164
0
LINE
8
BLACK
6
CONTINUOUS
10
107.806
20
-159.164
11
107.792
21
-159.17
0
LINE
8
BLACK
6
CONTINUOUS
10
107.792
20
-159.17
11
107.778
21
-159.173
0
LINE
8
BLACK
6
CONTINUOUS
10
107.778
20
-159.173
11
107.763
21
-159.173
0
LINE
8
BLACK
6
CONTINUOUS
10
107.763
20
-159.173
11
107.759
21
-159.172
0
LINE
8
BLACK
6
CONTINUOUS
10
107.759
20
-159.172
11
93.8495
21
-157.955
0
LINE
8
BLACK
6
CONTINUOUS
10
93.8495
20
-157.955
11
93.8458
21
-157.955
0
LINE
8
BLACK
6
CONTINUOUS
10
93.8458
20
-157.955
11
93.8421
21
-157.955
0
LINE
8
BLACK
6
CONTINUOUS
10
93.8421
20
-157.955
11
93.8421
21
-157.955
0
LINE
8
BLACK
6
CONTINUOUS
10
93.8421
20
-157.955
11
93.831
21
-157.953
0
LINE
8
BLACK
6
CONTINUOUS
10
93.831
20
-157.953
11
93.8171
21
-157.947
0
LINE
8
BLACK
6
CONTINUOUS
10
93.8171
20
-157.947
11
93.8045
21
-157.939
0
LINE
8
BLACK
6
CONTINUOUS
10
93.8045
20
-157.939
11
93.7938
21
-157.928
0
LINE
8
BLACK
6
CONTINUOUS
10
93.7938
20
-157.928
11
93.7853
21
-157.916
0
LINE
8
BLACK
6
CONTINUOUS
10
93.7853
20
-157.916
11
93.7794
21
-157.902
0
LINE
8
BLACK
6
CONTINUOUS
10
93.7794
20
-157.902
11
93.7763
21
-157.888
0
LINE
8
BLACK
6
CONTINUOUS
10
93.7763
20
-157.888
11
93.7762
21
-157.873
0
LINE
8
BLACK
6
CONTINUOUS
10
93.7762
20
-157.873
11
93.7768
21
-157.869
0
LINE
8
BLACK
6
CONTINUOUS
10
93.7768
20
-157.869
11
94.9938
21
-143.959
0
LINE
8
BLACK
6
CONTINUOUS
10
94.9938
20
-143.959
11
94.9937
21
-143.956
0
LINE
8
BLACK
6
CONTINUOUS
10
94.9937
20
-143.956
11
94.9944
21
-143.952
0
LINE
8
BLACK
6
CONTINUOUS
10
94.9944
20
-143.952
11
94.9944
21
-143.952
0
LINE
8
BLACK
6
CONTINUOUS
10
94.9944
20
-143.952
11
94.9965
21
-143.941
0
LINE
8
BLACK
6
CONTINUOUS
10
94.9965
20
-143.941
11
95.0021
21
-143.927
0
LINE
8
BLACK
6
CONTINUOUS
10
95.0021
20
-143.927
11
95.0103
21
-143.914
0
LINE
8
BLACK
6
CONTINUOUS
10
95.0103
20
-143.914
11
95.0208
21
-143.904
0
LINE
8
BLACK
6
CONTINUOUS
10
95.0208
20
-143.904
11
95.0332
21
-143.895
0
LINE
8
BLACK
6
CONTINUOUS
10
95.0332
20
-143.895
11
95.047
21
-143.889
0
LINE
8
BLACK
6
CONTINUOUS
10
95.047
20
-143.889
11
95.0617
21
-143.886
0
LINE
8
BLACK
6
CONTINUOUS
10
95.0617
20
-143.886
11
95.0767
21
-143.886
0
LINE
8
BLACK
6
CONTINUOUS
10
95.0767
20
-143.886
11
95.0804
21
-143.887
0
LINE
8
BLACK
6
CONTINUOUS
10
93.935
20
-157.81
11
107.7
21
-159.014
0
LINE
8
BLACK
6
CONTINUOUS
10
107.7
20
-159.014
11
108.904
21
-145.249
0
LINE
8
BLACK
6
CONTINUOUS
10
108.904
20
-145.249
11
95.1393
21
-144.045
0
LINE
8
BLACK
6
CONTINUOUS
10
95.1393
20
-144.045
11
93.935
21
-157.81
0
LINE
8
BLACK
6
CONTINUOUS
10
76.1029
20
-142.226
11
90.0123
21
-143.443
0
LINE
8
BLACK
6
CONTINUOUS
10
90.0123
20
-143.443
11
90.016
21
-143.443
0
LINE
8
BLACK
6
CONTINUOUS
10
90.016
20
-143.443
11
90.0197
21
-143.444
0
LINE
8
BLACK
6
CONTINUOUS
10
90.0197
20
-143.444
11
90.0197
21
-143.444
0
LINE
8
BLACK
6
CONTINUOUS
10
90.0197
20
-143.444
11
90.0308
21
-143.446
0
LINE
8
BLACK
6
CONTINUOUS
10
90.0308
20
-143.446
11
90.0447
21
-143.452
0
LINE
8
BLACK
6
CONTINUOUS
10
90.0447
20
-143.452
11
90.0573
21
-143.46
0
LINE
8
BLACK
6
CONTINUOUS
10
90.0573
20
-143.46
11
90.068
21
-143.47
0
LINE
8
BLACK
6
CONTINUOUS
10
90.068
20
-143.47
11
90.0765
21
-143.483
0
LINE
8
BLACK
6
CONTINUOUS
10
90.0765
20
-143.483
11
90.0824
21
-143.497
0
LINE
8
BLACK
6
CONTINUOUS
10
90.0824
20
-143.497
11
90.0854
21
-143.511
0
LINE
8
BLACK
6
CONTINUOUS
10
90.0854
20
-143.511
11
90.0856
21
-143.526
0
LINE
8
BLACK
6
CONTINUOUS
10
90.0856
20
-143.526
11
90.0849
21
-143.53
0
LINE
8
BLACK
6
CONTINUOUS
10
90.0849
20
-143.53
11
88.868
21
-157.439
0
LINE
8
BLACK
6
CONTINUOUS
10
88.868
20
-157.439
11
88.868
21
-157.443
0
LINE
8
BLACK
6
CONTINUOUS
10
88.868
20
-157.443
11
88.8673
21
-157.447
0
LINE
8
BLACK
6
CONTINUOUS
10
88.8673
20
-157.447
11
88.8673
21
-157.447
0
LINE
8
BLACK
6
CONTINUOUS
10
88.8673
20
-157.447
11
88.8653
21
-157.458
0
LINE
8
BLACK
6
CONTINUOUS
10
88.8653
20
-157.458
11
88.8597
21
-157.472
0
LINE
8
BLACK
6
CONTINUOUS
10
88.8597
20
-157.472
11
88.8515
21
-157.484
0
LINE
8
BLACK
6
CONTINUOUS
10
88.8515
20
-157.484
11
88.841
21
-157.495
0
LINE
8
BLACK
6
CONTINUOUS
10
88.841
20
-157.495
11
88.8286
21
-157.504
0
LINE
8
BLACK
6
CONTINUOUS
10
88.8286
20
-157.504
11
88.8148
21
-157.509
0
LINE
8
BLACK
6
CONTINUOUS
10
88.8148
20
-157.509
11
88.8001
21
-157.513
0
LINE
8
BLACK
6
CONTINUOUS
10
88.8001
20
-157.513
11
88.7851
21
-157.513
0
LINE
8
BLACK
6
CONTINUOUS
10
88.7851
20
-157.513
11
88.7814
21
-157.512
0
LINE
8
BLACK
6
CONTINUOUS
10
88.7814
20
-157.512
11
74.872
21
-156.295
0
LINE
8
BLACK
6
CONTINUOUS
10
74.872
20
-156.295
11
74.8683
21
-156.295
0
LINE
8
BLACK
6
CONTINUOUS
10
74.8683
20
-156.295
11
74.8646
21
-156.294
0
LINE
8
BLACK
6
CONTINUOUS
10
74.8646
20
-156.294
11
74.8646
21
-156.294
0
LINE
8
BLACK
6
CONTINUOUS
10
74.8646
20
-156.294
11
74.8535
21
-156.292
0
LINE
8
BLACK
6
CONTINUOUS
10
74.8535
20
-156.292
11
74.8396
21
-156.287
0
LINE
8
BLACK
6
CONTINUOUS
10
74.8396
20
-156.287
11
74.827
21
-156.279
0
LINE
8
BLACK
6
CONTINUOUS
10
74.827
20
-156.279
11
74.8163
21
-156.268
0
LINE
8
BLACK
6
CONTINUOUS
10
74.8163
20
-156.268
11
74.8078
21
-156.256
0
LINE
8
BLACK
6
CONTINUOUS
10
74.8078
20
-156.256
11
74.8019
21
-156.242
0
LINE
8
BLACK
6
CONTINUOUS
10
74.8019
20
-156.242
11
74.7988
21
-156.227
0
LINE
8
BLACK
6
CONTINUOUS
10
74.7988
20
-156.227
11
74.7986
21
-156.212
0
LINE
8
BLACK
6
CONTINUOUS
10
74.7986
20
-156.212
11
74.7993
21
-156.209
0
LINE
8
BLACK
6
CONTINUOUS
10
74.7993
20
-156.209
11
76.0163
21
-142.299
0
LINE
8
BLACK
6
CONTINUOUS
10
76.0163
20
-142.299
11
76.0162
21
-142.295
0
LINE
8
BLACK
6
CONTINUOUS
10
76.0162
20
-142.295
11
76.0169
21
-142.292
0
LINE
8
BLACK
6
CONTINUOUS
10
76.0169
20
-142.292
11
76.0169
21
-142.292
0
LINE
8
BLACK
6
CONTINUOUS
10
76.0169
20
-142.292
11
76.019
21
-142.281
0
LINE
8
BLACK
6
CONTINUOUS
10
76.019
20
-142.281
11
76.0246
21
-142.267
0
LINE
8
BLACK
6
CONTINUOUS
10
76.0246
20
-142.267
11
76.0328
21
-142.254
0
LINE
8
BLACK
6
CONTINUOUS
10
76.0328
20
-142.254
11
76.0433
21
-142.243
0
LINE
8
BLACK
6
CONTINUOUS
10
76.0433
20
-142.243
11
76.0557
21
-142.235
0
LINE
8
BLACK
6
CONTINUOUS
10
76.0557
20
-142.235
11
76.0695
21
-142.229
0
LINE
8
BLACK
6
CONTINUOUS
10
76.0695
20
-142.229
11
76.0842
21
-142.226
0
LINE
8
BLACK
6
CONTINUOUS
10
76.0842
20
-142.226
11
76.0992
21
-142.226
0
LINE
8
BLACK
6
CONTINUOUS
10
76.0992
20
-142.226
11
76.1029
21
-142.226
0
LINE
8
BLACK
6
CONTINUOUS
10
74.9575
20
-156.15
11
88.7225
21
-157.354
0
LINE
8
BLACK
6
CONTINUOUS
10
88.7225
20
-157.354
11
89.9268
21
-143.589
0
LINE
8
BLACK
6
CONTINUOUS
10
89.9268
20
-143.589
11
76.1618
21
-142.385
0
LINE
8
BLACK
6
CONTINUOUS
10
76.1618
20
-142.385
11
74.9575
21
-156.15
0
LINE
8
BLACK
6
CONTINUOUS
10
338.254
20
-142.226
11
338.269
21
-142.229
0
LINE
8
BLACK
6
CONTINUOUS
10
338.269
20
-142.229
11
338.283
21
-142.235
0
LINE
8
BLACK
6
CONTINUOUS
10
338.283
20
-142.235
11
338.295
21
-142.243
0
LINE
8
BLACK
6
CONTINUOUS
10
338.295
20
-142.243
11
338.305
21
-142.254
0
LINE
8
BLACK
6
CONTINUOUS
10
338.305
20
-142.254
11
338.314
21
-142.267
0
LINE
8
BLACK
6
CONTINUOUS
10
338.314
20
-142.267
11
338.318
21
-142.277
0
LINE
8
BLACK
6
CONTINUOUS
10
338.318
20
-142.277
11
338.319
21
-142.281
0
LINE
8
BLACK
6
CONTINUOUS
10
338.319
20
-142.281
11
338.322
21
-142.295
0
LINE
8
BLACK
6
CONTINUOUS
10
338.322
20
-142.295
11
338.322
21
-142.299
0
LINE
8
BLACK
6
CONTINUOUS
10
338.322
20
-142.299
11
339.539
21
-156.209
0
LINE
8
BLACK
6
CONTINUOUS
10
339.539
20
-156.209
11
339.54
21
-156.212
0
LINE
8
BLACK
6
CONTINUOUS
10
339.54
20
-156.212
11
339.539
21
-156.227
0
LINE
8
BLACK
6
CONTINUOUS
10
339.539
20
-156.227
11
339.536
21
-156.242
0
LINE
8
BLACK
6
CONTINUOUS
10
339.536
20
-156.242
11
339.53
21
-156.256
0
LINE
8
BLACK
6
CONTINUOUS
10
339.53
20
-156.256
11
339.522
21
-156.268
0
LINE
8
BLACK
6
CONTINUOUS
10
339.522
20
-156.268
11
339.511
21
-156.279
0
LINE
8
BLACK
6
CONTINUOUS
10
339.511
20
-156.279
11
339.499
21
-156.287
0
LINE
8
BLACK
6
CONTINUOUS
10
339.499
20
-156.287
11
339.485
21
-156.292
0
LINE
8
BLACK
6
CONTINUOUS
10
339.485
20
-156.292
11
339.474
21
-156.294
0
LINE
8
BLACK
6
CONTINUOUS
10
339.474
20
-156.294
11
339.474
21
-156.294
0
LINE
8
BLACK
6
CONTINUOUS
10
339.474
20
-156.294
11
339.47
21
-156.295
0
LINE
8
BLACK
6
CONTINUOUS
10
339.47
20
-156.295
11
339.466
21
-156.295
0
LINE
8
BLACK
6
CONTINUOUS
10
339.466
20
-156.295
11
325.557
21
-157.512
0
LINE
8
BLACK
6
CONTINUOUS
10
325.557
20
-157.512
11
325.553
21
-157.513
0
LINE
8
BLACK
6
CONTINUOUS
10
325.553
20
-157.513
11
325.538
21
-157.513
0
LINE
8
BLACK
6
CONTINUOUS
10
325.538
20
-157.513
11
325.523
21
-157.509
0
LINE
8
BLACK
6
CONTINUOUS
10
325.523
20
-157.509
11
325.51
21
-157.504
0
LINE
8
BLACK
6
CONTINUOUS
10
325.51
20
-157.504
11
325.497
21
-157.495
0
LINE
8
BLACK
6
CONTINUOUS
10
325.497
20
-157.495
11
325.487
21
-157.484
0
LINE
8
BLACK
6
CONTINUOUS
10
325.487
20
-157.484
11
325.479
21
-157.472
0
LINE
8
BLACK
6
CONTINUOUS
10
325.479
20
-157.472
11
325.473
21
-157.458
0
LINE
8
BLACK
6
CONTINUOUS
10
325.473
20
-157.458
11
325.471
21
-157.447
0
LINE
8
BLACK
6
CONTINUOUS
10
325.471
20
-157.447
11
325.471
21
-157.447
0
LINE
8
BLACK
6
CONTINUOUS
10
325.471
20
-157.447
11
325.47
21
-157.443
0
LINE
8
BLACK
6
CONTINUOUS
10
325.47
20
-157.443
11
325.47
21
-157.439
0
LINE
8
BLACK
6
CONTINUOUS
10
325.47
20
-157.439
11
324.253
21
-143.53
0
LINE
8
BLACK
6
CONTINUOUS
10
324.253
20
-143.53
11
324.253
21
-143.526
0
LINE
8
BLACK
6
CONTINUOUS
10
324.253
20
-143.526
11
324.253
21
-143.511
0
LINE
8
BLACK
6
CONTINUOUS
10
324.253
20
-143.511
11
324.256
21
-143.497
0
LINE
8
BLACK
6
CONTINUOUS
10
324.256
20
-143.497
11
324.262
21
-143.483
0
LINE
8
BLACK
6
CONTINUOUS
10
324.262
20
-143.483
11
324.27
21
-143.47
0
LINE
8
BLACK
6
CONTINUOUS
10
324.27
20
-143.47
11
324.281
21
-143.46
0
LINE
8
BLACK
6
CONTINUOUS
10
324.281
20
-143.46
11
324.294
21
-143.452
0
LINE
8
BLACK
6
CONTINUOUS
10
324.294
20
-143.452
11
324.307
21
-143.446
0
LINE
8
BLACK
6
CONTINUOUS
10
324.307
20
-143.446
11
324.319
21
-143.444
0
LINE
8
BLACK
6
CONTINUOUS
10
324.319
20
-143.444
11
324.319
21
-143.444
0
LINE
8
BLACK
6
CONTINUOUS
10
324.319
20
-143.444
11
324.322
21
-143.443
0
LINE
8
BLACK
6
CONTINUOUS
10
324.322
20
-143.443
11
324.326
21
-143.443
0
LINE
8
BLACK
6
CONTINUOUS
10
324.326
20
-143.443
11
338.235
21
-142.226
0
LINE
8
BLACK
6
CONTINUOUS
10
338.235
20
-142.226
11
338.239
21
-142.226
0
LINE
8
BLACK
6
CONTINUOUS
10
338.239
20
-142.226
11
338.254
21
-142.226
0
LINE
8
BLACK
6
CONTINUOUS
10
324.411
20
-143.589
11
325.616
21
-157.354
0
LINE
8
BLACK
6
CONTINUOUS
10
325.616
20
-157.354
11
339.381
21
-156.15
0
LINE
8
BLACK
6
CONTINUOUS
10
339.381
20
-156.15
11
338.176
21
-142.385
0
LINE
8
BLACK
6
CONTINUOUS
10
338.176
20
-142.385
11
324.411
21
-143.589
0
LINE
8
BLACK
6
CONTINUOUS
10
114.514
20
-140.328
11
128.424
21
-141.545
0
LINE
8
BLACK
6
CONTINUOUS
10
128.424
20
-141.545
11
128.428
21
-141.545
0
LINE
8
BLACK
6
CONTINUOUS
10
128.428
20
-141.545
11
128.431
21
-141.546
0
LINE
8
BLACK
6
CONTINUOUS
10
128.431
20
-141.546
11
128.431
21
-141.546
0
LINE
8
BLACK
6
CONTINUOUS
10
128.431
20
-141.546
11
128.442
21
-141.548
0
LINE
8
BLACK
6
CONTINUOUS
10
128.442
20
-141.548
11
128.456
21
-141.554
0
LINE
8
BLACK
6
CONTINUOUS
10
128.456
20
-141.554
11
128.469
21
-141.562
0
LINE
8
BLACK
6
CONTINUOUS
10
128.469
20
-141.562
11
128.48
21
-141.572
0
LINE
8
BLACK
6
CONTINUOUS
10
128.48
20
-141.572
11
128.488
21
-141.585
0
LINE
8
BLACK
6
CONTINUOUS
10
128.488
20
-141.585
11
128.494
21
-141.598
0
LINE
8
BLACK
6
CONTINUOUS
10
128.494
20
-141.598
11
128.497
21
-141.613
0
LINE
8
BLACK
6
CONTINUOUS
10
128.497
20
-141.613
11
128.497
21
-141.628
0
LINE
8
BLACK
6
CONTINUOUS
10
128.497
20
-141.628
11
128.497
21
-141.632
0
LINE
8
BLACK
6
CONTINUOUS
10
128.497
20
-141.632
11
127.28
21
-155.541
0
LINE
8
BLACK
6
CONTINUOUS
10
127.28
20
-155.541
11
127.28
21
-155.545
0
LINE
8
BLACK
6
CONTINUOUS
10
127.28
20
-155.545
11
127.279
21
-155.549
0
LINE
8
BLACK
6
CONTINUOUS
10
127.279
20
-155.549
11
127.279
21
-155.549
0
LINE
8
BLACK
6
CONTINUOUS
10
127.279
20
-155.549
11
127.277
21
-155.56
0
LINE
8
BLACK
6
CONTINUOUS
10
127.277
20
-155.56
11
127.271
21
-155.574
0
LINE
8
BLACK
6
CONTINUOUS
10
127.271
20
-155.574
11
127.263
21
-155.586
0
LINE
8
BLACK
6
CONTINUOUS
10
127.263
20
-155.586
11
127.253
21
-155.597
0
LINE
8
BLACK
6
CONTINUOUS
10
127.253
20
-155.597
11
127.24
21
-155.605
0
LINE
8
BLACK
6
CONTINUOUS
10
127.24
20
-155.605
11
127.226
21
-155.611
0
LINE
8
BLACK
6
CONTINUOUS
10
127.226
20
-155.611
11
127.212
21
-155.614
0
LINE
8
BLACK
6
CONTINUOUS
10
127.212
20
-155.614
11
127.197
21
-155.615
0
LINE
8
BLACK
6
CONTINUOUS
10
127.197
20
-155.615
11
127.193
21
-155.614
0
LINE
8
BLACK
6
CONTINUOUS
10
127.193
20
-155.614
11
113.284
21
-154.397
0
LINE
8
BLACK
6
CONTINUOUS
10
113.284
20
-154.397
11
113.28
21
-154.397
0
LINE
8
BLACK
6
CONTINUOUS
10
113.28
20
-154.397
11
113.276
21
-154.396
0
LINE
8
BLACK
6
CONTINUOUS
10
113.276
20
-154.396
11
113.276
21
-154.396
0
LINE
8
BLACK
6
CONTINUOUS
10
113.276
20
-154.396
11
113.265
21
-154.394
0
LINE
8
BLACK
6
CONTINUOUS
10
113.265
20
-154.394
11
113.251
21
-154.389
0
LINE
8
BLACK
6
CONTINUOUS
10
113.251
20
-154.389
11
113.239
21
-154.38
0
LINE
8
BLACK
6
CONTINUOUS
10
113.239
20
-154.38
11
113.228
21
-154.37
0
LINE
8
BLACK
6
CONTINUOUS
10
113.228
20
-154.37
11
113.219
21
-154.358
0
LINE
8
BLACK
6
CONTINUOUS
10
113.219
20
-154.358
11
113.214
21
-154.344
0
LINE
8
BLACK
6
CONTINUOUS
10
113.214
20
-154.344
11
113.21
21
-154.329
0
LINE
8
BLACK
6
CONTINUOUS
10
113.21
20
-154.329
11
113.21
21
-154.314
0
LINE
8
BLACK
6
CONTINUOUS
10
113.21
20
-154.314
11
113.211
21
-154.31
0
LINE
8
BLACK
6
CONTINUOUS
10
113.211
20
-154.31
11
114.428
21
-140.401
0
LINE
8
BLACK
6
CONTINUOUS
10
114.428
20
-140.401
11
114.428
21
-140.397
0
LINE
8
BLACK
6
CONTINUOUS
10
114.428
20
-140.397
11
114.429
21
-140.394
0
LINE
8
BLACK
6
CONTINUOUS
10
114.429
20
-140.394
11
114.429
21
-140.393
0
LINE
8
BLACK
6
CONTINUOUS
10
114.429
20
-140.393
11
114.431
21
-140.382
0
LINE
8
BLACK
6
CONTINUOUS
10
114.431
20
-140.382
11
114.436
21
-140.369
0
LINE
8
BLACK
6
CONTINUOUS
10
114.436
20
-140.369
11
114.444
21
-140.356
0
LINE
8
BLACK
6
CONTINUOUS
10
114.444
20
-140.356
11
114.455
21
-140.345
0
LINE
8
BLACK
6
CONTINUOUS
10
114.455
20
-140.345
11
114.467
21
-140.337
0
LINE
8
BLACK
6
CONTINUOUS
10
114.467
20
-140.337
11
114.481
21
-140.331
0
LINE
8
BLACK
6
CONTINUOUS
10
114.481
20
-140.331
11
114.496
21
-140.328
0
LINE
8
BLACK
6
CONTINUOUS
10
114.496
20
-140.328
11
114.511
21
-140.328
0
LINE
8
BLACK
6
CONTINUOUS
10
114.511
20
-140.328
11
114.514
21
-140.328
0
LINE
8
BLACK
6
CONTINUOUS
10
113.369
20
-154.251
11
127.134
21
-155.456
0
LINE
8
BLACK
6
CONTINUOUS
10
127.134
20
-155.456
11
128.338
21
-141.691
0
LINE
8
BLACK
6
CONTINUOUS
10
128.338
20
-141.691
11
114.573
21
-140.486
0
LINE
8
BLACK
6
CONTINUOUS
10
114.573
20
-140.486
11
113.369
21
-154.251
0
LINE
8
BLACK
6
CONTINUOUS
10
299.842
20
-140.328
11
299.857
21
-140.331
0
LINE
8
BLACK
6
CONTINUOUS
10
299.857
20
-140.331
11
299.871
21
-140.337
0
LINE
8
BLACK
6
CONTINUOUS
10
299.871
20
-140.337
11
299.883
21
-140.345
0
LINE
8
BLACK
6
CONTINUOUS
10
299.883
20
-140.345
11
299.894
21
-140.356
0
LINE
8
BLACK
6
CONTINUOUS
10
299.894
20
-140.356
11
299.902
21
-140.369
0
LINE
8
BLACK
6
CONTINUOUS
10
299.902
20
-140.369
11
299.907
21
-140.381
0
LINE
8
BLACK
6
CONTINUOUS
10
299.907
20
-140.381
11
299.908
21
-140.382
0
LINE
8
BLACK
6
CONTINUOUS
10
299.908
20
-140.382
11
299.91
21
-140.397
0
LINE
8
BLACK
6
CONTINUOUS
10
299.91
20
-140.397
11
299.91
21
-140.401
0
LINE
8
BLACK
6
CONTINUOUS
10
299.91
20
-140.401
11
301.127
21
-154.31
0
LINE
8
BLACK
6
CONTINUOUS
10
301.127
20
-154.31
11
301.128
21
-154.314
0
LINE
8
BLACK
6
CONTINUOUS
10
301.128
20
-154.314
11
301.128
21
-154.329
0
LINE
8
BLACK
6
CONTINUOUS
10
301.128
20
-154.329
11
301.125
21
-154.344
0
LINE
8
BLACK
6
CONTINUOUS
10
301.125
20
-154.344
11
301.119
21
-154.358
0
LINE
8
BLACK
6
CONTINUOUS
10
301.119
20
-154.358
11
301.11
21
-154.37
0
LINE
8
BLACK
6
CONTINUOUS
10
301.11
20
-154.37
11
301.1
21
-154.38
0
LINE
8
BLACK
6
CONTINUOUS
10
301.1
20
-154.38
11
301.087
21
-154.389
0
LINE
8
BLACK
6
CONTINUOUS
10
301.087
20
-154.389
11
301.073
21
-154.394
0
LINE
8
BLACK
6
CONTINUOUS
10
301.073
20
-154.394
11
301.062
21
-154.396
0
LINE
8
BLACK
6
CONTINUOUS
10
301.062
20
-154.396
11
301.062
21
-154.396
0
LINE
8
BLACK
6
CONTINUOUS
10
301.062
20
-154.396
11
301.058
21
-154.397
0
LINE
8
BLACK
6
CONTINUOUS
10
301.058
20
-154.397
11
301.055
21
-154.397
0
LINE
8
BLACK
6
CONTINUOUS
10
301.055
20
-154.397
11
287.145
21
-155.614
0
LINE
8
BLACK
6
CONTINUOUS
10
287.145
20
-155.614
11
287.142
21
-155.615
0
LINE
8
BLACK
6
CONTINUOUS
10
287.142
20
-155.615
11
287.126
21
-155.614
0
LINE
8
BLACK
6
CONTINUOUS
10
287.126
20
-155.614
11
287.112
21
-155.611
0
LINE
8
BLACK
6
CONTINUOUS
10
287.112
20
-155.611
11
287.098
21
-155.605
0
LINE
8
BLACK
6
CONTINUOUS
10
287.098
20
-155.605
11
287.086
21
-155.597
0
LINE
8
BLACK
6
CONTINUOUS
10
287.086
20
-155.597
11
287.075
21
-155.586
0
LINE
8
BLACK
6
CONTINUOUS
10
287.075
20
-155.586
11
287.067
21
-155.574
0
LINE
8
BLACK
6
CONTINUOUS
10
287.067
20
-155.574
11
287.061
21
-155.56
0
LINE
8
BLACK
6
CONTINUOUS
10
287.061
20
-155.56
11
287.059
21
-155.549
0
LINE
8
BLACK
6
CONTINUOUS
10
287.059
20
-155.549
11
287.059
21
-155.549
0
LINE
8
BLACK
6
CONTINUOUS
10
287.059
20
-155.549
11
287.059
21
-155.545
0
LINE
8
BLACK
6
CONTINUOUS
10
287.059
20
-155.545
11
287.059
21
-155.541
0
LINE
8
BLACK
6
CONTINUOUS
10
287.059
20
-155.541
11
285.842
21
-141.632
0
LINE
8
BLACK
6
CONTINUOUS
10
285.842
20
-141.632
11
285.841
21
-141.628
0
LINE
8
BLACK
6
CONTINUOUS
10
285.841
20
-141.628
11
285.841
21
-141.613
0
LINE
8
BLACK
6
CONTINUOUS
10
285.841
20
-141.613
11
285.844
21
-141.598
0
LINE
8
BLACK
6
CONTINUOUS
10
285.844
20
-141.598
11
285.85
21
-141.585
0
LINE
8
BLACK
6
CONTINUOUS
10
285.85
20
-141.585
11
285.859
21
-141.572
0
LINE
8
BLACK
6
CONTINUOUS
10
285.859
20
-141.572
11
285.869
21
-141.562
0
LINE
8
BLACK
6
CONTINUOUS
10
285.869
20
-141.562
11
285.882
21
-141.554
0
LINE
8
BLACK
6
CONTINUOUS
10
285.882
20
-141.554
11
285.896
21
-141.548
0
LINE
8
BLACK
6
CONTINUOUS
10
285.896
20
-141.548
11
285.907
21
-141.546
0
LINE
8
BLACK
6
CONTINUOUS
10
285.907
20
-141.546
11
285.907
21
-141.546
0
LINE
8
BLACK
6
CONTINUOUS
10
285.907
20
-141.546
11
285.911
21
-141.545
0
LINE
8
BLACK
6
CONTINUOUS
10
285.911
20
-141.545
11
285.914
21
-141.545
0
LINE
8
BLACK
6
CONTINUOUS
10
285.914
20
-141.545
11
299.824
21
-140.328
0
LINE
8
BLACK
6
CONTINUOUS
10
299.824
20
-140.328
11
299.827
21
-140.328
0
LINE
8
BLACK
6
CONTINUOUS
10
299.827
20
-140.328
11
299.842
21
-140.328
0
LINE
8
BLACK
6
CONTINUOUS
10
286
20
-141.691
11
287.204
21
-155.456
0
LINE
8
BLACK
6
CONTINUOUS
10
287.204
20
-155.456
11
300.969
21
-154.251
0
LINE
8
BLACK
6
CONTINUOUS
10
300.969
20
-154.251
11
299.765
21
-140.486
0
LINE
8
BLACK
6
CONTINUOUS
10
299.765
20
-140.486
11
286
21
-141.691
0
LINE
8
BLACK
6
CONTINUOUS
10
133.7
20
-139.616
11
147.609
21
-140.833
0
LINE
8
BLACK
6
CONTINUOUS
10
147.609
20
-140.833
11
147.613
21
-140.833
0
LINE
8
BLACK
6
CONTINUOUS
10
147.613
20
-140.833
11
147.616
21
-140.834
0
LINE
8
BLACK
6
CONTINUOUS
10
147.616
20
-140.834
11
147.616
21
-140.834
0
LINE
8
BLACK
6
CONTINUOUS
10
147.616
20
-140.834
11
147.627
21
-140.836
0
LINE
8
BLACK
6
CONTINUOUS
10
147.627
20
-140.836
11
147.641
21
-140.842
0
LINE
8
BLACK
6
CONTINUOUS
10
147.641
20
-140.842
11
147.654
21
-140.85
0
LINE
8
BLACK
6
CONTINUOUS
10
147.654
20
-140.85
11
147.665
21
-140.86
0
LINE
8
BLACK
6
CONTINUOUS
10
147.665
20
-140.86
11
147.673
21
-140.873
0
LINE
8
BLACK
6
CONTINUOUS
10
147.673
20
-140.873
11
147.679
21
-140.887
0
LINE
8
BLACK
6
CONTINUOUS
10
147.679
20
-140.887
11
147.682
21
-140.901
0
LINE
8
BLACK
6
CONTINUOUS
10
147.682
20
-140.901
11
147.682
21
-140.916
0
LINE
8
BLACK
6
CONTINUOUS
10
147.682
20
-140.916
11
147.682
21
-140.92
0
LINE
8
BLACK
6
CONTINUOUS
10
147.682
20
-140.92
11
146.465
21
-154.829
0
LINE
8
BLACK
6
CONTINUOUS
10
146.465
20
-154.829
11
146.465
21
-154.833
0
LINE
8
BLACK
6
CONTINUOUS
10
146.465
20
-154.833
11
146.464
21
-154.837
0
LINE
8
BLACK
6
CONTINUOUS
10
146.464
20
-154.837
11
146.464
21
-154.837
0
LINE
8
BLACK
6
CONTINUOUS
10
146.464
20
-154.837
11
146.462
21
-154.848
0
LINE
8
BLACK
6
CONTINUOUS
10
146.462
20
-154.848
11
146.456
21
-154.862
0
LINE
8
BLACK
6
CONTINUOUS
10
146.456
20
-154.862
11
146.448
21
-154.874
0
LINE
8
BLACK
6
CONTINUOUS
10
146.448
20
-154.874
11
146.438
21
-154.885
0
LINE
8
BLACK
6
CONTINUOUS
10
146.438
20
-154.885
11
146.425
21
-154.894
0
LINE
8
BLACK
6
CONTINUOUS
10
146.425
20
-154.894
11
146.411
21
-154.899
0
LINE
8
BLACK
6
CONTINUOUS
10
146.411
20
-154.899
11
146.397
21
-154.903
0
LINE
8
BLACK
6
CONTINUOUS
10
146.397
20
-154.903
11
146.382
21
-154.903
0
LINE
8
BLACK
6
CONTINUOUS
10
146.382
20
-154.903
11
146.378
21
-154.902
0
LINE
8
BLACK
6
CONTINUOUS
10
146.378
20
-154.902
11
132.469
21
-153.685
0
LINE
8
BLACK
6
CONTINUOUS
10
132.469
20
-153.685
11
132.465
21
-153.685
0
LINE
8
BLACK
6
CONTINUOUS
10
132.465
20
-153.685
11
132.461
21
-153.684
0
LINE
8
BLACK
6
CONTINUOUS
10
132.461
20
-153.684
11
132.461
21
-153.684
0
LINE
8
BLACK
6
CONTINUOUS
10
132.461
20
-153.684
11
132.45
21
-153.682
0
LINE
8
BLACK
6
CONTINUOUS
10
132.45
20
-153.682
11
132.436
21
-153.677
0
LINE
8
BLACK
6
CONTINUOUS
10
132.436
20
-153.677
11
132.424
21
-153.669
0
LINE
8
BLACK
6
CONTINUOUS
10
132.424
20
-153.669
11
132.413
21
-153.658
0
LINE
8
BLACK
6
CONTINUOUS
10
132.413
20
-153.658
11
132.404
21
-153.646
0
LINE
8
BLACK
6
CONTINUOUS
10
132.404
20
-153.646
11
132.399
21
-153.632
0
LINE
8
BLACK
6
CONTINUOUS
10
132.399
20
-153.632
11
132.395
21
-153.617
0
LINE
8
BLACK
6
CONTINUOUS
10
132.395
20
-153.617
11
132.395
21
-153.602
0
LINE
8
BLACK
6
CONTINUOUS
10
132.395
20
-153.602
11
132.396
21
-153.598
0
LINE
8
BLACK
6
CONTINUOUS
10
132.396
20
-153.598
11
133.613
21
-139.689
0
LINE
8
BLACK
6
CONTINUOUS
10
133.613
20
-139.689
11
133.613
21
-139.685
0
LINE
8
BLACK
6
CONTINUOUS
10
133.613
20
-139.685
11
133.614
21
-139.682
0
LINE
8
BLACK
6
CONTINUOUS
10
133.614
20
-139.682
11
133.614
21
-139.682
0
LINE
8
BLACK
6
CONTINUOUS
10
133.614
20
-139.682
11
133.616
21
-139.671
0
LINE
8
BLACK
6
CONTINUOUS
10
133.616
20
-139.671
11
133.621
21
-139.657
0
LINE
8
BLACK
6
CONTINUOUS
10
133.621
20
-139.657
11
133.629
21
-139.644
0
LINE
8
BLACK
6
CONTINUOUS
10
133.629
20
-139.644
11
133.64
21
-139.633
0
LINE
8
BLACK
6
CONTINUOUS
10
133.64
20
-139.633
11
133.652
21
-139.625
0
LINE
8
BLACK
6
CONTINUOUS
10
133.652
20
-139.625
11
133.666
21
-139.619
0
LINE
8
BLACK
6
CONTINUOUS
10
133.666
20
-139.619
11
133.681
21
-139.616
0
LINE
8
BLACK
6
CONTINUOUS
10
133.681
20
-139.616
11
133.696
21
-139.616
0
LINE
8
BLACK
6
CONTINUOUS
10
133.696
20
-139.616
11
133.7
21
-139.616
0
LINE
8
BLACK
6
CONTINUOUS
10
132.554
20
-153.54
11
146.319
21
-154.744
0
LINE
8
BLACK
6
CONTINUOUS
10
146.319
20
-154.744
11
147.523
21
-140.979
0
LINE
8
BLACK
6
CONTINUOUS
10
147.523
20
-140.979
11
133.758
21
-139.775
0
LINE
8
BLACK
6
CONTINUOUS
10
133.758
20
-139.775
11
132.554
21
-153.54
0
LINE
8
BLACK
6
CONTINUOUS
10
280.657
20
-139.616
11
280.672
21
-139.619
0
LINE
8
BLACK
6
CONTINUOUS
10
280.672
20
-139.619
11
280.686
21
-139.625
0
LINE
8
BLACK
6
CONTINUOUS
10
280.686
20
-139.625
11
280.698
21
-139.633
0
LINE
8
BLACK
6
CONTINUOUS
10
280.698
20
-139.633
11
280.709
21
-139.644
0
LINE
8
BLACK
6
CONTINUOUS
10
280.709
20
-139.644
11
280.717
21
-139.657
0
LINE
8
BLACK
6
CONTINUOUS
10
280.717
20
-139.657
11
280.722
21
-139.669
0
LINE
8
BLACK
6
CONTINUOUS
10
280.722
20
-139.669
11
280.723
21
-139.671
0
LINE
8
BLACK
6
CONTINUOUS
10
280.723
20
-139.671
11
280.725
21
-139.685
0
LINE
8
BLACK
6
CONTINUOUS
10
280.725
20
-139.685
11
280.725
21
-139.689
0
LINE
8
BLACK
6
CONTINUOUS
10
280.725
20
-139.689
11
281.942
21
-153.598
0
LINE
8
BLACK
6
CONTINUOUS
10
281.942
20
-153.598
11
281.943
21
-153.602
0
LINE
8
BLACK
6
CONTINUOUS
10
281.943
20
-153.602
11
281.943
21
-153.617
0
LINE
8
BLACK
6
CONTINUOUS
10
281.943
20
-153.617
11
281.94
21
-153.632
0
LINE
8
BLACK
6
CONTINUOUS
10
281.94
20
-153.632
11
281.934
21
-153.646
0
LINE
8
BLACK
6
CONTINUOUS
10
281.934
20
-153.646
11
281.925
21
-153.658
0
LINE
8
BLACK
6
CONTINUOUS
10
281.925
20
-153.658
11
281.915
21
-153.669
0
LINE
8
BLACK
6
CONTINUOUS
10
281.915
20
-153.669
11
281.902
21
-153.677
0
LINE
8
BLACK
6
CONTINUOUS
10
281.902
20
-153.677
11
281.888
21
-153.682
0
LINE
8
BLACK
6
CONTINUOUS
10
281.888
20
-153.682
11
281.877
21
-153.684
0
LINE
8
BLACK
6
CONTINUOUS
10
281.877
20
-153.684
11
281.877
21
-153.684
0
LINE
8
BLACK
6
CONTINUOUS
10
281.877
20
-153.684
11
281.873
21
-153.685
0
LINE
8
BLACK
6
CONTINUOUS
10
281.873
20
-153.685
11
281.87
21
-153.685
0
LINE
8
BLACK
6
CONTINUOUS
10
281.87
20
-153.685
11
267.96
21
-154.902
0
LINE
8
BLACK
6
CONTINUOUS
10
267.96
20
-154.902
11
267.956
21
-154.903
0
LINE
8
BLACK
6
CONTINUOUS
10
267.956
20
-154.903
11
267.941
21
-154.903
0
LINE
8
BLACK
6
CONTINUOUS
10
267.941
20
-154.903
11
267.927
21
-154.899
0
LINE
8
BLACK
6
CONTINUOUS
10
267.927
20
-154.899
11
267.913
21
-154.894
0
LINE
8
BLACK
6
CONTINUOUS
10
267.913
20
-154.894
11
267.901
21
-154.885
0
LINE
8
BLACK
6
CONTINUOUS
10
267.901
20
-154.885
11
267.89
21
-154.874
0
LINE
8
BLACK
6
CONTINUOUS
10
267.89
20
-154.874
11
267.882
21
-154.862
0
LINE
8
BLACK
6
CONTINUOUS
10
267.882
20
-154.862
11
267.876
21
-154.848
0
LINE
8
BLACK
6
CONTINUOUS
10
267.876
20
-154.848
11
267.874
21
-154.837
0
LINE
8
BLACK
6
CONTINUOUS
10
267.874
20
-154.837
11
267.874
21
-154.837
0
LINE
8
BLACK
6
CONTINUOUS
10
267.874
20
-154.837
11
267.874
21
-154.833
0
LINE
8
BLACK
6
CONTINUOUS
10
267.874
20
-154.833
11
267.874
21
-154.829
0
LINE
8
BLACK
6
CONTINUOUS
10
267.874
20
-154.829
11
266.657
21
-140.92
0
LINE
8
BLACK
6
CONTINUOUS
10
266.657
20
-140.92
11
266.656
21
-140.916
0
LINE
8
BLACK
6
CONTINUOUS
10
266.656
20
-140.916
11
266.656
21
-140.901
0
LINE
8
BLACK
6
CONTINUOUS
10
266.656
20
-140.901
11
266.659
21
-140.887
0
LINE
8
BLACK
6
CONTINUOUS
10
266.659
20
-140.887
11
266.665
21
-140.873
0
LINE
8
BLACK
6
CONTINUOUS
10
266.665
20
-140.873
11
266.674
21
-140.86
0
LINE
8
BLACK
6
CONTINUOUS
10
266.674
20
-140.86
11
266.684
21
-140.85
0
LINE
8
BLACK
6
CONTINUOUS
10
266.684
20
-140.85
11
266.697
21
-140.842
0
LINE
8
BLACK
6
CONTINUOUS
10
266.697
20
-140.842
11
266.711
21
-140.836
0
LINE
8
BLACK
6
CONTINUOUS
10
266.711
20
-140.836
11
266.722
21
-140.834
0
LINE
8
BLACK
6
CONTINUOUS
10
266.722
20
-140.834
11
266.722
21
-140.834
0
LINE
8
BLACK
6
CONTINUOUS
10
266.722
20
-140.834
11
266.726
21
-140.833
0
LINE
8
BLACK
6
CONTINUOUS
10
266.726
20
-140.833
11
266.729
21
-140.833
0
LINE
8
BLACK
6
CONTINUOUS
10
266.729
20
-140.833
11
280.639
21
-139.616
0
LINE
8
BLACK
6
CONTINUOUS
10
280.639
20
-139.616
11
280.642
21
-139.616
0
LINE
8
BLACK
6
CONTINUOUS
10
280.642
20
-139.616
11
280.657
21
-139.616
0
LINE
8
BLACK
6
CONTINUOUS
10
266.815
20
-140.979
11
268.019
21
-154.744
0
LINE
8
BLACK
6
CONTINUOUS
10
268.019
20
-154.744
11
281.784
21
-153.54
0
LINE
8
BLACK
6
CONTINUOUS
10
281.784
20
-153.54
11
280.58
21
-139.775
0
LINE
8
BLACK
6
CONTINUOUS
10
280.58
20
-139.775
11
266.815
21
-140.979
0
LINE
8
BLACK
6
CONTINUOUS
10
241.457
20
-128.703
11
241.472
21
-128.706
0
LINE
8
BLACK
6
CONTINUOUS
10
241.472
20
-128.706
11
241.486
21
-128.712
0
LINE
8
BLACK
6
CONTINUOUS
10
241.486
20
-128.712
11
241.498
21
-128.721
0
LINE
8
BLACK
6
CONTINUOUS
10
241.498
20
-128.721
11
241.509
21
-128.732
0
LINE
8
BLACK
6
CONTINUOUS
10
241.509
20
-128.732
11
241.517
21
-128.744
0
LINE
8
BLACK
6
CONTINUOUS
10
241.517
20
-128.744
11
241.522
21
-128.756
0
LINE
8
BLACK
6
CONTINUOUS
10
241.522
20
-128.756
11
241.522
21
-128.758
0
LINE
8
BLACK
6
CONTINUOUS
10
241.522
20
-128.758
11
241.525
21
-128.773
0
LINE
8
BLACK
6
CONTINUOUS
10
241.525
20
-128.773
11
241.525
21
-128.777
0
LINE
8
BLACK
6
CONTINUOUS
10
241.525
20
-128.777
11
242.742
21
-142.686
0
LINE
8
BLACK
6
CONTINUOUS
10
242.742
20
-142.686
11
242.743
21
-142.69
0
LINE
8
BLACK
6
CONTINUOUS
10
242.743
20
-142.69
11
242.742
21
-142.705
0
LINE
8
BLACK
6
CONTINUOUS
10
242.742
20
-142.705
11
242.739
21
-142.719
0
LINE
8
BLACK
6
CONTINUOUS
10
242.739
20
-142.719
11
242.733
21
-142.733
0
LINE
8
BLACK
6
CONTINUOUS
10
242.733
20
-142.733
11
242.725
21
-142.746
0
LINE
8
BLACK
6
CONTINUOUS
10
242.725
20
-142.746
11
242.714
21
-142.756
0
LINE
8
BLACK
6
CONTINUOUS
10
242.714
20
-142.756
11
242.702
21
-142.764
0
LINE
8
BLACK
6
CONTINUOUS
10
242.702
20
-142.764
11
242.688
21
-142.77
0
LINE
8
BLACK
6
CONTINUOUS
10
242.688
20
-142.77
11
242.677
21
-142.772
0
LINE
8
BLACK
6
CONTINUOUS
10
242.677
20
-142.772
11
242.677
21
-142.772
0
LINE
8
BLACK
6
CONTINUOUS
10
242.677
20
-142.772
11
242.673
21
-142.773
0
LINE
8
BLACK
6
CONTINUOUS
10
242.673
20
-142.773
11
242.669
21
-142.773
0
LINE
8
BLACK
6
CONTINUOUS
10
242.669
20
-142.773
11
228.76
21
-143.989
0
LINE
8
BLACK
6
CONTINUOUS
10
228.76
20
-143.989
11
228.756
21
-143.99
0
LINE
8
BLACK
6
CONTINUOUS
10
228.756
20
-143.99
11
228.741
21
-143.99
0
LINE
8
BLACK
6
CONTINUOUS
10
228.741
20
-143.99
11
228.727
21
-143.987
0
LINE
8
BLACK
6
CONTINUOUS
10
228.727
20
-143.987
11
228.713
21
-143.981
0
LINE
8
BLACK
6
CONTINUOUS
10
228.713
20
-143.981
11
228.7
21
-143.973
0
LINE
8
BLACK
6
CONTINUOUS
10
228.7
20
-143.973
11
228.69
21
-143.962
0
LINE
8
BLACK
6
CONTINUOUS
10
228.69
20
-143.962
11
228.682
21
-143.949
0
LINE
8
BLACK
6
CONTINUOUS
10
228.682
20
-143.949
11
228.676
21
-143.935
0
LINE
8
BLACK
6
CONTINUOUS
10
228.676
20
-143.935
11
228.674
21
-143.924
0
LINE
8
BLACK
6
CONTINUOUS
10
228.674
20
-143.924
11
228.674
21
-143.924
0
LINE
8
BLACK
6
CONTINUOUS
10
228.674
20
-143.924
11
228.673
21
-143.921
0
LINE
8
BLACK
6
CONTINUOUS
10
228.673
20
-143.921
11
228.673
21
-143.917
0
LINE
8
BLACK
6
CONTINUOUS
10
228.673
20
-143.917
11
227.456
21
-130.007
0
LINE
8
BLACK
6
CONTINUOUS
10
227.456
20
-130.007
11
227.456
21
-130.004
0
LINE
8
BLACK
6
CONTINUOUS
10
227.456
20
-130.004
11
227.456
21
-129.989
0
LINE
8
BLACK
6
CONTINUOUS
10
227.456
20
-129.989
11
227.459
21
-129.974
0
LINE
8
BLACK
6
CONTINUOUS
10
227.459
20
-129.974
11
227.465
21
-129.96
0
LINE
8
BLACK
6
CONTINUOUS
10
227.465
20
-129.96
11
227.473
21
-129.948
0
LINE
8
BLACK
6
CONTINUOUS
10
227.473
20
-129.948
11
227.484
21
-129.937
0
LINE
8
BLACK
6
CONTINUOUS
10
227.484
20
-129.937
11
227.497
21
-129.929
0
LINE
8
BLACK
6
CONTINUOUS
10
227.497
20
-129.929
11
227.511
21
-129.924
0
LINE
8
BLACK
6
CONTINUOUS
10
227.511
20
-129.924
11
227.522
21
-129.921
0
LINE
8
BLACK
6
CONTINUOUS
10
227.522
20
-129.921
11
227.522
21
-129.921
0
LINE
8
BLACK
6
CONTINUOUS
10
227.522
20
-129.921
11
227.525
21
-129.921
0
LINE
8
BLACK
6
CONTINUOUS
10
227.525
20
-129.921
11
227.529
21
-129.921
0
LINE
8
BLACK
6
CONTINUOUS
10
227.529
20
-129.921
11
241.438
21
-128.704
0
LINE
8
BLACK
6
CONTINUOUS
10
241.438
20
-128.704
11
241.442
21
-128.703
0
LINE
8
BLACK
6
CONTINUOUS
10
241.442
20
-128.703
11
241.457
21
-128.703
0
LINE
8
BLACK
6
CONTINUOUS
10
227.615
20
-130.066
11
228.819
21
-143.831
0
LINE
8
BLACK
6
CONTINUOUS
10
228.819
20
-143.831
11
242.584
21
-142.627
0
LINE
8
BLACK
6
CONTINUOUS
10
242.584
20
-142.627
11
241.38
21
-128.862
0
LINE
8
BLACK
6
CONTINUOUS
10
241.38
20
-128.862
11
227.615
21
-130.066
0
LINE
8
BLACK
6
CONTINUOUS
10
172.9
20
-128.704
11
186.809
21
-129.921
0
LINE
8
BLACK
6
CONTINUOUS
10
186.809
20
-129.921
11
186.813
21
-129.921
0
LINE
8
BLACK
6
CONTINUOUS
10
186.813
20
-129.921
11
186.817
21
-129.921
0
LINE
8
BLACK
6
CONTINUOUS
10
186.817
20
-129.921
11
186.817
21
-129.921
0
LINE
8
BLACK
6
CONTINUOUS
10
186.817
20
-129.921
11
186.828
21
-129.924
0
LINE
8
BLACK
6
CONTINUOUS
10
186.828
20
-129.924
11
186.842
21
-129.929
0
LINE
8
BLACK
6
CONTINUOUS
10
186.842
20
-129.929
11
186.854
21
-129.937
0
LINE
8
BLACK
6
CONTINUOUS
10
186.854
20
-129.937
11
186.865
21
-129.948
0
LINE
8
BLACK
6
CONTINUOUS
10
186.865
20
-129.948
11
186.873
21
-129.96
0
LINE
8
BLACK
6
CONTINUOUS
10
186.873
20
-129.96
11
186.879
21
-129.974
0
LINE
8
BLACK
6
CONTINUOUS
10
186.879
20
-129.974
11
186.882
21
-129.989
0
LINE
8
BLACK
6
CONTINUOUS
10
186.882
20
-129.989
11
186.883
21
-130.004
0
LINE
8
BLACK
6
CONTINUOUS
10
186.883
20
-130.004
11
186.882
21
-130.007
0
LINE
8
BLACK
6
CONTINUOUS
10
186.882
20
-130.007
11
185.665
21
-143.917
0
LINE
8
BLACK
6
CONTINUOUS
10
185.665
20
-143.917
11
185.665
21
-143.921
0
LINE
8
BLACK
6
CONTINUOUS
10
185.665
20
-143.921
11
185.664
21
-143.924
0
LINE
8
BLACK
6
CONTINUOUS
10
185.664
20
-143.924
11
185.664
21
-143.924
0
LINE
8
BLACK
6
CONTINUOUS
10
185.664
20
-143.924
11
185.662
21
-143.935
0
LINE
8
BLACK
6
CONTINUOUS
10
185.662
20
-143.935
11
185.657
21
-143.949
0
LINE
8
BLACK
6
CONTINUOUS
10
185.657
20
-143.949
11
185.648
21
-143.962
0
LINE
8
BLACK
6
CONTINUOUS
10
185.648
20
-143.962
11
185.638
21
-143.973
0
LINE
8
BLACK
6
CONTINUOUS
10
185.638
20
-143.973
11
185.626
21
-143.981
0
LINE
8
BLACK
6
CONTINUOUS
10
185.626
20
-143.981
11
185.612
21
-143.987
0
LINE
8
BLACK
6
CONTINUOUS
10
185.612
20
-143.987
11
185.597
21
-143.99
0
LINE
8
BLACK
6
CONTINUOUS
10
185.597
20
-143.99
11
185.582
21
-143.99
0
LINE
8
BLACK
6
CONTINUOUS
10
185.582
20
-143.99
11
185.578
21
-143.989
0
LINE
8
BLACK
6
CONTINUOUS
10
185.578
20
-143.989
11
171.669
21
-142.773
0
LINE
8
BLACK
6
CONTINUOUS
10
171.669
20
-142.773
11
171.665
21
-142.773
0
LINE
8
BLACK
6
CONTINUOUS
10
171.665
20
-142.773
11
171.661
21
-142.772
0
LINE
8
BLACK
6
CONTINUOUS
10
171.661
20
-142.772
11
171.661
21
-142.772
0
LINE
8
BLACK
6
CONTINUOUS
10
171.661
20
-142.772
11
171.65
21
-142.77
0
LINE
8
BLACK
6
CONTINUOUS
10
171.65
20
-142.77
11
171.636
21
-142.764
0
LINE
8
BLACK
6
CONTINUOUS
10
171.636
20
-142.764
11
171.624
21
-142.756
0
LINE
8
BLACK
6
CONTINUOUS
10
171.624
20
-142.756
11
171.613
21
-142.746
0
LINE
8
BLACK
6
CONTINUOUS
10
171.613
20
-142.746
11
171.605
21
-142.733
0
LINE
8
BLACK
6
CONTINUOUS
10
171.605
20
-142.733
11
171.599
21
-142.719
0
LINE
8
BLACK
6
CONTINUOUS
10
171.599
20
-142.719
11
171.596
21
-142.705
0
LINE
8
BLACK
6
CONTINUOUS
10
171.596
20
-142.705
11
171.596
21
-142.69
0
LINE
8
BLACK
6
CONTINUOUS
10
171.596
20
-142.69
11
171.596
21
-142.686
0
LINE
8
BLACK
6
CONTINUOUS
10
171.596
20
-142.686
11
172.813
21
-128.777
0
LINE
8
BLACK
6
CONTINUOUS
10
172.813
20
-128.777
11
172.813
21
-128.773
0
LINE
8
BLACK
6
CONTINUOUS
10
172.813
20
-128.773
11
172.814
21
-128.769
0
LINE
8
BLACK
6
CONTINUOUS
10
172.814
20
-128.769
11
172.814
21
-128.769
0
LINE
8
BLACK
6
CONTINUOUS
10
172.814
20
-128.769
11
172.816
21
-128.758
0
LINE
8
BLACK
6
CONTINUOUS
10
172.816
20
-128.758
11
172.821
21
-128.744
0
LINE
8
BLACK
6
CONTINUOUS
10
172.821
20
-128.744
11
172.83
21
-128.732
0
LINE
8
BLACK
6
CONTINUOUS
10
172.83
20
-128.732
11
172.84
21
-128.721
0
LINE
8
BLACK
6
CONTINUOUS
10
172.84
20
-128.721
11
172.853
21
-128.712
0
LINE
8
BLACK
6
CONTINUOUS
10
172.853
20
-128.712
11
172.866
21
-128.706
0
LINE
8
BLACK
6
CONTINUOUS
10
172.866
20
-128.706
11
172.881
21
-128.703
0
LINE
8
BLACK
6
CONTINUOUS
10
172.881
20
-128.703
11
172.896
21
-128.703
0
LINE
8
BLACK
6
CONTINUOUS
10
172.896
20
-128.703
11
172.9
21
-128.704
0
LINE
8
BLACK
6
CONTINUOUS
10
171.754
20
-142.627
11
185.519
21
-143.831
0
LINE
8
BLACK
6
CONTINUOUS
10
185.519
20
-143.831
11
186.724
21
-130.066
0
LINE
8
BLACK
6
CONTINUOUS
10
186.724
20
-130.066
11
172.959
21
-128.862
0
LINE
8
BLACK
6
CONTINUOUS
10
172.959
20
-128.862
11
171.754
21
-142.627
0
LINE
8
BLACK
6
CONTINUOUS
10
260.435
20
-127.043
11
260.449
21
-127.046
0
LINE
8
BLACK
6
CONTINUOUS
10
260.449
20
-127.046
11
260.463
21
-127.052
0
LINE
8
BLACK
6
CONTINUOUS
10
260.463
20
-127.052
11
260.476
21
-127.061
0
LINE
8
BLACK
6
CONTINUOUS
10
260.476
20
-127.061
11
260.486
21
-127.071
0
LINE
8
BLACK
6
CONTINUOUS
10
260.486
20
-127.071
11
260.494
21
-127.084
0
LINE
8
BLACK
6
CONTINUOUS
10
260.494
20
-127.084
11
260.499
21
-127.096
0
LINE
8
BLACK
6
CONTINUOUS
10
260.499
20
-127.096
11
260.5
21
-127.098
0
LINE
8
BLACK
6
CONTINUOUS
10
260.5
20
-127.098
11
260.503
21
-127.112
0
LINE
8
BLACK
6
CONTINUOUS
10
260.503
20
-127.112
11
260.503
21
-127.116
0
LINE
8
BLACK
6
CONTINUOUS
10
260.503
20
-127.116
11
261.719
21
-141.026
0
LINE
8
BLACK
6
CONTINUOUS
10
261.719
20
-141.026
11
261.72
21
-141.029
0
LINE
8
BLACK
6
CONTINUOUS
10
261.72
20
-141.029
11
261.72
21
-141.044
0
LINE
8
BLACK
6
CONTINUOUS
10
261.72
20
-141.044
11
261.717
21
-141.059
0
LINE
8
BLACK
6
CONTINUOUS
10
261.717
20
-141.059
11
261.711
21
-141.073
0
LINE
8
BLACK
6
CONTINUOUS
10
261.711
20
-141.073
11
261.703
21
-141.085
0
LINE
8
BLACK
6
CONTINUOUS
10
261.703
20
-141.085
11
261.692
21
-141.096
0
LINE
8
BLACK
6
CONTINUOUS
10
261.692
20
-141.096
11
261.679
21
-141.104
0
LINE
8
BLACK
6
CONTINUOUS
10
261.679
20
-141.104
11
261.665
21
-141.11
0
LINE
8
BLACK
6
CONTINUOUS
10
261.665
20
-141.11
11
261.654
21
-141.112
0
LINE
8
BLACK
6
CONTINUOUS
10
261.654
20
-141.112
11
261.654
21
-141.112
0
LINE
8
BLACK
6
CONTINUOUS
10
261.654
20
-141.112
11
261.651
21
-141.112
0
LINE
8
BLACK
6
CONTINUOUS
10
261.651
20
-141.112
11
261.647
21
-141.112
0
LINE
8
BLACK
6
CONTINUOUS
10
261.647
20
-141.112
11
247.737
21
-142.329
0
LINE
8
BLACK
6
CONTINUOUS
10
247.737
20
-142.329
11
247.734
21
-142.33
0
LINE
8
BLACK
6
CONTINUOUS
10
247.734
20
-142.33
11
247.719
21
-142.33
0
LINE
8
BLACK
6
CONTINUOUS
10
247.719
20
-142.33
11
247.704
21
-142.327
0
LINE
8
BLACK
6
CONTINUOUS
10
247.704
20
-142.327
11
247.69
21
-142.321
0
LINE
8
BLACK
6
CONTINUOUS
10
247.69
20
-142.321
11
247.678
21
-142.312
0
LINE
8
BLACK
6
CONTINUOUS
10
247.678
20
-142.312
11
247.667
21
-142.302
0
LINE
8
BLACK
6
CONTINUOUS
10
247.667
20
-142.302
11
247.659
21
-142.289
0
LINE
8
BLACK
6
CONTINUOUS
10
247.659
20
-142.289
11
247.654
21
-142.275
0
LINE
8
BLACK
6
CONTINUOUS
10
247.654
20
-142.275
11
247.651
21
-142.264
0
LINE
8
BLACK
6
CONTINUOUS
10
247.651
20
-142.264
11
247.651
21
-142.264
0
LINE
8
BLACK
6
CONTINUOUS
10
247.651
20
-142.264
11
247.651
21
-142.26
0
LINE
8
BLACK
6
CONTINUOUS
10
247.651
20
-142.26
11
247.651
21
-142.257
0
LINE
8
BLACK
6
CONTINUOUS
10
247.651
20
-142.257
11
246.434
21
-128.347
0
LINE
8
BLACK
6
CONTINUOUS
10
246.434
20
-128.347
11
246.433
21
-128.343
0
LINE
8
BLACK
6
CONTINUOUS
10
246.433
20
-128.343
11
246.433
21
-128.328
0
LINE
8
BLACK
6
CONTINUOUS
10
246.433
20
-128.328
11
246.436
21
-128.314
0
LINE
8
BLACK
6
CONTINUOUS
10
246.436
20
-128.314
11
246.442
21
-128.3
0
LINE
8
BLACK
6
CONTINUOUS
10
246.442
20
-128.3
11
246.451
21
-128.288
0
LINE
8
BLACK
6
CONTINUOUS
10
246.451
20
-128.288
11
246.462
21
-128.277
0
LINE
8
BLACK
6
CONTINUOUS
10
246.462
20
-128.277
11
246.474
21
-128.269
0
LINE
8
BLACK
6
CONTINUOUS
10
246.474
20
-128.269
11
246.488
21
-128.263
0
LINE
8
BLACK
6
CONTINUOUS
10
246.488
20
-128.263
11
246.499
21
-128.261
0
LINE
8
BLACK
6
CONTINUOUS
10
246.499
20
-128.261
11
246.499
21
-128.261
0
LINE
8
BLACK
6
CONTINUOUS
10
246.499
20
-128.261
11
246.503
21
-128.26
0
LINE
8
BLACK
6
CONTINUOUS
10
246.503
20
-128.26
11
246.507
21
-128.261
0
LINE
8
BLACK
6
CONTINUOUS
10
246.507
20
-128.261
11
260.416
21
-127.044
0
LINE
8
BLACK
6
CONTINUOUS
10
260.416
20
-127.044
11
260.42
21
-127.043
0
LINE
8
BLACK
6
CONTINUOUS
10
260.42
20
-127.043
11
260.435
21
-127.043
0
LINE
8
BLACK
6
CONTINUOUS
10
246.592
20
-128.406
11
247.796
21
-142.171
0
LINE
8
BLACK
6
CONTINUOUS
10
247.796
20
-142.171
11
261.561
21
-140.967
0
LINE
8
BLACK
6
CONTINUOUS
10
261.561
20
-140.967
11
260.357
21
-127.202
0
LINE
8
BLACK
6
CONTINUOUS
10
260.357
20
-127.202
11
246.592
21
-128.406
0
LINE
8
BLACK
6
CONTINUOUS
10
153.922
20
-127.044
11
167.832
21
-128.261
0
LINE
8
BLACK
6
CONTINUOUS
10
167.832
20
-128.261
11
167.835
21
-128.26
0
LINE
8
BLACK
6
CONTINUOUS
10
167.835
20
-128.26
11
167.839
21
-128.261
0
LINE
8
BLACK
6
CONTINUOUS
10
167.839
20
-128.261
11
167.839
21
-128.261
0
LINE
8
BLACK
6
CONTINUOUS
10
167.839
20
-128.261
11
167.85
21
-128.263
0
LINE
8
BLACK
6
CONTINUOUS
10
167.85
20
-128.263
11
167.864
21
-128.269
0
LINE
8
BLACK
6
CONTINUOUS
10
167.864
20
-128.269
11
167.877
21
-128.277
0
LINE
8
BLACK
6
CONTINUOUS
10
167.877
20
-128.277
11
167.887
21
-128.288
0
LINE
8
BLACK
6
CONTINUOUS
10
167.887
20
-128.288
11
167.896
21
-128.3
0
LINE
8
BLACK
6
CONTINUOUS
10
167.896
20
-128.3
11
167.902
21
-128.314
0
LINE
8
BLACK
6
CONTINUOUS
10
167.902
20
-128.314
11
167.905
21
-128.328
0
LINE
8
BLACK
6
CONTINUOUS
10
167.905
20
-128.328
11
167.905
21
-128.343
0
LINE
8
BLACK
6
CONTINUOUS
10
167.905
20
-128.343
11
167.904
21
-128.347
0
LINE
8
BLACK
6
CONTINUOUS
10
167.904
20
-128.347
11
166.687
21
-142.256
0
LINE
8
BLACK
6
CONTINUOUS
10
166.687
20
-142.256
11
166.687
21
-142.26
0
LINE
8
BLACK
6
CONTINUOUS
10
166.687
20
-142.26
11
166.687
21
-142.264
0
LINE
8
BLACK
6
CONTINUOUS
10
166.687
20
-142.264
11
166.687
21
-142.264
0
LINE
8
BLACK
6
CONTINUOUS
10
166.687
20
-142.264
11
166.685
21
-142.275
0
LINE
8
BLACK
6
CONTINUOUS
10
166.685
20
-142.275
11
166.679
21
-142.289
0
LINE
8
BLACK
6
CONTINUOUS
10
166.679
20
-142.289
11
166.671
21
-142.302
0
LINE
8
BLACK
6
CONTINUOUS
10
166.671
20
-142.302
11
166.66
21
-142.312
0
LINE
8
BLACK
6
CONTINUOUS
10
166.66
20
-142.312
11
166.648
21
-142.321
0
LINE
8
BLACK
6
CONTINUOUS
10
166.648
20
-142.321
11
166.634
21
-142.327
0
LINE
8
BLACK
6
CONTINUOUS
10
166.634
20
-142.327
11
166.619
21
-142.33
0
LINE
8
BLACK
6
CONTINUOUS
10
166.619
20
-142.33
11
166.604
21
-142.33
0
LINE
8
BLACK
6
CONTINUOUS
10
166.604
20
-142.33
11
166.601
21
-142.329
0
LINE
8
BLACK
6
CONTINUOUS
10
166.601
20
-142.329
11
152.691
21
-141.112
0
LINE
8
BLACK
6
CONTINUOUS
10
152.691
20
-141.112
11
152.688
21
-141.112
0
LINE
8
BLACK
6
CONTINUOUS
10
152.688
20
-141.112
11
152.684
21
-141.112
0
LINE
8
BLACK
6
CONTINUOUS
10
152.684
20
-141.112
11
152.684
21
-141.112
0
LINE
8
BLACK
6
CONTINUOUS
10
152.684
20
-141.112
11
152.673
21
-141.11
0
LINE
8
BLACK
6
CONTINUOUS
10
152.673
20
-141.11
11
152.659
21
-141.104
0
LINE
8
BLACK
6
CONTINUOUS
10
152.659
20
-141.104
11
152.646
21
-141.096
0
LINE
8
BLACK
6
CONTINUOUS
10
152.646
20
-141.096
11
152.636
21
-141.085
0
LINE
8
BLACK
6
CONTINUOUS
10
152.636
20
-141.085
11
152.627
21
-141.073
0
LINE
8
BLACK
6
CONTINUOUS
10
152.627
20
-141.073
11
152.621
21
-141.059
0
LINE
8
BLACK
6
CONTINUOUS
10
152.621
20
-141.059
11
152.618
21
-141.044
0
LINE
8
BLACK
6
CONTINUOUS
10
152.618
20
-141.044
11
152.618
21
-141.029
0
LINE
8
BLACK
6
CONTINUOUS
10
152.618
20
-141.029
11
152.619
21
-141.026
0
LINE
8
BLACK
6
CONTINUOUS
10
152.619
20
-141.026
11
153.836
21
-127.116
0
LINE
8
BLACK
6
CONTINUOUS
10
153.836
20
-127.116
11
153.836
21
-127.112
0
LINE
8
BLACK
6
CONTINUOUS
10
153.836
20
-127.112
11
153.836
21
-127.109
0
LINE
8
BLACK
6
CONTINUOUS
10
153.836
20
-127.109
11
153.836
21
-127.109
0
LINE
8
BLACK
6
CONTINUOUS
10
153.836
20
-127.109
11
153.838
21
-127.098
0
LINE
8
BLACK
6
CONTINUOUS
10
153.838
20
-127.098
11
153.844
21
-127.084
0
LINE
8
BLACK
6
CONTINUOUS
10
153.844
20
-127.084
11
153.852
21
-127.071
0
LINE
8
BLACK
6
CONTINUOUS
10
153.852
20
-127.071
11
153.863
21
-127.061
0
LINE
8
BLACK
6
CONTINUOUS
10
153.863
20
-127.061
11
153.875
21
-127.052
0
LINE
8
BLACK
6
CONTINUOUS
10
153.875
20
-127.052
11
153.889
21
-127.046
0
LINE
8
BLACK
6
CONTINUOUS
10
153.889
20
-127.046
11
153.904
21
-127.043
0
LINE
8
BLACK
6
CONTINUOUS
10
153.904
20
-127.043
11
153.919
21
-127.043
0
LINE
8
BLACK
6
CONTINUOUS
10
153.919
20
-127.043
11
153.922
21
-127.044
0
LINE
8
BLACK
6
CONTINUOUS
10
152.777
20
-140.967
11
166.542
21
-142.171
0
LINE
8
BLACK
6
CONTINUOUS
10
166.542
20
-142.171
11
167.746
21
-128.406
0
LINE
8
BLACK
6
CONTINUOUS
10
167.746
20
-128.406
11
153.981
21
-127.202
0
LINE
8
BLACK
6
CONTINUOUS
10
153.981
20
-127.202
11
152.777
21
-140.967
0
LINE
8
BLACK
6
CONTINUOUS
10
96.7408
20
-124.909
11
110.65
21
-126.126
0
LINE
8
BLACK
6
CONTINUOUS
10
110.65
20
-126.126
11
110.654
21
-126.126
0
LINE
8
BLACK
6
CONTINUOUS
10
110.654
20
-126.126
11
110.658
21
-126.127
0
LINE
8
BLACK
6
CONTINUOUS
10
110.658
20
-126.127
11
110.658
21
-126.127
0
LINE
8
BLACK
6
CONTINUOUS
10
110.658
20
-126.127
11
110.669
21
-126.129
0
LINE
8
BLACK
6
CONTINUOUS
10
110.669
20
-126.129
11
110.683
21
-126.135
0
LINE
8
BLACK
6
CONTINUOUS
10
110.683
20
-126.135
11
110.695
21
-126.143
0
LINE
8
BLACK
6
CONTINUOUS
10
110.695
20
-126.143
11
110.706
21
-126.153
0
LINE
8
BLACK
6
CONTINUOUS
10
110.706
20
-126.153
11
110.714
21
-126.166
0
LINE
8
BLACK
6
CONTINUOUS
10
110.714
20
-126.166
11
110.72
21
-126.179
0
LINE
8
BLACK
6
CONTINUOUS
10
110.72
20
-126.179
11
110.723
21
-126.194
0
LINE
8
BLACK
6
CONTINUOUS
10
110.723
20
-126.194
11
110.724
21
-126.209
0
LINE
8
BLACK
6
CONTINUOUS
10
110.724
20
-126.209
11
110.723
21
-126.213
0
LINE
8
BLACK
6
CONTINUOUS
10
110.723
20
-126.213
11
109.506
21
-140.122
0
LINE
8
BLACK
6
CONTINUOUS
10
109.506
20
-140.122
11
109.506
21
-140.126
0
LINE
8
BLACK
6
CONTINUOUS
10
109.506
20
-140.126
11
109.505
21
-140.13
0
LINE
8
BLACK
6
CONTINUOUS
10
109.505
20
-140.13
11
109.505
21
-140.13
0
LINE
8
BLACK
6
CONTINUOUS
10
109.505
20
-140.13
11
109.503
21
-140.141
0
LINE
8
BLACK
6
CONTINUOUS
10
109.503
20
-140.141
11
109.498
21
-140.155
0
LINE
8
BLACK
6
CONTINUOUS
10
109.498
20
-140.155
11
109.489
21
-140.167
0
LINE
8
BLACK
6
CONTINUOUS
10
109.489
20
-140.167
11
109.479
21
-140.178
0
LINE
8
BLACK
6
CONTINUOUS
10
109.479
20
-140.178
11
109.466
21
-140.186
0
LINE
8
BLACK
6
CONTINUOUS
10
109.466
20
-140.186
11
109.453
21
-140.192
0
LINE
8
BLACK
6
CONTINUOUS
10
109.453
20
-140.192
11
109.438
21
-140.195
0
LINE
8
BLACK
6
CONTINUOUS
10
109.438
20
-140.195
11
109.423
21
-140.196
0
LINE
8
BLACK
6
CONTINUOUS
10
109.423
20
-140.196
11
109.419
21
-140.195
0
LINE
8
BLACK
6
CONTINUOUS
10
109.419
20
-140.195
11
95.5099
21
-138.978
0
LINE
8
BLACK
6
CONTINUOUS
10
95.5099
20
-138.978
11
95.5062
21
-138.978
0
LINE
8
BLACK
6
CONTINUOUS
10
95.5062
20
-138.978
11
95.5025
21
-138.977
0
LINE
8
BLACK
6
CONTINUOUS
10
95.5025
20
-138.977
11
95.5025
21
-138.977
0
LINE
8
BLACK
6
CONTINUOUS
10
95.5025
20
-138.977
11
95.4914
21
-138.975
0
LINE
8
BLACK
6
CONTINUOUS
10
95.4914
20
-138.975
11
95.4775
21
-138.97
0
LINE
8
BLACK
6
CONTINUOUS
10
95.4775
20
-138.97
11
95.4649
21
-138.961
0
LINE
8
BLACK
6
CONTINUOUS
10
95.4649
20
-138.961
11
95.4542
21
-138.951
0
LINE
8
BLACK
6
CONTINUOUS
10
95.4542
20
-138.951
11
95.4457
21
-138.939
0
LINE
8
BLACK
6
CONTINUOUS
10
95.4457
20
-138.939
11
95.4398
21
-138.925
0
LINE
8
BLACK
6
CONTINUOUS
10
95.4398
20
-138.925
11
95.4367
21
-138.91
0
LINE
8
BLACK
6
CONTINUOUS
10
95.4367
20
-138.91
11
95.4366
21
-138.895
0
LINE
8
BLACK
6
CONTINUOUS
10
95.4366
20
-138.895
11
95.4372
21
-138.891
0
LINE
8
BLACK
6
CONTINUOUS
10
95.4372
20
-138.891
11
96.6542
21
-124.982
0
LINE
8
BLACK
6
CONTINUOUS
10
96.6542
20
-124.982
11
96.6541
21
-124.978
0
LINE
8
BLACK
6
CONTINUOUS
10
96.6541
20
-124.978
11
96.6548
21
-124.975
0
LINE
8
BLACK
6
CONTINUOUS
10
96.6548
20
-124.975
11
96.6548
21
-124.974
0
LINE
8
BLACK
6
CONTINUOUS
10
96.6548
20
-124.974
11
96.6569
21
-124.963
0
LINE
8
BLACK
6
CONTINUOUS
10
96.6569
20
-124.963
11
96.6625
21
-124.95
0
LINE
8
BLACK
6
CONTINUOUS
10
96.6625
20
-124.95
11
96.6707
21
-124.937
0
LINE
8
BLACK
6
CONTINUOUS
10
96.6707
20
-124.937
11
96.6812
21
-124.926
0
LINE
8
BLACK
6
CONTINUOUS
10
96.6812
20
-124.926
11
96.6936
21
-124.918
0
LINE
8
BLACK
6
CONTINUOUS
10
96.6936
20
-124.918
11
96.7074
21
-124.912
0
LINE
8
BLACK
6
CONTINUOUS
10
96.7074
20
-124.912
11
96.7221
21
-124.909
0
LINE
8
BLACK
6
CONTINUOUS
10
96.7221
20
-124.909
11
96.7371
21
-124.909
0
LINE
8
BLACK
6
CONTINUOUS
10
96.7371
20
-124.909
11
96.7408
21
-124.909
0
LINE
8
BLACK
6
CONTINUOUS
10
95.5954
20
-138.832
11
109.36
21
-140.037
0
LINE
8
BLACK
6
CONTINUOUS
10
109.36
20
-140.037
11
110.565
21
-126.272
0
LINE
8
BLACK
6
CONTINUOUS
10
110.565
20
-126.272
11
96.7997
21
-125.067
0
LINE
8
BLACK
6
CONTINUOUS
10
96.7997
20
-125.067
11
95.5954
21
-138.832
0
LINE
8
BLACK
6
CONTINUOUS
10
317.616
20
-124.909
11
317.631
21
-124.912
0
LINE
8
BLACK
6
CONTINUOUS
10
317.631
20
-124.912
11
317.645
21
-124.918
0
LINE
8
BLACK
6
CONTINUOUS
10
317.645
20
-124.918
11
317.657
21
-124.926
0
LINE
8
BLACK
6
CONTINUOUS
10
317.657
20
-124.926
11
317.668
21
-124.937
0
LINE
8
BLACK
6
CONTINUOUS
10
317.668
20
-124.937
11
317.676
21
-124.949
0
LINE
8
BLACK
6
CONTINUOUS
10
317.676
20
-124.949
11
317.681
21
-124.963
0
LINE
8
BLACK
6
CONTINUOUS
10
317.681
20
-124.963
11
317.683
21
-124.973
0
LINE
8
BLACK
6
CONTINUOUS
10
317.683
20
-124.973
11
317.684
21
-124.978
0
LINE
8
BLACK
6
CONTINUOUS
10
317.684
20
-124.978
11
317.684
21
-124.982
0
LINE
8
BLACK
6
CONTINUOUS
10
317.684
20
-124.982
11
318.901
21
-138.891
0
LINE
8
BLACK
6
CONTINUOUS
10
318.901
20
-138.891
11
318.902
21
-138.895
0
LINE
8
BLACK
6
CONTINUOUS
10
318.902
20
-138.895
11
318.902
21
-138.91
0
LINE
8
BLACK
6
CONTINUOUS
10
318.902
20
-138.91
11
318.898
21
-138.925
0
LINE
8
BLACK
6
CONTINUOUS
10
318.898
20
-138.925
11
318.893
21
-138.939
0
LINE
8
BLACK
6
CONTINUOUS
10
318.893
20
-138.939
11
318.884
21
-138.951
0
LINE
8
BLACK
6
CONTINUOUS
10
318.884
20
-138.951
11
318.873
21
-138.961
0
LINE
8
BLACK
6
CONTINUOUS
10
318.873
20
-138.961
11
318.861
21
-138.97
0
LINE
8
BLACK
6
CONTINUOUS
10
318.861
20
-138.97
11
318.847
21
-138.975
0
LINE
8
BLACK
6
CONTINUOUS
10
318.847
20
-138.975
11
318.836
21
-138.977
0
LINE
8
BLACK
6
CONTINUOUS
10
318.836
20
-138.977
11
318.836
21
-138.977
0
LINE
8
BLACK
6
CONTINUOUS
10
318.836
20
-138.977
11
318.832
21
-138.978
0
LINE
8
BLACK
6
CONTINUOUS
10
318.832
20
-138.978
11
318.828
21
-138.978
0
LINE
8
BLACK
6
CONTINUOUS
10
318.828
20
-138.978
11
304.919
21
-140.195
0
LINE
8
BLACK
6
CONTINUOUS
10
304.919
20
-140.195
11
304.915
21
-140.196
0
LINE
8
BLACK
6
CONTINUOUS
10
304.915
20
-140.196
11
304.9
21
-140.195
0
LINE
8
BLACK
6
CONTINUOUS
10
304.9
20
-140.195
11
304.886
21
-140.192
0
LINE
8
BLACK
6
CONTINUOUS
10
304.886
20
-140.192
11
304.872
21
-140.186
0
LINE
8
BLACK
6
CONTINUOUS
10
304.872
20
-140.186
11
304.859
21
-140.178
0
LINE
8
BLACK
6
CONTINUOUS
10
304.859
20
-140.178
11
304.849
21
-140.167
0
LINE
8
BLACK
6
CONTINUOUS
10
304.849
20
-140.167
11
304.841
21
-140.155
0
LINE
8
BLACK
6
CONTINUOUS
10
304.841
20
-140.155
11
304.835
21
-140.141
0
LINE
8
BLACK
6
CONTINUOUS
10
304.835
20
-140.141
11
304.833
21
-140.13
0
LINE
8
BLACK
6
CONTINUOUS
10
304.833
20
-140.13
11
304.833
21
-140.13
0
LINE
8
BLACK
6
CONTINUOUS
10
304.833
20
-140.13
11
304.832
21
-140.126
0
LINE
8
BLACK
6
CONTINUOUS
10
304.832
20
-140.126
11
304.832
21
-140.122
0
LINE
8
BLACK
6
CONTINUOUS
10
304.832
20
-140.122
11
303.615
21
-126.213
0
LINE
8
BLACK
6
CONTINUOUS
10
303.615
20
-126.213
11
303.615
21
-126.209
0
LINE
8
BLACK
6
CONTINUOUS
10
303.615
20
-126.209
11
303.615
21
-126.194
0
LINE
8
BLACK
6
CONTINUOUS
10
303.615
20
-126.194
11
303.618
21
-126.179
0
LINE
8
BLACK
6
CONTINUOUS
10
303.618
20
-126.179
11
303.624
21
-126.166
0
LINE
8
BLACK
6
CONTINUOUS
10
303.624
20
-126.166
11
303.632
21
-126.153
0
LINE
8
BLACK
6
CONTINUOUS
10
303.632
20
-126.153
11
303.643
21
-126.143
0
LINE
8
BLACK
6
CONTINUOUS
10
303.643
20
-126.143
11
303.656
21
-126.134
0
LINE
8
BLACK
6
CONTINUOUS
10
303.656
20
-126.134
11
303.67
21
-126.129
0
LINE
8
BLACK
6
CONTINUOUS
10
303.67
20
-126.129
11
303.681
21
-126.127
0
LINE
8
BLACK
6
CONTINUOUS
10
303.681
20
-126.127
11
303.681
21
-126.127
0
LINE
8
BLACK
6
CONTINUOUS
10
303.681
20
-126.127
11
303.684
21
-126.126
0
LINE
8
BLACK
6
CONTINUOUS
10
303.684
20
-126.126
11
303.688
21
-126.126
0
LINE
8
BLACK
6
CONTINUOUS
10
303.688
20
-126.126
11
317.598
21
-124.909
0
LINE
8
BLACK
6
CONTINUOUS
10
317.598
20
-124.909
11
317.601
21
-124.909
0
LINE
8
BLACK
6
CONTINUOUS
10
317.601
20
-124.909
11
317.616
21
-124.909
0
LINE
8
BLACK
6
CONTINUOUS
10
303.774
20
-126.272
11
304.978
21
-140.037
0
LINE
8
BLACK
6
CONTINUOUS
10
304.978
20
-140.037
11
318.743
21
-138.832
0
LINE
8
BLACK
6
CONTINUOUS
10
318.743
20
-138.832
11
317.539
21
-125.067
0
LINE
8
BLACK
6
CONTINUOUS
10
317.539
20
-125.067
11
303.774
21
-126.272
0
LINE
8
BLACK
6
CONTINUOUS
10
336.594
20
-123.248
11
336.608
21
-123.252
0
LINE
8
BLACK
6
CONTINUOUS
10
336.608
20
-123.252
11
336.622
21
-123.257
0
LINE
8
BLACK
6
CONTINUOUS
10
336.622
20
-123.257
11
336.635
21
-123.266
0
LINE
8
BLACK
6
CONTINUOUS
10
336.635
20
-123.266
11
336.645
21
-123.277
0
LINE
8
BLACK
6
CONTINUOUS
10
336.645
20
-123.277
11
336.653
21
-123.289
0
LINE
8
BLACK
6
CONTINUOUS
10
336.653
20
-123.289
11
336.659
21
-123.303
0
LINE
8
BLACK
6
CONTINUOUS
10
336.659
20
-123.303
11
336.661
21
-123.313
0
LINE
8
BLACK
6
CONTINUOUS
10
336.661
20
-123.313
11
336.662
21
-123.318
0
LINE
8
BLACK
6
CONTINUOUS
10
336.662
20
-123.318
11
336.662
21
-123.322
0
LINE
8
BLACK
6
CONTINUOUS
10
336.662
20
-123.322
11
337.879
21
-137.231
0
LINE
8
BLACK
6
CONTINUOUS
10
337.879
20
-137.231
11
337.879
21
-137.235
0
LINE
8
BLACK
6
CONTINUOUS
10
337.879
20
-137.235
11
337.879
21
-137.25
0
LINE
8
BLACK
6
CONTINUOUS
10
337.879
20
-137.25
11
337.876
21
-137.264
0
LINE
8
BLACK
6
CONTINUOUS
10
337.876
20
-137.264
11
337.87
21
-137.278
0
LINE
8
BLACK
6
CONTINUOUS
10
337.87
20
-137.278
11
337.862
21
-137.291
0
LINE
8
BLACK
6
CONTINUOUS
10
337.862
20
-137.291
11
337.851
21
-137.301
0
LINE
8
BLACK
6
CONTINUOUS
10
337.851
20
-137.301
11
337.838
21
-137.309
0
LINE
8
BLACK
6
CONTINUOUS
10
337.838
20
-137.309
11
337.824
21
-137.315
0
LINE
8
BLACK
6
CONTINUOUS
10
337.824
20
-137.315
11
337.813
21
-137.317
0
LINE
8
BLACK
6
CONTINUOUS
10
337.813
20
-137.317
11
337.813
21
-137.317
0
LINE
8
BLACK
6
CONTINUOUS
10
337.813
20
-137.317
11
337.81
21
-137.318
0
LINE
8
BLACK
6
CONTINUOUS
10
337.81
20
-137.318
11
337.806
21
-137.318
0
LINE
8
BLACK
6
CONTINUOUS
10
337.806
20
-137.318
11
323.896
21
-138.535
0
LINE
8
BLACK
6
CONTINUOUS
10
323.896
20
-138.535
11
323.893
21
-138.535
0
LINE
8
BLACK
6
CONTINUOUS
10
323.893
20
-138.535
11
323.878
21
-138.535
0
LINE
8
BLACK
6
CONTINUOUS
10
323.878
20
-138.535
11
323.863
21
-138.532
0
LINE
8
BLACK
6
CONTINUOUS
10
323.863
20
-138.532
11
323.849
21
-138.526
0
LINE
8
BLACK
6
CONTINUOUS
10
323.849
20
-138.526
11
323.837
21
-138.518
0
LINE
8
BLACK
6
CONTINUOUS
10
323.837
20
-138.518
11
323.826
21
-138.507
0
LINE
8
BLACK
6
CONTINUOUS
10
323.826
20
-138.507
11
323.818
21
-138.494
0
LINE
8
BLACK
6
CONTINUOUS
10
323.818
20
-138.494
11
323.813
21
-138.48
0
LINE
8
BLACK
6
CONTINUOUS
10
323.813
20
-138.48
11
323.811
21
-138.469
0
LINE
8
BLACK
6
CONTINUOUS
10
323.811
20
-138.469
11
323.811
21
-138.469
0
LINE
8
BLACK
6
CONTINUOUS
10
323.811
20
-138.469
11
323.81
21
-138.466
0
LINE
8
BLACK
6
CONTINUOUS
10
323.81
20
-138.466
11
323.81
21
-138.462
0
LINE
8
BLACK
6
CONTINUOUS
10
323.81
20
-138.462
11
322.593
21
-124.552
0
LINE
8
BLACK
6
CONTINUOUS
10
322.593
20
-124.552
11
322.592
21
-124.549
0
LINE
8
BLACK
6
CONTINUOUS
10
322.592
20
-124.549
11
322.592
21
-124.534
0
LINE
8
BLACK
6
CONTINUOUS
10
322.592
20
-124.534
11
322.596
21
-124.519
0
LINE
8
BLACK
6
CONTINUOUS
10
322.596
20
-124.519
11
322.601
21
-124.505
0
LINE
8
BLACK
6
CONTINUOUS
10
322.601
20
-124.505
11
322.61
21
-124.493
0
LINE
8
BLACK
6
CONTINUOUS
10
322.61
20
-124.493
11
322.621
21
-124.482
0
LINE
8
BLACK
6
CONTINUOUS
10
322.621
20
-124.482
11
322.633
21
-124.474
0
LINE
8
BLACK
6
CONTINUOUS
10
322.633
20
-124.474
11
322.647
21
-124.469
0
LINE
8
BLACK
6
CONTINUOUS
10
322.647
20
-124.469
11
322.658
21
-124.467
0
LINE
8
BLACK
6
CONTINUOUS
10
322.658
20
-124.467
11
322.658
21
-124.467
0
LINE
8
BLACK
6
CONTINUOUS
10
322.658
20
-124.467
11
322.662
21
-124.466
0
LINE
8
BLACK
6
CONTINUOUS
10
322.662
20
-124.466
11
322.666
21
-124.466
0
LINE
8
BLACK
6
CONTINUOUS
10
322.666
20
-124.466
11
336.575
21
-123.249
0
LINE
8
BLACK
6
CONTINUOUS
10
336.575
20
-123.249
11
336.579
21
-123.248
0
LINE
8
BLACK
6
CONTINUOUS
10
336.579
20
-123.248
11
336.594
21
-123.248
0
LINE
8
BLACK
6
CONTINUOUS
10
322.751
20
-124.611
11
323.955
21
-138.376
0
LINE
8
BLACK
6
CONTINUOUS
10
323.955
20
-138.376
11
337.72
21
-137.172
0
LINE
8
BLACK
6
CONTINUOUS
10
337.72
20
-137.172
11
336.516
21
-123.407
0
LINE
8
BLACK
6
CONTINUOUS
10
336.516
20
-123.407
11
322.751
21
-124.611
0
LINE
8
BLACK
6
CONTINUOUS
10
77.7632
20
-123.249
11
91.6726
21
-124.466
0
LINE
8
BLACK
6
CONTINUOUS
10
91.6726
20
-124.466
11
91.6763
21
-124.466
0
LINE
8
BLACK
6
CONTINUOUS
10
91.6763
20
-124.466
11
91.68
21
-124.467
0
LINE
8
BLACK
6
CONTINUOUS
10
91.68
20
-124.467
11
91.68
21
-124.467
0
LINE
8
BLACK
6
CONTINUOUS
10
91.68
20
-124.467
11
91.6911
21
-124.469
0
LINE
8
BLACK
6
CONTINUOUS
10
91.6911
20
-124.469
11
91.705
21
-124.474
0
LINE
8
BLACK
6
CONTINUOUS
10
91.705
20
-124.474
11
91.7176
21
-124.482
0
LINE
8
BLACK
6
CONTINUOUS
10
91.7176
20
-124.482
11
91.7283
21
-124.493
0
LINE
8
BLACK
6
CONTINUOUS
10
91.7283
20
-124.493
11
91.7368
21
-124.505
0
LINE
8
BLACK
6
CONTINUOUS
10
91.7368
20
-124.505
11
91.7427
21
-124.519
0
LINE
8
BLACK
6
CONTINUOUS
10
91.7427
20
-124.519
11
91.7458
21
-124.534
0
LINE
8
BLACK
6
CONTINUOUS
10
91.7458
20
-124.534
11
91.7459
21
-124.549
0
LINE
8
BLACK
6
CONTINUOUS
10
91.7459
20
-124.549
11
91.7452
21
-124.552
0
LINE
8
BLACK
6
CONTINUOUS
10
91.7452
20
-124.552
11
90.5283
21
-138.462
0
LINE
8
BLACK
6
CONTINUOUS
10
90.5283
20
-138.462
11
90.5284
21
-138.466
0
LINE
8
BLACK
6
CONTINUOUS
10
90.5284
20
-138.466
11
90.5277
21
-138.469
0
LINE
8
BLACK
6
CONTINUOUS
10
90.5277
20
-138.469
11
90.5277
21
-138.469
0
LINE
8
BLACK
6
CONTINUOUS
10
90.5277
20
-138.469
11
90.5256
21
-138.48
0
LINE
8
BLACK
6
CONTINUOUS
10
90.5256
20
-138.48
11
90.52
21
-138.494
0
LINE
8
BLACK
6
CONTINUOUS
10
90.52
20
-138.494
11
90.5118
21
-138.507
0
LINE
8
BLACK
6
CONTINUOUS
10
90.5118
20
-138.507
11
90.5013
21
-138.518
0
LINE
8
BLACK
6
CONTINUOUS
10
90.5013
20
-138.518
11
90.4889
21
-138.526
0
LINE
8
BLACK
6
CONTINUOUS
10
90.4889
20
-138.526
11
90.4751
21
-138.532
0
LINE
8
BLACK
6
CONTINUOUS
10
90.4751
20
-138.532
11
90.4604
21
-138.535
0
LINE
8
BLACK
6
CONTINUOUS
10
90.4604
20
-138.535
11
90.4454
21
-138.535
0
LINE
8
BLACK
6
CONTINUOUS
10
90.4454
20
-138.535
11
90.4417
21
-138.535
0
LINE
8
BLACK
6
CONTINUOUS
10
90.4417
20
-138.535
11
76.5323
21
-137.318
0
LINE
8
BLACK
6
CONTINUOUS
10
76.5323
20
-137.318
11
76.5286
21
-137.318
0
LINE
8
BLACK
6
CONTINUOUS
10
76.5286
20
-137.318
11
76.5249
21
-137.317
0
LINE
8
BLACK
6
CONTINUOUS
10
76.5249
20
-137.317
11
76.5249
21
-137.317
0
LINE
8
BLACK
6
CONTINUOUS
10
76.5249
20
-137.317
11
76.5138
21
-137.315
0
LINE
8
BLACK
6
CONTINUOUS
10
76.5138
20
-137.315
11
76.4999
21
-137.309
0
LINE
8
BLACK
6
CONTINUOUS
10
76.4999
20
-137.309
11
76.4873
21
-137.301
0
LINE
8
BLACK
6
CONTINUOUS
10
76.4873
20
-137.301
11
76.4766
21
-137.291
0
LINE
8
BLACK
6
CONTINUOUS
10
76.4766
20
-137.291
11
76.4681
21
-137.278
0
LINE
8
BLACK
6
CONTINUOUS
10
76.4681
20
-137.278
11
76.4622
21
-137.264
0
LINE
8
BLACK
6
CONTINUOUS
10
76.4622
20
-137.264
11
76.4591
21
-137.25
0
LINE
8
BLACK
6
CONTINUOUS
10
76.4591
20
-137.25
11
76.459
21
-137.235
0
LINE
8
BLACK
6
CONTINUOUS
10
76.459
20
-137.235
11
76.4597
21
-137.231
0
LINE
8
BLACK
6
CONTINUOUS
10
76.4597
20
-137.231
11
77.6766
21
-123.322
0
LINE
8
BLACK
6
CONTINUOUS
10
77.6766
20
-123.322
11
77.6765
21
-123.318
0
LINE
8
BLACK
6
CONTINUOUS
10
77.6765
20
-123.318
11
77.6772
21
-123.314
0
LINE
8
BLACK
6
CONTINUOUS
10
77.6772
20
-123.314
11
77.6772
21
-123.314
0
LINE
8
BLACK
6
CONTINUOUS
10
77.6772
20
-123.314
11
77.6793
21
-123.303
0
LINE
8
BLACK
6
CONTINUOUS
10
77.6793
20
-123.303
11
77.6849
21
-123.289
0
LINE
8
BLACK
6
CONTINUOUS
10
77.6849
20
-123.289
11
77.6931
21
-123.277
0
LINE
8
BLACK
6
CONTINUOUS
10
77.6931
20
-123.277
11
77.7036
21
-123.266
0
LINE
8
BLACK
6
CONTINUOUS
10
77.7036
20
-123.266
11
77.716
21
-123.257
0
LINE
8
BLACK
6
CONTINUOUS
10
77.716
20
-123.257
11
77.7298
21
-123.252
0
LINE
8
BLACK
6
CONTINUOUS
10
77.7298
20
-123.252
11
77.7445
21
-123.248
0
LINE
8
BLACK
6
CONTINUOUS
10
77.7445
20
-123.248
11
77.7595
21
-123.248
0
LINE
8
BLACK
6
CONTINUOUS
10
77.7595
20
-123.248
11
77.7632
21
-123.249
0
LINE
8
BLACK
6
CONTINUOUS
10
76.6178
20
-137.172
11
90.3828
21
-138.376
0
LINE
8
BLACK
6
CONTINUOUS
10
90.3828
20
-138.376
11
91.5871
21
-124.611
0
LINE
8
BLACK
6
CONTINUOUS
10
91.5871
20
-124.611
11
77.8221
21
-123.407
0
LINE
8
BLACK
6
CONTINUOUS
10
77.8221
20
-123.407
11
76.6178
21
-137.172
0
LINE
8
BLACK
6
CONTINUOUS
10
211.936
20
-132.085
11
211.947
21
-132.086
0
LINE
8
BLACK
6
CONTINUOUS
10
211.947
20
-132.086
11
211.961
21
-132.09
0
LINE
8
BLACK
6
CONTINUOUS
10
211.961
20
-132.09
11
211.974
21
-132.097
0
LINE
8
BLACK
6
CONTINUOUS
10
211.974
20
-132.097
11
211.985
21
-132.107
0
LINE
8
BLACK
6
CONTINUOUS
10
211.985
20
-132.107
11
211.995
21
-132.118
0
LINE
8
BLACK
6
CONTINUOUS
10
211.995
20
-132.118
11
212.002
21
-132.131
0
LINE
8
BLACK
6
CONTINUOUS
10
212.002
20
-132.131
11
212.006
21
-132.145
0
LINE
8
BLACK
6
CONTINUOUS
10
212.006
20
-132.145
11
212.008
21
-132.16
0
LINE
8
BLACK
6
CONTINUOUS
10
212.008
20
-132.16
11
212.007
21
-132.164
0
LINE
8
BLACK
6
CONTINUOUS
10
212.007
20
-132.164
11
212.007
21
-136.919
0
LINE
8
BLACK
6
CONTINUOUS
10
212.007
20
-136.919
11
212.008
21
-136.922
0
LINE
8
BLACK
6
CONTINUOUS
10
212.008
20
-136.922
11
212.006
21
-136.937
0
LINE
8
BLACK
6
CONTINUOUS
10
212.006
20
-136.937
11
212.002
21
-136.951
0
LINE
8
BLACK
6
CONTINUOUS
10
212.002
20
-136.951
11
211.995
21
-136.964
0
LINE
8
BLACK
6
CONTINUOUS
10
211.995
20
-136.964
11
211.985
21
-136.976
0
LINE
8
BLACK
6
CONTINUOUS
10
211.985
20
-136.976
11
211.974
21
-136.985
0
LINE
8
BLACK
6
CONTINUOUS
10
211.974
20
-136.985
11
211.961
21
-136.992
0
LINE
8
BLACK
6
CONTINUOUS
10
211.961
20
-136.992
11
211.947
21
-136.996
0
LINE
8
BLACK
6
CONTINUOUS
10
211.947
20
-136.996
11
211.936
21
-136.997
0
LINE
8
BLACK
6
CONTINUOUS
10
211.936
20
-136.997
11
211.932
21
-136.998
0
LINE
8
BLACK
6
CONTINUOUS
10
211.932
20
-136.998
11
211.928
21
-136.997
0
LINE
8
BLACK
6
CONTINUOUS
10
211.928
20
-136.997
11
202.411
21
-136.997
0
LINE
8
BLACK
6
CONTINUOUS
10
202.411
20
-136.997
11
202.407
21
-136.998
0
LINE
8
BLACK
6
CONTINUOUS
10
202.407
20
-136.998
11
202.392
21
-136.996
0
LINE
8
BLACK
6
CONTINUOUS
10
202.392
20
-136.996
11
202.378
21
-136.992
0
LINE
8
BLACK
6
CONTINUOUS
10
202.378
20
-136.992
11
202.365
21
-136.985
0
LINE
8
BLACK
6
CONTINUOUS
10
202.365
20
-136.985
11
202.354
21
-136.976
0
LINE
8
BLACK
6
CONTINUOUS
10
202.354
20
-136.976
11
202.344
21
-136.964
0
LINE
8
BLACK
6
CONTINUOUS
10
202.344
20
-136.964
11
202.337
21
-136.951
0
LINE
8
BLACK
6
CONTINUOUS
10
202.337
20
-136.951
11
202.333
21
-136.937
0
LINE
8
BLACK
6
CONTINUOUS
10
202.333
20
-136.937
11
202.332
21
-136.922
0
LINE
8
BLACK
6
CONTINUOUS
10
202.332
20
-136.922
11
202.332
21
-136.919
0
LINE
8
BLACK
6
CONTINUOUS
10
202.332
20
-136.919
11
202.332
21
-132.164
0
LINE
8
BLACK
6
CONTINUOUS
10
202.332
20
-132.164
11
202.332
21
-132.16
0
LINE
8
BLACK
6
CONTINUOUS
10
202.332
20
-132.16
11
202.333
21
-132.145
0
LINE
8
BLACK
6
CONTINUOUS
10
202.333
20
-132.145
11
202.337
21
-132.131
0
LINE
8
BLACK
6
CONTINUOUS
10
202.337
20
-132.131
11
202.344
21
-132.118
0
LINE
8
BLACK
6
CONTINUOUS
10
202.344
20
-132.118
11
202.354
21
-132.107
0
LINE
8
BLACK
6
CONTINUOUS
10
202.354
20
-132.107
11
202.365
21
-132.097
0
LINE
8
BLACK
6
CONTINUOUS
10
202.365
20
-132.097
11
202.378
21
-132.09
0
LINE
8
BLACK
6
CONTINUOUS
10
202.378
20
-132.09
11
202.392
21
-132.086
0
LINE
8
BLACK
6
CONTINUOUS
10
202.392
20
-132.086
11
202.403
21
-132.085
0
LINE
8
BLACK
6
CONTINUOUS
10
202.403
20
-132.085
11
202.407
21
-132.085
0
LINE
8
BLACK
6
CONTINUOUS
10
202.407
20
-132.085
11
202.411
21
-132.085
0
LINE
8
BLACK
6
CONTINUOUS
10
202.411
20
-132.085
11
211.928
21
-132.085
0
LINE
8
BLACK
6
CONTINUOUS
10
211.928
20
-132.085
11
211.932
21
-132.085
0
LINE
8
BLACK
6
CONTINUOUS
10
211.932
20
-132.085
11
211.936
21
-132.085
0
LINE
8
BLACK
6
CONTINUOUS
10
202.482
20
-132.235
11
202.482
21
-136.847
0
LINE
8
BLACK
6
CONTINUOUS
10
202.482
20
-136.847
11
211.857
21
-136.847
0
LINE
8
BLACK
6
CONTINUOUS
10
211.857
20
-136.847
11
211.857
21
-132.235
0
LINE
8
BLACK
6
CONTINUOUS
10
211.857
20
-132.235
11
202.482
21
-132.235
0
LINE
8
BLACK
6
CONTINUOUS
10
298.182
20
-121.35
11
298.197
21
-121.353
0
LINE
8
BLACK
6
CONTINUOUS
10
298.197
20
-121.353
11
298.211
21
-121.359
0
LINE
8
BLACK
6
CONTINUOUS
10
298.211
20
-121.359
11
298.223
21
-121.368
0
LINE
8
BLACK
6
CONTINUOUS
10
298.223
20
-121.368
11
298.234
21
-121.378
0
LINE
8
BLACK
6
CONTINUOUS
10
298.234
20
-121.378
11
298.242
21
-121.391
0
LINE
8
BLACK
6
CONTINUOUS
10
298.242
20
-121.391
11
298.247
21
-121.403
0
LINE
8
BLACK
6
CONTINUOUS
10
298.247
20
-121.403
11
298.247
21
-121.405
0
LINE
8
BLACK
6
CONTINUOUS
10
298.247
20
-121.405
11
298.25
21
-121.42
0
LINE
8
BLACK
6
CONTINUOUS
10
298.25
20
-121.42
11
298.25
21
-121.423
0
LINE
8
BLACK
6
CONTINUOUS
10
298.25
20
-121.423
11
299.467
21
-135.333
0
LINE
8
BLACK
6
CONTINUOUS
10
299.467
20
-135.333
11
299.468
21
-135.337
0
LINE
8
BLACK
6
CONTINUOUS
10
299.468
20
-135.337
11
299.467
21
-135.352
0
LINE
8
BLACK
6
CONTINUOUS
10
299.467
20
-135.352
11
299.464
21
-135.366
0
LINE
8
BLACK
6
CONTINUOUS
10
299.464
20
-135.366
11
299.458
21
-135.38
0
LINE
8
BLACK
6
CONTINUOUS
10
299.458
20
-135.38
11
299.45
21
-135.392
0
LINE
8
BLACK
6
CONTINUOUS
10
299.45
20
-135.392
11
299.439
21
-135.403
0
LINE
8
BLACK
6
CONTINUOUS
10
299.439
20
-135.403
11
299.427
21
-135.411
0
LINE
8
BLACK
6
CONTINUOUS
10
299.427
20
-135.411
11
299.413
21
-135.417
0
LINE
8
BLACK
6
CONTINUOUS
10
299.413
20
-135.417
11
299.402
21
-135.419
0
LINE
8
BLACK
6
CONTINUOUS
10
299.402
20
-135.419
11
299.402
21
-135.419
0
LINE
8
BLACK
6
CONTINUOUS
10
299.402
20
-135.419
11
299.398
21
-135.419
0
LINE
8
BLACK
6
CONTINUOUS
10
299.398
20
-135.419
11
299.394
21
-135.419
0
LINE
8
BLACK
6
CONTINUOUS
10
299.394
20
-135.419
11
285.485
21
-136.636
0
LINE
8
BLACK
6
CONTINUOUS
10
285.485
20
-136.636
11
285.481
21
-136.637
0
LINE
8
BLACK
6
CONTINUOUS
10
285.481
20
-136.637
11
285.466
21
-136.637
0
LINE
8
BLACK
6
CONTINUOUS
10
285.466
20
-136.637
11
285.451
21
-136.634
0
LINE
8
BLACK
6
CONTINUOUS
10
285.451
20
-136.634
11
285.438
21
-136.628
0
LINE
8
BLACK
6
CONTINUOUS
10
285.438
20
-136.628
11
285.425
21
-136.619
0
LINE
8
BLACK
6
CONTINUOUS
10
285.425
20
-136.619
11
285.415
21
-136.609
0
LINE
8
BLACK
6
CONTINUOUS
10
285.415
20
-136.609
11
285.407
21
-136.596
0
LINE
8
BLACK
6
CONTINUOUS
10
285.407
20
-136.596
11
285.401
21
-136.582
0
LINE
8
BLACK
6
CONTINUOUS
10
285.401
20
-136.582
11
285.399
21
-136.571
0
LINE
8
BLACK
6
CONTINUOUS
10
285.399
20
-136.571
11
285.399
21
-136.571
0
LINE
8
BLACK
6
CONTINUOUS
10
285.399
20
-136.571
11
285.398
21
-136.567
0
LINE
8
BLACK
6
CONTINUOUS
10
285.398
20
-136.567
11
285.398
21
-136.564
0
LINE
8
BLACK
6
CONTINUOUS
10
285.398
20
-136.564
11
284.181
21
-122.654
0
LINE
8
BLACK
6
CONTINUOUS
10
284.181
20
-122.654
11
284.181
21
-122.651
0
LINE
8
BLACK
6
CONTINUOUS
10
284.181
20
-122.651
11
284.181
21
-122.636
0
LINE
8
BLACK
6
CONTINUOUS
10
284.181
20
-122.636
11
284.184
21
-122.621
0
LINE
8
BLACK
6
CONTINUOUS
10
284.184
20
-122.621
11
284.19
21
-122.607
0
LINE
8
BLACK
6
CONTINUOUS
10
284.19
20
-122.607
11
284.198
21
-122.595
0
LINE
8
BLACK
6
CONTINUOUS
10
284.198
20
-122.595
11
284.209
21
-122.584
0
LINE
8
BLACK
6
CONTINUOUS
10
284.209
20
-122.584
11
284.222
21
-122.576
0
LINE
8
BLACK
6
CONTINUOUS
10
284.222
20
-122.576
11
284.236
21
-122.57
0
LINE
8
BLACK
6
CONTINUOUS
10
284.236
20
-122.57
11
284.247
21
-122.568
0
LINE
8
BLACK
6
CONTINUOUS
10
284.247
20
-122.568
11
284.247
21
-122.568
0
LINE
8
BLACK
6
CONTINUOUS
10
284.247
20
-122.568
11
284.25
21
-122.568
0
LINE
8
BLACK
6
CONTINUOUS
10
284.25
20
-122.568
11
284.254
21
-122.568
0
LINE
8
BLACK
6
CONTINUOUS
10
284.254
20
-122.568
11
298.163
21
-121.351
0
LINE
8
BLACK
6
CONTINUOUS
10
298.163
20
-121.351
11
298.167
21
-121.35
0
LINE
8
BLACK
6
CONTINUOUS
10
298.167
20
-121.35
11
298.182
21
-121.35
0
LINE
8
BLACK
6
CONTINUOUS
10
284.339
20
-122.713
11
285.544
21
-136.478
0
LINE
8
BLACK
6
CONTINUOUS
10
285.544
20
-136.478
11
299.309
21
-135.274
0
LINE
8
BLACK
6
CONTINUOUS
10
299.309
20
-135.274
11
298.105
21
-121.509
0
LINE
8
BLACK
6
CONTINUOUS
10
298.105
20
-121.509
11
284.339
21
-122.713
0
LINE
8
BLACK
6
CONTINUOUS
10
116.175
20
-121.351
11
130.084
21
-122.568
0
LINE
8
BLACK
6
CONTINUOUS
10
130.084
20
-122.568
11
130.088
21
-122.568
0
LINE
8
BLACK
6
CONTINUOUS
10
130.088
20
-122.568
11
130.092
21
-122.568
0
LINE
8
BLACK
6
CONTINUOUS
10
130.092
20
-122.568
11
130.092
21
-122.568
0
LINE
8
BLACK
6
CONTINUOUS
10
130.092
20
-122.568
11
130.103
21
-122.57
0
LINE
8
BLACK
6
CONTINUOUS
10
130.103
20
-122.57
11
130.117
21
-122.576
0
LINE
8
BLACK
6
CONTINUOUS
10
130.117
20
-122.576
11
130.129
21
-122.584
0
LINE
8
BLACK
6
CONTINUOUS
10
130.129
20
-122.584
11
130.14
21
-122.595
0
LINE
8
BLACK
6
CONTINUOUS
10
130.14
20
-122.595
11
130.148
21
-122.607
0
LINE
8
BLACK
6
CONTINUOUS
10
130.148
20
-122.607
11
130.154
21
-122.621
0
LINE
8
BLACK
6
CONTINUOUS
10
130.154
20
-122.621
11
130.157
21
-122.636
0
LINE
8
BLACK
6
CONTINUOUS
10
130.157
20
-122.636
11
130.158
21
-122.651
0
LINE
8
BLACK
6
CONTINUOUS
10
130.158
20
-122.651
11
130.157
21
-122.654
0
LINE
8
BLACK
6
CONTINUOUS
10
130.157
20
-122.654
11
128.94
21
-136.564
0
LINE
8
BLACK
6
CONTINUOUS
10
128.94
20
-136.564
11
128.94
21
-136.567
0
LINE
8
BLACK
6
CONTINUOUS
10
128.94
20
-136.567
11
128.939
21
-136.571
0
LINE
8
BLACK
6
CONTINUOUS
10
128.939
20
-136.571
11
128.939
21
-136.571
0
LINE
8
BLACK
6
CONTINUOUS
10
128.939
20
-136.571
11
128.937
21
-136.582
0
LINE
8
BLACK
6
CONTINUOUS
10
128.937
20
-136.582
11
128.932
21
-136.596
0
LINE
8
BLACK
6
CONTINUOUS
10
128.932
20
-136.596
11
128.923
21
-136.609
0
LINE
8
BLACK
6
CONTINUOUS
10
128.923
20
-136.609
11
128.913
21
-136.619
0
LINE
8
BLACK
6
CONTINUOUS
10
128.913
20
-136.619
11
128.901
21
-136.628
0
LINE
8
BLACK
6
CONTINUOUS
10
128.901
20
-136.628
11
128.887
21
-136.634
0
LINE
8
BLACK
6
CONTINUOUS
10
128.887
20
-136.634
11
128.872
21
-136.637
0
LINE
8
BLACK
6
CONTINUOUS
10
128.872
20
-136.637
11
128.857
21
-136.637
0
LINE
8
BLACK
6
CONTINUOUS
10
128.857
20
-136.637
11
128.853
21
-136.636
0
LINE
8
BLACK
6
CONTINUOUS
10
128.853
20
-136.636
11
114.944
21
-135.419
0
LINE
8
BLACK
6
CONTINUOUS
10
114.944
20
-135.419
11
114.94
21
-135.419
0
LINE
8
BLACK
6
CONTINUOUS
10
114.94
20
-135.419
11
114.936
21
-135.419
0
LINE
8
BLACK
6
CONTINUOUS
10
114.936
20
-135.419
11
114.936
21
-135.419
0
LINE
8
BLACK
6
CONTINUOUS
10
114.936
20
-135.419
11
114.925
21
-135.417
0
LINE
8
BLACK
6
CONTINUOUS
10
114.925
20
-135.417
11
114.911
21
-135.411
0
LINE
8
BLACK
6
CONTINUOUS
10
114.911
20
-135.411
11
114.899
21
-135.403
0
LINE
8
BLACK
6
CONTINUOUS
10
114.899
20
-135.403
11
114.888
21
-135.392
0
LINE
8
BLACK
6
CONTINUOUS
10
114.888
20
-135.392
11
114.88
21
-135.38
0
LINE
8
BLACK
6
CONTINUOUS
10
114.88
20
-135.38
11
114.874
21
-135.366
0
LINE
8
BLACK
6
CONTINUOUS
10
114.874
20
-135.366
11
114.871
21
-135.352
0
LINE
8
BLACK
6
CONTINUOUS
10
114.871
20
-135.352
11
114.871
21
-135.337
0
LINE
8
BLACK
6
CONTINUOUS
10
114.871
20
-135.337
11
114.871
21
-135.333
0
LINE
8
BLACK
6
CONTINUOUS
10
114.871
20
-135.333
11
116.088
21
-121.423
0
LINE
8
BLACK
6
CONTINUOUS
10
116.088
20
-121.423
11
116.088
21
-121.42
0
LINE
8
BLACK
6
CONTINUOUS
10
116.088
20
-121.42
11
116.089
21
-121.416
0
LINE
8
BLACK
6
CONTINUOUS
10
116.089
20
-121.416
11
116.089
21
-121.416
0
LINE
8
BLACK
6
CONTINUOUS
10
116.089
20
-121.416
11
116.091
21
-121.405
0
LINE
8
BLACK
6
CONTINUOUS
10
116.091
20
-121.405
11
116.096
21
-121.391
0
LINE
8
BLACK
6
CONTINUOUS
10
116.096
20
-121.391
11
116.105
21
-121.378
0
LINE
8
BLACK
6
CONTINUOUS
10
116.105
20
-121.378
11
116.115
21
-121.368
0
LINE
8
BLACK
6
CONTINUOUS
10
116.115
20
-121.368
11
116.128
21
-121.359
0
LINE
8
BLACK
6
CONTINUOUS
10
116.128
20
-121.359
11
116.141
21
-121.353
0
LINE
8
BLACK
6
CONTINUOUS
10
116.141
20
-121.353
11
116.156
21
-121.35
0
LINE
8
BLACK
6
CONTINUOUS
10
116.156
20
-121.35
11
116.171
21
-121.35
0
LINE
8
BLACK
6
CONTINUOUS
10
116.171
20
-121.35
11
116.175
21
-121.351
0
LINE
8
BLACK
6
CONTINUOUS
10
115.029
20
-135.274
11
128.794
21
-136.478
0
LINE
8
BLACK
6
CONTINUOUS
10
128.794
20
-136.478
11
129.999
21
-122.713
0
LINE
8
BLACK
6
CONTINUOUS
10
129.999
20
-122.713
11
116.234
21
-121.509
0
LINE
8
BLACK
6
CONTINUOUS
10
116.234
20
-121.509
11
115.029
21
-135.274
0
LINE
8
BLACK
6
CONTINUOUS
10
278.997
20
-120.638
11
279.012
21
-120.641
0
LINE
8
BLACK
6
CONTINUOUS
10
279.012
20
-120.641
11
279.026
21
-120.647
0
LINE
8
BLACK
6
CONTINUOUS
10
279.026
20
-120.647
11
279.038
21
-120.656
0
LINE
8
BLACK
6
CONTINUOUS
10
279.038
20
-120.656
11
279.048
21
-120.667
0
LINE
8
BLACK
6
CONTINUOUS
10
279.048
20
-120.667
11
279.057
21
-120.679
0
LINE
8
BLACK
6
CONTINUOUS
10
279.057
20
-120.679
11
279.062
21
-120.691
0
LINE
8
BLACK
6
CONTINUOUS
10
279.062
20
-120.691
11
279.062
21
-120.693
0
LINE
8
BLACK
6
CONTINUOUS
10
279.062
20
-120.693
11
279.065
21
-120.708
0
LINE
8
BLACK
6
CONTINUOUS
10
279.065
20
-120.708
11
279.065
21
-120.712
0
LINE
8
BLACK
6
CONTINUOUS
10
279.065
20
-120.712
11
280.282
21
-134.621
0
LINE
8
BLACK
6
CONTINUOUS
10
280.282
20
-134.621
11
280.283
21
-134.625
0
LINE
8
BLACK
6
CONTINUOUS
10
280.283
20
-134.625
11
280.282
21
-134.64
0
LINE
8
BLACK
6
CONTINUOUS
10
280.282
20
-134.64
11
280.279
21
-134.654
0
LINE
8
BLACK
6
CONTINUOUS
10
280.279
20
-134.654
11
280.273
21
-134.668
0
LINE
8
BLACK
6
CONTINUOUS
10
280.273
20
-134.668
11
280.265
21
-134.681
0
LINE
8
BLACK
6
CONTINUOUS
10
280.265
20
-134.681
11
280.254
21
-134.691
0
LINE
8
BLACK
6
CONTINUOUS
10
280.254
20
-134.691
11
280.242
21
-134.699
0
LINE
8
BLACK
6
CONTINUOUS
10
280.242
20
-134.699
11
280.228
21
-134.705
0
LINE
8
BLACK
6
CONTINUOUS
10
280.228
20
-134.705
11
280.217
21
-134.707
0
LINE
8
BLACK
6
CONTINUOUS
10
280.217
20
-134.707
11
280.217
21
-134.707
0
LINE
8
BLACK
6
CONTINUOUS
10
280.217
20
-134.707
11
280.213
21
-134.708
0
LINE
8
BLACK
6
CONTINUOUS
10
280.213
20
-134.708
11
280.209
21
-134.708
0
LINE
8
BLACK
6
CONTINUOUS
10
280.209
20
-134.708
11
266.3
21
-135.924
0
LINE
8
BLACK
6
CONTINUOUS
10
266.3
20
-135.924
11
266.296
21
-135.925
0
LINE
8
BLACK
6
CONTINUOUS
10
266.296
20
-135.925
11
266.281
21
-135.925
0
LINE
8
BLACK
6
CONTINUOUS
10
266.281
20
-135.925
11
266.266
21
-135.922
0
LINE
8
BLACK
6
CONTINUOUS
10
266.266
20
-135.922
11
266.253
21
-135.916
0
LINE
8
BLACK
6
CONTINUOUS
10
266.253
20
-135.916
11
266.24
21
-135.908
0
LINE
8
BLACK
6
CONTINUOUS
10
266.24
20
-135.908
11
266.23
21
-135.897
0
LINE
8
BLACK
6
CONTINUOUS
10
266.23
20
-135.897
11
266.222
21
-135.884
0
LINE
8
BLACK
6
CONTINUOUS
10
266.222
20
-135.884
11
266.216
21
-135.87
0
LINE
8
BLACK
6
CONTINUOUS
10
266.216
20
-135.87
11
266.214
21
-135.859
0
LINE
8
BLACK
6
CONTINUOUS
10
266.214
20
-135.859
11
266.214
21
-135.859
0
LINE
8
BLACK
6
CONTINUOUS
10
266.214
20
-135.859
11
266.213
21
-135.856
0
LINE
8
BLACK
6
CONTINUOUS
10
266.213
20
-135.856
11
266.213
21
-135.852
0
LINE
8
BLACK
6
CONTINUOUS
10
266.213
20
-135.852
11
264.996
21
-121.942
0
LINE
8
BLACK
6
CONTINUOUS
10
264.996
20
-121.942
11
264.996
21
-121.939
0
LINE
8
BLACK
6
CONTINUOUS
10
264.996
20
-121.939
11
264.996
21
-121.924
0
LINE
8
BLACK
6
CONTINUOUS
10
264.996
20
-121.924
11
264.999
21
-121.909
0
LINE
8
BLACK
6
CONTINUOUS
10
264.999
20
-121.909
11
265.005
21
-121.895
0
LINE
8
BLACK
6
CONTINUOUS
10
265.005
20
-121.895
11
265.013
21
-121.883
0
LINE
8
BLACK
6
CONTINUOUS
10
265.013
20
-121.883
11
265.024
21
-121.872
0
LINE
8
BLACK
6
CONTINUOUS
10
265.024
20
-121.872
11
265.037
21
-121.864
0
LINE
8
BLACK
6
CONTINUOUS
10
265.037
20
-121.864
11
265.05
21
-121.859
0
LINE
8
BLACK
6
CONTINUOUS
10
265.05
20
-121.859
11
265.062
21
-121.856
0
LINE
8
BLACK
6
CONTINUOUS
10
265.062
20
-121.856
11
265.062
21
-121.856
0
LINE
8
BLACK
6
CONTINUOUS
10
265.062
20
-121.856
11
265.065
21
-121.856
0
LINE
8
BLACK
6
CONTINUOUS
10
265.065
20
-121.856
11
265.069
21
-121.856
0
LINE
8
BLACK
6
CONTINUOUS
10
265.069
20
-121.856
11
278.978
21
-120.639
0
LINE
8
BLACK
6
CONTINUOUS
10
278.978
20
-120.639
11
278.982
21
-120.638
0
LINE
8
BLACK
6
CONTINUOUS
10
278.982
20
-120.638
11
278.997
21
-120.638
0
LINE
8
BLACK
6
CONTINUOUS
10
265.154
20
-122.001
11
266.359
21
-135.766
0
LINE
8
BLACK
6
CONTINUOUS
10
266.359
20
-135.766
11
280.124
21
-134.562
0
LINE
8
BLACK
6
CONTINUOUS
10
280.124
20
-134.562
11
278.919
21
-120.797
0
LINE
8
BLACK
6
CONTINUOUS
10
278.919
20
-120.797
11
265.154
21
-122.001
0
LINE
8
BLACK
6
CONTINUOUS
10
135.36
20
-120.639
11
149.269
21
-121.856
0
LINE
8
BLACK
6
CONTINUOUS
10
149.269
20
-121.856
11
149.273
21
-121.856
0
LINE
8
BLACK
6
CONTINUOUS
10
149.273
20
-121.856
11
149.277
21
-121.856
0
LINE
8
BLACK
6
CONTINUOUS
10
149.277
20
-121.856
11
149.277
21
-121.856
0
LINE
8
BLACK
6
CONTINUOUS
10
149.277
20
-121.856
11
149.288
21
-121.859
0
LINE
8
BLACK
6
CONTINUOUS
10
149.288
20
-121.859
11
149.302
21
-121.864
0
LINE
8
BLACK
6
CONTINUOUS
10
149.302
20
-121.864
11
149.314
21
-121.872
0
LINE
8
BLACK
6
CONTINUOUS
10
149.314
20
-121.872
11
149.325
21
-121.883
0
LINE
8
BLACK
6
CONTINUOUS
10
149.325
20
-121.883
11
149.333
21
-121.895
0
LINE
8
BLACK
6
CONTINUOUS
10
149.333
20
-121.895
11
149.339
21
-121.909
0
LINE
8
BLACK
6
CONTINUOUS
10
149.339
20
-121.909
11
149.342
21
-121.924
0
LINE
8
BLACK
6
CONTINUOUS
10
149.342
20
-121.924
11
149.343
21
-121.939
0
LINE
8
BLACK
6
CONTINUOUS
10
149.343
20
-121.939
11
149.342
21
-121.942
0
LINE
8
BLACK
6
CONTINUOUS
10
149.342
20
-121.942
11
148.125
21
-135.852
0
LINE
8
BLACK
6
CONTINUOUS
10
148.125
20
-135.852
11
148.125
21
-135.856
0
LINE
8
BLACK
6
CONTINUOUS
10
148.125
20
-135.856
11
148.124
21
-135.859
0
LINE
8
BLACK
6
CONTINUOUS
10
148.124
20
-135.859
11
148.124
21
-135.859
0
LINE
8
BLACK
6
CONTINUOUS
10
148.124
20
-135.859
11
148.122
21
-135.87
0
LINE
8
BLACK
6
CONTINUOUS
10
148.122
20
-135.87
11
148.117
21
-135.884
0
LINE
8
BLACK
6
CONTINUOUS
10
148.117
20
-135.884
11
148.108
21
-135.897
0
LINE
8
BLACK
6
CONTINUOUS
10
148.108
20
-135.897
11
148.098
21
-135.908
0
LINE
8
BLACK
6
CONTINUOUS
10
148.098
20
-135.908
11
148.086
21
-135.916
0
LINE
8
BLACK
6
CONTINUOUS
10
148.086
20
-135.916
11
148.072
21
-135.922
0
LINE
8
BLACK
6
CONTINUOUS
10
148.072
20
-135.922
11
148.057
21
-135.925
0
LINE
8
BLACK
6
CONTINUOUS
10
148.057
20
-135.925
11
148.042
21
-135.925
0
LINE
8
BLACK
6
CONTINUOUS
10
148.042
20
-135.925
11
148.038
21
-135.924
0
LINE
8
BLACK
6
CONTINUOUS
10
148.038
20
-135.924
11
134.129
21
-134.708
0
LINE
8
BLACK
6
CONTINUOUS
10
134.129
20
-134.708
11
134.125
21
-134.708
0
LINE
8
BLACK
6
CONTINUOUS
10
134.125
20
-134.708
11
134.122
21
-134.707
0
LINE
8
BLACK
6
CONTINUOUS
10
134.122
20
-134.707
11
134.122
21
-134.707
0
LINE
8
BLACK
6
CONTINUOUS
10
134.122
20
-134.707
11
134.11
21
-134.705
0
LINE
8
BLACK
6
CONTINUOUS
10
134.11
20
-134.705
11
134.097
21
-134.699
0
LINE
8
BLACK
6
CONTINUOUS
10
134.097
20
-134.699
11
134.084
21
-134.691
0
LINE
8
BLACK
6
CONTINUOUS
10
134.084
20
-134.691
11
134.073
21
-134.681
0
LINE
8
BLACK
6
CONTINUOUS
10
134.073
20
-134.681
11
134.065
21
-134.668
0
LINE
8
BLACK
6
CONTINUOUS
10
134.065
20
-134.668
11
134.059
21
-134.654
0
LINE
8
BLACK
6
CONTINUOUS
10
134.059
20
-134.654
11
134.056
21
-134.64
0
LINE
8
BLACK
6
CONTINUOUS
10
134.056
20
-134.64
11
134.056
21
-134.625
0
LINE
8
BLACK
6
CONTINUOUS
10
134.056
20
-134.625
11
134.056
21
-134.621
0
LINE
8
BLACK
6
CONTINUOUS
10
134.056
20
-134.621
11
135.273
21
-120.712
0
LINE
8
BLACK
6
CONTINUOUS
10
135.273
20
-120.712
11
135.273
21
-120.708
0
LINE
8
BLACK
6
CONTINUOUS
10
135.273
20
-120.708
11
135.274
21
-120.704
0
LINE
8
BLACK
6
CONTINUOUS
10
135.274
20
-120.704
11
135.274
21
-120.704
0
LINE
8
BLACK
6
CONTINUOUS
10
135.274
20
-120.704
11
135.276
21
-120.693
0
LINE
8
BLACK
6
CONTINUOUS
10
135.276
20
-120.693
11
135.282
21
-120.679
0
LINE
8
BLACK
6
CONTINUOUS
10
135.282
20
-120.679
11
135.29
21
-120.667
0
LINE
8
BLACK
6
CONTINUOUS
10
135.29
20
-120.667
11
135.3
21
-120.656
0
LINE
8
BLACK
6
CONTINUOUS
10
135.3
20
-120.656
11
135.313
21
-120.647
0
LINE
8
BLACK
6
CONTINUOUS
10
135.313
20
-120.647
11
135.326
21
-120.641
0
LINE
8
BLACK
6
CONTINUOUS
10
135.326
20
-120.641
11
135.341
21
-120.638
0
LINE
8
BLACK
6
CONTINUOUS
10
135.341
20
-120.638
11
135.356
21
-120.638
0
LINE
8
BLACK
6
CONTINUOUS
10
135.356
20
-120.638
11
135.36
21
-120.639
0
LINE
8
BLACK
6
CONTINUOUS
10
134.214
20
-134.562
11
147.979
21
-135.766
0
LINE
8
BLACK
6
CONTINUOUS
10
147.979
20
-135.766
11
149.184
21
-122.001
0
LINE
8
BLACK
6
CONTINUOUS
10
149.184
20
-122.001
11
135.419
21
-120.797
0
LINE
8
BLACK
6
CONTINUOUS
10
135.419
20
-120.797
11
134.214
21
-134.562
0
LINE
8
BLACK
6
CONTINUOUS
10
174.56
20
-109.726
11
188.469
21
-110.943
0
LINE
8
BLACK
6
CONTINUOUS
10
188.469
20
-110.943
11
188.473
21
-110.943
0
LINE
8
BLACK
6
CONTINUOUS
10
188.473
20
-110.943
11
188.477
21
-110.944
0
LINE
8
BLACK
6
CONTINUOUS
10
188.477
20
-110.944
11
188.477
21
-110.944
0
LINE
8
BLACK
6
CONTINUOUS
10
188.477
20
-110.944
11
188.488
21
-110.946
0
LINE
8
BLACK
6
CONTINUOUS
10
188.488
20
-110.946
11
188.502
21
-110.952
0
LINE
8
BLACK
6
CONTINUOUS
10
188.502
20
-110.952
11
188.514
21
-110.96
0
LINE
8
BLACK
6
CONTINUOUS
10
188.514
20
-110.96
11
188.525
21
-110.97
0
LINE
8
BLACK
6
CONTINUOUS
10
188.525
20
-110.97
11
188.534
21
-110.983
0
LINE
8
BLACK
6
CONTINUOUS
10
188.534
20
-110.983
11
188.54
21
-110.997
0
LINE
8
BLACK
6
CONTINUOUS
10
188.54
20
-110.997
11
188.543
21
-111.011
0
LINE
8
BLACK
6
CONTINUOUS
10
188.543
20
-111.011
11
188.543
21
-111.026
0
LINE
8
BLACK
6
CONTINUOUS
10
188.543
20
-111.026
11
188.542
21
-111.03
0
LINE
8
BLACK
6
CONTINUOUS
10
188.542
20
-111.03
11
187.325
21
-124.939
0
LINE
8
BLACK
6
CONTINUOUS
10
187.325
20
-124.939
11
187.325
21
-124.943
0
LINE
8
BLACK
6
CONTINUOUS
10
187.325
20
-124.943
11
187.325
21
-124.947
0
LINE
8
BLACK
6
CONTINUOUS
10
187.325
20
-124.947
11
187.325
21
-124.947
0
LINE
8
BLACK
6
CONTINUOUS
10
187.325
20
-124.947
11
187.322
21
-124.958
0
LINE
8
BLACK
6
CONTINUOUS
10
187.322
20
-124.958
11
187.317
21
-124.972
0
LINE
8
BLACK
6
CONTINUOUS
10
187.317
20
-124.972
11
187.309
21
-124.984
0
LINE
8
BLACK
6
CONTINUOUS
10
187.309
20
-124.984
11
187.298
21
-124.995
0
LINE
8
BLACK
6
CONTINUOUS
10
187.298
20
-124.995
11
187.286
21
-125.004
0
LINE
8
BLACK
6
CONTINUOUS
10
187.286
20
-125.004
11
187.272
21
-125.009
0
LINE
8
BLACK
6
CONTINUOUS
10
187.272
20
-125.009
11
187.257
21
-125.012
0
LINE
8
BLACK
6
CONTINUOUS
10
187.257
20
-125.012
11
187.242
21
-125.013
0
LINE
8
BLACK
6
CONTINUOUS
10
187.242
20
-125.013
11
187.239
21
-125.012
0
LINE
8
BLACK
6
CONTINUOUS
10
187.239
20
-125.012
11
173.329
21
-123.795
0
LINE
8
BLACK
6
CONTINUOUS
10
173.329
20
-123.795
11
173.325
21
-123.795
0
LINE
8
BLACK
6
CONTINUOUS
10
173.325
20
-123.795
11
173.322
21
-123.794
0
LINE
8
BLACK
6
CONTINUOUS
10
173.322
20
-123.794
11
173.322
21
-123.794
0
LINE
8
BLACK
6
CONTINUOUS
10
173.322
20
-123.794
11
173.311
21
-123.792
0
LINE
8
BLACK
6
CONTINUOUS
10
173.311
20
-123.792
11
173.297
21
-123.787
0
LINE
8
BLACK
6
CONTINUOUS
10
173.297
20
-123.787
11
173.284
21
-123.779
0
LINE
8
BLACK
6
CONTINUOUS
10
173.284
20
-123.779
11
173.273
21
-123.768
0
LINE
8
BLACK
6
CONTINUOUS
10
173.273
20
-123.768
11
173.265
21
-123.756
0
LINE
8
BLACK
6
CONTINUOUS
10
173.265
20
-123.756
11
173.259
21
-123.742
0
LINE
8
BLACK
6
CONTINUOUS
10
173.259
20
-123.742
11
173.256
21
-123.727
0
LINE
8
BLACK
6
CONTINUOUS
10
173.256
20
-123.727
11
173.256
21
-123.712
0
LINE
8
BLACK
6
CONTINUOUS
10
173.256
20
-123.712
11
173.257
21
-123.708
0
LINE
8
BLACK
6
CONTINUOUS
10
173.257
20
-123.708
11
174.473
21
-109.799
0
LINE
8
BLACK
6
CONTINUOUS
10
174.473
20
-109.799
11
174.473
21
-109.795
0
LINE
8
BLACK
6
CONTINUOUS
10
174.473
20
-109.795
11
174.474
21
-109.792
0
LINE
8
BLACK
6
CONTINUOUS
10
174.474
20
-109.792
11
174.474
21
-109.792
0
LINE
8
BLACK
6
CONTINUOUS
10
174.474
20
-109.792
11
174.476
21
-109.781
0
LINE
8
BLACK
6
CONTINUOUS
10
174.476
20
-109.781
11
174.482
21
-109.767
0
LINE
8
BLACK
6
CONTINUOUS
10
174.482
20
-109.767
11
174.49
21
-109.754
0
LINE
8
BLACK
6
CONTINUOUS
10
174.49
20
-109.754
11
174.5
21
-109.743
0
LINE
8
BLACK
6
CONTINUOUS
10
174.5
20
-109.743
11
174.513
21
-109.735
0
LINE
8
BLACK
6
CONTINUOUS
10
174.513
20
-109.735
11
174.527
21
-109.729
0
LINE
8
BLACK
6
CONTINUOUS
10
174.527
20
-109.729
11
174.541
21
-109.726
0
LINE
8
BLACK
6
CONTINUOUS
10
174.541
20
-109.726
11
174.556
21
-109.726
0
LINE
8
BLACK
6
CONTINUOUS
10
174.556
20
-109.726
11
174.56
21
-109.726
0
LINE
8
BLACK
6
CONTINUOUS
10
173.415
20
-123.65
11
187.18
21
-124.854
0
LINE
8
BLACK
6
CONTINUOUS
10
187.18
20
-124.854
11
188.384
21
-111.089
0
LINE
8
BLACK
6
CONTINUOUS
10
188.384
20
-111.089
11
174.619
21
-109.885
0
LINE
8
BLACK
6
CONTINUOUS
10
174.619
20
-109.885
11
173.415
21
-123.65
0
LINE
8
BLACK
6
CONTINUOUS
10
239.797
20
-109.726
11
239.812
21
-109.729
0
LINE
8
BLACK
6
CONTINUOUS
10
239.812
20
-109.729
11
239.825
21
-109.735
0
LINE
8
BLACK
6
CONTINUOUS
10
239.825
20
-109.735
11
239.838
21
-109.743
0
LINE
8
BLACK
6
CONTINUOUS
10
239.838
20
-109.743
11
239.848
21
-109.754
0
LINE
8
BLACK
6
CONTINUOUS
10
239.848
20
-109.754
11
239.856
21
-109.767
0
LINE
8
BLACK
6
CONTINUOUS
10
239.856
20
-109.767
11
239.861
21
-109.779
0
LINE
8
BLACK
6
CONTINUOUS
10
239.861
20
-109.779
11
239.862
21
-109.781
0
LINE
8
BLACK
6
CONTINUOUS
10
239.862
20
-109.781
11
239.865
21
-109.795
0
LINE
8
BLACK
6
CONTINUOUS
10
239.865
20
-109.795
11
239.865
21
-109.799
0
LINE
8
BLACK
6
CONTINUOUS
10
239.865
20
-109.799
11
241.082
21
-123.708
0
LINE
8
BLACK
6
CONTINUOUS
10
241.082
20
-123.708
11
241.082
21
-123.712
0
LINE
8
BLACK
6
CONTINUOUS
10
241.082
20
-123.712
11
241.082
21
-123.727
0
LINE
8
BLACK
6
CONTINUOUS
10
241.082
20
-123.727
11
241.079
21
-123.742
0
LINE
8
BLACK
6
CONTINUOUS
10
241.079
20
-123.742
11
241.073
21
-123.756
0
LINE
8
BLACK
6
CONTINUOUS
10
241.073
20
-123.756
11
241.065
21
-123.768
0
LINE
8
BLACK
6
CONTINUOUS
10
241.065
20
-123.768
11
241.054
21
-123.779
0
LINE
8
BLACK
6
CONTINUOUS
10
241.054
20
-123.779
11
241.041
21
-123.787
0
LINE
8
BLACK
6
CONTINUOUS
10
241.041
20
-123.787
11
241.027
21
-123.792
0
LINE
8
BLACK
6
CONTINUOUS
10
241.027
20
-123.792
11
241.016
21
-123.794
0
LINE
8
BLACK
6
CONTINUOUS
10
241.016
20
-123.794
11
241.016
21
-123.794
0
LINE
8
BLACK
6
CONTINUOUS
10
241.016
20
-123.794
11
241.013
21
-123.795
0
LINE
8
BLACK
6
CONTINUOUS
10
241.013
20
-123.795
11
241.009
21
-123.795
0
LINE
8
BLACK
6
CONTINUOUS
10
241.009
20
-123.795
11
227.1
21
-125.012
0
LINE
8
BLACK
6
CONTINUOUS
10
227.1
20
-125.012
11
227.096
21
-125.013
0
LINE
8
BLACK
6
CONTINUOUS
10
227.096
20
-125.013
11
227.081
21
-125.012
0
LINE
8
BLACK
6
CONTINUOUS
10
227.081
20
-125.012
11
227.066
21
-125.009
0
LINE
8
BLACK
6
CONTINUOUS
10
227.066
20
-125.009
11
227.052
21
-125.004
0
LINE
8
BLACK
6
CONTINUOUS
10
227.052
20
-125.004
11
227.04
21
-124.995
0
LINE
8
BLACK
6
CONTINUOUS
10
227.04
20
-124.995
11
227.029
21
-124.984
0
LINE
8
BLACK
6
CONTINUOUS
10
227.029
20
-124.984
11
227.021
21
-124.972
0
LINE
8
BLACK
6
CONTINUOUS
10
227.021
20
-124.972
11
227.016
21
-124.958
0
LINE
8
BLACK
6
CONTINUOUS
10
227.016
20
-124.958
11
227.014
21
-124.947
0
LINE
8
BLACK
6
CONTINUOUS
10
227.014
20
-124.947
11
227.014
21
-124.947
0
LINE
8
BLACK
6
CONTINUOUS
10
227.014
20
-124.947
11
227.013
21
-124.943
0
LINE
8
BLACK
6
CONTINUOUS
10
227.013
20
-124.943
11
227.013
21
-124.939
0
LINE
8
BLACK
6
CONTINUOUS
10
227.013
20
-124.939
11
225.796
21
-111.03
0
LINE
8
BLACK
6
CONTINUOUS
10
225.796
20
-111.03
11
225.795
21
-111.026
0
LINE
8
BLACK
6
CONTINUOUS
10
225.795
20
-111.026
11
225.796
21
-111.011
0
LINE
8
BLACK
6
CONTINUOUS
10
225.796
20
-111.011
11
225.799
21
-110.997
0
LINE
8
BLACK
6
CONTINUOUS
10
225.799
20
-110.997
11
225.805
21
-110.983
0
LINE
8
BLACK
6
CONTINUOUS
10
225.805
20
-110.983
11
225.813
21
-110.97
0
LINE
8
BLACK
6
CONTINUOUS
10
225.813
20
-110.97
11
225.824
21
-110.96
0
LINE
8
BLACK
6
CONTINUOUS
10
225.824
20
-110.96
11
225.836
21
-110.952
0
LINE
8
BLACK
6
CONTINUOUS
10
225.836
20
-110.952
11
225.85
21
-110.946
0
LINE
8
BLACK
6
CONTINUOUS
10
225.85
20
-110.946
11
225.861
21
-110.944
0
LINE
8
BLACK
6
CONTINUOUS
10
225.861
20
-110.944
11
225.861
21
-110.944
0
LINE
8
BLACK
6
CONTINUOUS
10
225.861
20
-110.944
11
225.865
21
-110.943
0
LINE
8
BLACK
6
CONTINUOUS
10
225.865
20
-110.943
11
225.869
21
-110.943
0
LINE
8
BLACK
6
CONTINUOUS
10
225.869
20
-110.943
11
239.778
21
-109.726
0
LINE
8
BLACK
6
CONTINUOUS
10
239.778
20
-109.726
11
239.782
21
-109.726
0
LINE
8
BLACK
6
CONTINUOUS
10
239.782
20
-109.726
11
239.797
21
-109.726
0
LINE
8
BLACK
6
CONTINUOUS
10
225.954
20
-111.089
11
227.158
21
-124.854
0
LINE
8
BLACK
6
CONTINUOUS
10
227.158
20
-124.854
11
240.923
21
-123.65
0
LINE
8
BLACK
6
CONTINUOUS
10
240.923
20
-123.65
11
239.719
21
-109.885
0
LINE
8
BLACK
6
CONTINUOUS
10
239.719
20
-109.885
11
225.954
21
-111.089
0
LINE
8
BLACK
6
CONTINUOUS
10
155.583
20
-108.066
11
169.492
21
-109.283
0
LINE
8
BLACK
6
CONTINUOUS
10
169.492
20
-109.283
11
169.496
21
-109.283
0
LINE
8
BLACK
6
CONTINUOUS
10
169.496
20
-109.283
11
169.499
21
-109.284
0
LINE
8
BLACK
6
CONTINUOUS
10
169.499
20
-109.284
11
169.499
21
-109.284
0
LINE
8
BLACK
6
CONTINUOUS
10
169.499
20
-109.284
11
169.51
21
-109.286
0
LINE
8
BLACK
6
CONTINUOUS
10
169.51
20
-109.286
11
169.524
21
-109.291
0
LINE
8
BLACK
6
CONTINUOUS
10
169.524
20
-109.291
11
169.537
21
-109.3
0
LINE
8
BLACK
6
CONTINUOUS
10
169.537
20
-109.3
11
169.548
21
-109.31
0
LINE
8
BLACK
6
CONTINUOUS
10
169.548
20
-109.31
11
169.556
21
-109.322
0
LINE
8
BLACK
6
CONTINUOUS
10
169.556
20
-109.322
11
169.562
21
-109.336
0
LINE
8
BLACK
6
CONTINUOUS
10
169.562
20
-109.336
11
169.565
21
-109.351
0
LINE
8
BLACK
6
CONTINUOUS
10
169.565
20
-109.351
11
169.565
21
-109.366
0
LINE
8
BLACK
6
CONTINUOUS
10
169.565
20
-109.366
11
169.565
21
-109.37
0
LINE
8
BLACK
6
CONTINUOUS
10
169.565
20
-109.37
11
168.348
21
-123.279
0
LINE
8
BLACK
6
CONTINUOUS
10
168.348
20
-123.279
11
168.348
21
-123.283
0
LINE
8
BLACK
6
CONTINUOUS
10
168.348
20
-123.283
11
168.347
21
-123.286
0
LINE
8
BLACK
6
CONTINUOUS
10
168.347
20
-123.286
11
168.347
21
-123.286
0
LINE
8
BLACK
6
CONTINUOUS
10
168.347
20
-123.286
11
168.345
21
-123.297
0
LINE
8
BLACK
6
CONTINUOUS
10
168.345
20
-123.297
11
168.339
21
-123.311
0
LINE
8
BLACK
6
CONTINUOUS
10
168.339
20
-123.311
11
168.331
21
-123.324
0
LINE
8
BLACK
6
CONTINUOUS
10
168.331
20
-123.324
11
168.321
21
-123.335
0
LINE
8
BLACK
6
CONTINUOUS
10
168.321
20
-123.335
11
168.308
21
-123.343
0
LINE
8
BLACK
6
CONTINUOUS
10
168.308
20
-123.343
11
168.295
21
-123.349
0
LINE
8
BLACK
6
CONTINUOUS
10
168.295
20
-123.349
11
168.28
21
-123.352
0
LINE
8
BLACK
6
CONTINUOUS
10
168.28
20
-123.352
11
168.265
21
-123.352
0
LINE
8
BLACK
6
CONTINUOUS
10
168.265
20
-123.352
11
168.261
21
-123.352
0
LINE
8
BLACK
6
CONTINUOUS
10
168.261
20
-123.352
11
154.352
21
-122.135
0
LINE
8
BLACK
6
CONTINUOUS
10
154.352
20
-122.135
11
154.348
21
-122.135
0
LINE
8
BLACK
6
CONTINUOUS
10
154.348
20
-122.135
11
154.344
21
-122.134
0
LINE
8
BLACK
6
CONTINUOUS
10
154.344
20
-122.134
11
154.344
21
-122.134
0
LINE
8
BLACK
6
CONTINUOUS
10
154.344
20
-122.134
11
154.333
21
-122.132
0
LINE
8
BLACK
6
CONTINUOUS
10
154.333
20
-122.132
11
154.319
21
-122.126
0
LINE
8
BLACK
6
CONTINUOUS
10
154.319
20
-122.126
11
154.307
21
-122.118
0
LINE
8
BLACK
6
CONTINUOUS
10
154.307
20
-122.118
11
154.296
21
-122.108
0
LINE
8
BLACK
6
CONTINUOUS
10
154.296
20
-122.108
11
154.288
21
-122.095
0
LINE
8
BLACK
6
CONTINUOUS
10
154.288
20
-122.095
11
154.282
21
-122.082
0
LINE
8
BLACK
6
CONTINUOUS
10
154.282
20
-122.082
11
154.279
21
-122.067
0
LINE
8
BLACK
6
CONTINUOUS
10
154.279
20
-122.067
11
154.278
21
-122.052
0
LINE
8
BLACK
6
CONTINUOUS
10
154.278
20
-122.052
11
154.279
21
-122.048
0
LINE
8
BLACK
6
CONTINUOUS
10
154.279
20
-122.048
11
155.496
21
-108.139
0
LINE
8
BLACK
6
CONTINUOUS
10
155.496
20
-108.139
11
155.496
21
-108.135
0
LINE
8
BLACK
6
CONTINUOUS
10
155.496
20
-108.135
11
155.497
21
-108.131
0
LINE
8
BLACK
6
CONTINUOUS
10
155.497
20
-108.131
11
155.497
21
-108.131
0
LINE
8
BLACK
6
CONTINUOUS
10
155.497
20
-108.131
11
155.499
21
-108.12
0
LINE
8
BLACK
6
CONTINUOUS
10
155.499
20
-108.12
11
155.504
21
-108.106
0
LINE
8
BLACK
6
CONTINUOUS
10
155.504
20
-108.106
11
155.512
21
-108.094
0
LINE
8
BLACK
6
CONTINUOUS
10
155.512
20
-108.094
11
155.523
21
-108.083
0
LINE
8
BLACK
6
CONTINUOUS
10
155.523
20
-108.083
11
155.535
21
-108.075
0
LINE
8
BLACK
6
CONTINUOUS
10
155.535
20
-108.075
11
155.549
21
-108.069
0
LINE
8
BLACK
6
CONTINUOUS
10
155.549
20
-108.069
11
155.564
21
-108.066
0
LINE
8
BLACK
6
CONTINUOUS
10
155.564
20
-108.066
11
155.579
21
-108.065
0
LINE
8
BLACK
6
CONTINUOUS
10
155.579
20
-108.065
11
155.583
21
-108.066
0
LINE
8
BLACK
6
CONTINUOUS
10
154.437
20
-121.989
11
168.202
21
-123.194
0
LINE
8
BLACK
6
CONTINUOUS
10
168.202
20
-123.194
11
169.406
21
-109.428
0
LINE
8
BLACK
6
CONTINUOUS
10
169.406
20
-109.428
11
155.641
21
-108.224
0
LINE
8
BLACK
6
CONTINUOUS
10
155.641
20
-108.224
11
154.437
21
-121.989
0
LINE
8
BLACK
6
CONTINUOUS
10
258.774
20
-108.066
11
258.789
21
-108.069
0
LINE
8
BLACK
6
CONTINUOUS
10
258.789
20
-108.069
11
258.803
21
-108.075
0
LINE
8
BLACK
6
CONTINUOUS
10
258.803
20
-108.075
11
258.815
21
-108.083
0
LINE
8
BLACK
6
CONTINUOUS
10
258.815
20
-108.083
11
258.826
21
-108.094
0
LINE
8
BLACK
6
CONTINUOUS
10
258.826
20
-108.094
11
258.834
21
-108.106
0
LINE
8
BLACK
6
CONTINUOUS
10
258.834
20
-108.106
11
258.839
21
-108.119
0
LINE
8
BLACK
6
CONTINUOUS
10
258.839
20
-108.119
11
258.84
21
-108.12
0
LINE
8
BLACK
6
CONTINUOUS
10
258.84
20
-108.12
11
258.842
21
-108.135
0
LINE
8
BLACK
6
CONTINUOUS
10
258.842
20
-108.135
11
258.842
21
-108.139
0
LINE
8
BLACK
6
CONTINUOUS
10
258.842
20
-108.139
11
260.059
21
-122.048
0
LINE
8
BLACK
6
CONTINUOUS
10
260.059
20
-122.048
11
260.06
21
-122.052
0
LINE
8
BLACK
6
CONTINUOUS
10
260.06
20
-122.052
11
260.06
21
-122.067
0
LINE
8
BLACK
6
CONTINUOUS
10
260.06
20
-122.067
11
260.057
21
-122.082
0
LINE
8
BLACK
6
CONTINUOUS
10
260.057
20
-122.082
11
260.051
21
-122.095
0
LINE
8
BLACK
6
CONTINUOUS
10
260.051
20
-122.095
11
260.042
21
-122.108
0
LINE
8
BLACK
6
CONTINUOUS
10
260.042
20
-122.108
11
260.031
21
-122.118
0
LINE
8
BLACK
6
CONTINUOUS
10
260.031
20
-122.118
11
260.019
21
-122.126
0
LINE
8
BLACK
6
CONTINUOUS
10
260.019
20
-122.126
11
260.005
21
-122.132
0
LINE
8
BLACK
6
CONTINUOUS
10
260.005
20
-122.132
11
259.994
21
-122.134
0
LINE
8
BLACK
6
CONTINUOUS
10
259.994
20
-122.134
11
259.994
21
-122.134
0
LINE
8
BLACK
6
CONTINUOUS
10
259.994
20
-122.134
11
259.99
21
-122.135
0
LINE
8
BLACK
6
CONTINUOUS
10
259.99
20
-122.135
11
259.986
21
-122.135
0
LINE
8
BLACK
6
CONTINUOUS
10
259.986
20
-122.135
11
246.077
21
-123.352
0
LINE
8
BLACK
6
CONTINUOUS
10
246.077
20
-123.352
11
246.073
21
-123.352
0
LINE
8
BLACK
6
CONTINUOUS
10
246.073
20
-123.352
11
246.058
21
-123.352
0
LINE
8
BLACK
6
CONTINUOUS
10
246.058
20
-123.352
11
246.044
21
-123.349
0
LINE
8
BLACK
6
CONTINUOUS
10
246.044
20
-123.349
11
246.03
21
-123.343
0
LINE
8
BLACK
6
CONTINUOUS
10
246.03
20
-123.343
11
246.018
21
-123.335
0
LINE
8
BLACK
6
CONTINUOUS
10
246.018
20
-123.335
11
246.007
21
-123.324
0
LINE
8
BLACK
6
CONTINUOUS
10
246.007
20
-123.324
11
245.999
21
-123.311
0
LINE
8
BLACK
6
CONTINUOUS
10
245.999
20
-123.311
11
245.993
21
-123.297
0
LINE
8
BLACK
6
CONTINUOUS
10
245.993
20
-123.297
11
245.991
21
-123.286
0
LINE
8
BLACK
6
CONTINUOUS
10
245.991
20
-123.286
11
245.991
21
-123.286
0
LINE
8
BLACK
6
CONTINUOUS
10
245.991
20
-123.286
11
245.99
21
-123.283
0
LINE
8
BLACK
6
CONTINUOUS
10
245.99
20
-123.283
11
245.99
21
-123.279
0
LINE
8
BLACK
6
CONTINUOUS
10
245.99
20
-123.279
11
244.774
21
-109.37
0
LINE
8
BLACK
6
CONTINUOUS
10
244.774
20
-109.37
11
244.773
21
-109.366
0
LINE
8
BLACK
6
CONTINUOUS
10
244.773
20
-109.366
11
244.773
21
-109.351
0
LINE
8
BLACK
6
CONTINUOUS
10
244.773
20
-109.351
11
244.776
21
-109.336
0
LINE
8
BLACK
6
CONTINUOUS
10
244.776
20
-109.336
11
244.782
21
-109.322
0
LINE
8
BLACK
6
CONTINUOUS
10
244.782
20
-109.322
11
244.79
21
-109.31
0
LINE
8
BLACK
6
CONTINUOUS
10
244.79
20
-109.31
11
244.801
21
-109.3
0
LINE
8
BLACK
6
CONTINUOUS
10
244.801
20
-109.3
11
244.814
21
-109.291
0
LINE
8
BLACK
6
CONTINUOUS
10
244.814
20
-109.291
11
244.828
21
-109.286
0
LINE
8
BLACK
6
CONTINUOUS
10
244.828
20
-109.286
11
244.839
21
-109.284
0
LINE
8
BLACK
6
CONTINUOUS
10
244.839
20
-109.284
11
244.839
21
-109.284
0
LINE
8
BLACK
6
CONTINUOUS
10
244.839
20
-109.284
11
244.842
21
-109.283
0
LINE
8
BLACK
6
CONTINUOUS
10
244.842
20
-109.283
11
244.846
21
-109.283
0
LINE
8
BLACK
6
CONTINUOUS
10
244.846
20
-109.283
11
258.756
21
-108.066
0
LINE
8
BLACK
6
CONTINUOUS
10
258.756
20
-108.066
11
258.759
21
-108.065
0
LINE
8
BLACK
6
CONTINUOUS
10
258.759
20
-108.065
11
258.774
21
-108.066
0
LINE
8
BLACK
6
CONTINUOUS
10
244.932
20
-109.428
11
246.136
21
-123.194
0
LINE
8
BLACK
6
CONTINUOUS
10
246.136
20
-123.194
11
259.901
21
-121.989
0
LINE
8
BLACK
6
CONTINUOUS
10
259.901
20
-121.989
11
258.697
21
-108.224
0
LINE
8
BLACK
6
CONTINUOUS
10
258.697
20
-108.224
11
244.932
21
-109.428
0
LINE
8
BLACK
6
CONTINUOUS
10
98.401
20
-105.932
11
112.31
21
-107.149
0
LINE
8
BLACK
6
CONTINUOUS
10
112.31
20
-107.149
11
112.314
21
-107.149
0
LINE
8
BLACK
6
CONTINUOUS
10
112.314
20
-107.149
11
112.318
21
-107.149
0
LINE
8
BLACK
6
CONTINUOUS
10
112.318
20
-107.149
11
112.318
21
-107.149
0
LINE
8
BLACK
6
CONTINUOUS
10
112.318
20
-107.149
11
112.329
21
-107.151
0
LINE
8
BLACK
6
CONTINUOUS
10
112.329
20
-107.151
11
112.343
21
-107.157
0
LINE
8
BLACK
6
CONTINUOUS
10
112.343
20
-107.157
11
112.355
21
-107.165
0
LINE
8
BLACK
6
CONTINUOUS
10
112.355
20
-107.165
11
112.366
21
-107.176
0
LINE
8
BLACK
6
CONTINUOUS
10
112.366
20
-107.176
11
112.375
21
-107.188
0
LINE
8
BLACK
6
CONTINUOUS
10
112.375
20
-107.188
11
112.38
21
-107.202
0
LINE
8
BLACK
6
CONTINUOUS
10
112.38
20
-107.202
11
112.384
21
-107.217
0
LINE
8
BLACK
6
CONTINUOUS
10
112.384
20
-107.217
11
112.384
21
-107.232
0
LINE
8
BLACK
6
CONTINUOUS
10
112.384
20
-107.232
11
112.383
21
-107.235
0
LINE
8
BLACK
6
CONTINUOUS
10
112.383
20
-107.235
11
111.166
21
-121.145
0
LINE
8
BLACK
6
CONTINUOUS
10
111.166
20
-121.145
11
111.166
21
-121.148
0
LINE
8
BLACK
6
CONTINUOUS
10
111.166
20
-121.148
11
111.165
21
-121.152
0
LINE
8
BLACK
6
CONTINUOUS
10
111.165
20
-121.152
11
111.165
21
-121.152
0
LINE
8
BLACK
6
CONTINUOUS
10
111.165
20
-121.152
11
111.163
21
-121.163
0
LINE
8
BLACK
6
CONTINUOUS
10
111.163
20
-121.163
11
111.158
21
-121.177
0
LINE
8
BLACK
6
CONTINUOUS
10
111.158
20
-121.177
11
111.15
21
-121.19
0
LINE
8
BLACK
6
CONTINUOUS
10
111.15
20
-121.19
11
111.139
21
-121.2
0
LINE
8
BLACK
6
CONTINUOUS
10
111.139
20
-121.2
11
111.127
21
-121.209
0
LINE
8
BLACK
6
CONTINUOUS
10
111.127
20
-121.209
11
111.113
21
-121.215
0
LINE
8
BLACK
6
CONTINUOUS
10
111.113
20
-121.215
11
111.098
21
-121.218
0
LINE
8
BLACK
6
CONTINUOUS
10
111.098
20
-121.218
11
111.083
21
-121.218
0
LINE
8
BLACK
6
CONTINUOUS
10
111.083
20
-121.218
11
111.08
21
-121.217
0
LINE
8
BLACK
6
CONTINUOUS
10
111.08
20
-121.217
11
97.1701
21
-120
0
LINE
8
BLACK
6
CONTINUOUS
10
97.1701
20
-120
11
97.1664
21
-120
0
LINE
8
BLACK
6
CONTINUOUS
10
97.1664
20
-120
11
97.1627
21
-120
0
LINE
8
BLACK
6
CONTINUOUS
10
97.1627
20
-120
11
97.1627
21
-120
0
LINE
8
BLACK
6
CONTINUOUS
10
97.1627
20
-120
11
97.1516
21
-119.998
0
LINE
8
BLACK
6
CONTINUOUS
10
97.1516
20
-119.998
11
97.1377
21
-119.992
0
LINE
8
BLACK
6
CONTINUOUS
10
97.1377
20
-119.992
11
97.1251
21
-119.984
0
LINE
8
BLACK
6
CONTINUOUS
10
97.1251
20
-119.984
11
97.1144
21
-119.973
0
LINE
8
BLACK
6
CONTINUOUS
10
97.1144
20
-119.973
11
97.1059
21
-119.961
0
LINE
8
BLACK
6
CONTINUOUS
10
97.1059
20
-119.961
11
97.1
21
-119.947
0
LINE
8
BLACK
6
CONTINUOUS
10
97.1
20
-119.947
11
97.097
21
-119.933
0
LINE
8
BLACK
6
CONTINUOUS
10
97.097
20
-119.933
11
97.0968
21
-119.918
0
LINE
8
BLACK
6
CONTINUOUS
10
97.0968
20
-119.918
11
97.0975
21
-119.914
0
LINE
8
BLACK
6
CONTINUOUS
10
97.0975
20
-119.914
11
98.3144
21
-106.004
0
LINE
8
BLACK
6
CONTINUOUS
10
98.3144
20
-106.004
11
98.3144
21
-106.001
0
LINE
8
BLACK
6
CONTINUOUS
10
98.3144
20
-106.001
11
98.315
21
-105.997
0
LINE
8
BLACK
6
CONTINUOUS
10
98.315
20
-105.997
11
98.315
21
-105.997
0
LINE
8
BLACK
6
CONTINUOUS
10
98.315
20
-105.997
11
98.3171
21
-105.986
0
LINE
8
BLACK
6
CONTINUOUS
10
98.3171
20
-105.986
11
98.3227
21
-105.972
0
LINE
8
BLACK
6
CONTINUOUS
10
98.3227
20
-105.972
11
98.3309
21
-105.959
0
LINE
8
BLACK
6
CONTINUOUS
10
98.3309
20
-105.959
11
98.3414
21
-105.949
0
LINE
8
BLACK
6
CONTINUOUS
10
98.3414
20
-105.949
11
98.3538
21
-105.94
0
LINE
8
BLACK
6
CONTINUOUS
10
98.3538
20
-105.94
11
98.3676
21
-105.934
0
LINE
8
BLACK
6
CONTINUOUS
10
98.3676
20
-105.934
11
98.3823
21
-105.931
0
LINE
8
BLACK
6
CONTINUOUS
10
98.3823
20
-105.931
11
98.3973
21
-105.931
0
LINE
8
BLACK
6
CONTINUOUS
10
98.3973
20
-105.931
11
98.401
21
-105.932
0
LINE
8
BLACK
6
CONTINUOUS
10
97.2556
20
-119.855
11
111.021
21
-121.059
0
LINE
8
BLACK
6
CONTINUOUS
10
111.021
20
-121.059
11
112.225
21
-107.294
0
LINE
8
BLACK
6
CONTINUOUS
10
112.225
20
-107.294
11
98.4599
21
-106.09
0
LINE
8
BLACK
6
CONTINUOUS
10
98.4599
20
-106.09
11
97.2556
21
-119.855
0
LINE
8
BLACK
6
CONTINUOUS
10
315.956
20
-105.931
11
315.971
21
-105.934
0
LINE
8
BLACK
6
CONTINUOUS
10
315.971
20
-105.934
11
315.984
21
-105.94
0
LINE
8
BLACK
6
CONTINUOUS
10
315.984
20
-105.94
11
315.997
21
-105.949
0
LINE
8
BLACK
6
CONTINUOUS
10
315.997
20
-105.949
11
316.007
21
-105.959
0
LINE
8
BLACK
6
CONTINUOUS
10
316.007
20
-105.959
11
316.015
21
-105.972
0
LINE
8
BLACK
6
CONTINUOUS
10
316.015
20
-105.972
11
316.02
21
-105.984
0
LINE
8
BLACK
6
CONTINUOUS
10
316.02
20
-105.984
11
316.021
21
-105.986
0
LINE
8
BLACK
6
CONTINUOUS
10
316.021
20
-105.986
11
316.024
21
-106.001
0
LINE
8
BLACK
6
CONTINUOUS
10
316.024
20
-106.001
11
316.024
21
-106.004
0
LINE
8
BLACK
6
CONTINUOUS
10
316.024
20
-106.004
11
317.241
21
-119.914
0
LINE
8
BLACK
6
CONTINUOUS
10
317.241
20
-119.914
11
317.241
21
-119.918
0
LINE
8
BLACK
6
CONTINUOUS
10
317.241
20
-119.918
11
317.241
21
-119.933
0
LINE
8
BLACK
6
CONTINUOUS
10
317.241
20
-119.933
11
317.238
21
-119.947
0
LINE
8
BLACK
6
CONTINUOUS
10
317.238
20
-119.947
11
317.232
21
-119.961
0
LINE
8
BLACK
6
CONTINUOUS
10
317.232
20
-119.961
11
317.224
21
-119.973
0
LINE
8
BLACK
6
CONTINUOUS
10
317.224
20
-119.973
11
317.213
21
-119.984
0
LINE
8
BLACK
6
CONTINUOUS
10
317.213
20
-119.984
11
317.2
21
-119.992
0
LINE
8
BLACK
6
CONTINUOUS
10
317.2
20
-119.992
11
317.187
21
-119.998
0
LINE
8
BLACK
6
CONTINUOUS
10
317.187
20
-119.998
11
317.175
21
-120
0
LINE
8
BLACK
6
CONTINUOUS
10
317.175
20
-120
11
317.175
21
-120
0
LINE
8
BLACK
6
CONTINUOUS
10
317.175
20
-120
11
317.172
21
-120
0
LINE
8
BLACK
6
CONTINUOUS
10
317.172
20
-120
11
317.168
21
-120
0
LINE
8
BLACK
6
CONTINUOUS
10
317.168
20
-120
11
303.259
21
-121.217
0
LINE
8
BLACK
6
CONTINUOUS
10
303.259
20
-121.217
11
303.255
21
-121.218
0
LINE
8
BLACK
6
CONTINUOUS
10
303.255
20
-121.218
11
303.24
21
-121.218
0
LINE
8
BLACK
6
CONTINUOUS
10
303.24
20
-121.218
11
303.225
21
-121.215
0
LINE
8
BLACK
6
CONTINUOUS
10
303.225
20
-121.215
11
303.211
21
-121.209
0
LINE
8
BLACK
6
CONTINUOUS
10
303.211
20
-121.209
11
303.199
21
-121.2
0
LINE
8
BLACK
6
CONTINUOUS
10
303.199
20
-121.2
11
303.189
21
-121.19
0
LINE
8
BLACK
6
CONTINUOUS
10
303.189
20
-121.19
11
303.18
21
-121.177
0
LINE
8
BLACK
6
CONTINUOUS
10
303.18
20
-121.177
11
303.175
21
-121.163
0
LINE
8
BLACK
6
CONTINUOUS
10
303.175
20
-121.163
11
303.173
21
-121.152
0
LINE
8
BLACK
6
CONTINUOUS
10
303.173
20
-121.152
11
303.173
21
-121.152
0
LINE
8
BLACK
6
CONTINUOUS
10
303.173
20
-121.152
11
303.172
21
-121.148
0
LINE
8
BLACK
6
CONTINUOUS
10
303.172
20
-121.148
11
303.172
21
-121.145
0
LINE
8
BLACK
6
CONTINUOUS
10
303.172
20
-121.145
11
301.955
21
-107.235
0
LINE
8
BLACK
6
CONTINUOUS
10
301.955
20
-107.235
11
301.954
21
-107.232
0
LINE
8
BLACK
6
CONTINUOUS
10
301.954
20
-107.232
11
301.955
21
-107.217
0
LINE
8
BLACK
6
CONTINUOUS
10
301.955
20
-107.217
11
301.958
21
-107.202
0
LINE
8
BLACK
6
CONTINUOUS
10
301.958
20
-107.202
11
301.964
21
-107.188
0
LINE
8
BLACK
6
CONTINUOUS
10
301.964
20
-107.188
11
301.972
21
-107.176
0
LINE
8
BLACK
6
CONTINUOUS
10
301.972
20
-107.176
11
301.983
21
-107.165
0
LINE
8
BLACK
6
CONTINUOUS
10
301.983
20
-107.165
11
301.995
21
-107.157
0
LINE
8
BLACK
6
CONTINUOUS
10
301.995
20
-107.157
11
302.009
21
-107.151
0
LINE
8
BLACK
6
CONTINUOUS
10
302.009
20
-107.151
11
302.02
21
-107.149
0
LINE
8
BLACK
6
CONTINUOUS
10
302.02
20
-107.149
11
302.02
21
-107.149
0
LINE
8
BLACK
6
CONTINUOUS
10
302.02
20
-107.149
11
302.024
21
-107.149
0
LINE
8
BLACK
6
CONTINUOUS
10
302.024
20
-107.149
11
302.028
21
-107.149
0
LINE
8
BLACK
6
CONTINUOUS
10
302.028
20
-107.149
11
315.937
21
-105.932
0
LINE
8
BLACK
6
CONTINUOUS
10
315.937
20
-105.932
11
315.941
21
-105.931
0
LINE
8
BLACK
6
CONTINUOUS
10
315.941
20
-105.931
11
315.956
21
-105.931
0
LINE
8
BLACK
6
CONTINUOUS
10
302.113
20
-107.294
11
303.318
21
-121.059
0
LINE
8
BLACK
6
CONTINUOUS
10
303.318
20
-121.059
11
317.083
21
-119.855
0
LINE
8
BLACK
6
CONTINUOUS
10
317.083
20
-119.855
11
315.878
21
-106.09
0
LINE
8
BLACK
6
CONTINUOUS
10
315.878
20
-106.09
11
302.113
21
-107.294
0
LINE
8
BLACK
6
CONTINUOUS
10
79.4235
20
-104.271
11
93.3329
21
-105.488
0
LINE
8
BLACK
6
CONTINUOUS
10
93.3329
20
-105.488
11
93.3366
21
-105.488
0
LINE
8
BLACK
6
CONTINUOUS
10
93.3366
20
-105.488
11
93.3403
21
-105.489
0
LINE
8
BLACK
6
CONTINUOUS
10
93.3403
20
-105.489
11
93.3403
21
-105.489
0
LINE
8
BLACK
6
CONTINUOUS
10
93.3403
20
-105.489
11
93.3514
21
-105.491
0
LINE
8
BLACK
6
CONTINUOUS
10
93.3514
20
-105.491
11
93.3653
21
-105.497
0
LINE
8
BLACK
6
CONTINUOUS
10
93.3653
20
-105.497
11
93.3779
21
-105.505
0
LINE
8
BLACK
6
CONTINUOUS
10
93.3779
20
-105.505
11
93.3886
21
-105.515
0
LINE
8
BLACK
6
CONTINUOUS
10
93.3886
20
-105.515
11
93.3971
21
-105.528
0
LINE
8
BLACK
6
CONTINUOUS
10
93.3971
20
-105.528
11
93.403
21
-105.542
0
LINE
8
BLACK
6
CONTINUOUS
10
93.403
20
-105.542
11
93.4061
21
-105.556
0
LINE
8
BLACK
6
CONTINUOUS
10
93.4061
20
-105.556
11
93.4062
21
-105.571
0
LINE
8
BLACK
6
CONTINUOUS
10
93.4062
20
-105.571
11
93.4055
21
-105.575
0
LINE
8
BLACK
6
CONTINUOUS
10
93.4055
20
-105.575
11
92.1886
21
-119.484
0
LINE
8
BLACK
6
CONTINUOUS
10
92.1886
20
-119.484
11
92.1887
21
-119.488
0
LINE
8
BLACK
6
CONTINUOUS
10
92.1887
20
-119.488
11
92.188
21
-119.492
0
LINE
8
BLACK
6
CONTINUOUS
10
92.188
20
-119.492
11
92.188
21
-119.492
0
LINE
8
BLACK
6
CONTINUOUS
10
92.188
20
-119.492
11
92.1859
21
-119.503
0
LINE
8
BLACK
6
CONTINUOUS
10
92.1859
20
-119.503
11
92.1803
21
-119.517
0
LINE
8
BLACK
6
CONTINUOUS
10
92.1803
20
-119.517
11
92.1721
21
-119.529
0
LINE
8
BLACK
6
CONTINUOUS
10
92.1721
20
-119.529
11
92.1616
21
-119.54
0
LINE
8
BLACK
6
CONTINUOUS
10
92.1616
20
-119.54
11
92.1492
21
-119.549
0
LINE
8
BLACK
6
CONTINUOUS
10
92.1492
20
-119.549
11
92.1354
21
-119.554
0
LINE
8
BLACK
6
CONTINUOUS
10
92.1354
20
-119.554
11
92.1207
21
-119.558
0
LINE
8
BLACK
6
CONTINUOUS
10
92.1207
20
-119.558
11
92.1057
21
-119.558
0
LINE
8
BLACK
6
CONTINUOUS
10
92.1057
20
-119.558
11
92.102
21
-119.557
0
LINE
8
BLACK
6
CONTINUOUS
10
92.102
20
-119.557
11
78.1926
21
-118.34
0
LINE
8
BLACK
6
CONTINUOUS
10
78.1926
20
-118.34
11
78.1889
21
-118.34
0
LINE
8
BLACK
6
CONTINUOUS
10
78.1889
20
-118.34
11
78.1852
21
-118.339
0
LINE
8
BLACK
6
CONTINUOUS
10
78.1852
20
-118.339
11
78.1852
21
-118.339
0
LINE
8
BLACK
6
CONTINUOUS
10
78.1852
20
-118.339
11
78.1741
21
-118.337
0
LINE
8
BLACK
6
CONTINUOUS
10
78.1741
20
-118.337
11
78.1602
21
-118.332
0
LINE
8
BLACK
6
CONTINUOUS
10
78.1602
20
-118.332
11
78.1476
21
-118.324
0
LINE
8
BLACK
6
CONTINUOUS
10
78.1476
20
-118.324
11
78.1369
21
-118.313
0
LINE
8
BLACK
6
CONTINUOUS
10
78.1369
20
-118.313
11
78.1284
21
-118.301
0
LINE
8
BLACK
6
CONTINUOUS
10
78.1284
20
-118.301
11
78.1225
21
-118.287
0
LINE
8
BLACK
6
CONTINUOUS
10
78.1225
20
-118.287
11
78.1194
21
-118.272
0
LINE
8
BLACK
6
CONTINUOUS
10
78.1194
20
-118.272
11
78.1193
21
-118.257
0
LINE
8
BLACK
6
CONTINUOUS
10
78.1193
20
-118.257
11
78.12
21
-118.253
0
LINE
8
BLACK
6
CONTINUOUS
10
78.12
20
-118.253
11
79.3369
21
-104.344
0
LINE
8
BLACK
6
CONTINUOUS
10
79.3369
20
-104.344
11
79.3368
21
-104.34
0
LINE
8
BLACK
6
CONTINUOUS
10
79.3368
20
-104.34
11
79.3375
21
-104.337
0
LINE
8
BLACK
6
CONTINUOUS
10
79.3375
20
-104.337
11
79.3375
21
-104.337
0
LINE
8
BLACK
6
CONTINUOUS
10
79.3375
20
-104.337
11
79.3396
21
-104.326
0
LINE
8
BLACK
6
CONTINUOUS
10
79.3396
20
-104.326
11
79.3452
21
-104.312
0
LINE
8
BLACK
6
CONTINUOUS
10
79.3452
20
-104.312
11
79.3534
21
-104.299
0
LINE
8
BLACK
6
CONTINUOUS
10
79.3534
20
-104.299
11
79.3639
21
-104.288
0
LINE
8
BLACK
6
CONTINUOUS
10
79.3639
20
-104.288
11
79.3763
21
-104.28
0
LINE
8
BLACK
6
CONTINUOUS
10
79.3763
20
-104.28
11
79.3901
21
-104.274
0
LINE
8
BLACK
6
CONTINUOUS
10
79.3901
20
-104.274
11
79.4048
21
-104.271
0
LINE
8
BLACK
6
CONTINUOUS
10
79.4048
20
-104.271
11
79.4198
21
-104.271
0
LINE
8
BLACK
6
CONTINUOUS
10
79.4198
20
-104.271
11
79.4235
21
-104.271
0
LINE
8
BLACK
6
CONTINUOUS
10
78.2781
20
-118.195
11
92.0431
21
-119.399
0
LINE
8
BLACK
6
CONTINUOUS
10
92.0431
20
-119.399
11
93.2474
21
-105.634
0
LINE
8
BLACK
6
CONTINUOUS
10
93.2474
20
-105.634
11
79.4824
21
-104.43
0
LINE
8
BLACK
6
CONTINUOUS
10
79.4824
20
-104.43
11
78.2781
21
-118.195
0
LINE
8
BLACK
6
CONTINUOUS
10
334.933
20
-104.271
11
334.948
21
-104.274
0
LINE
8
BLACK
6
CONTINUOUS
10
334.948
20
-104.274
11
334.962
21
-104.28
0
LINE
8
BLACK
6
CONTINUOUS
10
334.962
20
-104.28
11
334.974
21
-104.288
0
LINE
8
BLACK
6
CONTINUOUS
10
334.974
20
-104.288
11
334.985
21
-104.299
0
LINE
8
BLACK
6
CONTINUOUS
10
334.985
20
-104.299
11
334.993
21
-104.312
0
LINE
8
BLACK
6
CONTINUOUS
10
334.993
20
-104.312
11
334.998
21
-104.324
0
LINE
8
BLACK
6
CONTINUOUS
10
334.998
20
-104.324
11
334.999
21
-104.326
0
LINE
8
BLACK
6
CONTINUOUS
10
334.999
20
-104.326
11
335.001
21
-104.34
0
LINE
8
BLACK
6
CONTINUOUS
10
335.001
20
-104.34
11
335.001
21
-104.344
0
LINE
8
BLACK
6
CONTINUOUS
10
335.001
20
-104.344
11
336.218
21
-118.253
0
LINE
8
BLACK
6
CONTINUOUS
10
336.218
20
-118.253
11
336.219
21
-118.257
0
LINE
8
BLACK
6
CONTINUOUS
10
336.219
20
-118.257
11
336.219
21
-118.272
0
LINE
8
BLACK
6
CONTINUOUS
10
336.219
20
-118.272
11
336.216
21
-118.287
0
LINE
8
BLACK
6
CONTINUOUS
10
336.216
20
-118.287
11
336.21
21
-118.301
0
LINE
8
BLACK
6
CONTINUOUS
10
336.21
20
-118.301
11
336.201
21
-118.313
0
LINE
8
BLACK
6
CONTINUOUS
10
336.201
20
-118.313
11
336.191
21
-118.324
0
LINE
8
BLACK
6
CONTINUOUS
10
336.191
20
-118.324
11
336.178
21
-118.332
0
LINE
8
BLACK
6
CONTINUOUS
10
336.178
20
-118.332
11
336.164
21
-118.337
0
LINE
8
BLACK
6
CONTINUOUS
10
336.164
20
-118.337
11
336.153
21
-118.339
0
LINE
8
BLACK
6
CONTINUOUS
10
336.153
20
-118.339
11
336.153
21
-118.339
0
LINE
8
BLACK
6
CONTINUOUS
10
336.153
20
-118.339
11
336.149
21
-118.34
0
LINE
8
BLACK
6
CONTINUOUS
10
336.149
20
-118.34
11
336.146
21
-118.34
0
LINE
8
BLACK
6
CONTINUOUS
10
336.146
20
-118.34
11
322.236
21
-119.557
0
LINE
8
BLACK
6
CONTINUOUS
10
322.236
20
-119.557
11
322.232
21
-119.558
0
LINE
8
BLACK
6
CONTINUOUS
10
322.232
20
-119.558
11
322.217
21
-119.558
0
LINE
8
BLACK
6
CONTINUOUS
10
322.217
20
-119.558
11
322.203
21
-119.554
0
LINE
8
BLACK
6
CONTINUOUS
10
322.203
20
-119.554
11
322.189
21
-119.549
0
LINE
8
BLACK
6
CONTINUOUS
10
322.189
20
-119.549
11
322.177
21
-119.54
0
LINE
8
BLACK
6
CONTINUOUS
10
322.177
20
-119.54
11
322.166
21
-119.529
0
LINE
8
BLACK
6
CONTINUOUS
10
322.166
20
-119.529
11
322.158
21
-119.517
0
LINE
8
BLACK
6
CONTINUOUS
10
322.158
20
-119.517
11
322.152
21
-119.503
0
LINE
8
BLACK
6
CONTINUOUS
10
322.152
20
-119.503
11
322.15
21
-119.492
0
LINE
8
BLACK
6
CONTINUOUS
10
322.15
20
-119.492
11
322.15
21
-119.492
0
LINE
8
BLACK
6
CONTINUOUS
10
322.15
20
-119.492
11
322.15
21
-119.488
0
LINE
8
BLACK
6
CONTINUOUS
10
322.15
20
-119.488
11
322.15
21
-119.484
0
LINE
8
BLACK
6
CONTINUOUS
10
322.15
20
-119.484
11
320.933
21
-105.575
0
LINE
8
BLACK
6
CONTINUOUS
10
320.933
20
-105.575
11
320.932
21
-105.571
0
LINE
8
BLACK
6
CONTINUOUS
10
320.932
20
-105.571
11
320.932
21
-105.556
0
LINE
8
BLACK
6
CONTINUOUS
10
320.932
20
-105.556
11
320.935
21
-105.542
0
LINE
8
BLACK
6
CONTINUOUS
10
320.935
20
-105.542
11
320.941
21
-105.528
0
LINE
8
BLACK
6
CONTINUOUS
10
320.941
20
-105.528
11
320.95
21
-105.515
0
LINE
8
BLACK
6
CONTINUOUS
10
320.95
20
-105.515
11
320.96
21
-105.505
0
LINE
8
BLACK
6
CONTINUOUS
10
320.96
20
-105.505
11
320.973
21
-105.497
0
LINE
8
BLACK
6
CONTINUOUS
10
320.973
20
-105.497
11
320.987
21
-105.491
0
LINE
8
BLACK
6
CONTINUOUS
10
320.987
20
-105.491
11
320.998
21
-105.489
0
LINE
8
BLACK
6
CONTINUOUS
10
320.998
20
-105.489
11
320.998
21
-105.489
0
LINE
8
BLACK
6
CONTINUOUS
10
320.998
20
-105.489
11
321.002
21
-105.488
0
LINE
8
BLACK
6
CONTINUOUS
10
321.002
20
-105.488
11
321.005
21
-105.488
0
LINE
8
BLACK
6
CONTINUOUS
10
321.005
20
-105.488
11
334.915
21
-104.271
0
LINE
8
BLACK
6
CONTINUOUS
10
334.915
20
-104.271
11
334.918
21
-104.271
0
LINE
8
BLACK
6
CONTINUOUS
10
334.918
20
-104.271
11
334.933
21
-104.271
0
LINE
8
BLACK
6
CONTINUOUS
10
321.091
20
-105.634
11
322.295
21
-119.399
0
LINE
8
BLACK
6
CONTINUOUS
10
322.295
20
-119.399
11
336.06
21
-118.195
0
LINE
8
BLACK
6
CONTINUOUS
10
336.06
20
-118.195
11
334.856
21
-104.43
0
LINE
8
BLACK
6
CONTINUOUS
10
334.856
20
-104.43
11
321.091
21
-105.634
0
LINE
8
BLACK
6
CONTINUOUS
10
296.522
20
-102.373
11
296.536
21
-102.376
0
LINE
8
BLACK
6
CONTINUOUS
10
296.536
20
-102.376
11
296.55
21
-102.382
0
LINE
8
BLACK
6
CONTINUOUS
10
296.55
20
-102.382
11
296.563
21
-102.39
0
LINE
8
BLACK
6
CONTINUOUS
10
296.563
20
-102.39
11
296.573
21
-102.401
0
LINE
8
BLACK
6
CONTINUOUS
10
296.573
20
-102.401
11
296.581
21
-102.413
0
LINE
8
BLACK
6
CONTINUOUS
10
296.581
20
-102.413
11
296.586
21
-102.426
0
LINE
8
BLACK
6
CONTINUOUS
10
296.586
20
-102.426
11
296.587
21
-102.427
0
LINE
8
BLACK
6
CONTINUOUS
10
296.587
20
-102.427
11
296.59
21
-102.442
0
LINE
8
BLACK
6
CONTINUOUS
10
296.59
20
-102.442
11
296.59
21
-102.446
0
LINE
8
BLACK
6
CONTINUOUS
10
296.59
20
-102.446
11
297.807
21
-116.355
0
LINE
8
BLACK
6
CONTINUOUS
10
297.807
20
-116.355
11
297.807
21
-116.359
0
LINE
8
BLACK
6
CONTINUOUS
10
297.807
20
-116.359
11
297.807
21
-116.374
0
LINE
8
BLACK
6
CONTINUOUS
10
297.807
20
-116.374
11
297.804
21
-116.389
0
LINE
8
BLACK
6
CONTINUOUS
10
297.804
20
-116.389
11
297.798
21
-116.403
0
LINE
8
BLACK
6
CONTINUOUS
10
297.798
20
-116.403
11
297.79
21
-116.415
0
LINE
8
BLACK
6
CONTINUOUS
10
297.79
20
-116.415
11
297.779
21
-116.425
0
LINE
8
BLACK
6
CONTINUOUS
10
297.779
20
-116.425
11
297.766
21
-116.434
0
LINE
8
BLACK
6
CONTINUOUS
10
297.766
20
-116.434
11
297.752
21
-116.439
0
LINE
8
BLACK
6
CONTINUOUS
10
297.752
20
-116.439
11
297.741
21
-116.441
0
LINE
8
BLACK
6
CONTINUOUS
10
297.741
20
-116.441
11
297.741
21
-116.441
0
LINE
8
BLACK
6
CONTINUOUS
10
297.741
20
-116.441
11
297.738
21
-116.442
0
LINE
8
BLACK
6
CONTINUOUS
10
297.738
20
-116.442
11
297.734
21
-116.442
0
LINE
8
BLACK
6
CONTINUOUS
10
297.734
20
-116.442
11
283.825
21
-117.659
0
LINE
8
BLACK
6
CONTINUOUS
10
283.825
20
-117.659
11
283.821
21
-117.66
0
LINE
8
BLACK
6
CONTINUOUS
10
283.821
20
-117.66
11
283.806
21
-117.659
0
LINE
8
BLACK
6
CONTINUOUS
10
283.806
20
-117.659
11
283.791
21
-117.656
0
LINE
8
BLACK
6
CONTINUOUS
10
283.791
20
-117.656
11
283.777
21
-117.65
0
LINE
8
BLACK
6
CONTINUOUS
10
283.777
20
-117.65
11
283.765
21
-117.642
0
LINE
8
BLACK
6
CONTINUOUS
10
283.765
20
-117.642
11
283.754
21
-117.631
0
LINE
8
BLACK
6
CONTINUOUS
10
283.754
20
-117.631
11
283.746
21
-117.619
0
LINE
8
BLACK
6
CONTINUOUS
10
283.746
20
-117.619
11
283.741
21
-117.605
0
LINE
8
BLACK
6
CONTINUOUS
10
283.741
20
-117.605
11
283.739
21
-117.594
0
LINE
8
BLACK
6
CONTINUOUS
10
283.739
20
-117.594
11
283.739
21
-117.594
0
LINE
8
BLACK
6
CONTINUOUS
10
283.739
20
-117.594
11
283.738
21
-117.59
0
LINE
8
BLACK
6
CONTINUOUS
10
283.738
20
-117.59
11
283.738
21
-117.586
0
LINE
8
BLACK
6
CONTINUOUS
10
283.738
20
-117.586
11
282.521
21
-103.677
0
LINE
8
BLACK
6
CONTINUOUS
10
282.521
20
-103.677
11
282.52
21
-103.673
0
LINE
8
BLACK
6
CONTINUOUS
10
282.52
20
-103.673
11
282.521
21
-103.658
0
LINE
8
BLACK
6
CONTINUOUS
10
282.521
20
-103.658
11
282.524
21
-103.643
0
LINE
8
BLACK
6
CONTINUOUS
10
282.524
20
-103.643
11
282.53
21
-103.63
0
LINE
8
BLACK
6
CONTINUOUS
10
282.53
20
-103.63
11
282.538
21
-103.617
0
LINE
8
BLACK
6
CONTINUOUS
10
282.538
20
-103.617
11
282.549
21
-103.607
0
LINE
8
BLACK
6
CONTINUOUS
10
282.549
20
-103.607
11
282.561
21
-103.598
0
LINE
8
BLACK
6
CONTINUOUS
10
282.561
20
-103.598
11
282.575
21
-103.593
0
LINE
8
BLACK
6
CONTINUOUS
10
282.575
20
-103.593
11
282.586
21
-103.591
0
LINE
8
BLACK
6
CONTINUOUS
10
282.586
20
-103.591
11
282.586
21
-103.591
0
LINE
8
BLACK
6
CONTINUOUS
10
282.586
20
-103.591
11
282.59
21
-103.59
0
LINE
8
BLACK
6
CONTINUOUS
10
282.59
20
-103.59
11
282.594
21
-103.59
0
LINE
8
BLACK
6
CONTINUOUS
10
282.594
20
-103.59
11
296.503
21
-102.373
0
LINE
8
BLACK
6
CONTINUOUS
10
296.503
20
-102.373
11
296.507
21
-102.373
0
LINE
8
BLACK
6
CONTINUOUS
10
296.507
20
-102.373
11
296.522
21
-102.373
0
LINE
8
BLACK
6
CONTINUOUS
10
282.679
20
-103.736
11
283.883
21
-117.501
0
LINE
8
BLACK
6
CONTINUOUS
10
283.883
20
-117.501
11
297.648
21
-116.296
0
LINE
8
BLACK
6
CONTINUOUS
10
297.648
20
-116.296
11
296.444
21
-102.531
0
LINE
8
BLACK
6
CONTINUOUS
10
296.444
20
-102.531
11
282.679
21
-103.736
0
LINE
8
BLACK
6
CONTINUOUS
10
117.835
20
-102.373
11
131.744
21
-103.59
0
LINE
8
BLACK
6
CONTINUOUS
10
131.744
20
-103.59
11
131.748
21
-103.59
0
LINE
8
BLACK
6
CONTINUOUS
10
131.748
20
-103.59
11
131.752
21
-103.591
0
LINE
8
BLACK
6
CONTINUOUS
10
131.752
20
-103.591
11
131.752
21
-103.591
0
LINE
8
BLACK
6
CONTINUOUS
10
131.752
20
-103.591
11
131.763
21
-103.593
0
LINE
8
BLACK
6
CONTINUOUS
10
131.763
20
-103.593
11
131.777
21
-103.598
0
LINE
8
BLACK
6
CONTINUOUS
10
131.777
20
-103.598
11
131.789
21
-103.607
0
LINE
8
BLACK
6
CONTINUOUS
10
131.789
20
-103.607
11
131.8
21
-103.617
0
LINE
8
BLACK
6
CONTINUOUS
10
131.8
20
-103.617
11
131.809
21
-103.63
0
LINE
8
BLACK
6
CONTINUOUS
10
131.809
20
-103.63
11
131.815
21
-103.643
0
LINE
8
BLACK
6
CONTINUOUS
10
131.815
20
-103.643
11
131.818
21
-103.658
0
LINE
8
BLACK
6
CONTINUOUS
10
131.818
20
-103.658
11
131.818
21
-103.673
0
LINE
8
BLACK
6
CONTINUOUS
10
131.818
20
-103.673
11
131.817
21
-103.677
0
LINE
8
BLACK
6
CONTINUOUS
10
131.817
20
-103.677
11
130.6
21
-117.586
0
LINE
8
BLACK
6
CONTINUOUS
10
130.6
20
-117.586
11
130.6
21
-117.59
0
LINE
8
BLACK
6
CONTINUOUS
10
130.6
20
-117.59
11
130.6
21
-117.594
0
LINE
8
BLACK
6
CONTINUOUS
10
130.6
20
-117.594
11
130.6
21
-117.594
0
LINE
8
BLACK
6
CONTINUOUS
10
130.6
20
-117.594
11
130.598
21
-117.605
0
LINE
8
BLACK
6
CONTINUOUS
10
130.598
20
-117.605
11
130.592
21
-117.619
0
LINE
8
BLACK
6
CONTINUOUS
10
130.592
20
-117.619
11
130.584
21
-117.631
0
LINE
8
BLACK
6
CONTINUOUS
10
130.584
20
-117.631
11
130.573
21
-117.642
0
LINE
8
BLACK
6
CONTINUOUS
10
130.573
20
-117.642
11
130.561
21
-117.65
0
LINE
8
BLACK
6
CONTINUOUS
10
130.561
20
-117.65
11
130.547
21
-117.656
0
LINE
8
BLACK
6
CONTINUOUS
10
130.547
20
-117.656
11
130.532
21
-117.659
0
LINE
8
BLACK
6
CONTINUOUS
10
130.532
20
-117.659
11
130.517
21
-117.66
0
LINE
8
BLACK
6
CONTINUOUS
10
130.517
20
-117.66
11
130.514
21
-117.659
0
LINE
8
BLACK
6
CONTINUOUS
10
130.514
20
-117.659
11
116.604
21
-116.442
0
LINE
8
BLACK
6
CONTINUOUS
10
116.604
20
-116.442
11
116.6
21
-116.442
0
LINE
8
BLACK
6
CONTINUOUS
10
116.6
20
-116.442
11
116.597
21
-116.441
0
LINE
8
BLACK
6
CONTINUOUS
10
116.597
20
-116.441
11
116.597
21
-116.441
0
LINE
8
BLACK
6
CONTINUOUS
10
116.597
20
-116.441
11
116.586
21
-116.439
0
LINE
8
BLACK
6
CONTINUOUS
10
116.586
20
-116.439
11
116.572
21
-116.434
0
LINE
8
BLACK
6
CONTINUOUS
10
116.572
20
-116.434
11
116.559
21
-116.425
0
LINE
8
BLACK
6
CONTINUOUS
10
116.559
20
-116.425
11
116.549
21
-116.415
0
LINE
8
BLACK
6
CONTINUOUS
10
116.549
20
-116.415
11
116.54
21
-116.403
0
LINE
8
BLACK
6
CONTINUOUS
10
116.54
20
-116.403
11
116.534
21
-116.389
0
LINE
8
BLACK
6
CONTINUOUS
10
116.534
20
-116.389
11
116.531
21
-116.374
0
LINE
8
BLACK
6
CONTINUOUS
10
116.531
20
-116.374
11
116.531
21
-116.359
0
LINE
8
BLACK
6
CONTINUOUS
10
116.531
20
-116.359
11
116.532
21
-116.355
0
LINE
8
BLACK
6
CONTINUOUS
10
116.532
20
-116.355
11
117.748
21
-102.446
0
LINE
8
BLACK
6
CONTINUOUS
10
117.748
20
-102.446
11
117.748
21
-102.442
0
LINE
8
BLACK
6
CONTINUOUS
10
117.748
20
-102.442
11
117.749
21
-102.438
0
LINE
8
BLACK
6
CONTINUOUS
10
117.749
20
-102.438
11
117.749
21
-102.438
0
LINE
8
BLACK
6
CONTINUOUS
10
117.749
20
-102.438
11
117.751
21
-102.427
0
LINE
8
BLACK
6
CONTINUOUS
10
117.751
20
-102.427
11
117.757
21
-102.413
0
LINE
8
BLACK
6
CONTINUOUS
10
117.757
20
-102.413
11
117.765
21
-102.401
0
LINE
8
BLACK
6
CONTINUOUS
10
117.765
20
-102.401
11
117.776
21
-102.39
0
LINE
8
BLACK
6
CONTINUOUS
10
117.776
20
-102.39
11
117.788
21
-102.382
0
LINE
8
BLACK
6
CONTINUOUS
10
117.788
20
-102.382
11
117.802
21
-102.376
0
LINE
8
BLACK
6
CONTINUOUS
10
117.802
20
-102.376
11
117.816
21
-102.373
0
LINE
8
BLACK
6
CONTINUOUS
10
117.816
20
-102.373
11
117.831
21
-102.373
0
LINE
8
BLACK
6
CONTINUOUS
10
117.831
20
-102.373
11
117.835
21
-102.373
0
LINE
8
BLACK
6
CONTINUOUS
10
116.69
20
-116.296
11
130.455
21
-117.501
0
LINE
8
BLACK
6
CONTINUOUS
10
130.455
20
-117.501
11
131.659
21
-103.736
0
LINE
8
BLACK
6
CONTINUOUS
10
131.659
20
-103.736
11
117.894
21
-102.531
0
LINE
8
BLACK
6
CONTINUOUS
10
117.894
20
-102.531
11
116.69
21
-116.296
0
LINE
8
BLACK
6
CONTINUOUS
10
137.02
20
-101.661
11
150.93
21
-102.878
0
LINE
8
BLACK
6
CONTINUOUS
10
150.93
20
-102.878
11
150.933
21
-102.878
0
LINE
8
BLACK
6
CONTINUOUS
10
150.933
20
-102.878
11
150.937
21
-102.879
0
LINE
8
BLACK
6
CONTINUOUS
10
150.937
20
-102.879
11
150.937
21
-102.879
0
LINE
8
BLACK
6
CONTINUOUS
10
150.937
20
-102.879
11
150.948
21
-102.881
0
LINE
8
BLACK
6
CONTINUOUS
10
150.948
20
-102.881
11
150.962
21
-102.887
0
LINE
8
BLACK
6
CONTINUOUS
10
150.962
20
-102.887
11
150.975
21
-102.895
0
LINE
8
BLACK
6
CONTINUOUS
10
150.975
20
-102.895
11
150.985
21
-102.905
0
LINE
8
BLACK
6
CONTINUOUS
10
150.985
20
-102.905
11
150.994
21
-102.918
0
LINE
8
BLACK
6
CONTINUOUS
10
150.994
20
-102.918
11
151
21
-102.932
0
LINE
8
BLACK
6
CONTINUOUS
10
151
20
-102.932
11
151.003
21
-102.946
0
LINE
8
BLACK
6
CONTINUOUS
10
151.003
20
-102.946
11
151.003
21
-102.961
0
LINE
8
BLACK
6
CONTINUOUS
10
151.003
20
-102.961
11
151.002
21
-102.965
0
LINE
8
BLACK
6
CONTINUOUS
10
151.002
20
-102.965
11
149.785
21
-116.874
0
LINE
8
BLACK
6
CONTINUOUS
10
149.785
20
-116.874
11
149.785
21
-116.878
0
LINE
8
BLACK
6
CONTINUOUS
10
149.785
20
-116.878
11
149.785
21
-116.882
0
LINE
8
BLACK
6
CONTINUOUS
10
149.785
20
-116.882
11
149.785
21
-116.882
0
LINE
8
BLACK
6
CONTINUOUS
10
149.785
20
-116.882
11
149.783
21
-116.893
0
LINE
8
BLACK
6
CONTINUOUS
10
149.783
20
-116.893
11
149.777
21
-116.907
0
LINE
8
BLACK
6
CONTINUOUS
10
149.777
20
-116.907
11
149.769
21
-116.919
0
LINE
8
BLACK
6
CONTINUOUS
10
149.769
20
-116.919
11
149.758
21
-116.93
0
LINE
8
BLACK
6
CONTINUOUS
10
149.758
20
-116.93
11
149.746
21
-116.939
0
LINE
8
BLACK
6
CONTINUOUS
10
149.746
20
-116.939
11
149.732
21
-116.944
0
LINE
8
BLACK
6
CONTINUOUS
10
149.732
20
-116.944
11
149.717
21
-116.947
0
LINE
8
BLACK
6
CONTINUOUS
10
149.717
20
-116.947
11
149.702
21
-116.948
0
LINE
8
BLACK
6
CONTINUOUS
10
149.702
20
-116.948
11
149.699
21
-116.947
0
LINE
8
BLACK
6
CONTINUOUS
10
149.699
20
-116.947
11
135.789
21
-115.73
0
LINE
8
BLACK
6
CONTINUOUS
10
135.789
20
-115.73
11
135.786
21
-115.73
0
LINE
8
BLACK
6
CONTINUOUS
10
135.786
20
-115.73
11
135.782
21
-115.729
0
LINE
8
BLACK
6
CONTINUOUS
10
135.782
20
-115.729
11
135.782
21
-115.729
0
LINE
8
BLACK
6
CONTINUOUS
10
135.782
20
-115.729
11
135.771
21
-115.727
0
LINE
8
BLACK
6
CONTINUOUS
10
135.771
20
-115.727
11
135.757
21
-115.722
0
LINE
8
BLACK
6
CONTINUOUS
10
135.757
20
-115.722
11
135.744
21
-115.714
0
LINE
8
BLACK
6
CONTINUOUS
10
135.744
20
-115.714
11
135.734
21
-115.703
0
LINE
8
BLACK
6
CONTINUOUS
10
135.734
20
-115.703
11
135.725
21
-115.691
0
LINE
8
BLACK
6
CONTINUOUS
10
135.725
20
-115.691
11
135.719
21
-115.677
0
LINE
8
BLACK
6
CONTINUOUS
10
135.719
20
-115.677
11
135.716
21
-115.662
0
LINE
8
BLACK
6
CONTINUOUS
10
135.716
20
-115.662
11
135.716
21
-115.647
0
LINE
8
BLACK
6
CONTINUOUS
10
135.716
20
-115.647
11
135.717
21
-115.643
0
LINE
8
BLACK
6
CONTINUOUS
10
135.717
20
-115.643
11
136.934
21
-101.734
0
LINE
8
BLACK
6
CONTINUOUS
10
136.934
20
-101.734
11
136.934
21
-101.73
0
LINE
8
BLACK
6
CONTINUOUS
10
136.934
20
-101.73
11
136.934
21
-101.727
0
LINE
8
BLACK
6
CONTINUOUS
10
136.934
20
-101.727
11
136.934
21
-101.727
0
LINE
8
BLACK
6
CONTINUOUS
10
136.934
20
-101.727
11
136.936
21
-101.716
0
LINE
8
BLACK
6
CONTINUOUS
10
136.936
20
-101.716
11
136.942
21
-101.702
0
LINE
8
BLACK
6
CONTINUOUS
10
136.942
20
-101.702
11
136.95
21
-101.689
0
LINE
8
BLACK
6
CONTINUOUS
10
136.95
20
-101.689
11
136.961
21
-101.678
0
LINE
8
BLACK
6
CONTINUOUS
10
136.961
20
-101.678
11
136.973
21
-101.67
0
LINE
8
BLACK
6
CONTINUOUS
10
136.973
20
-101.67
11
136.987
21
-101.664
0
LINE
8
BLACK
6
CONTINUOUS
10
136.987
20
-101.664
11
137.001
21
-101.661
0
LINE
8
BLACK
6
CONTINUOUS
10
137.001
20
-101.661
11
137.016
21
-101.661
0
LINE
8
BLACK
6
CONTINUOUS
10
137.016
20
-101.661
11
137.02
21
-101.661
0
LINE
8
BLACK
6
CONTINUOUS
10
135.875
20
-115.585
11
149.64
21
-116.789
0
LINE
8
BLACK
6
CONTINUOUS
10
149.64
20
-116.789
11
150.844
21
-103.024
0
LINE
8
BLACK
6
CONTINUOUS
10
150.844
20
-103.024
11
137.079
21
-101.82
0
LINE
8
BLACK
6
CONTINUOUS
10
137.079
20
-101.82
11
135.875
21
-115.585
0
LINE
8
BLACK
6
CONTINUOUS
10
277.337
20
-101.661
11
277.351
21
-101.664
0
LINE
8
BLACK
6
CONTINUOUS
10
277.351
20
-101.664
11
277.365
21
-101.67
0
LINE
8
BLACK
6
CONTINUOUS
10
277.365
20
-101.67
11
277.378
21
-101.678
0
LINE
8
BLACK
6
CONTINUOUS
10
277.378
20
-101.678
11
277.388
21
-101.689
0
LINE
8
BLACK
6
CONTINUOUS
10
277.388
20
-101.689
11
277.396
21
-101.702
0
LINE
8
BLACK
6
CONTINUOUS
10
277.396
20
-101.702
11
277.401
21
-101.714
0
LINE
8
BLACK
6
CONTINUOUS
10
277.401
20
-101.714
11
277.402
21
-101.716
0
LINE
8
BLACK
6
CONTINUOUS
10
277.402
20
-101.716
11
277.405
21
-101.73
0
LINE
8
BLACK
6
CONTINUOUS
10
277.405
20
-101.73
11
277.405
21
-101.734
0
LINE
8
BLACK
6
CONTINUOUS
10
277.405
20
-101.734
11
278.622
21
-115.643
0
LINE
8
BLACK
6
CONTINUOUS
10
278.622
20
-115.643
11
278.622
21
-115.647
0
LINE
8
BLACK
6
CONTINUOUS
10
278.622
20
-115.647
11
278.622
21
-115.662
0
LINE
8
BLACK
6
CONTINUOUS
10
278.622
20
-115.662
11
278.619
21
-115.677
0
LINE
8
BLACK
6
CONTINUOUS
10
278.619
20
-115.677
11
278.613
21
-115.691
0
LINE
8
BLACK
6
CONTINUOUS
10
278.613
20
-115.691
11
278.605
21
-115.703
0
LINE
8
BLACK
6
CONTINUOUS
10
278.605
20
-115.703
11
278.594
21
-115.714
0
LINE
8
BLACK
6
CONTINUOUS
10
278.594
20
-115.714
11
278.581
21
-115.722
0
LINE
8
BLACK
6
CONTINUOUS
10
278.581
20
-115.722
11
278.567
21
-115.727
0
LINE
8
BLACK
6
CONTINUOUS
10
278.567
20
-115.727
11
278.556
21
-115.729
0
LINE
8
BLACK
6
CONTINUOUS
10
278.556
20
-115.729
11
278.556
21
-115.729
0
LINE
8
BLACK
6
CONTINUOUS
10
278.556
20
-115.729
11
278.553
21
-115.73
0
LINE
8
BLACK
6
CONTINUOUS
10
278.553
20
-115.73
11
278.549
21
-115.73
0
LINE
8
BLACK
6
CONTINUOUS
10
278.549
20
-115.73
11
264.64
21
-116.947
0
LINE
8
BLACK
6
CONTINUOUS
10
264.64
20
-116.947
11
264.636
21
-116.948
0
LINE
8
BLACK
6
CONTINUOUS
10
264.636
20
-116.948
11
264.621
21
-116.947
0
LINE
8
BLACK
6
CONTINUOUS
10
264.621
20
-116.947
11
264.606
21
-116.944
0
LINE
8
BLACK
6
CONTINUOUS
10
264.606
20
-116.944
11
264.592
21
-116.939
0
LINE
8
BLACK
6
CONTINUOUS
10
264.592
20
-116.939
11
264.58
21
-116.93
0
LINE
8
BLACK
6
CONTINUOUS
10
264.58
20
-116.93
11
264.569
21
-116.919
0
LINE
8
BLACK
6
CONTINUOUS
10
264.569
20
-116.919
11
264.561
21
-116.907
0
LINE
8
BLACK
6
CONTINUOUS
10
264.561
20
-116.907
11
264.556
21
-116.893
0
LINE
8
BLACK
6
CONTINUOUS
10
264.556
20
-116.893
11
264.554
21
-116.882
0
LINE
8
BLACK
6
CONTINUOUS
10
264.554
20
-116.882
11
264.554
21
-116.882
0
LINE
8
BLACK
6
CONTINUOUS
10
264.554
20
-116.882
11
264.553
21
-116.878
0
LINE
8
BLACK
6
CONTINUOUS
10
264.553
20
-116.878
11
264.553
21
-116.874
0
LINE
8
BLACK
6
CONTINUOUS
10
264.553
20
-116.874
11
263.336
21
-102.965
0
LINE
8
BLACK
6
CONTINUOUS
10
263.336
20
-102.965
11
263.335
21
-102.961
0
LINE
8
BLACK
6
CONTINUOUS
10
263.335
20
-102.961
11
263.335
21
-102.946
0
LINE
8
BLACK
6
CONTINUOUS
10
263.335
20
-102.946
11
263.339
21
-102.932
0
LINE
8
BLACK
6
CONTINUOUS
10
263.339
20
-102.932
11
263.344
21
-102.918
0
LINE
8
BLACK
6
CONTINUOUS
10
263.344
20
-102.918
11
263.353
21
-102.905
0
LINE
8
BLACK
6
CONTINUOUS
10
263.353
20
-102.905
11
263.364
21
-102.895
0
LINE
8
BLACK
6
CONTINUOUS
10
263.364
20
-102.895
11
263.376
21
-102.887
0
LINE
8
BLACK
6
CONTINUOUS
10
263.376
20
-102.887
11
263.39
21
-102.881
0
LINE
8
BLACK
6
CONTINUOUS
10
263.39
20
-102.881
11
263.401
21
-102.879
0
LINE
8
BLACK
6
CONTINUOUS
10
263.401
20
-102.879
11
263.401
21
-102.879
0
LINE
8
BLACK
6
CONTINUOUS
10
263.401
20
-102.879
11
263.405
21
-102.878
0
LINE
8
BLACK
6
CONTINUOUS
10
263.405
20
-102.878
11
263.409
21
-102.878
0
LINE
8
BLACK
6
CONTINUOUS
10
263.409
20
-102.878
11
277.318
21
-101.661
0
LINE
8
BLACK
6
CONTINUOUS
10
277.318
20
-101.661
11
277.322
21
-101.661
0
LINE
8
BLACK
6
CONTINUOUS
10
277.322
20
-101.661
11
277.337
21
-101.661
0
LINE
8
BLACK
6
CONTINUOUS
10
263.494
20
-103.024
11
264.698
21
-116.789
0
LINE
8
BLACK
6
CONTINUOUS
10
264.698
20
-116.789
11
278.463
21
-115.585
0
LINE
8
BLACK
6
CONTINUOUS
10
278.463
20
-115.585
11
277.259
21
-101.82
0
LINE
8
BLACK
6
CONTINUOUS
10
277.259
20
-101.82
11
263.494
21
-103.024
  0
ENDSEC
  0
EOF
