G04 #@! TF.GenerationSoftware,KiCad,Pcbnew,(5.1.0)-1*
G04 #@! TF.CreationDate,2019-06-28T01:05:22+08:00*
G04 #@! TF.ProjectId,Kamaitachi_BottomPlate,4b616d61-6974-4616-9368-695f426f7474,rev?*
G04 #@! TF.SameCoordinates,Original*
G04 #@! TF.FileFunction,Profile,NP*
%FSLAX46Y46*%
G04 Gerber Fmt 4.6, Leading zero omitted, Abs format (unit mm)*
G04 Created by KiCad (PCBNEW (5.1.0)-1) date 2019-06-28 01:05:22*
%MOMM*%
%LPD*%
G04 APERTURE LIST*
%ADD10C,0.050000*%
%ADD11C,0.200000*%
G04 APERTURE END LIST*
D10*
X144001095Y-66675280D02*
X165614295Y-66675280D01*
X144001095Y-30044339D02*
X144001095Y-66675280D01*
X165614295Y-30044339D02*
X165614295Y-66675280D01*
D11*
X104019646Y-129110639D02*
X21001095Y-129110639D01*
X13001095Y-38044337D02*
G75*
G02X21001095Y-30044339I7999999J-1D01*
G01*
X293249828Y-34508805D02*
G75*
G03X293249828Y-34508805I-1100000J0D01*
G01*
X171895795Y-33044339D02*
G75*
G03X171895795Y-33044339I-1100000J0D01*
G01*
X296614295Y-38044339D02*
X296614295Y-121110639D01*
X288614295Y-129110639D02*
X205596166Y-129110639D01*
X154781505Y-142404782D02*
X104019646Y-129110639D01*
X13001094Y-121110639D02*
X13001094Y-38044339D01*
X139919696Y-33044339D02*
G75*
G03X139919696Y-33044339I-1100000J0D01*
G01*
X21001095Y-30044339D02*
X144001095Y-30044339D01*
X18565561Y-34508805D02*
G75*
G03X18565561Y-34508805I-1100000J0D01*
G01*
X296614296Y-121110638D02*
G75*
G02X288614295Y-129110639I-8000001J0D01*
G01*
X165614295Y-30044339D02*
X288614295Y-30044339D01*
X21001095Y-129110639D02*
G75*
G02X13001095Y-121110639I0J8000000D01*
G01*
X288614295Y-30044339D02*
G75*
G02X296614295Y-38044339I0J-8000000D01*
G01*
X205596166Y-129110639D02*
X154781505Y-142404782D01*
X17101094Y-79577489D02*
G75*
G03X17101094Y-79577489I-1099999J0D01*
G01*
X105505970Y-126110639D02*
G75*
G03X105505970Y-126110639I-1100000J0D01*
G01*
X18565561Y-124646172D02*
G75*
G03X18565561Y-124646172I-1100000J0D01*
G01*
X293249828Y-124646172D02*
G75*
G03X293249828Y-124646172I-1100000J0D01*
G01*
X206310230Y-126110639D02*
G75*
G03X206310230Y-126110639I-1100000J0D01*
G01*
X294714295Y-79577489D02*
G75*
G03X294714295Y-79577489I-1100000J0D01*
G01*
X155881900Y-139303710D02*
G75*
G03X155881900Y-139303710I-1100000J0D01*
G01*
M02*
