M48
; DRILL file {KiCad (5.1.0)-1} date 6/28/2019 1:08:40 AM
; FORMAT={-:-/ absolute / metric / decimal}
; #@! TF.CreationDate,2019-06-28T01:08:40+08:00
; #@! TF.GenerationSoftware,Kicad,Pcbnew,(5.1.0)-1
; #@! TF.FileFunction,Plated,1,2,PTH
FMAT,2
METRIC
T1C0.400
T2C0.813
T3C1.300
T4C1.499
%
G90
G05
T1
X219.076Y-159.544
X220.267Y-182.166
X221.457Y-146.447
T2
X199.513Y-99.822
X199.513Y-102.362
X199.513Y-104.902
X199.513Y-107.442
X199.513Y-109.982
X199.513Y-112.522
X199.513Y-115.062
X199.513Y-117.602
X199.513Y-120.142
X199.513Y-122.682
X199.513Y-125.222
X199.513Y-127.762
X214.733Y-99.822
X214.733Y-102.362
X214.733Y-104.902
X214.733Y-107.442
X214.733Y-109.982
X214.733Y-112.522
X214.733Y-115.062
X214.733Y-117.602
X214.733Y-120.142
X214.733Y-122.682
X214.733Y-125.222
X214.733Y-127.762
T3
X203.92Y-134.541
X210.42Y-134.541
T4
X120.6Y-107.154
X127.147Y-105.177
X139.785Y-106.442
X146.332Y-104.465
X270.283Y-145.061
X276.387Y-141.977
X174.005Y-152.462
X180.552Y-150.485
X156.687Y-131.824
X163.235Y-129.847
X117.28Y-145.109
X123.827Y-143.132
X327.879Y-147.671
X333.984Y-144.587
X138.125Y-125.419
X144.672Y-123.442
X315.307Y-167.894
X321.411Y-164.81
X143.878Y-168.949
X150.425Y-166.972
X289.468Y-145.773
X295.572Y-142.689
X175.665Y-133.484
X182.212Y-131.507
X232.743Y-153.126
X238.847Y-150.042
X97.846Y-148.667
X104.393Y-146.69
X101.166Y-110.712
X107.713Y-108.735
X80.528Y-128.029
X87.076Y-126.052
X99.506Y-129.69
X106.053Y-127.713
X229.422Y-115.171
X235.526Y-112.087
X118.94Y-126.131
X125.487Y-124.154
X268.622Y-126.083
X274.727Y-123.0
X155.027Y-150.801
X161.574Y-148.825
X169.731Y-173.759
X176.522Y-172.949
X248.399Y-113.511
X254.504Y-110.427
X307.241Y-130.354
X313.346Y-127.27
X237.169Y-175.738
X242.646Y-171.641
X262.869Y-169.613
X268.974Y-166.529
X287.807Y-126.795
X293.912Y-123.712
X250.06Y-132.488
X256.164Y-129.404
X286.147Y-107.818
X292.251Y-104.734
X82.189Y-109.052
X88.736Y-107.075
X78.868Y-147.007
X85.415Y-145.03
X91.441Y-167.23
X97.989Y-165.253
X251.72Y-151.466
X257.825Y-148.382
X203.359Y-153.432
X209.709Y-150.892
X326.219Y-128.693
X332.323Y-125.61
X158.348Y-112.846
X164.895Y-110.87
X308.902Y-149.331
X315.006Y-146.248
X231.082Y-134.148
X237.187Y-131.065
X266.962Y-107.106
X273.066Y-104.022
X305.581Y-111.376
X311.686Y-108.292
X136.465Y-144.397
X143.012Y-142.42
X324.559Y-109.716
X330.663Y-106.632
X177.325Y-114.507
X183.872Y-112.53
T0
M30
