M48
; DRILL file {KiCad (5.1.0)-1} date 6/28/2019 1:08:40 AM
; FORMAT={-:-/ absolute / metric / decimal}
; #@! TF.CreationDate,2019-06-28T01:08:40+08:00
; #@! TF.GenerationSoftware,Kicad,Pcbnew,(5.1.0)-1
; #@! TF.FileFunction,NonPlated,1,2,NPTH
FMAT,2
METRIC
T1C1.800
T2C3.988
%
G90
G05
T1
X77.381Y-149.426
X87.503Y-150.312
X89.955Y-169.649
X100.076Y-170.535
X250.676Y-154.107
X260.798Y-153.221
X202.089Y-155.972
X212.249Y-155.972
X325.175Y-131.334
X335.296Y-130.449
X156.861Y-115.266
X166.983Y-116.152
X307.858Y-151.972
X317.979Y-151.087
X230.038Y-136.789
X240.16Y-135.904
X265.918Y-109.747
X276.039Y-108.861
X304.537Y-114.017
X314.659Y-113.132
X134.978Y-146.816
X145.099Y-147.702
X323.515Y-112.357
X333.636Y-111.471
X175.839Y-116.926
X185.96Y-117.812
X119.114Y-109.573
X129.235Y-110.459
X138.299Y-108.861
X148.42Y-109.747
X269.239Y-147.702
X279.36Y-146.816
X172.518Y-154.881
X182.639Y-155.767
X155.201Y-134.244
X165.322Y-135.129
X115.793Y-147.528
X125.914Y-148.414
X326.835Y-150.312
X336.957Y-149.426
X136.638Y-127.839
X146.76Y-128.724
X314.263Y-170.535
X324.384Y-169.649
X142.391Y-171.368
X152.513Y-172.254
X288.424Y-148.414
X298.545Y-147.528
X174.178Y-135.904
X184.3Y-136.789
X231.699Y-155.767
X241.82Y-154.881
X96.359Y-151.087
X106.48Y-151.972
X99.68Y-113.132
X109.801Y-114.017
X79.042Y-130.449
X89.163Y-131.334
X98.019Y-132.109
X108.141Y-132.995
X228.378Y-117.812
X238.5Y-116.926
X117.453Y-128.551
X127.575Y-129.436
X267.578Y-128.724
X277.7Y-127.839
X153.541Y-153.221
X163.662Y-154.107
X167.847Y-175.884
X177.661Y-178.513
X247.356Y-116.152
X257.477Y-115.266
X306.198Y-132.995
X316.319Y-132.109
X236.6Y-178.52
X246.414Y-175.89
X261.825Y-172.254
X271.947Y-171.368
X286.763Y-129.436
X296.885Y-128.551
X249.016Y-135.129
X259.137Y-134.244
X285.103Y-110.459
X295.225Y-109.573
X80.702Y-111.471
X90.823Y-112.357
T2
X84.102Y-130.892
X103.08Y-132.552
X233.439Y-117.369
X122.514Y-128.994
X272.639Y-128.282
X158.601Y-153.664
X172.754Y-177.198
X252.416Y-115.709
X311.258Y-132.552
X241.507Y-177.205
X266.886Y-171.811
X291.824Y-128.994
X254.077Y-134.686
X290.164Y-110.016
X85.763Y-111.914
X82.442Y-149.869
X95.015Y-170.092
X255.737Y-153.664
X207.169Y-155.972
X330.236Y-130.892
X161.922Y-115.709
X312.919Y-151.53
X235.099Y-136.347
X270.979Y-109.304
X309.598Y-113.575
X140.039Y-147.259
X328.575Y-111.914
X180.899Y-117.369
X124.174Y-110.016
X143.359Y-109.304
X274.299Y-147.259
X177.579Y-155.324
X160.262Y-134.686
X120.854Y-147.971
X331.896Y-149.869
X141.699Y-128.282
X319.324Y-170.092
X147.452Y-171.811
X293.484Y-147.971
X179.239Y-136.347
X236.759Y-155.324
X101.42Y-151.53
X104.74Y-113.575
T0
M30
