G04 #@! TF.GenerationSoftware,KiCad,Pcbnew,(5.1.0)-1*
G04 #@! TF.CreationDate,2019-06-28T01:08:36+08:00*
G04 #@! TF.ProjectId,Kamaitachi,4b616d61-6974-4616-9368-692e6b696361,rev?*
G04 #@! TF.SameCoordinates,Original*
G04 #@! TF.FileFunction,Legend,Top*
G04 #@! TF.FilePolarity,Positive*
%FSLAX46Y46*%
G04 Gerber Fmt 4.6, Leading zero omitted, Abs format (unit mm)*
G04 Created by KiCad (PCBNEW (5.1.0)-1) date 2019-06-28 01:08:36*
%MOMM*%
%LPD*%
G04 APERTURE LIST*
%ADD10C,0.381000*%
%ADD11C,0.150000*%
%ADD12C,0.203200*%
G04 APERTURE END LIST*
D10*
X325171761Y-145868081D02*
X325016798Y-144096847D01*
X326123676Y-156748519D02*
X325968713Y-154977285D01*
X327894910Y-156593556D02*
X326123676Y-156748519D01*
X338775348Y-155641641D02*
X337004114Y-155796604D01*
X338620385Y-153870407D02*
X338775348Y-155641641D01*
X337668470Y-142989969D02*
X337823433Y-144761203D01*
X335897236Y-143144932D02*
X337668470Y-142989969D01*
X325016798Y-144096847D02*
X326788032Y-143941884D01*
X323511444Y-126890572D02*
X323356481Y-125119338D01*
X324463359Y-137771010D02*
X324308396Y-135999776D01*
X326234593Y-137616047D02*
X324463359Y-137771010D01*
X337115031Y-136664132D02*
X335343797Y-136819095D01*
X336960068Y-134892898D02*
X337115031Y-136664132D01*
X336008153Y-124012460D02*
X336163116Y-125783694D01*
X334236919Y-124167423D02*
X336008153Y-124012460D01*
X323356481Y-125119338D02*
X325127715Y-124964375D01*
X321851127Y-107913063D02*
X321696164Y-106141829D01*
X322803042Y-118793501D02*
X322648079Y-117022267D01*
X324574276Y-118638538D02*
X322803042Y-118793501D01*
X335454714Y-117686623D02*
X333683480Y-117841586D01*
X335299751Y-115915389D02*
X335454714Y-117686623D01*
X334347836Y-105034951D02*
X334502799Y-106806185D01*
X332576602Y-105189914D02*
X334347836Y-105034951D01*
X321696164Y-106141829D02*
X323467398Y-105986866D01*
X312599444Y-166090784D02*
X312444481Y-164319550D01*
X313551359Y-176971222D02*
X313396396Y-175199988D01*
X315322593Y-176816259D02*
X313551359Y-176971222D01*
X326203031Y-175864344D02*
X324431797Y-176019307D01*
X326048068Y-174093110D02*
X326203031Y-175864344D01*
X325096153Y-163212672D02*
X325251116Y-164983906D01*
X323324919Y-163367635D02*
X325096153Y-163212672D01*
X312444481Y-164319550D02*
X314215715Y-164164587D01*
X306194252Y-147528398D02*
X306039289Y-145757164D01*
X307146167Y-158408836D02*
X306991204Y-156637602D01*
X308917401Y-158253873D02*
X307146167Y-158408836D01*
X319797839Y-157301958D02*
X318026605Y-157456921D01*
X319642876Y-155530724D02*
X319797839Y-157301958D01*
X318690961Y-144650286D02*
X318845924Y-146421520D01*
X316919727Y-144805249D02*
X318690961Y-144650286D01*
X306039289Y-145757164D02*
X307810523Y-145602201D01*
X304533935Y-128550889D02*
X304378972Y-126779655D01*
X305485850Y-139431327D02*
X305330887Y-137660093D01*
X307257084Y-139276364D02*
X305485850Y-139431327D01*
X318137522Y-138324449D02*
X316366288Y-138479412D01*
X317982559Y-136553215D02*
X318137522Y-138324449D01*
X317030644Y-125672777D02*
X317185607Y-127444011D01*
X315259410Y-125827740D02*
X317030644Y-125672777D01*
X304378972Y-126779655D02*
X306150206Y-126624692D01*
X302873618Y-109573380D02*
X302718655Y-107802146D01*
X303825533Y-120453818D02*
X303670570Y-118682584D01*
X305596767Y-120298855D02*
X303825533Y-120453818D01*
X316477205Y-119346940D02*
X314705971Y-119501903D01*
X316322242Y-117575706D02*
X316477205Y-119346940D01*
X315370327Y-106695268D02*
X315525290Y-108466502D01*
X313599093Y-106850231D02*
X315370327Y-106695268D01*
X302718655Y-107802146D02*
X304489889Y-107647183D01*
X286760156Y-143969900D02*
X286605193Y-142198666D01*
X287712071Y-154850338D02*
X287557108Y-153079104D01*
X289483305Y-154695375D02*
X287712071Y-154850338D01*
X300363743Y-153743460D02*
X298592509Y-153898423D01*
X300208780Y-151972226D02*
X300363743Y-153743460D01*
X299256865Y-141091788D02*
X299411828Y-142863022D01*
X297485631Y-141246751D02*
X299256865Y-141091788D01*
X286605193Y-142198666D02*
X288376427Y-142043703D01*
X285099839Y-124992391D02*
X284944876Y-123221157D01*
X286051754Y-135872829D02*
X285896791Y-134101595D01*
X287822988Y-135717866D02*
X286051754Y-135872829D01*
X298703426Y-134765951D02*
X296932192Y-134920914D01*
X298548463Y-132994717D02*
X298703426Y-134765951D01*
X297596548Y-122114279D02*
X297751511Y-123885513D01*
X295825314Y-122269242D02*
X297596548Y-122114279D01*
X284944876Y-123221157D02*
X286716110Y-123066194D01*
X283439522Y-106014881D02*
X283284559Y-104243647D01*
X284391437Y-116895319D02*
X284236474Y-115124085D01*
X286162671Y-116740356D02*
X284391437Y-116895319D01*
X297043109Y-115788441D02*
X295271875Y-115943404D01*
X296888146Y-114017207D02*
X297043109Y-115788441D01*
X295936231Y-103136769D02*
X296091194Y-104908003D01*
X294164997Y-103291732D02*
X295936231Y-103136769D01*
X283284559Y-104243647D02*
X285055793Y-104088684D01*
X267575107Y-143258028D02*
X267420144Y-141486794D01*
X268527022Y-154138466D02*
X268372059Y-152367232D01*
X270298256Y-153983503D02*
X268527022Y-154138466D01*
X281178694Y-153031588D02*
X279407460Y-153186551D01*
X281023731Y-151260354D02*
X281178694Y-153031588D01*
X280071816Y-140379916D02*
X280226779Y-142151150D01*
X278300582Y-140534879D02*
X280071816Y-140379916D01*
X267420144Y-141486794D02*
X269191378Y-141331831D01*
X265914790Y-124280519D02*
X265759827Y-122509285D01*
X266866705Y-135160957D02*
X266711742Y-133389723D01*
X268637939Y-135005994D02*
X266866705Y-135160957D01*
X279518377Y-134054079D02*
X277747143Y-134209042D01*
X279363414Y-132282845D02*
X279518377Y-134054079D01*
X278411499Y-121402407D02*
X278566462Y-123173641D01*
X276640265Y-121557370D02*
X278411499Y-121402407D01*
X265759827Y-122509285D02*
X267531061Y-122354322D01*
X264254474Y-105303010D02*
X264099511Y-103531776D01*
X265206389Y-116183448D02*
X265051426Y-114412214D01*
X266977623Y-116028485D02*
X265206389Y-116183448D01*
X277858061Y-115076570D02*
X276086827Y-115231533D01*
X277703098Y-113305336D02*
X277858061Y-115076570D01*
X276751183Y-102424898D02*
X276906146Y-104196132D01*
X274979949Y-102579861D02*
X276751183Y-102424898D01*
X264099511Y-103531776D02*
X265870745Y-103376813D01*
X260161749Y-167810073D02*
X260006786Y-166038839D01*
X261113664Y-178690511D02*
X260958701Y-176919277D01*
X262884898Y-178535548D02*
X261113664Y-178690511D01*
X273765336Y-177583633D02*
X271994102Y-177738596D01*
X273610373Y-175812399D02*
X273765336Y-177583633D01*
X272658458Y-164931961D02*
X272813421Y-166703195D01*
X270887224Y-165086924D02*
X272658458Y-164931961D01*
X260006786Y-166038839D02*
X261778020Y-165883876D01*
X249012678Y-149662722D02*
X248857715Y-147891488D01*
X249964593Y-160543160D02*
X249809630Y-158771926D01*
X251735827Y-160388197D02*
X249964593Y-160543160D01*
X262616265Y-159436282D02*
X260845031Y-159591245D01*
X262461302Y-157665048D02*
X262616265Y-159436282D01*
X261509387Y-146784610D02*
X261664350Y-148555844D01*
X259738153Y-146939573D02*
X261509387Y-146784610D01*
X248857715Y-147891488D02*
X250628949Y-147736525D01*
X247352361Y-130685213D02*
X247197398Y-128913979D01*
X248304276Y-141565651D02*
X248149313Y-139794417D01*
X250075510Y-141410688D02*
X248304276Y-141565651D01*
X260955948Y-140458773D02*
X259184714Y-140613736D01*
X260800985Y-138687539D02*
X260955948Y-140458773D01*
X259849070Y-127807101D02*
X260004033Y-129578335D01*
X258077836Y-127962064D02*
X259849070Y-127807101D01*
X247197398Y-128913979D02*
X248968632Y-128759016D01*
X245692044Y-111707703D02*
X245537081Y-109936469D01*
X246643959Y-122588141D02*
X246488996Y-120816907D01*
X248415193Y-122433178D02*
X246643959Y-122588141D01*
X259295631Y-121481263D02*
X257524397Y-121636226D01*
X259140668Y-119710029D02*
X259295631Y-121481263D01*
X258188753Y-108829591D02*
X258343716Y-110600825D01*
X256417519Y-108984554D02*
X258188753Y-108829591D01*
X245537081Y-109936469D02*
X247308315Y-109781506D01*
X234190023Y-174432524D02*
X233729843Y-172715108D01*
X237016845Y-184982366D02*
X236556665Y-183264950D01*
X238734261Y-184522186D02*
X237016845Y-184982366D01*
X249284103Y-181695364D02*
X247566687Y-182155544D01*
X248823923Y-179977948D02*
X249284103Y-181695364D01*
X245997101Y-169428106D02*
X246457281Y-171145522D01*
X244279685Y-169888286D02*
X245997101Y-169428106D01*
X233729843Y-172715108D02*
X235447259Y-172254928D01*
X230035169Y-151323039D02*
X229880206Y-149551805D01*
X230987084Y-162203477D02*
X230832121Y-160432243D01*
X232758318Y-162048514D02*
X230987084Y-162203477D01*
X243638756Y-161096599D02*
X241867522Y-161251562D01*
X243483793Y-159325365D02*
X243638756Y-161096599D01*
X242531878Y-148444927D02*
X242686841Y-150216161D01*
X240760644Y-148599890D02*
X242531878Y-148444927D01*
X229880206Y-149551805D02*
X231651440Y-149396842D01*
X228374852Y-132345530D02*
X228219889Y-130574296D01*
X229326767Y-143225968D02*
X229171804Y-141454734D01*
X231098001Y-143071005D02*
X229326767Y-143225968D01*
X241978439Y-142119090D02*
X240207205Y-142274053D01*
X241823476Y-140347856D02*
X241978439Y-142119090D01*
X240871561Y-129467418D02*
X241026524Y-131238652D01*
X239100327Y-129622381D02*
X240871561Y-129467418D01*
X228219889Y-130574296D02*
X229991123Y-130419333D01*
X226714535Y-113368020D02*
X226559572Y-111596786D01*
X227666450Y-124248458D02*
X227511487Y-122477224D01*
X229437684Y-124093495D02*
X227666450Y-124248458D01*
X240318122Y-123141580D02*
X238546888Y-123296543D01*
X240163159Y-121370346D02*
X240318122Y-123141580D01*
X239211244Y-110489908D02*
X239366207Y-112261142D01*
X237440010Y-110644871D02*
X239211244Y-110489908D01*
X226559572Y-111596786D02*
X228330806Y-111441823D01*
X200819100Y-151400330D02*
X200819100Y-149622330D01*
X200819100Y-162322330D02*
X200819100Y-160544330D01*
X202597100Y-162322330D02*
X200819100Y-162322330D01*
X213519100Y-162322330D02*
X211741100Y-162322330D01*
X213519100Y-160544330D02*
X213519100Y-162322330D01*
X213519100Y-149622330D02*
X213519100Y-151400330D01*
X211741100Y-149622330D02*
X213519100Y-149622330D01*
X200819100Y-149622330D02*
X202597100Y-149622330D01*
X171651359Y-150216161D02*
X171806322Y-148444927D01*
X170699444Y-161096599D02*
X170854407Y-159325365D01*
X172470678Y-161251562D02*
X170699444Y-161096599D01*
X183351116Y-162203477D02*
X181579882Y-162048514D01*
X183506079Y-160432243D02*
X183351116Y-162203477D01*
X184457994Y-149551805D02*
X184303031Y-151323039D01*
X182686760Y-149396842D02*
X184457994Y-149551805D01*
X171806322Y-148444927D02*
X173577556Y-148599890D01*
X173311676Y-131238652D02*
X173466639Y-129467418D01*
X172359761Y-142119090D02*
X172514724Y-140347856D01*
X174130995Y-142274053D02*
X172359761Y-142119090D01*
X185011433Y-143225968D02*
X183240199Y-143071005D01*
X185166396Y-141454734D02*
X185011433Y-143225968D01*
X186118311Y-130574296D02*
X185963348Y-132345530D01*
X184347077Y-130419333D02*
X186118311Y-130574296D01*
X173466639Y-129467418D02*
X175237873Y-129622381D01*
X174971993Y-112261142D02*
X175126956Y-110489908D01*
X174020078Y-123141580D02*
X174175041Y-121370346D01*
X175791312Y-123296543D02*
X174020078Y-123141580D01*
X186671750Y-124248458D02*
X184900516Y-124093495D01*
X186826713Y-122477224D02*
X186671750Y-124248458D01*
X187778628Y-111596786D02*
X187623665Y-113368020D01*
X186007394Y-111441823D02*
X187778628Y-111596786D01*
X175126956Y-110489908D02*
X176898190Y-110644871D01*
X167803545Y-171138753D02*
X168263725Y-169421337D01*
X164976723Y-181688595D02*
X165436903Y-179971179D01*
X166694139Y-182148775D02*
X164976723Y-181688595D01*
X177243981Y-184975597D02*
X175526565Y-184515417D01*
X177704161Y-183258181D02*
X177243981Y-184975597D01*
X180530983Y-172708339D02*
X180070803Y-174425755D01*
X178813567Y-172248159D02*
X180530983Y-172708339D01*
X168263725Y-169421337D02*
X169981141Y-169881517D01*
X152673850Y-148555844D02*
X152828813Y-146784610D01*
X151721935Y-159436282D02*
X151876898Y-157665048D01*
X153493169Y-159591245D02*
X151721935Y-159436282D01*
X164373607Y-160543160D02*
X162602373Y-160388197D01*
X164528570Y-158771926D02*
X164373607Y-160543160D01*
X165480485Y-147891488D02*
X165325522Y-149662722D01*
X163709251Y-147736525D02*
X165480485Y-147891488D01*
X152828813Y-146784610D02*
X154600047Y-146939573D01*
X154334167Y-129578335D02*
X154489130Y-127807101D01*
X153382252Y-140458773D02*
X153537215Y-138687539D01*
X155153486Y-140613736D02*
X153382252Y-140458773D01*
X166033924Y-141565651D02*
X164262690Y-141410688D01*
X166188887Y-139794417D02*
X166033924Y-141565651D01*
X167140802Y-128913979D02*
X166985839Y-130685213D01*
X165369568Y-128759016D02*
X167140802Y-128913979D01*
X154489130Y-127807101D02*
X156260364Y-127962064D01*
X155994484Y-110600825D02*
X156149447Y-108829591D01*
X155042569Y-121481263D02*
X155197532Y-119710029D01*
X156813803Y-121636226D02*
X155042569Y-121481263D01*
X167694241Y-122588141D02*
X165923007Y-122433178D01*
X167849204Y-120816907D02*
X167694241Y-122588141D01*
X168801119Y-109936469D02*
X168646156Y-111707703D01*
X167029885Y-109781506D02*
X168801119Y-109936469D01*
X156149447Y-108829591D02*
X157920681Y-108984554D01*
X141524779Y-166703195D02*
X141679742Y-164931961D01*
X140572864Y-177583633D02*
X140727827Y-175812399D01*
X142344098Y-177738596D02*
X140572864Y-177583633D01*
X153224536Y-178690511D02*
X151453302Y-178535548D01*
X153379499Y-176919277D02*
X153224536Y-178690511D01*
X154331414Y-166038839D02*
X154176451Y-167810073D01*
X152560180Y-165883876D02*
X154331414Y-166038839D01*
X141679742Y-164931961D02*
X143450976Y-165086924D01*
X134111421Y-142151150D02*
X134266384Y-140379916D01*
X133159506Y-153031588D02*
X133314469Y-151260354D01*
X134930740Y-153186551D02*
X133159506Y-153031588D01*
X145811178Y-154138466D02*
X144039944Y-153983503D01*
X145966141Y-152367232D02*
X145811178Y-154138466D01*
X146918056Y-141486794D02*
X146763093Y-143258028D01*
X145146822Y-141331831D02*
X146918056Y-141486794D01*
X134266384Y-140379916D02*
X136037618Y-140534879D01*
X135771738Y-123173641D02*
X135926701Y-121402407D01*
X134819823Y-134054079D02*
X134974786Y-132282845D01*
X136591057Y-134209042D02*
X134819823Y-134054079D01*
X147471495Y-135160957D02*
X145700261Y-135005994D01*
X147626458Y-133389723D02*
X147471495Y-135160957D01*
X148578373Y-122509285D02*
X148423410Y-124280519D01*
X146807139Y-122354322D02*
X148578373Y-122509285D01*
X135926701Y-121402407D02*
X137697935Y-121557370D01*
X137432054Y-104196132D02*
X137587017Y-102424898D01*
X136480139Y-115076570D02*
X136635102Y-113305336D01*
X138251373Y-115231533D02*
X136480139Y-115076570D01*
X149131811Y-116183448D02*
X147360577Y-116028485D01*
X149286774Y-114412214D02*
X149131811Y-116183448D01*
X150238689Y-103531776D02*
X150083726Y-105303010D01*
X148467455Y-103376813D02*
X150238689Y-103531776D01*
X137587017Y-102424898D02*
X139358251Y-102579861D01*
X114926372Y-142863022D02*
X115081335Y-141091788D01*
X113974457Y-153743460D02*
X114129420Y-151972226D01*
X115745691Y-153898423D02*
X113974457Y-153743460D01*
X126626129Y-154850338D02*
X124854895Y-154695375D01*
X126781092Y-153079104D02*
X126626129Y-154850338D01*
X127733007Y-142198666D02*
X127578044Y-143969900D01*
X125961773Y-142043703D02*
X127733007Y-142198666D01*
X115081335Y-141091788D02*
X116852569Y-141246751D01*
X116586689Y-123885513D02*
X116741652Y-122114279D01*
X115634774Y-134765951D02*
X115789737Y-132994717D01*
X117406008Y-134920914D02*
X115634774Y-134765951D01*
X128286446Y-135872829D02*
X126515212Y-135717866D01*
X128441409Y-134101595D02*
X128286446Y-135872829D01*
X129393324Y-123221157D02*
X129238361Y-124992391D01*
X127622090Y-123066194D02*
X129393324Y-123221157D01*
X116741652Y-122114279D02*
X118512886Y-122269242D01*
X118247006Y-104908003D02*
X118401969Y-103136769D01*
X117295091Y-115788441D02*
X117450054Y-114017207D01*
X119066325Y-115943404D02*
X117295091Y-115788441D01*
X129946763Y-116895319D02*
X128175529Y-116740356D01*
X130101726Y-115124085D02*
X129946763Y-116895319D01*
X131053641Y-104243647D02*
X130898678Y-106014881D01*
X129282407Y-104088684D02*
X131053641Y-104243647D01*
X118401969Y-103136769D02*
X120173203Y-103291732D01*
X89088080Y-164983993D02*
X89243043Y-163212759D01*
X88136165Y-175864431D02*
X88291128Y-174093197D01*
X89907399Y-176019394D02*
X88136165Y-175864431D01*
X100787837Y-176971309D02*
X99016603Y-176816346D01*
X100942800Y-175200075D02*
X100787837Y-176971309D01*
X101894715Y-164319637D02*
X101739752Y-166090871D01*
X100123481Y-164164674D02*
X101894715Y-164319637D01*
X89243043Y-163212759D02*
X91014277Y-163367722D01*
X95492276Y-146421520D02*
X95647239Y-144650286D01*
X94540361Y-157301958D02*
X94695324Y-155530724D01*
X96311595Y-157456921D02*
X94540361Y-157301958D01*
X107192033Y-158408836D02*
X105420799Y-158253873D01*
X107346996Y-156637602D02*
X107192033Y-158408836D01*
X108298911Y-145757164D02*
X108143948Y-147528398D01*
X106527677Y-145602201D02*
X108298911Y-145757164D01*
X95647239Y-144650286D02*
X97418473Y-144805249D01*
X97152673Y-127444018D02*
X97307636Y-125672784D01*
X96200758Y-138324456D02*
X96355721Y-136553222D01*
X97971992Y-138479419D02*
X96200758Y-138324456D01*
X108852430Y-139431334D02*
X107081196Y-139276371D01*
X109007393Y-137660100D02*
X108852430Y-139431334D01*
X109959308Y-126779662D02*
X109804345Y-128550896D01*
X108188074Y-126624699D02*
X109959308Y-126779662D01*
X97307636Y-125672784D02*
X99078870Y-125827747D01*
X98812910Y-108466502D02*
X98967873Y-106695268D01*
X97860995Y-119346940D02*
X98015958Y-117575706D01*
X99632229Y-119501903D02*
X97860995Y-119346940D01*
X110512667Y-120453818D02*
X108741433Y-120298855D01*
X110667630Y-118682584D02*
X110512667Y-120453818D01*
X111619545Y-107802146D02*
X111464582Y-109573380D01*
X109848311Y-107647183D02*
X111619545Y-107802146D01*
X98967873Y-106695268D02*
X100739107Y-106850231D01*
X76514767Y-144761203D02*
X76669730Y-142989969D01*
X75562852Y-155641641D02*
X75717815Y-153870407D01*
X77334086Y-155796604D02*
X75562852Y-155641641D01*
X88214524Y-156748519D02*
X86443290Y-156593556D01*
X88369487Y-154977285D02*
X88214524Y-156748519D01*
X89321402Y-144096847D02*
X89166439Y-145868081D01*
X87550168Y-143941884D02*
X89321402Y-144096847D01*
X76669730Y-142989969D02*
X78440964Y-143144932D01*
X78175084Y-125783694D02*
X78330047Y-124012460D01*
X77223169Y-136664132D02*
X77378132Y-134892898D01*
X78994403Y-136819095D02*
X77223169Y-136664132D01*
X89874841Y-137771010D02*
X88103607Y-137616047D01*
X90029804Y-135999776D02*
X89874841Y-137771010D01*
X90981719Y-125119338D02*
X90826756Y-126890572D01*
X89210485Y-124964375D02*
X90981719Y-125119338D01*
X78330047Y-124012460D02*
X80101281Y-124167423D01*
X79835401Y-106806185D02*
X79990364Y-105034951D01*
X78883486Y-117686623D02*
X79038449Y-115915389D01*
X80654720Y-117841586D02*
X78883486Y-117686623D01*
X91535158Y-118793501D02*
X89763924Y-118638538D01*
X91690121Y-117022267D02*
X91535158Y-118793501D01*
X92642036Y-106141829D02*
X92487073Y-107913063D01*
X90870802Y-105986866D02*
X92642036Y-106141829D01*
X79990364Y-105034951D02*
X81761598Y-105189914D01*
D11*
X204169620Y-136291190D02*
X204169620Y-136041190D01*
X210169620Y-136291190D02*
X204169620Y-136291190D01*
X210169620Y-136291190D02*
X210169620Y-136041190D01*
X210169620Y-132791190D02*
X210169620Y-133041190D01*
X204169620Y-132791190D02*
X204169620Y-133041190D01*
X210169620Y-132791190D02*
X204169620Y-132791190D01*
D12*
X329470373Y-153784604D02*
X329692530Y-153825875D01*
X330054006Y-153794250D01*
X330193326Y-153721353D01*
X330260351Y-153654782D01*
X330322104Y-153527965D01*
X330311562Y-153407473D01*
X330228725Y-153293306D01*
X330151159Y-153239385D01*
X330001298Y-153191789D01*
X329706846Y-153156843D01*
X329556985Y-153109247D01*
X329479418Y-153055326D01*
X329396581Y-152941159D01*
X329386040Y-152820667D01*
X329447793Y-152693850D01*
X329514818Y-152627278D01*
X329654137Y-152554382D01*
X330015614Y-152522757D01*
X330237771Y-152564028D01*
X330738567Y-152459507D02*
X331210731Y-153693049D01*
X331420849Y-152764058D01*
X331789093Y-153642449D01*
X332039881Y-152345657D01*
X333305797Y-152659854D02*
X333379589Y-153503299D01*
X332902154Y-152209511D02*
X332619740Y-153144827D01*
X333559579Y-153062601D01*
X333919559Y-152181206D02*
X334859397Y-152098981D01*
X334395497Y-152625225D01*
X334612383Y-152606250D01*
X334762244Y-152653846D01*
X334839810Y-152707767D01*
X334922647Y-152821934D01*
X334949002Y-153123164D01*
X334887248Y-153249981D01*
X334820224Y-153316552D01*
X334680904Y-153389449D01*
X334247132Y-153427399D01*
X334097271Y-153379803D01*
X334019705Y-153325882D01*
X327810056Y-134807095D02*
X328032213Y-134848366D01*
X328393689Y-134816741D01*
X328533009Y-134743844D01*
X328600034Y-134677273D01*
X328661787Y-134550456D01*
X328651245Y-134429964D01*
X328568408Y-134315797D01*
X328490842Y-134261876D01*
X328340981Y-134214280D01*
X328046529Y-134179334D01*
X327896668Y-134131738D01*
X327819101Y-134077817D01*
X327736264Y-133963650D01*
X327725723Y-133843158D01*
X327787476Y-133716341D01*
X327854501Y-133649769D01*
X327993820Y-133576873D01*
X328355297Y-133545248D01*
X328577454Y-133586519D01*
X329078250Y-133481998D02*
X329550414Y-134715540D01*
X329760532Y-133786549D01*
X330128776Y-134664940D01*
X330379564Y-133368148D01*
X331645480Y-133682345D02*
X331719272Y-134525790D01*
X331241837Y-133232002D02*
X330959423Y-134167318D01*
X331899262Y-134085092D01*
X332342079Y-133317864D02*
X332409103Y-133251293D01*
X332548423Y-133178397D01*
X332909899Y-133146772D01*
X333059760Y-133194368D01*
X333137327Y-133248289D01*
X333220163Y-133362456D01*
X333230705Y-133482949D01*
X333174222Y-133670012D01*
X332369929Y-134468865D01*
X333309768Y-134386639D01*
X326149739Y-115829586D02*
X326371896Y-115870857D01*
X326733372Y-115839232D01*
X326872692Y-115766335D01*
X326939717Y-115699764D01*
X327001470Y-115572947D01*
X326990928Y-115452455D01*
X326908091Y-115338288D01*
X326830525Y-115284367D01*
X326680664Y-115236771D01*
X326386212Y-115201825D01*
X326236351Y-115154229D01*
X326158784Y-115100308D01*
X326075947Y-114986141D01*
X326065406Y-114865649D01*
X326127159Y-114738832D01*
X326194184Y-114672260D01*
X326333503Y-114599364D01*
X326694980Y-114567739D01*
X326917137Y-114609010D01*
X327417933Y-114504489D02*
X327890097Y-115738031D01*
X328100215Y-114809040D01*
X328468459Y-115687431D01*
X328719247Y-114390639D01*
X329985163Y-114704836D02*
X330058955Y-115548281D01*
X329581520Y-114254493D02*
X329299106Y-115189809D01*
X330238945Y-115107583D01*
X331649451Y-115409130D02*
X330781908Y-115485031D01*
X331215679Y-115447081D02*
X331104991Y-114181913D01*
X330976213Y-114375301D01*
X330842165Y-114508444D01*
X330702845Y-114581340D01*
X316898056Y-174007307D02*
X317120213Y-174048578D01*
X317481689Y-174016953D01*
X317621009Y-173944056D01*
X317688034Y-173877485D01*
X317749787Y-173750668D01*
X317739245Y-173630176D01*
X317656408Y-173516009D01*
X317578842Y-173462088D01*
X317428981Y-173414492D01*
X317134529Y-173379546D01*
X316984668Y-173331950D01*
X316907101Y-173278029D01*
X316824264Y-173163862D01*
X316813723Y-173043370D01*
X316875476Y-172916553D01*
X316942501Y-172849981D01*
X317081820Y-172777085D01*
X317443297Y-172745460D01*
X317665454Y-172786731D01*
X318166250Y-172682210D02*
X318638414Y-173915752D01*
X318848532Y-172986761D01*
X319216776Y-173865152D01*
X319467564Y-172568360D01*
X320733480Y-172882557D02*
X320807272Y-173726002D01*
X320329837Y-172432214D02*
X320047423Y-173367530D01*
X320987262Y-173285304D01*
X321781013Y-172365959D02*
X321925604Y-172353309D01*
X322075465Y-172400905D01*
X322153031Y-172454826D01*
X322235868Y-172568993D01*
X322329247Y-172803653D01*
X322355601Y-173104883D01*
X322304389Y-173352192D01*
X322242636Y-173479009D01*
X322175611Y-173545580D01*
X322036292Y-173618477D01*
X321891701Y-173631127D01*
X321741840Y-173583531D01*
X321664273Y-173529609D01*
X321581437Y-173415442D01*
X321488058Y-173180783D01*
X321461704Y-172879553D01*
X321512915Y-172632244D01*
X321574669Y-172505426D01*
X321641694Y-172438855D01*
X321781013Y-172365959D01*
X310492864Y-155444921D02*
X310715021Y-155486192D01*
X311076497Y-155454567D01*
X311215817Y-155381670D01*
X311282842Y-155315099D01*
X311344595Y-155188282D01*
X311334053Y-155067790D01*
X311251216Y-154953623D01*
X311173650Y-154899702D01*
X311023789Y-154852106D01*
X310729337Y-154817160D01*
X310579476Y-154769564D01*
X310501909Y-154715643D01*
X310419072Y-154601476D01*
X310408531Y-154480984D01*
X310470284Y-154354167D01*
X310537309Y-154287595D01*
X310676628Y-154214699D01*
X311038105Y-154183074D01*
X311260262Y-154224345D01*
X311761058Y-154119824D02*
X312233222Y-155353366D01*
X312443340Y-154424375D01*
X312811584Y-155302766D01*
X313062372Y-154005974D01*
X313496144Y-153968024D02*
X314435983Y-153885799D01*
X313972083Y-154412042D01*
X314188968Y-154393067D01*
X314338830Y-154440663D01*
X314416396Y-154494584D01*
X314499233Y-154608751D01*
X314525587Y-154909982D01*
X314463833Y-155036799D01*
X314396809Y-155103370D01*
X314257489Y-155176266D01*
X313823718Y-155214216D01*
X313673856Y-155166620D01*
X313596290Y-155112699D01*
X315269623Y-155087716D02*
X315558804Y-155062416D01*
X315698124Y-154989519D01*
X315765148Y-154922948D01*
X315893926Y-154729560D01*
X315945138Y-154482251D01*
X315902971Y-154000282D01*
X315820135Y-153886115D01*
X315742568Y-153832194D01*
X315592707Y-153784598D01*
X315303526Y-153809898D01*
X315164206Y-153882794D01*
X315097182Y-153949365D01*
X315035428Y-154076183D01*
X315061782Y-154377413D01*
X315144619Y-154491580D01*
X315222186Y-154545501D01*
X315372047Y-154593097D01*
X315661228Y-154567797D01*
X315800548Y-154494901D01*
X315867572Y-154428330D01*
X315929326Y-154301513D01*
X308832547Y-136467412D02*
X309054704Y-136508683D01*
X309416180Y-136477058D01*
X309555500Y-136404161D01*
X309622525Y-136337590D01*
X309684278Y-136210773D01*
X309673736Y-136090281D01*
X309590899Y-135976114D01*
X309513333Y-135922193D01*
X309363472Y-135874597D01*
X309069020Y-135839651D01*
X308919159Y-135792055D01*
X308841592Y-135738134D01*
X308758755Y-135623967D01*
X308748214Y-135503475D01*
X308809967Y-135376658D01*
X308876992Y-135310086D01*
X309016311Y-135237190D01*
X309377788Y-135205565D01*
X309599945Y-135246836D01*
X310100741Y-135142315D02*
X310572905Y-136375857D01*
X310783023Y-135446866D01*
X311151267Y-136325257D01*
X311402055Y-135028465D01*
X311835827Y-134990515D02*
X312775666Y-134908290D01*
X312311766Y-135434533D01*
X312528651Y-135415558D01*
X312678513Y-135463154D01*
X312756079Y-135517075D01*
X312838916Y-135631242D01*
X312865270Y-135932473D01*
X312803516Y-136059290D01*
X312736492Y-136125861D01*
X312597172Y-136198757D01*
X312163401Y-136236707D01*
X312013539Y-136189111D01*
X311935973Y-136135190D01*
X313690647Y-135374604D02*
X313540785Y-135327008D01*
X313463219Y-135273087D01*
X313380382Y-135158920D01*
X313375111Y-135098674D01*
X313436865Y-134971856D01*
X313503889Y-134905285D01*
X313643209Y-134832389D01*
X313932390Y-134807089D01*
X314082251Y-134854685D01*
X314159818Y-134908606D01*
X314242654Y-135022773D01*
X314247925Y-135083019D01*
X314186172Y-135209837D01*
X314119147Y-135276408D01*
X313979828Y-135349304D01*
X313690647Y-135374604D01*
X313551327Y-135447500D01*
X313484302Y-135514071D01*
X313422549Y-135640888D01*
X313443632Y-135881872D01*
X313526469Y-135996039D01*
X313604035Y-136049961D01*
X313753897Y-136097557D01*
X314043078Y-136072257D01*
X314182398Y-135999360D01*
X314249422Y-135932789D01*
X314311176Y-135805972D01*
X314290092Y-135564988D01*
X314207255Y-135450821D01*
X314129689Y-135396900D01*
X313979828Y-135349304D01*
X307172230Y-117489903D02*
X307394387Y-117531174D01*
X307755863Y-117499549D01*
X307895183Y-117426652D01*
X307962208Y-117360081D01*
X308023961Y-117233264D01*
X308013419Y-117112772D01*
X307930582Y-116998605D01*
X307853016Y-116944684D01*
X307703155Y-116897088D01*
X307408703Y-116862142D01*
X307258842Y-116814546D01*
X307181275Y-116760625D01*
X307098438Y-116646458D01*
X307087897Y-116525966D01*
X307149650Y-116399149D01*
X307216675Y-116332577D01*
X307355994Y-116259681D01*
X307717471Y-116228056D01*
X307939628Y-116269327D01*
X308440424Y-116164806D02*
X308912588Y-117398348D01*
X309122706Y-116469357D01*
X309490950Y-117347748D01*
X309741738Y-116050956D01*
X310175510Y-116013006D02*
X311115349Y-115930781D01*
X310651449Y-116457024D01*
X310868334Y-116438049D01*
X311018196Y-116485645D01*
X311095762Y-116539566D01*
X311178599Y-116653733D01*
X311204953Y-116954964D01*
X311143199Y-117081781D01*
X311076175Y-117148352D01*
X310936855Y-117221248D01*
X310503084Y-117259198D01*
X310353222Y-117211602D01*
X310275656Y-117157681D01*
X311621416Y-115886505D02*
X312633549Y-115797955D01*
X312093580Y-117120048D01*
X291058768Y-151886423D02*
X291280925Y-151927694D01*
X291642401Y-151896069D01*
X291781721Y-151823172D01*
X291848746Y-151756601D01*
X291910499Y-151629784D01*
X291899957Y-151509292D01*
X291817120Y-151395125D01*
X291739554Y-151341204D01*
X291589693Y-151293608D01*
X291295241Y-151258662D01*
X291145380Y-151211066D01*
X291067813Y-151157145D01*
X290984976Y-151042978D01*
X290974435Y-150922486D01*
X291036188Y-150795669D01*
X291103213Y-150729097D01*
X291242532Y-150656201D01*
X291604009Y-150624576D01*
X291826166Y-150665847D01*
X292326962Y-150561326D02*
X292799126Y-151794868D01*
X293009244Y-150865877D01*
X293377488Y-151744268D01*
X293628276Y-150447476D01*
X294062048Y-150409526D02*
X295001887Y-150327301D01*
X294537987Y-150853544D01*
X294754872Y-150834569D01*
X294904734Y-150882165D01*
X294982300Y-150936086D01*
X295065137Y-151050253D01*
X295091491Y-151351484D01*
X295029737Y-151478301D01*
X294962713Y-151544872D01*
X294823393Y-151617768D01*
X294389622Y-151655718D01*
X294239760Y-151608122D01*
X294162194Y-151554201D01*
X296303202Y-150213450D02*
X296014020Y-150238750D01*
X295874701Y-150311646D01*
X295807676Y-150378217D01*
X295678898Y-150571606D01*
X295627686Y-150818915D01*
X295669853Y-151300883D01*
X295752690Y-151415050D01*
X295830256Y-151468972D01*
X295980118Y-151516568D01*
X296269299Y-151491268D01*
X296408619Y-151418371D01*
X296475643Y-151351800D01*
X296537397Y-151224983D01*
X296511042Y-150923753D01*
X296428205Y-150809586D01*
X296350639Y-150755665D01*
X296200778Y-150708069D01*
X295911597Y-150733369D01*
X295772277Y-150806265D01*
X295705253Y-150872836D01*
X295643499Y-150999653D01*
X289398451Y-132908914D02*
X289620608Y-132950185D01*
X289982084Y-132918560D01*
X290121404Y-132845663D01*
X290188429Y-132779092D01*
X290250182Y-132652275D01*
X290239640Y-132531783D01*
X290156803Y-132417616D01*
X290079237Y-132363695D01*
X289929376Y-132316099D01*
X289634924Y-132281153D01*
X289485063Y-132233557D01*
X289407496Y-132179636D01*
X289324659Y-132065469D01*
X289314118Y-131944977D01*
X289375871Y-131818160D01*
X289442896Y-131751588D01*
X289582215Y-131678692D01*
X289943692Y-131647067D01*
X290165849Y-131688338D01*
X290666645Y-131583817D02*
X291138809Y-132817359D01*
X291348927Y-131888368D01*
X291717171Y-132766759D01*
X291967959Y-131469967D01*
X292401731Y-131432017D02*
X293341570Y-131349792D01*
X292877670Y-131876035D01*
X293094555Y-131857060D01*
X293244417Y-131904656D01*
X293321983Y-131958577D01*
X293404820Y-132072744D01*
X293431174Y-132373975D01*
X293369420Y-132500792D01*
X293302396Y-132567363D01*
X293163076Y-132640259D01*
X292729305Y-132678209D01*
X292579443Y-132630613D01*
X292501877Y-132576692D01*
X294715180Y-131229616D02*
X293992227Y-131292866D01*
X293972640Y-131901652D01*
X294039665Y-131835081D01*
X294178984Y-131762185D01*
X294540461Y-131730560D01*
X294690322Y-131778156D01*
X294767888Y-131832077D01*
X294850725Y-131946244D01*
X294877080Y-132247474D01*
X294815326Y-132374291D01*
X294748302Y-132440862D01*
X294608982Y-132513759D01*
X294247505Y-132545384D01*
X294097644Y-132497788D01*
X294020078Y-132443867D01*
X287738134Y-113931404D02*
X287960291Y-113972675D01*
X288321767Y-113941050D01*
X288461087Y-113868153D01*
X288528112Y-113801582D01*
X288589865Y-113674765D01*
X288579323Y-113554273D01*
X288496486Y-113440106D01*
X288418920Y-113386185D01*
X288269059Y-113338589D01*
X287974607Y-113303643D01*
X287824746Y-113256047D01*
X287747179Y-113202126D01*
X287664342Y-113087959D01*
X287653801Y-112967467D01*
X287715554Y-112840650D01*
X287782579Y-112774078D01*
X287921898Y-112701182D01*
X288283375Y-112669557D01*
X288505532Y-112710828D01*
X289006328Y-112606307D02*
X289478492Y-113839849D01*
X289688610Y-112910858D01*
X290056854Y-113789249D01*
X290307642Y-112492457D01*
X290741414Y-112454507D02*
X291681253Y-112372282D01*
X291217353Y-112898525D01*
X291434238Y-112879550D01*
X291584100Y-112927146D01*
X291661666Y-112981067D01*
X291744503Y-113095234D01*
X291770857Y-113396465D01*
X291709103Y-113523282D01*
X291642079Y-113589853D01*
X291502759Y-113662749D01*
X291068988Y-113700699D01*
X290919126Y-113653103D01*
X290841560Y-113599182D01*
X293019463Y-112680154D02*
X293093255Y-113523598D01*
X292615820Y-112229810D02*
X292333407Y-113165126D01*
X293273245Y-113082901D01*
X271873719Y-151174551D02*
X272095876Y-151215822D01*
X272457352Y-151184197D01*
X272596672Y-151111300D01*
X272663697Y-151044729D01*
X272725450Y-150917912D01*
X272714908Y-150797420D01*
X272632071Y-150683253D01*
X272554505Y-150629332D01*
X272404644Y-150581736D01*
X272110192Y-150546790D01*
X271960331Y-150499194D01*
X271882764Y-150445273D01*
X271799927Y-150331106D01*
X271789386Y-150210614D01*
X271851139Y-150083797D01*
X271918164Y-150017225D01*
X272057483Y-149944329D01*
X272418960Y-149912704D01*
X272641117Y-149953975D01*
X273141913Y-149849454D02*
X273614077Y-151082996D01*
X273824195Y-150154005D01*
X274192439Y-151032396D01*
X274443227Y-149735604D01*
X274876999Y-149697654D02*
X275816838Y-149615429D01*
X275352938Y-150141672D01*
X275569823Y-150122697D01*
X275719685Y-150170293D01*
X275797251Y-150224214D01*
X275880088Y-150338381D01*
X275906442Y-150639612D01*
X275844688Y-150766429D01*
X275777664Y-150833000D01*
X275638344Y-150905896D01*
X275204573Y-150943846D01*
X275054711Y-150896250D01*
X274977145Y-150842329D01*
X276322905Y-149571153D02*
X277262743Y-149488928D01*
X276798843Y-150015172D01*
X277015729Y-149996197D01*
X277165590Y-150043793D01*
X277243156Y-150097714D01*
X277325993Y-150211881D01*
X277352348Y-150513111D01*
X277290594Y-150639928D01*
X277223570Y-150706499D01*
X277084250Y-150779396D01*
X276650478Y-150817346D01*
X276500617Y-150769750D01*
X276423051Y-150715829D01*
X270213402Y-132197042D02*
X270435559Y-132238313D01*
X270797035Y-132206688D01*
X270936355Y-132133791D01*
X271003380Y-132067220D01*
X271065133Y-131940403D01*
X271054591Y-131819911D01*
X270971754Y-131705744D01*
X270894188Y-131651823D01*
X270744327Y-131604227D01*
X270449875Y-131569281D01*
X270300014Y-131521685D01*
X270222447Y-131467764D01*
X270139610Y-131353597D01*
X270129069Y-131233105D01*
X270190822Y-131106288D01*
X270257847Y-131039716D01*
X270397166Y-130966820D01*
X270758643Y-130935195D01*
X270980800Y-130976466D01*
X271481596Y-130871945D02*
X271953760Y-132105487D01*
X272163878Y-131176496D01*
X272532122Y-132054887D01*
X272782910Y-130758095D01*
X273216682Y-130720145D02*
X274156521Y-130637920D01*
X273692621Y-131164163D01*
X273909506Y-131145188D01*
X274059368Y-131192784D01*
X274136934Y-131246705D01*
X274219771Y-131360872D01*
X274246125Y-131662103D01*
X274184371Y-131788920D01*
X274117347Y-131855491D01*
X273978027Y-131928387D01*
X273544256Y-131966337D01*
X273394394Y-131918741D01*
X273316828Y-131864820D01*
X274745425Y-130707811D02*
X274812449Y-130641240D01*
X274951769Y-130568344D01*
X275313245Y-130536719D01*
X275463106Y-130584315D01*
X275540673Y-130638236D01*
X275623509Y-130752403D01*
X275634051Y-130872896D01*
X275577568Y-131059959D01*
X274773275Y-131858812D01*
X275713114Y-131776586D01*
X268553086Y-113219533D02*
X268775243Y-113260804D01*
X269136719Y-113229179D01*
X269276039Y-113156282D01*
X269343064Y-113089711D01*
X269404817Y-112962894D01*
X269394275Y-112842402D01*
X269311438Y-112728235D01*
X269233872Y-112674314D01*
X269084011Y-112626718D01*
X268789559Y-112591772D01*
X268639698Y-112544176D01*
X268562131Y-112490255D01*
X268479294Y-112376088D01*
X268468753Y-112255596D01*
X268530506Y-112128779D01*
X268597531Y-112062207D01*
X268736850Y-111989311D01*
X269098327Y-111957686D01*
X269320484Y-111998957D01*
X269821280Y-111894436D02*
X270293444Y-113127978D01*
X270503562Y-112198987D01*
X270871806Y-113077378D01*
X271122594Y-111780586D01*
X271556366Y-111742636D02*
X272496205Y-111660411D01*
X272032305Y-112186654D01*
X272249190Y-112167679D01*
X272399052Y-112215275D01*
X272476618Y-112269196D01*
X272559455Y-112383363D01*
X272585809Y-112684594D01*
X272524055Y-112811411D01*
X272457031Y-112877982D01*
X272317711Y-112950878D01*
X271883940Y-112988828D01*
X271734078Y-112941232D01*
X271656512Y-112887311D01*
X274052798Y-112799077D02*
X273185255Y-112874978D01*
X273619026Y-112837028D02*
X273508338Y-111571860D01*
X273379560Y-111765248D01*
X273245512Y-111898391D01*
X273106192Y-111971287D01*
X264460361Y-175726596D02*
X264682518Y-175767867D01*
X265043994Y-175736242D01*
X265183314Y-175663345D01*
X265250339Y-175596774D01*
X265312092Y-175469957D01*
X265301550Y-175349465D01*
X265218713Y-175235298D01*
X265141147Y-175181377D01*
X264991286Y-175133781D01*
X264696834Y-175098835D01*
X264546973Y-175051239D01*
X264469406Y-174997318D01*
X264386569Y-174883151D01*
X264376028Y-174762659D01*
X264437781Y-174635842D01*
X264504806Y-174569270D01*
X264644125Y-174496374D01*
X265005602Y-174464749D01*
X265227759Y-174506020D01*
X265728555Y-174401499D02*
X266200719Y-175635041D01*
X266410837Y-174706050D01*
X266779081Y-175584441D01*
X267029869Y-174287649D01*
X267463641Y-174249699D02*
X268403480Y-174167474D01*
X267939580Y-174693717D01*
X268156465Y-174674742D01*
X268306327Y-174722338D01*
X268383893Y-174776259D01*
X268466730Y-174890426D01*
X268493084Y-175191657D01*
X268431330Y-175318474D01*
X268364306Y-175385045D01*
X268224986Y-175457941D01*
X267791215Y-175495891D01*
X267641353Y-175448295D01*
X267563787Y-175394374D01*
X269343318Y-174085248D02*
X269487909Y-174072598D01*
X269637770Y-174120194D01*
X269715336Y-174174115D01*
X269798173Y-174288282D01*
X269891552Y-174522942D01*
X269917906Y-174824172D01*
X269866694Y-175071481D01*
X269804941Y-175198298D01*
X269737916Y-175264869D01*
X269598597Y-175337766D01*
X269454006Y-175350416D01*
X269304145Y-175302820D01*
X269226578Y-175248898D01*
X269143742Y-175134731D01*
X269050363Y-174900072D01*
X269024009Y-174598842D01*
X269075220Y-174351533D01*
X269136974Y-174224715D01*
X269203999Y-174158144D01*
X269343318Y-174085248D01*
X253311290Y-157579245D02*
X253533447Y-157620516D01*
X253894923Y-157588891D01*
X254034243Y-157515994D01*
X254101268Y-157449423D01*
X254163021Y-157322606D01*
X254152479Y-157202114D01*
X254069642Y-157087947D01*
X253992076Y-157034026D01*
X253842215Y-156986430D01*
X253547763Y-156951484D01*
X253397902Y-156903888D01*
X253320335Y-156849967D01*
X253237498Y-156735800D01*
X253226957Y-156615308D01*
X253288710Y-156488491D01*
X253355735Y-156421919D01*
X253495054Y-156349023D01*
X253856531Y-156317398D01*
X254078688Y-156358669D01*
X254579484Y-156254148D02*
X255051648Y-157487690D01*
X255261766Y-156558699D01*
X255630010Y-157437090D01*
X255880798Y-156140298D01*
X256397407Y-156216515D02*
X256464432Y-156149944D01*
X256603751Y-156077048D01*
X256965228Y-156045423D01*
X257115089Y-156093019D01*
X257192655Y-156146940D01*
X257275492Y-156261107D01*
X257286034Y-156381599D01*
X257229551Y-156568662D01*
X256425258Y-157367515D01*
X257365096Y-157285290D01*
X258088049Y-157222040D02*
X258377230Y-157196740D01*
X258516550Y-157123843D01*
X258583574Y-157057272D01*
X258712352Y-156863884D01*
X258763564Y-156616575D01*
X258721397Y-156134606D01*
X258638561Y-156020439D01*
X258560994Y-155966518D01*
X258411133Y-155918922D01*
X258121952Y-155944222D01*
X257982632Y-156017118D01*
X257915608Y-156083689D01*
X257853854Y-156210507D01*
X257880208Y-156511737D01*
X257963045Y-156625904D01*
X258040612Y-156679825D01*
X258190473Y-156727421D01*
X258479654Y-156702121D01*
X258618974Y-156629225D01*
X258685998Y-156562654D01*
X258747752Y-156435837D01*
X251650973Y-138601736D02*
X251873130Y-138643007D01*
X252234606Y-138611382D01*
X252373926Y-138538485D01*
X252440951Y-138471914D01*
X252502704Y-138345097D01*
X252492162Y-138224605D01*
X252409325Y-138110438D01*
X252331759Y-138056517D01*
X252181898Y-138008921D01*
X251887446Y-137973975D01*
X251737585Y-137926379D01*
X251660018Y-137872458D01*
X251577181Y-137758291D01*
X251566640Y-137637799D01*
X251628393Y-137510982D01*
X251695418Y-137444410D01*
X251834737Y-137371514D01*
X252196214Y-137339889D01*
X252418371Y-137381160D01*
X252919167Y-137276639D02*
X253391331Y-138510181D01*
X253601449Y-137581190D01*
X253969693Y-138459581D01*
X254220481Y-137162789D01*
X254737090Y-137239006D02*
X254804115Y-137172435D01*
X254943434Y-137099539D01*
X255304911Y-137067914D01*
X255454772Y-137115510D01*
X255532338Y-137169431D01*
X255615175Y-137283598D01*
X255625717Y-137404090D01*
X255569234Y-137591153D01*
X254764941Y-138390006D01*
X255704779Y-138307781D01*
X256509073Y-137508928D02*
X256359211Y-137461332D01*
X256281645Y-137407411D01*
X256198808Y-137293244D01*
X256193537Y-137232998D01*
X256255291Y-137106180D01*
X256322315Y-137039609D01*
X256461635Y-136966713D01*
X256750816Y-136941413D01*
X256900677Y-136989009D01*
X256978244Y-137042930D01*
X257061080Y-137157097D01*
X257066351Y-137217343D01*
X257004598Y-137344161D01*
X256937573Y-137410732D01*
X256798254Y-137483628D01*
X256509073Y-137508928D01*
X256369753Y-137581824D01*
X256302728Y-137648395D01*
X256240975Y-137775212D01*
X256262058Y-138016196D01*
X256344895Y-138130363D01*
X256422461Y-138184285D01*
X256572323Y-138231881D01*
X256861504Y-138206581D01*
X257000824Y-138133684D01*
X257067848Y-138067113D01*
X257129602Y-137940296D01*
X257108518Y-137699312D01*
X257025681Y-137585145D01*
X256948115Y-137531224D01*
X256798254Y-137483628D01*
X249990656Y-119624226D02*
X250212813Y-119665497D01*
X250574289Y-119633872D01*
X250713609Y-119560975D01*
X250780634Y-119494404D01*
X250842387Y-119367587D01*
X250831845Y-119247095D01*
X250749008Y-119132928D01*
X250671442Y-119079007D01*
X250521581Y-119031411D01*
X250227129Y-118996465D01*
X250077268Y-118948869D01*
X249999701Y-118894948D01*
X249916864Y-118780781D01*
X249906323Y-118660289D01*
X249968076Y-118533472D01*
X250035101Y-118466900D01*
X250174420Y-118394004D01*
X250535897Y-118362379D01*
X250758054Y-118403650D01*
X251258850Y-118299129D02*
X251731014Y-119532671D01*
X251941132Y-118603680D01*
X252309376Y-119482071D01*
X252560164Y-118185279D01*
X253076773Y-118261496D02*
X253143798Y-118194925D01*
X253283117Y-118122029D01*
X253644594Y-118090404D01*
X253794455Y-118138000D01*
X253872021Y-118191921D01*
X253954858Y-118306088D01*
X253965400Y-118426580D01*
X253908917Y-118613643D01*
X253104624Y-119412496D01*
X254044462Y-119330271D01*
X254439842Y-118020828D02*
X255451975Y-117932278D01*
X254912006Y-119254371D01*
X239798020Y-181482330D02*
X240023969Y-181484397D01*
X240374462Y-181390483D01*
X240499007Y-181294502D01*
X240553453Y-181217303D01*
X240592247Y-181081689D01*
X240560942Y-180964858D01*
X240459538Y-180866810D01*
X240373787Y-180827178D01*
X240217938Y-180806328D01*
X239921891Y-180823044D01*
X239766041Y-180802194D01*
X239680290Y-180762561D01*
X239578887Y-180664513D01*
X239547582Y-180547682D01*
X239586376Y-180412068D01*
X239640822Y-180334870D01*
X239765367Y-180238889D01*
X240115860Y-180144974D01*
X240341808Y-180147041D01*
X240816846Y-179957146D02*
X241496040Y-181089957D01*
X241541648Y-180138593D01*
X242056829Y-180939694D01*
X242078621Y-179619054D01*
X242600616Y-179604405D02*
X242655063Y-179527207D01*
X242779608Y-179431225D01*
X243130101Y-179337311D01*
X243285950Y-179358161D01*
X243371701Y-179397793D01*
X243473105Y-179495842D01*
X243504409Y-179612673D01*
X243481268Y-179806702D01*
X242827913Y-180733083D01*
X243739195Y-180488905D01*
X244672270Y-178924088D02*
X244391876Y-178999219D01*
X244267331Y-179095201D01*
X244212885Y-179172399D01*
X244119645Y-179385211D01*
X244112156Y-179637656D01*
X244237375Y-180104980D01*
X244338778Y-180203028D01*
X244424529Y-180242661D01*
X244580379Y-180263511D01*
X244860773Y-180188379D01*
X244985318Y-180092398D01*
X245039764Y-180015200D01*
X245078558Y-179879586D01*
X245000296Y-179587508D01*
X244898893Y-179489460D01*
X244813142Y-179449827D01*
X244657292Y-179428978D01*
X244376898Y-179504109D01*
X244252353Y-179600090D01*
X244197907Y-179677289D01*
X244159113Y-179812903D01*
X234333781Y-159239562D02*
X234555938Y-159280833D01*
X234917414Y-159249208D01*
X235056734Y-159176311D01*
X235123759Y-159109740D01*
X235185512Y-158982923D01*
X235174970Y-158862431D01*
X235092133Y-158748264D01*
X235014567Y-158694343D01*
X234864706Y-158646747D01*
X234570254Y-158611801D01*
X234420393Y-158564205D01*
X234342826Y-158510284D01*
X234259989Y-158396117D01*
X234249448Y-158275625D01*
X234311201Y-158148808D01*
X234378226Y-158082236D01*
X234517545Y-158009340D01*
X234879022Y-157977715D01*
X235101179Y-158018986D01*
X235601975Y-157914465D02*
X236074139Y-159148007D01*
X236284257Y-158219016D01*
X236652501Y-159097407D01*
X236903289Y-157800615D01*
X237419898Y-157876832D02*
X237486923Y-157810261D01*
X237626242Y-157737365D01*
X237987719Y-157705740D01*
X238137580Y-157753336D01*
X238215146Y-157807257D01*
X238297983Y-157921424D01*
X238308525Y-158041916D01*
X238252042Y-158228979D01*
X237447749Y-159027832D01*
X238387587Y-158945607D01*
X239650510Y-157560264D02*
X238927557Y-157623514D01*
X238907970Y-158232300D01*
X238974995Y-158165729D01*
X239114314Y-158092833D01*
X239475791Y-158061208D01*
X239625652Y-158108804D01*
X239703218Y-158162725D01*
X239786055Y-158276892D01*
X239812410Y-158578122D01*
X239750656Y-158704939D01*
X239683632Y-158771510D01*
X239544312Y-158844407D01*
X239182835Y-158876032D01*
X239032974Y-158828436D01*
X238955408Y-158774515D01*
X232673464Y-140262053D02*
X232895621Y-140303324D01*
X233257097Y-140271699D01*
X233396417Y-140198802D01*
X233463442Y-140132231D01*
X233525195Y-140005414D01*
X233514653Y-139884922D01*
X233431816Y-139770755D01*
X233354250Y-139716834D01*
X233204389Y-139669238D01*
X232909937Y-139634292D01*
X232760076Y-139586696D01*
X232682509Y-139532775D01*
X232599672Y-139418608D01*
X232589131Y-139298116D01*
X232650884Y-139171299D01*
X232717909Y-139104727D01*
X232857228Y-139031831D01*
X233218705Y-139000206D01*
X233440862Y-139041477D01*
X233941658Y-138936956D02*
X234413822Y-140170498D01*
X234623940Y-139241507D01*
X234992184Y-140119898D01*
X235242972Y-138823106D01*
X235759581Y-138899323D02*
X235826606Y-138832752D01*
X235965925Y-138759856D01*
X236327402Y-138728231D01*
X236477263Y-138775827D01*
X236554829Y-138829748D01*
X236637666Y-138943915D01*
X236648208Y-139064407D01*
X236591725Y-139251470D01*
X235787432Y-140050323D01*
X236727270Y-139968098D01*
X237954793Y-139010803D02*
X238028585Y-139854247D01*
X237551150Y-138560459D02*
X237268737Y-139495775D01*
X238208575Y-139413550D01*
X231013147Y-121284543D02*
X231235304Y-121325814D01*
X231596780Y-121294189D01*
X231736100Y-121221292D01*
X231803125Y-121154721D01*
X231864878Y-121027904D01*
X231854336Y-120907412D01*
X231771499Y-120793245D01*
X231693933Y-120739324D01*
X231544072Y-120691728D01*
X231249620Y-120656782D01*
X231099759Y-120609186D01*
X231022192Y-120555265D01*
X230939355Y-120441098D01*
X230928814Y-120320606D01*
X230990567Y-120193789D01*
X231057592Y-120127217D01*
X231196911Y-120054321D01*
X231558388Y-120022696D01*
X231780545Y-120063967D01*
X232281341Y-119959446D02*
X232753505Y-121192988D01*
X232963623Y-120263997D01*
X233331867Y-121142388D01*
X233582655Y-119845596D01*
X234099264Y-119921813D02*
X234166289Y-119855242D01*
X234305608Y-119782346D01*
X234667085Y-119750721D01*
X234816946Y-119798317D01*
X234894512Y-119852238D01*
X234977349Y-119966405D01*
X234987891Y-120086897D01*
X234931408Y-120273960D01*
X234127115Y-121072813D01*
X235066953Y-120990588D01*
X235462333Y-119681145D02*
X236402171Y-119598920D01*
X235938271Y-120125164D01*
X236155157Y-120106189D01*
X236305018Y-120153785D01*
X236382584Y-120207706D01*
X236465421Y-120321873D01*
X236491776Y-120623103D01*
X236430022Y-120749920D01*
X236362998Y-120816491D01*
X236223678Y-120889388D01*
X235789906Y-120927338D01*
X235640045Y-120879742D01*
X235562479Y-120825821D01*
X204411385Y-159661377D02*
X204629100Y-159721853D01*
X204991957Y-159721853D01*
X205137100Y-159661377D01*
X205209671Y-159600901D01*
X205282242Y-159479949D01*
X205282242Y-159358996D01*
X205209671Y-159238044D01*
X205137100Y-159177568D01*
X204991957Y-159117091D01*
X204701671Y-159056615D01*
X204556528Y-158996139D01*
X204483957Y-158935663D01*
X204411385Y-158814710D01*
X204411385Y-158693758D01*
X204483957Y-158572806D01*
X204556528Y-158512330D01*
X204701671Y-158451853D01*
X205064528Y-158451853D01*
X205282242Y-158512330D01*
X205790242Y-158451853D02*
X206153100Y-159721853D01*
X206443385Y-158814710D01*
X206733671Y-159721853D01*
X207096528Y-158451853D01*
X207604528Y-158572806D02*
X207677100Y-158512330D01*
X207822242Y-158451853D01*
X208185100Y-158451853D01*
X208330242Y-158512330D01*
X208402814Y-158572806D01*
X208475385Y-158693758D01*
X208475385Y-158814710D01*
X208402814Y-158996139D01*
X207531957Y-159721853D01*
X208475385Y-159721853D01*
X209055957Y-158572806D02*
X209128528Y-158512330D01*
X209273671Y-158451853D01*
X209636528Y-158451853D01*
X209781671Y-158512330D01*
X209854242Y-158572806D01*
X209926814Y-158693758D01*
X209926814Y-158814710D01*
X209854242Y-158996139D01*
X208983385Y-159721853D01*
X209926814Y-159721853D01*
X174509977Y-158758860D02*
X174721592Y-158838081D01*
X175083068Y-158869707D01*
X175232930Y-158822111D01*
X175310496Y-158768189D01*
X175393333Y-158654022D01*
X175403874Y-158533530D01*
X175342121Y-158406713D01*
X175275096Y-158340142D01*
X175135777Y-158267246D01*
X174851867Y-158181700D01*
X174712547Y-158108804D01*
X174645522Y-158042233D01*
X174583769Y-157915416D01*
X174594311Y-157794923D01*
X174677147Y-157680756D01*
X174754714Y-157626835D01*
X174904575Y-157579239D01*
X175266051Y-157610864D01*
X175477666Y-157690085D01*
X175989004Y-157674114D02*
X176239793Y-158970907D01*
X176608036Y-158092516D01*
X176818155Y-159021507D01*
X177290319Y-157787965D01*
X177785844Y-157952732D02*
X177863410Y-157898811D01*
X178013272Y-157851215D01*
X178374748Y-157882840D01*
X178514068Y-157955736D01*
X178581092Y-158022307D01*
X178642846Y-158149124D01*
X178632304Y-158269616D01*
X178544196Y-158444030D01*
X177613403Y-159091082D01*
X178553241Y-159173307D01*
X179999147Y-159299808D02*
X179131604Y-159223908D01*
X179565375Y-159261858D02*
X179676063Y-157996690D01*
X179515660Y-158164778D01*
X179360528Y-158272621D01*
X179210666Y-158320217D01*
X176170294Y-139781351D02*
X176381909Y-139860572D01*
X176743385Y-139892198D01*
X176893247Y-139844602D01*
X176970813Y-139790680D01*
X177053650Y-139676513D01*
X177064191Y-139556021D01*
X177002438Y-139429204D01*
X176935413Y-139362633D01*
X176796094Y-139289737D01*
X176512184Y-139204191D01*
X176372864Y-139131295D01*
X176305839Y-139064724D01*
X176244086Y-138937907D01*
X176254628Y-138817414D01*
X176337464Y-138703247D01*
X176415031Y-138649326D01*
X176564892Y-138601730D01*
X176926368Y-138633355D01*
X177137983Y-138712576D01*
X177649321Y-138696605D02*
X177900110Y-139993398D01*
X178268353Y-139115007D01*
X178478472Y-140043998D01*
X178950636Y-138810456D01*
X179446161Y-138975223D02*
X179523727Y-138921302D01*
X179673589Y-138873706D01*
X180035065Y-138905331D01*
X180174385Y-138978227D01*
X180241409Y-139044798D01*
X180303163Y-139171615D01*
X180292621Y-139292107D01*
X180204513Y-139466521D01*
X179273720Y-140113573D01*
X180213558Y-140195798D01*
X181264085Y-139012856D02*
X181408675Y-139025506D01*
X181547995Y-139098402D01*
X181615019Y-139164974D01*
X181676773Y-139291791D01*
X181727985Y-139539100D01*
X181701631Y-139840330D01*
X181608252Y-140074989D01*
X181525415Y-140189157D01*
X181447849Y-140243078D01*
X181297987Y-140290674D01*
X181153397Y-140278024D01*
X181014077Y-140205127D01*
X180947053Y-140138556D01*
X180885299Y-140011739D01*
X180834087Y-139764430D01*
X180860442Y-139463200D01*
X180953820Y-139228541D01*
X181036657Y-139114373D01*
X181114223Y-139060452D01*
X181264085Y-139012856D01*
X177830611Y-120803841D02*
X178042226Y-120883062D01*
X178403702Y-120914688D01*
X178553564Y-120867092D01*
X178631130Y-120813170D01*
X178713967Y-120699003D01*
X178724508Y-120578511D01*
X178662755Y-120451694D01*
X178595730Y-120385123D01*
X178456411Y-120312227D01*
X178172501Y-120226681D01*
X178033181Y-120153785D01*
X177966156Y-120087214D01*
X177904403Y-119960397D01*
X177914945Y-119839904D01*
X177997781Y-119725737D01*
X178075348Y-119671816D01*
X178225209Y-119624220D01*
X178586685Y-119655845D01*
X178798300Y-119735066D01*
X179309638Y-119719095D02*
X179560427Y-121015888D01*
X179928670Y-120137497D01*
X180138789Y-121066488D01*
X180610953Y-119832946D01*
X181873875Y-121218288D02*
X181006332Y-121142388D01*
X181440104Y-121180338D02*
X181550792Y-119915171D01*
X181390388Y-120083259D01*
X181235256Y-120191101D01*
X181085395Y-120238697D01*
X182596828Y-121281539D02*
X182886009Y-121306839D01*
X183035871Y-121259243D01*
X183113437Y-121205322D01*
X183273840Y-121037233D01*
X183367218Y-120802574D01*
X183409385Y-120320606D01*
X183347632Y-120193789D01*
X183280607Y-120127217D01*
X183141288Y-120054321D01*
X182852106Y-120029021D01*
X182702245Y-120076617D01*
X182624679Y-120130538D01*
X182541842Y-120244705D01*
X182515488Y-120545936D01*
X182577241Y-120672753D01*
X182644266Y-120739324D01*
X182783585Y-120812220D01*
X183072766Y-120837520D01*
X183222628Y-120789924D01*
X183300194Y-120736003D01*
X183383031Y-120621836D01*
X169135310Y-180048063D02*
X169329953Y-180162828D01*
X169680446Y-180256742D01*
X169836296Y-180235892D01*
X169922047Y-180196259D01*
X170023450Y-180098211D01*
X170054755Y-179981380D01*
X170015961Y-179845766D01*
X169961515Y-179768568D01*
X169836970Y-179672587D01*
X169572228Y-179539040D01*
X169447683Y-179443058D01*
X169393237Y-179365860D01*
X169354443Y-179230246D01*
X169385748Y-179113415D01*
X169487151Y-179015367D01*
X169572902Y-178975734D01*
X169728752Y-178954885D01*
X170079245Y-179048799D01*
X170273889Y-179163563D01*
X170780231Y-179236628D02*
X170802024Y-180557268D01*
X171317204Y-179756166D01*
X171362813Y-180707531D01*
X172042006Y-179574719D01*
X173045180Y-181158320D02*
X172203996Y-180932925D01*
X172624588Y-181045622D02*
X172953288Y-179818897D01*
X172766134Y-179956577D01*
X172594632Y-180035843D01*
X172438782Y-180056692D01*
X174074192Y-180682728D02*
X173949647Y-180586746D01*
X173895201Y-180509548D01*
X173856407Y-180373934D01*
X173872059Y-180315519D01*
X173973463Y-180217471D01*
X174059214Y-180177838D01*
X174215063Y-180156988D01*
X174495458Y-180232120D01*
X174620003Y-180328101D01*
X174674449Y-180405299D01*
X174713243Y-180540913D01*
X174697590Y-180599329D01*
X174596187Y-180697377D01*
X174510436Y-180737009D01*
X174354586Y-180757859D01*
X174074192Y-180682728D01*
X173918342Y-180703578D01*
X173832591Y-180743210D01*
X173731188Y-180841258D01*
X173668578Y-181074920D01*
X173707372Y-181210534D01*
X173761818Y-181287733D01*
X173886363Y-181383714D01*
X174166758Y-181458845D01*
X174322607Y-181437996D01*
X174408358Y-181398363D01*
X174509762Y-181300315D01*
X174572371Y-181066653D01*
X174533578Y-180931039D01*
X174479131Y-180853840D01*
X174354586Y-180757859D01*
X155532468Y-157098543D02*
X155744083Y-157177764D01*
X156105559Y-157209390D01*
X156255421Y-157161794D01*
X156332987Y-157107872D01*
X156415824Y-156993705D01*
X156426365Y-156873213D01*
X156364612Y-156746396D01*
X156297587Y-156679825D01*
X156158268Y-156606929D01*
X155874358Y-156521383D01*
X155735038Y-156448487D01*
X155668013Y-156381916D01*
X155606260Y-156255099D01*
X155616802Y-156134606D01*
X155699638Y-156020439D01*
X155777205Y-155966518D01*
X155927066Y-155918922D01*
X156288542Y-155950547D01*
X156500157Y-156029768D01*
X157011495Y-156013797D02*
X157262284Y-157310590D01*
X157630527Y-156432199D01*
X157840646Y-157361190D01*
X158312810Y-156127648D01*
X159575732Y-157512990D02*
X158708189Y-157437090D01*
X159141961Y-157475040D02*
X159252649Y-156209873D01*
X159092245Y-156377961D01*
X158937113Y-156485803D01*
X158787252Y-156533399D01*
X160192487Y-156292098D02*
X161204621Y-156380648D01*
X160443276Y-157588891D01*
X157192785Y-138121034D02*
X157404400Y-138200255D01*
X157765876Y-138231881D01*
X157915738Y-138184285D01*
X157993304Y-138130363D01*
X158076141Y-138016196D01*
X158086682Y-137895704D01*
X158024929Y-137768887D01*
X157957904Y-137702316D01*
X157818585Y-137629420D01*
X157534675Y-137543874D01*
X157395355Y-137470978D01*
X157328330Y-137404407D01*
X157266577Y-137277590D01*
X157277119Y-137157097D01*
X157359955Y-137042930D01*
X157437522Y-136989009D01*
X157587383Y-136941413D01*
X157948859Y-136973038D01*
X158160474Y-137052259D01*
X158671812Y-137036288D02*
X158922601Y-138333081D01*
X159290844Y-137454690D01*
X159500963Y-138383681D01*
X159973127Y-137150139D01*
X161236049Y-138535481D02*
X160368506Y-138459581D01*
X160802278Y-138497531D02*
X160912966Y-137232364D01*
X160752562Y-137400452D01*
X160597430Y-137508294D01*
X160447569Y-137555890D01*
X162648052Y-137384164D02*
X162358871Y-137358864D01*
X162209010Y-137406460D01*
X162131443Y-137460381D01*
X161971040Y-137628470D01*
X161877662Y-137863129D01*
X161835495Y-138345097D01*
X161897248Y-138471914D01*
X161964273Y-138538485D01*
X162103593Y-138611382D01*
X162392774Y-138636682D01*
X162542635Y-138589086D01*
X162620201Y-138535165D01*
X162703038Y-138420997D01*
X162729392Y-138119767D01*
X162667639Y-137992950D01*
X162600614Y-137926379D01*
X162461295Y-137853483D01*
X162172114Y-137828183D01*
X162022252Y-137875779D01*
X161944686Y-137929700D01*
X161861849Y-138043867D01*
X158853102Y-119143524D02*
X159064717Y-119222745D01*
X159426193Y-119254371D01*
X159576055Y-119206775D01*
X159653621Y-119152853D01*
X159736458Y-119038686D01*
X159746999Y-118918194D01*
X159685246Y-118791377D01*
X159618221Y-118724806D01*
X159478902Y-118651910D01*
X159194992Y-118566364D01*
X159055672Y-118493468D01*
X158988647Y-118426897D01*
X158926894Y-118300080D01*
X158937436Y-118179587D01*
X159020272Y-118065420D01*
X159097839Y-118011499D01*
X159247700Y-117963903D01*
X159609176Y-117995528D01*
X159820791Y-118074749D01*
X160332129Y-118058778D02*
X160582918Y-119355571D01*
X160951161Y-118477180D01*
X161161280Y-119406171D01*
X161633444Y-118172629D01*
X162896366Y-119557971D02*
X162028823Y-119482071D01*
X162462595Y-119520021D02*
X162573283Y-118254854D01*
X162412879Y-118422942D01*
X162257747Y-118530784D01*
X162107886Y-118578380D01*
X164380664Y-118412979D02*
X163657712Y-118349729D01*
X163532708Y-118945865D01*
X163610274Y-118891944D01*
X163760135Y-118844348D01*
X164121612Y-118875973D01*
X164260931Y-118948869D01*
X164327956Y-119015440D01*
X164389709Y-119142257D01*
X164363355Y-119443487D01*
X164280518Y-119557655D01*
X164202952Y-119611576D01*
X164053091Y-119659172D01*
X163691614Y-119627547D01*
X163552295Y-119554650D01*
X163485270Y-119488079D01*
X144383397Y-175245894D02*
X144595012Y-175325115D01*
X144956488Y-175356741D01*
X145106350Y-175309145D01*
X145183916Y-175255223D01*
X145266753Y-175141056D01*
X145277294Y-175020564D01*
X145215541Y-174893747D01*
X145148516Y-174827176D01*
X145009197Y-174754280D01*
X144725287Y-174668734D01*
X144585967Y-174595838D01*
X144518942Y-174529267D01*
X144457189Y-174402450D01*
X144467731Y-174281957D01*
X144550567Y-174167790D01*
X144628134Y-174113869D01*
X144777995Y-174066273D01*
X145139471Y-174097898D01*
X145351086Y-174177119D01*
X145862424Y-174161148D02*
X146113213Y-175457941D01*
X146481456Y-174579550D01*
X146691575Y-175508541D01*
X147163739Y-174274999D01*
X148426661Y-175660341D02*
X147559118Y-175584441D01*
X147992890Y-175622391D02*
X148103578Y-174357224D01*
X147943174Y-174525312D01*
X147788042Y-174633154D01*
X147638181Y-174680750D01*
X149801768Y-174930747D02*
X149727976Y-175774192D01*
X149482459Y-174417153D02*
X149041919Y-175289219D01*
X149981758Y-175371444D01*
X136970039Y-150693849D02*
X137181654Y-150773070D01*
X137543130Y-150804696D01*
X137692992Y-150757100D01*
X137770558Y-150703178D01*
X137853395Y-150589011D01*
X137863936Y-150468519D01*
X137802183Y-150341702D01*
X137735158Y-150275131D01*
X137595839Y-150202235D01*
X137311929Y-150116689D01*
X137172609Y-150043793D01*
X137105584Y-149977222D01*
X137043831Y-149850405D01*
X137054373Y-149729912D01*
X137137209Y-149615745D01*
X137214776Y-149561824D01*
X137364637Y-149514228D01*
X137726113Y-149545853D01*
X137937728Y-149625074D01*
X138449066Y-149609103D02*
X138699855Y-150905896D01*
X139068098Y-150027505D01*
X139278217Y-150956496D01*
X139750381Y-149722954D01*
X141013303Y-151108296D02*
X140145760Y-151032396D01*
X140579532Y-151070346D02*
X140690220Y-149805179D01*
X140529816Y-149973267D01*
X140374684Y-150081109D01*
X140224823Y-150128705D01*
X141630058Y-149887404D02*
X142569897Y-149969629D01*
X142021663Y-150407323D01*
X142238549Y-150426298D01*
X142377868Y-150499194D01*
X142444893Y-150565765D01*
X142506646Y-150692582D01*
X142480292Y-150993812D01*
X142397455Y-151107980D01*
X142319889Y-151161901D01*
X142170028Y-151209497D01*
X141736256Y-151171547D01*
X141596936Y-151098650D01*
X141529912Y-151032079D01*
X138630356Y-131716340D02*
X138841971Y-131795561D01*
X139203447Y-131827187D01*
X139353309Y-131779591D01*
X139430875Y-131725669D01*
X139513712Y-131611502D01*
X139524253Y-131491010D01*
X139462500Y-131364193D01*
X139395475Y-131297622D01*
X139256156Y-131224726D01*
X138972246Y-131139180D01*
X138832926Y-131066284D01*
X138765901Y-130999713D01*
X138704148Y-130872896D01*
X138714690Y-130752403D01*
X138797526Y-130638236D01*
X138875093Y-130584315D01*
X139024954Y-130536719D01*
X139386430Y-130568344D01*
X139598045Y-130647565D01*
X140109383Y-130631594D02*
X140360172Y-131928387D01*
X140728415Y-131049996D01*
X140938534Y-131978987D01*
X141410698Y-130745445D01*
X142673620Y-132130787D02*
X141806077Y-132054887D01*
X142239849Y-132092837D02*
X142350537Y-130827670D01*
X142190133Y-130995758D01*
X142035001Y-131103600D01*
X141885140Y-131151196D01*
X143352129Y-131036712D02*
X143429695Y-130982791D01*
X143579556Y-130935195D01*
X143941033Y-130966820D01*
X144080352Y-131039716D01*
X144147377Y-131106288D01*
X144209130Y-131233105D01*
X144198589Y-131353597D01*
X144110481Y-131528010D01*
X143179687Y-132175062D01*
X144119526Y-132257288D01*
X140290672Y-112738831D02*
X140502287Y-112818052D01*
X140863763Y-112849678D01*
X141013625Y-112802082D01*
X141091191Y-112748160D01*
X141174028Y-112633993D01*
X141184569Y-112513501D01*
X141122816Y-112386684D01*
X141055791Y-112320113D01*
X140916472Y-112247217D01*
X140632562Y-112161671D01*
X140493242Y-112088775D01*
X140426217Y-112022204D01*
X140364464Y-111895387D01*
X140375006Y-111774894D01*
X140457842Y-111660727D01*
X140535409Y-111606806D01*
X140685270Y-111559210D01*
X141046746Y-111590835D01*
X141258361Y-111670056D01*
X141769699Y-111654085D02*
X142020488Y-112950878D01*
X142388731Y-112072487D01*
X142598850Y-113001478D01*
X143071014Y-111767936D01*
X144333936Y-113153278D02*
X143466393Y-113077378D01*
X143900165Y-113115328D02*
X144010853Y-111850161D01*
X143850449Y-112018249D01*
X143695317Y-112126091D01*
X143545456Y-112173687D01*
X145779842Y-113279779D02*
X144912299Y-113203879D01*
X145346070Y-113241829D02*
X145456758Y-111976661D01*
X145296355Y-112144749D01*
X145141223Y-112252592D01*
X144991361Y-112300188D01*
X117784990Y-151405721D02*
X117996605Y-151484942D01*
X118358081Y-151516568D01*
X118507943Y-151468972D01*
X118585509Y-151415050D01*
X118668346Y-151300883D01*
X118678887Y-151180391D01*
X118617134Y-151053574D01*
X118550109Y-150987003D01*
X118410790Y-150914107D01*
X118126880Y-150828561D01*
X117987560Y-150755665D01*
X117920535Y-150689094D01*
X117858782Y-150562277D01*
X117869324Y-150441784D01*
X117952160Y-150327617D01*
X118029727Y-150273696D01*
X118179588Y-150226100D01*
X118541064Y-150257725D01*
X118752679Y-150336946D01*
X119264017Y-150320975D02*
X119514806Y-151617768D01*
X119883049Y-150739377D01*
X120093168Y-151668368D01*
X120565332Y-150434826D01*
X121828254Y-151820168D02*
X120960711Y-151744268D01*
X121394483Y-151782218D02*
X121505171Y-150517051D01*
X121344767Y-150685139D01*
X121189635Y-150792981D01*
X121039774Y-150840577D01*
X122878781Y-150637226D02*
X123023371Y-150649876D01*
X123162691Y-150722772D01*
X123229715Y-150789344D01*
X123291469Y-150916161D01*
X123342681Y-151163470D01*
X123316327Y-151464700D01*
X123222948Y-151699359D01*
X123140111Y-151813527D01*
X123062545Y-151867448D01*
X122912683Y-151915044D01*
X122768093Y-151902394D01*
X122628773Y-151829497D01*
X122561749Y-151762926D01*
X122499995Y-151636109D01*
X122448783Y-151388800D01*
X122475138Y-151087570D01*
X122568516Y-150852911D01*
X122651353Y-150738743D01*
X122728919Y-150684822D01*
X122878781Y-150637226D01*
X120168260Y-132491463D02*
X120379875Y-132570684D01*
X120741351Y-132602309D01*
X120891212Y-132554713D01*
X120968779Y-132500792D01*
X121051615Y-132386625D01*
X121062157Y-132266132D01*
X121000404Y-132139315D01*
X120933379Y-132072744D01*
X120794059Y-131999848D01*
X120510149Y-131914302D01*
X120370830Y-131841406D01*
X120303805Y-131774835D01*
X120242052Y-131648018D01*
X120252593Y-131527526D01*
X120335430Y-131413358D01*
X120412996Y-131359437D01*
X120562858Y-131311841D01*
X120924334Y-131343466D01*
X121135949Y-131422688D01*
X121647287Y-131406717D02*
X121898075Y-132703509D01*
X122266319Y-131825118D01*
X122476438Y-132754109D01*
X122948602Y-131520567D01*
X123488571Y-132842659D02*
X123777752Y-132867959D01*
X123927614Y-132820363D01*
X124005180Y-132766442D01*
X124165583Y-132598354D01*
X124258962Y-132363695D01*
X124301128Y-131881727D01*
X124239375Y-131754909D01*
X124172350Y-131688338D01*
X124033031Y-131615442D01*
X123743850Y-131590142D01*
X123593988Y-131637738D01*
X123516422Y-131691659D01*
X123433585Y-131805826D01*
X123407231Y-132107057D01*
X123468985Y-132233874D01*
X123536009Y-132300445D01*
X123675329Y-132373341D01*
X123964510Y-132398641D01*
X124114371Y-132351045D01*
X124191937Y-132297124D01*
X124274774Y-132182957D01*
X121828577Y-113513953D02*
X122040192Y-113593174D01*
X122401668Y-113624799D01*
X122551529Y-113577203D01*
X122629096Y-113523282D01*
X122711932Y-113409115D01*
X122722474Y-113288622D01*
X122660721Y-113161805D01*
X122593696Y-113095234D01*
X122454376Y-113022338D01*
X122170466Y-112936792D01*
X122031147Y-112863896D01*
X121964122Y-112797325D01*
X121902369Y-112670508D01*
X121912910Y-112550016D01*
X121995747Y-112435848D01*
X122073313Y-112381927D01*
X122223175Y-112334331D01*
X122584651Y-112365956D01*
X122796266Y-112445178D01*
X123307604Y-112429207D02*
X123558392Y-113725999D01*
X123926636Y-112847608D01*
X124136755Y-113776599D01*
X124608919Y-112543057D01*
X125356729Y-113154847D02*
X125217409Y-113081951D01*
X125150385Y-113015380D01*
X125088631Y-112888562D01*
X125093902Y-112828316D01*
X125176739Y-112714149D01*
X125254305Y-112660228D01*
X125404167Y-112612632D01*
X125693348Y-112637932D01*
X125832667Y-112710828D01*
X125899692Y-112777399D01*
X125961445Y-112904217D01*
X125956175Y-112964463D01*
X125873338Y-113078630D01*
X125795772Y-113132551D01*
X125645910Y-113180147D01*
X125356729Y-113154847D01*
X125206868Y-113202443D01*
X125129302Y-113256364D01*
X125046465Y-113370531D01*
X125025381Y-113611515D01*
X125087135Y-113738332D01*
X125154159Y-113804903D01*
X125293479Y-113877799D01*
X125582660Y-113903099D01*
X125732521Y-113855503D01*
X125810087Y-113801582D01*
X125892924Y-113687415D01*
X125914008Y-113446431D01*
X125852254Y-113319614D01*
X125785230Y-113253043D01*
X125645910Y-113180147D01*
X92669651Y-173589943D02*
X92881266Y-173669164D01*
X93242742Y-173700789D01*
X93392603Y-173653193D01*
X93470170Y-173599272D01*
X93553006Y-173485105D01*
X93563548Y-173364612D01*
X93501795Y-173237795D01*
X93434770Y-173171224D01*
X93295450Y-173098328D01*
X93011540Y-173012782D01*
X92872221Y-172939886D01*
X92805196Y-172873315D01*
X92743443Y-172746498D01*
X92753984Y-172626006D01*
X92836821Y-172511838D01*
X92914387Y-172457917D01*
X93064249Y-172410321D01*
X93425725Y-172441946D01*
X93637340Y-172521168D01*
X94148678Y-172505197D02*
X94399466Y-173801989D01*
X94767710Y-172923598D01*
X94977829Y-173852589D01*
X95449993Y-172619047D01*
X95883764Y-172656997D02*
X96895898Y-172745547D01*
X96134553Y-173953789D01*
X99073847Y-155027470D02*
X99285462Y-155106691D01*
X99646938Y-155138316D01*
X99796799Y-155090720D01*
X99874366Y-155036799D01*
X99957202Y-154922632D01*
X99967744Y-154802139D01*
X99905991Y-154675322D01*
X99838966Y-154608751D01*
X99699646Y-154535855D01*
X99415736Y-154450309D01*
X99276417Y-154377413D01*
X99209392Y-154310842D01*
X99147639Y-154184025D01*
X99158180Y-154063533D01*
X99241017Y-153949365D01*
X99318583Y-153895444D01*
X99468445Y-153847848D01*
X99829921Y-153879473D01*
X100041536Y-153958695D01*
X100552874Y-153942724D02*
X100803662Y-155239516D01*
X101171906Y-154361125D01*
X101382025Y-155290116D01*
X101854189Y-154056574D01*
X103083208Y-154164099D02*
X102794027Y-154138799D01*
X102644166Y-154186395D01*
X102566600Y-154240316D01*
X102406197Y-154408404D01*
X102312818Y-154643064D01*
X102270651Y-155125032D01*
X102332405Y-155251849D01*
X102399429Y-155318420D01*
X102538749Y-155391316D01*
X102827930Y-155416616D01*
X102977791Y-155369020D01*
X103055357Y-155315099D01*
X103138194Y-155200932D01*
X103164549Y-154899702D01*
X103102795Y-154772885D01*
X103035771Y-154706314D01*
X102896451Y-154633418D01*
X102607270Y-154608118D01*
X102457409Y-154655714D01*
X102379842Y-154709635D01*
X102297005Y-154823802D01*
X100734244Y-136049968D02*
X100945859Y-136129189D01*
X101307335Y-136160814D01*
X101457196Y-136113218D01*
X101534763Y-136059297D01*
X101617599Y-135945130D01*
X101628141Y-135824637D01*
X101566388Y-135697820D01*
X101499363Y-135631249D01*
X101360043Y-135558353D01*
X101076133Y-135472807D01*
X100936814Y-135399911D01*
X100869789Y-135333340D01*
X100808036Y-135206523D01*
X100818577Y-135086031D01*
X100901414Y-134971863D01*
X100978980Y-134917942D01*
X101128842Y-134870346D01*
X101490318Y-134901971D01*
X101701933Y-134981193D01*
X102213271Y-134965222D02*
X102464059Y-136262014D01*
X102832303Y-135383623D01*
X103042422Y-136312614D01*
X103514586Y-135079072D01*
X104815901Y-135192922D02*
X104092948Y-135129672D01*
X103967944Y-135725808D01*
X104045510Y-135671887D01*
X104195372Y-135624291D01*
X104556848Y-135655916D01*
X104696168Y-135728812D01*
X104763192Y-135795383D01*
X104824946Y-135922200D01*
X104798591Y-136223430D01*
X104715754Y-136337597D01*
X104638188Y-136391518D01*
X104488327Y-136439114D01*
X104126851Y-136407489D01*
X103987531Y-136334593D01*
X103920507Y-136268022D01*
X102394481Y-117072452D02*
X102606096Y-117151673D01*
X102967572Y-117183298D01*
X103117433Y-117135702D01*
X103195000Y-117081781D01*
X103277836Y-116967614D01*
X103288378Y-116847121D01*
X103226625Y-116720304D01*
X103159600Y-116653733D01*
X103020280Y-116580837D01*
X102736370Y-116495291D01*
X102597051Y-116422395D01*
X102530026Y-116355824D01*
X102468273Y-116229007D01*
X102478814Y-116108515D01*
X102561651Y-115994347D01*
X102639217Y-115940426D01*
X102789079Y-115892830D01*
X103150555Y-115924455D01*
X103362170Y-116003677D01*
X103873508Y-115987706D02*
X104124296Y-117284498D01*
X104492540Y-116406107D01*
X104702659Y-117335098D01*
X105174823Y-116101556D01*
X106366946Y-116630804D02*
X106293155Y-117474249D01*
X106047637Y-116117210D02*
X105607098Y-116989276D01*
X106546936Y-117071501D01*
X80096338Y-153367153D02*
X80307953Y-153446374D01*
X80669429Y-153477999D01*
X80819290Y-153430403D01*
X80896857Y-153376482D01*
X80979693Y-153262315D01*
X80990235Y-153141822D01*
X80928482Y-153015005D01*
X80861457Y-152948434D01*
X80722137Y-152875538D01*
X80438227Y-152789992D01*
X80298908Y-152717096D01*
X80231883Y-152650525D01*
X80170130Y-152523708D01*
X80180671Y-152403216D01*
X80263508Y-152289048D01*
X80341074Y-152235127D01*
X80490936Y-152187531D01*
X80852412Y-152219156D01*
X81064027Y-152298378D01*
X81575365Y-152282407D02*
X81826153Y-153579199D01*
X82194397Y-152700808D01*
X82404516Y-153629799D01*
X82876680Y-152396257D01*
X83310451Y-152434207D02*
X84250290Y-152516432D01*
X83702056Y-152954126D01*
X83918942Y-152973101D01*
X84058262Y-153045997D01*
X84125286Y-153112568D01*
X84187040Y-153239385D01*
X84160685Y-153540615D01*
X84077848Y-153654782D01*
X84000282Y-153708703D01*
X83850421Y-153756299D01*
X83416649Y-153718349D01*
X83277330Y-153645453D01*
X83210305Y-153578882D01*
X81756655Y-134389644D02*
X81968270Y-134468865D01*
X82329746Y-134500490D01*
X82479607Y-134452894D01*
X82557174Y-134398973D01*
X82640010Y-134284806D01*
X82650552Y-134164313D01*
X82588799Y-134037496D01*
X82521774Y-133970925D01*
X82382454Y-133898029D01*
X82098544Y-133812483D01*
X81959225Y-133739587D01*
X81892200Y-133673016D01*
X81830447Y-133546199D01*
X81840988Y-133425707D01*
X81923825Y-133311539D01*
X82001391Y-133257618D01*
X82151253Y-133210022D01*
X82512729Y-133241647D01*
X82724344Y-133320869D01*
X83235682Y-133304898D02*
X83486470Y-134601690D01*
X83854714Y-133723299D01*
X84064833Y-134652290D01*
X84536997Y-133418748D01*
X85032522Y-133583515D02*
X85110088Y-133529594D01*
X85259949Y-133481998D01*
X85621426Y-133513623D01*
X85760745Y-133586519D01*
X85827770Y-133653090D01*
X85889523Y-133779908D01*
X85878982Y-133900400D01*
X85790874Y-134074813D01*
X84860081Y-134721865D01*
X85799919Y-134804091D01*
X83416972Y-115412135D02*
X83628587Y-115491356D01*
X83990063Y-115522981D01*
X84139924Y-115475385D01*
X84217491Y-115421464D01*
X84300327Y-115307297D01*
X84310869Y-115186804D01*
X84249116Y-115059987D01*
X84182091Y-114993416D01*
X84042771Y-114920520D01*
X83758861Y-114834974D01*
X83619542Y-114762078D01*
X83552517Y-114695507D01*
X83490764Y-114568690D01*
X83501305Y-114448198D01*
X83584142Y-114334030D01*
X83661708Y-114280109D01*
X83811570Y-114232513D01*
X84173046Y-114264138D01*
X84384661Y-114343360D01*
X84895999Y-114327389D02*
X85146787Y-115624181D01*
X85515031Y-114745790D01*
X85725150Y-115674781D01*
X86197314Y-114441239D01*
X87460236Y-115826582D02*
X86592693Y-115750681D01*
X87026464Y-115788631D02*
X87137152Y-114523464D01*
X86976749Y-114691552D01*
X86821617Y-114799394D01*
X86671756Y-114846990D01*
D11*
X205717239Y-134993570D02*
X205383905Y-134517380D01*
X205145810Y-134993570D02*
X205145810Y-133993570D01*
X205526762Y-133993570D01*
X205622000Y-134041190D01*
X205669620Y-134088809D01*
X205717239Y-134184047D01*
X205717239Y-134326904D01*
X205669620Y-134422142D01*
X205622000Y-134469761D01*
X205526762Y-134517380D01*
X205145810Y-134517380D01*
X206145810Y-134469761D02*
X206479143Y-134469761D01*
X206622000Y-134993570D02*
X206145810Y-134993570D01*
X206145810Y-133993570D01*
X206622000Y-133993570D01*
X207002953Y-134945951D02*
X207145810Y-134993570D01*
X207383905Y-134993570D01*
X207479143Y-134945951D01*
X207526762Y-134898332D01*
X207574381Y-134803094D01*
X207574381Y-134707856D01*
X207526762Y-134612618D01*
X207479143Y-134564999D01*
X207383905Y-134517380D01*
X207193429Y-134469761D01*
X207098191Y-134422142D01*
X207050572Y-134374523D01*
X207002953Y-134279285D01*
X207002953Y-134184047D01*
X207050572Y-134088809D01*
X207098191Y-134041190D01*
X207193429Y-133993570D01*
X207431524Y-133993570D01*
X207574381Y-134041190D01*
X208002953Y-134469761D02*
X208336286Y-134469761D01*
X208479143Y-134993570D02*
X208002953Y-134993570D01*
X208002953Y-133993570D01*
X208479143Y-133993570D01*
X208764858Y-133993570D02*
X209336286Y-133993570D01*
X209050572Y-134993570D02*
X209050572Y-133993570D01*
M02*
