G04 #@! TF.GenerationSoftware,KiCad,Pcbnew,(5.1.0)-1*
G04 #@! TF.CreationDate,2019-06-28T01:08:36+08:00*
G04 #@! TF.ProjectId,Kamaitachi,4b616d61-6974-4616-9368-692e6b696361,rev?*
G04 #@! TF.SameCoordinates,Original*
G04 #@! TF.FileFunction,Soldermask,Bot*
G04 #@! TF.FilePolarity,Negative*
%FSLAX46Y46*%
G04 Gerber Fmt 4.6, Leading zero omitted, Abs format (unit mm)*
G04 Created by KiCad (PCBNEW (5.1.0)-1) date 2019-06-28 01:08:36*
%MOMM*%
%LPD*%
G04 APERTURE LIST*
%ADD10C,0.100000*%
G04 APERTURE END LIST*
D10*
G36*
X178535584Y-183250092D02*
G01*
X178198602Y-184507727D01*
X178198601Y-184507727D01*
X177230744Y-184248390D01*
X177459600Y-183394288D01*
X177567726Y-182990755D01*
X177567727Y-182990755D01*
X178535584Y-183250092D01*
X178535584Y-183250092D01*
G37*
G36*
X175348028Y-182395990D02*
G01*
X175011046Y-183653625D01*
X175011045Y-183653625D01*
X174043188Y-183394288D01*
X174081825Y-183250092D01*
X174380170Y-182136653D01*
X174380171Y-182136653D01*
X175348028Y-182395990D01*
X175348028Y-182395990D01*
G37*
G36*
X246383607Y-179934178D02*
G01*
X246612463Y-180788280D01*
X245644606Y-181047617D01*
X245644605Y-181047617D01*
X245307623Y-179789982D01*
X246275480Y-179530645D01*
X246275481Y-179530645D01*
X246383607Y-179934178D01*
X246383607Y-179934178D01*
G37*
G36*
X249761382Y-179789982D02*
G01*
X249800019Y-179934178D01*
X248832162Y-180193515D01*
X248832161Y-180193515D01*
X248495179Y-178935880D01*
X249463036Y-178676543D01*
X249463037Y-178676543D01*
X249761382Y-179789982D01*
X249761382Y-179789982D01*
G37*
G36*
X154196888Y-176766937D02*
G01*
X154083410Y-178063983D01*
X153085222Y-177976653D01*
X153198700Y-176679607D01*
X154196888Y-176766937D01*
X154196888Y-176766937D01*
G37*
G36*
X150909446Y-176479323D02*
G01*
X150795968Y-177776369D01*
X149797780Y-177689039D01*
X149911258Y-176391993D01*
X150909446Y-176479323D01*
X150909446Y-176479323D01*
G37*
G36*
X271214925Y-177105096D02*
G01*
X270216737Y-177192426D01*
X270103259Y-175895380D01*
X271101447Y-175808050D01*
X271214925Y-177105096D01*
X271214925Y-177105096D01*
G37*
G36*
X237517671Y-174589769D02*
G01*
X237734964Y-174679775D01*
X237734966Y-174679776D01*
X237930525Y-174810445D01*
X238096835Y-174976755D01*
X238177978Y-175098193D01*
X238227505Y-175172316D01*
X238317511Y-175389609D01*
X238363395Y-175620285D01*
X238363395Y-175855485D01*
X238317511Y-176086161D01*
X238227505Y-176303454D01*
X238227504Y-176303456D01*
X238096835Y-176499015D01*
X237930525Y-176665325D01*
X237734966Y-176795994D01*
X237734965Y-176795995D01*
X237734964Y-176795995D01*
X237517671Y-176886001D01*
X237286995Y-176931885D01*
X237051795Y-176931885D01*
X236821119Y-176886001D01*
X236603826Y-176795995D01*
X236603825Y-176795995D01*
X236603824Y-176795994D01*
X236408265Y-176665325D01*
X236241955Y-176499015D01*
X236111286Y-176303456D01*
X236111285Y-176303454D01*
X236021279Y-176086161D01*
X235975395Y-175855485D01*
X235975395Y-175620285D01*
X236021279Y-175389609D01*
X236111285Y-175172316D01*
X236160813Y-175098193D01*
X236241955Y-174976755D01*
X236408265Y-174810445D01*
X236603824Y-174679776D01*
X236603826Y-174679775D01*
X236821119Y-174589769D01*
X237051795Y-174543885D01*
X237286995Y-174543885D01*
X237517671Y-174589769D01*
X237517671Y-174589769D01*
G37*
G36*
X274502367Y-176817482D02*
G01*
X273504179Y-176904812D01*
X273390701Y-175607766D01*
X274388889Y-175520436D01*
X274502367Y-176817482D01*
X274502367Y-176817482D01*
G37*
G36*
X101760189Y-175047736D02*
G01*
X101646711Y-176344782D01*
X100648523Y-176257452D01*
X100762001Y-174960406D01*
X101760189Y-175047736D01*
X101760189Y-175047736D01*
G37*
G36*
X98472747Y-174760122D02*
G01*
X98359269Y-176057168D01*
X97361081Y-175969838D01*
X97474559Y-174672792D01*
X98472747Y-174760122D01*
X98472747Y-174760122D01*
G37*
G36*
X323652621Y-175385807D02*
G01*
X322654433Y-175473137D01*
X322540955Y-174176091D01*
X323539143Y-174088761D01*
X323652621Y-175385807D01*
X323652621Y-175385807D01*
G37*
G36*
X326940063Y-175098193D02*
G01*
X325941875Y-175185523D01*
X325828397Y-173888477D01*
X326826585Y-173801147D01*
X326940063Y-175098193D01*
X326940063Y-175098193D01*
G37*
G36*
X170079352Y-172610799D02*
G01*
X170296645Y-172700805D01*
X170296647Y-172700806D01*
X170428708Y-172789047D01*
X170492206Y-172831475D01*
X170658516Y-172997785D01*
X170789186Y-173193346D01*
X170879192Y-173410639D01*
X170925076Y-173641315D01*
X170925076Y-173876515D01*
X170879192Y-174107191D01*
X170789186Y-174324484D01*
X170789185Y-174324486D01*
X170658516Y-174520045D01*
X170492206Y-174686355D01*
X170296647Y-174817024D01*
X170296646Y-174817025D01*
X170296645Y-174817025D01*
X170079352Y-174907031D01*
X169848676Y-174952915D01*
X169613476Y-174952915D01*
X169382800Y-174907031D01*
X169165507Y-174817025D01*
X169165506Y-174817025D01*
X169165505Y-174817024D01*
X168969946Y-174686355D01*
X168803636Y-174520045D01*
X168672967Y-174324486D01*
X168672966Y-174324484D01*
X168582960Y-174107191D01*
X168537076Y-173876515D01*
X168537076Y-173641315D01*
X168582960Y-173410639D01*
X168672966Y-173193346D01*
X168803636Y-172997785D01*
X168969946Y-172831475D01*
X169033444Y-172789047D01*
X169165505Y-172700806D01*
X169165507Y-172700805D01*
X169382800Y-172610799D01*
X169613476Y-172564915D01*
X169848676Y-172564915D01*
X170079352Y-172610799D01*
X170079352Y-172610799D01*
G37*
G36*
X176870381Y-171800848D02*
G01*
X177087674Y-171890854D01*
X177087676Y-171890855D01*
X177234871Y-171989208D01*
X177283235Y-172021524D01*
X177449545Y-172187834D01*
X177580215Y-172383395D01*
X177670221Y-172600688D01*
X177716105Y-172831364D01*
X177716105Y-173066564D01*
X177670221Y-173297240D01*
X177623249Y-173410639D01*
X177580214Y-173514535D01*
X177449545Y-173710094D01*
X177283235Y-173876404D01*
X177087676Y-174007073D01*
X177087675Y-174007074D01*
X177087674Y-174007074D01*
X176870381Y-174097080D01*
X176639705Y-174142964D01*
X176404505Y-174142964D01*
X176173829Y-174097080D01*
X175956536Y-174007074D01*
X175956535Y-174007074D01*
X175956534Y-174007073D01*
X175760975Y-173876404D01*
X175594665Y-173710094D01*
X175463996Y-173514535D01*
X175420961Y-173410639D01*
X175373989Y-173297240D01*
X175328105Y-173066564D01*
X175328105Y-172831364D01*
X175373989Y-172600688D01*
X175463995Y-172383395D01*
X175594665Y-172187834D01*
X175760975Y-172021524D01*
X175809339Y-171989208D01*
X175956534Y-171890855D01*
X175956536Y-171890854D01*
X176173829Y-171800848D01*
X176404505Y-171754964D01*
X176639705Y-171754964D01*
X176870381Y-171800848D01*
X176870381Y-171800848D01*
G37*
G36*
X242993900Y-170492816D02*
G01*
X243211193Y-170582822D01*
X243211195Y-170582823D01*
X243343271Y-170671074D01*
X243406754Y-170713492D01*
X243573064Y-170879802D01*
X243703734Y-171075363D01*
X243793740Y-171292656D01*
X243839624Y-171523332D01*
X243839624Y-171758532D01*
X243793740Y-171989208D01*
X243780354Y-172021524D01*
X243703733Y-172206503D01*
X243573064Y-172402062D01*
X243406754Y-172568372D01*
X243211195Y-172699041D01*
X243211194Y-172699042D01*
X243211193Y-172699042D01*
X242993900Y-172789048D01*
X242763224Y-172834932D01*
X242528024Y-172834932D01*
X242297348Y-172789048D01*
X242080055Y-172699042D01*
X242080054Y-172699042D01*
X242080053Y-172699041D01*
X241884494Y-172568372D01*
X241718184Y-172402062D01*
X241587515Y-172206503D01*
X241510894Y-172021524D01*
X241497508Y-171989208D01*
X241451624Y-171758532D01*
X241451624Y-171523332D01*
X241497508Y-171292656D01*
X241587514Y-171075363D01*
X241718184Y-170879802D01*
X241884494Y-170713492D01*
X241947977Y-170671074D01*
X242080053Y-170582823D01*
X242080055Y-170582822D01*
X242297348Y-170492816D01*
X242528024Y-170446932D01*
X242763224Y-170446932D01*
X242993900Y-170492816D01*
X242993900Y-170492816D01*
G37*
G36*
X263217460Y-168464849D02*
G01*
X263434753Y-168554855D01*
X263434755Y-168554856D01*
X263584340Y-168654806D01*
X263630314Y-168685525D01*
X263796624Y-168851835D01*
X263927294Y-169047396D01*
X264017300Y-169264689D01*
X264063184Y-169495365D01*
X264063184Y-169730565D01*
X264017300Y-169961241D01*
X263942080Y-170142838D01*
X263927293Y-170178536D01*
X263796624Y-170374095D01*
X263630314Y-170540405D01*
X263434755Y-170671074D01*
X263434754Y-170671075D01*
X263434753Y-170671075D01*
X263217460Y-170761081D01*
X262986784Y-170806965D01*
X262751584Y-170806965D01*
X262520908Y-170761081D01*
X262303615Y-170671075D01*
X262303614Y-170671075D01*
X262303613Y-170671074D01*
X262108054Y-170540405D01*
X261941744Y-170374095D01*
X261811075Y-170178536D01*
X261796288Y-170142838D01*
X261721068Y-169961241D01*
X261675184Y-169730565D01*
X261675184Y-169495365D01*
X261721068Y-169264689D01*
X261811074Y-169047396D01*
X261941744Y-168851835D01*
X262108054Y-168685525D01*
X262154028Y-168654806D01*
X262303613Y-168554856D01*
X262303615Y-168554855D01*
X262520908Y-168464849D01*
X262751584Y-168418965D01*
X262986784Y-168418965D01*
X263217460Y-168464849D01*
X263217460Y-168464849D01*
G37*
G36*
X144226289Y-167800722D02*
G01*
X144443582Y-167890728D01*
X144443584Y-167890729D01*
X144639143Y-168021398D01*
X144805453Y-168187708D01*
X144872297Y-168287746D01*
X144936123Y-168383269D01*
X145026129Y-168600562D01*
X145072013Y-168831238D01*
X145072013Y-169066438D01*
X145026129Y-169297114D01*
X144944010Y-169495365D01*
X144936122Y-169514409D01*
X144805453Y-169709968D01*
X144639143Y-169876278D01*
X144443584Y-170006947D01*
X144443583Y-170006948D01*
X144443582Y-170006948D01*
X144226289Y-170096954D01*
X143995613Y-170142838D01*
X143760413Y-170142838D01*
X143529737Y-170096954D01*
X143312444Y-170006948D01*
X143312443Y-170006948D01*
X143312442Y-170006947D01*
X143116883Y-169876278D01*
X142950573Y-169709968D01*
X142819904Y-169514409D01*
X142812016Y-169495365D01*
X142729897Y-169297114D01*
X142684013Y-169066438D01*
X142684013Y-168831238D01*
X142729897Y-168600562D01*
X142819903Y-168383269D01*
X142883730Y-168287746D01*
X142950573Y-168187708D01*
X143116883Y-168021398D01*
X143312442Y-167890729D01*
X143312444Y-167890728D01*
X143529737Y-167800722D01*
X143760413Y-167754838D01*
X143995613Y-167754838D01*
X144226289Y-167800722D01*
X144226289Y-167800722D01*
G37*
G36*
X315655155Y-166745560D02*
G01*
X315872448Y-166835566D01*
X315872450Y-166835567D01*
X316068009Y-166966236D01*
X316234319Y-167132546D01*
X316359719Y-167320219D01*
X316364989Y-167328107D01*
X316454995Y-167545400D01*
X316500879Y-167776076D01*
X316500879Y-168011276D01*
X316454995Y-168241952D01*
X316379739Y-168423636D01*
X316364988Y-168459247D01*
X316234319Y-168654806D01*
X316068009Y-168821116D01*
X315872450Y-168951785D01*
X315872449Y-168951786D01*
X315872448Y-168951786D01*
X315655155Y-169041792D01*
X315424479Y-169087676D01*
X315189279Y-169087676D01*
X314958603Y-169041792D01*
X314741310Y-168951786D01*
X314741309Y-168951786D01*
X314741308Y-168951785D01*
X314545749Y-168821116D01*
X314379439Y-168654806D01*
X314248770Y-168459247D01*
X314234019Y-168423636D01*
X314158763Y-168241952D01*
X314112879Y-168011276D01*
X314112879Y-167776076D01*
X314158763Y-167545400D01*
X314248769Y-167328107D01*
X314254040Y-167320219D01*
X314379439Y-167132546D01*
X314545749Y-166966236D01*
X314741308Y-166835567D01*
X314741310Y-166835566D01*
X314958603Y-166745560D01*
X315189279Y-166699676D01*
X315424479Y-166699676D01*
X315655155Y-166745560D01*
X315655155Y-166745560D01*
G37*
G36*
X91789590Y-166081520D02*
G01*
X92006883Y-166171526D01*
X92006885Y-166171527D01*
X92020935Y-166180915D01*
X92202444Y-166302196D01*
X92368754Y-166468506D01*
X92499424Y-166664067D01*
X92589430Y-166881360D01*
X92635314Y-167112036D01*
X92635314Y-167347236D01*
X92589430Y-167577912D01*
X92507347Y-167776077D01*
X92499423Y-167795207D01*
X92368754Y-167990766D01*
X92202444Y-168157076D01*
X92006885Y-168287745D01*
X92006884Y-168287746D01*
X92006883Y-168287746D01*
X91789590Y-168377752D01*
X91558914Y-168423636D01*
X91323714Y-168423636D01*
X91093038Y-168377752D01*
X90875745Y-168287746D01*
X90875744Y-168287746D01*
X90875743Y-168287745D01*
X90680184Y-168157076D01*
X90513874Y-167990766D01*
X90383205Y-167795207D01*
X90375281Y-167776077D01*
X90293198Y-167577912D01*
X90247314Y-167347236D01*
X90247314Y-167112036D01*
X90293198Y-166881360D01*
X90383204Y-166664067D01*
X90513874Y-166468506D01*
X90680184Y-166302196D01*
X90861693Y-166180915D01*
X90875743Y-166171527D01*
X90875745Y-166171526D01*
X91093038Y-166081520D01*
X91323714Y-166035636D01*
X91558914Y-166035636D01*
X91789590Y-166081520D01*
X91789590Y-166081520D01*
G37*
G36*
X150773501Y-165823827D02*
G01*
X150990794Y-165913833D01*
X150990796Y-165913834D01*
X151186355Y-166044503D01*
X151352665Y-166210813D01*
X151419509Y-166310851D01*
X151483335Y-166406374D01*
X151573341Y-166623667D01*
X151619225Y-166854343D01*
X151619225Y-167089543D01*
X151573341Y-167320219D01*
X151562150Y-167347236D01*
X151483334Y-167537514D01*
X151352665Y-167733073D01*
X151186355Y-167899383D01*
X150990796Y-168030052D01*
X150990795Y-168030053D01*
X150990794Y-168030053D01*
X150773501Y-168120059D01*
X150542825Y-168165943D01*
X150307625Y-168165943D01*
X150076949Y-168120059D01*
X149859656Y-168030053D01*
X149859655Y-168030053D01*
X149859654Y-168030052D01*
X149664095Y-167899383D01*
X149497785Y-167733073D01*
X149367116Y-167537514D01*
X149288300Y-167347236D01*
X149277109Y-167320219D01*
X149231225Y-167089543D01*
X149231225Y-166854343D01*
X149277109Y-166623667D01*
X149367115Y-166406374D01*
X149430942Y-166310851D01*
X149497785Y-166210813D01*
X149664095Y-166044503D01*
X149859654Y-165913834D01*
X149859656Y-165913833D01*
X150076949Y-165823827D01*
X150307625Y-165777943D01*
X150542825Y-165777943D01*
X150773501Y-165823827D01*
X150773501Y-165823827D01*
G37*
G36*
X269321920Y-165381075D02*
G01*
X269539213Y-165471081D01*
X269539215Y-165471082D01*
X269734774Y-165601751D01*
X269901084Y-165768061D01*
X269938347Y-165823828D01*
X270031754Y-165963622D01*
X270121760Y-166180915D01*
X270167644Y-166411591D01*
X270167644Y-166646791D01*
X270121760Y-166877467D01*
X270033915Y-167089542D01*
X270031753Y-167094762D01*
X269901084Y-167290321D01*
X269734774Y-167456631D01*
X269539215Y-167587300D01*
X269539214Y-167587301D01*
X269539213Y-167587301D01*
X269321920Y-167677307D01*
X269091244Y-167723191D01*
X268856044Y-167723191D01*
X268625368Y-167677307D01*
X268408075Y-167587301D01*
X268408074Y-167587301D01*
X268408073Y-167587300D01*
X268212514Y-167456631D01*
X268046204Y-167290321D01*
X267915535Y-167094762D01*
X267913373Y-167089542D01*
X267825528Y-166877467D01*
X267779644Y-166646791D01*
X267779644Y-166411591D01*
X267825528Y-166180915D01*
X267915534Y-165963622D01*
X268008942Y-165823828D01*
X268046204Y-165768061D01*
X268212514Y-165601751D01*
X268408073Y-165471082D01*
X268408075Y-165471081D01*
X268625368Y-165381075D01*
X268856044Y-165335191D01*
X269091244Y-165335191D01*
X269321920Y-165381075D01*
X269321920Y-165381075D01*
G37*
G36*
X98336802Y-164104625D02*
G01*
X98554095Y-164194631D01*
X98554097Y-164194632D01*
X98628476Y-164244331D01*
X98749656Y-164325301D01*
X98915966Y-164491611D01*
X99046636Y-164687172D01*
X99136642Y-164904465D01*
X99182526Y-165135141D01*
X99182526Y-165370341D01*
X99136642Y-165601017D01*
X99046636Y-165818310D01*
X99046635Y-165818312D01*
X98915966Y-166013871D01*
X98749656Y-166180181D01*
X98554097Y-166310850D01*
X98554096Y-166310851D01*
X98554095Y-166310851D01*
X98336802Y-166400857D01*
X98106126Y-166446741D01*
X97870926Y-166446741D01*
X97640250Y-166400857D01*
X97422957Y-166310851D01*
X97422956Y-166310851D01*
X97422955Y-166310850D01*
X97227396Y-166180181D01*
X97061086Y-166013871D01*
X96930417Y-165818312D01*
X96930416Y-165818310D01*
X96840410Y-165601017D01*
X96794526Y-165370341D01*
X96794526Y-165135141D01*
X96840410Y-164904465D01*
X96930416Y-164687172D01*
X97061086Y-164491611D01*
X97227396Y-164325301D01*
X97348576Y-164244331D01*
X97422955Y-164194632D01*
X97422957Y-164194631D01*
X97640250Y-164104625D01*
X97870926Y-164058741D01*
X98106126Y-164058741D01*
X98336802Y-164104625D01*
X98336802Y-164104625D01*
G37*
G36*
X321759615Y-163661786D02*
G01*
X321976908Y-163751792D01*
X321976910Y-163751793D01*
X322172469Y-163882462D01*
X322338779Y-164048772D01*
X322469449Y-164244333D01*
X322559455Y-164461626D01*
X322605339Y-164692302D01*
X322605339Y-164927502D01*
X322559455Y-165158178D01*
X322471574Y-165370340D01*
X322469448Y-165375473D01*
X322338779Y-165571032D01*
X322172469Y-165737342D01*
X321976910Y-165868011D01*
X321976909Y-165868012D01*
X321976908Y-165868012D01*
X321759615Y-165958018D01*
X321528939Y-166003902D01*
X321293739Y-166003902D01*
X321063063Y-165958018D01*
X320845770Y-165868012D01*
X320845769Y-165868012D01*
X320845768Y-165868011D01*
X320650209Y-165737342D01*
X320483899Y-165571032D01*
X320353230Y-165375473D01*
X320351104Y-165370340D01*
X320263223Y-165158178D01*
X320217339Y-164927502D01*
X320217339Y-164692302D01*
X320263223Y-164461626D01*
X320353229Y-164244333D01*
X320483899Y-164048772D01*
X320650209Y-163882462D01*
X320845768Y-163751793D01*
X320845770Y-163751792D01*
X321063063Y-163661786D01*
X321293739Y-163615902D01*
X321528939Y-163615902D01*
X321759615Y-163661786D01*
X321759615Y-163661786D01*
G37*
G36*
X211020100Y-161623330D02*
G01*
X210018100Y-161623330D01*
X210018100Y-160321330D01*
X211020100Y-160321330D01*
X211020100Y-161623330D01*
X211020100Y-161623330D01*
G37*
G36*
X214320100Y-161623330D02*
G01*
X213318100Y-161623330D01*
X213318100Y-160321330D01*
X214320100Y-160321330D01*
X214320100Y-161623330D01*
X214320100Y-161623330D01*
G37*
G36*
X184323468Y-160279904D02*
G01*
X184209990Y-161576950D01*
X183211802Y-161489620D01*
X183325280Y-160192574D01*
X184323468Y-160279904D01*
X184323468Y-160279904D01*
G37*
G36*
X181036026Y-159992290D02*
G01*
X180922548Y-161289336D01*
X179924360Y-161202006D01*
X180037838Y-159904960D01*
X181036026Y-159992290D01*
X181036026Y-159992290D01*
G37*
G36*
X241088345Y-160618062D02*
G01*
X240090157Y-160705392D01*
X239976679Y-159408346D01*
X240974867Y-159321016D01*
X241088345Y-160618062D01*
X241088345Y-160618062D01*
G37*
G36*
X244375787Y-160330448D02*
G01*
X243377599Y-160417778D01*
X243264121Y-159120732D01*
X244262309Y-159033402D01*
X244375787Y-160330448D01*
X244375787Y-160330448D01*
G37*
G36*
X165345959Y-158619587D02*
G01*
X165232481Y-159916633D01*
X164234293Y-159829303D01*
X164347771Y-158532257D01*
X165345959Y-158619587D01*
X165345959Y-158619587D01*
G37*
G36*
X162058517Y-158331973D02*
G01*
X161945039Y-159629019D01*
X160946851Y-159541689D01*
X161060329Y-158244643D01*
X162058517Y-158331973D01*
X162058517Y-158331973D01*
G37*
G36*
X260065854Y-158957745D02*
G01*
X259067666Y-159045075D01*
X258954188Y-157748029D01*
X259952376Y-157660699D01*
X260065854Y-158957745D01*
X260065854Y-158957745D01*
G37*
G36*
X263353296Y-158670131D02*
G01*
X262355108Y-158757461D01*
X262241630Y-157460415D01*
X263239818Y-157373085D01*
X263353296Y-158670131D01*
X263353296Y-158670131D01*
G37*
G36*
X108164385Y-156485262D02*
G01*
X108050907Y-157782308D01*
X107052719Y-157694978D01*
X107166197Y-156397932D01*
X108164385Y-156485262D01*
X108164385Y-156485262D01*
G37*
G36*
X104876943Y-156197648D02*
G01*
X104763465Y-157494694D01*
X103765277Y-157407364D01*
X103878755Y-156110318D01*
X104876943Y-156197648D01*
X104876943Y-156197648D01*
G37*
G36*
X317247428Y-156823421D02*
G01*
X316249240Y-156910751D01*
X316135762Y-155613705D01*
X317133950Y-155526375D01*
X317247428Y-156823421D01*
X317247428Y-156823421D01*
G37*
G36*
X320534870Y-156535807D02*
G01*
X319536682Y-156623137D01*
X319423204Y-155326091D01*
X320421392Y-155238761D01*
X320534870Y-156535807D01*
X320534870Y-156535807D01*
G37*
G36*
X89186876Y-154824945D02*
G01*
X89073398Y-156121991D01*
X88075210Y-156034661D01*
X88188688Y-154737615D01*
X89186876Y-154824945D01*
X89186876Y-154824945D01*
G37*
G36*
X85899434Y-154537331D02*
G01*
X85785956Y-155834377D01*
X84787768Y-155747047D01*
X84901246Y-154450001D01*
X85899434Y-154537331D01*
X85899434Y-154537331D01*
G37*
G36*
X336224937Y-155163104D02*
G01*
X335226749Y-155250434D01*
X335113271Y-153953388D01*
X336111459Y-153866058D01*
X336224937Y-155163104D01*
X336224937Y-155163104D01*
G37*
G36*
X339512379Y-154875490D02*
G01*
X338514191Y-154962820D01*
X338400713Y-153665774D01*
X339398901Y-153578444D01*
X339512379Y-154875490D01*
X339512379Y-154875490D01*
G37*
G36*
X203707376Y-152284214D02*
G01*
X203924669Y-152374220D01*
X203924671Y-152374221D01*
X204120230Y-152504890D01*
X204286540Y-152671200D01*
X204357671Y-152777654D01*
X204417210Y-152866761D01*
X204507216Y-153084054D01*
X204553100Y-153314730D01*
X204553100Y-153549930D01*
X204507216Y-153780606D01*
X204442768Y-153936196D01*
X204417209Y-153997901D01*
X204286540Y-154193460D01*
X204120230Y-154359770D01*
X203924671Y-154490439D01*
X203924670Y-154490440D01*
X203924669Y-154490440D01*
X203707376Y-154580446D01*
X203476700Y-154626330D01*
X203241500Y-154626330D01*
X203010824Y-154580446D01*
X202793531Y-154490440D01*
X202793530Y-154490440D01*
X202793529Y-154490439D01*
X202597970Y-154359770D01*
X202431660Y-154193460D01*
X202300991Y-153997901D01*
X202275432Y-153936196D01*
X202210984Y-153780606D01*
X202165100Y-153549930D01*
X202165100Y-153314730D01*
X202210984Y-153084054D01*
X202300990Y-152866761D01*
X202360530Y-152777654D01*
X202431660Y-152671200D01*
X202597970Y-152504890D01*
X202793529Y-152374221D01*
X202793531Y-152374220D01*
X203010824Y-152284214D01*
X203241500Y-152238330D01*
X203476700Y-152238330D01*
X203707376Y-152284214D01*
X203707376Y-152284214D01*
G37*
G36*
X233090880Y-151977815D02*
G01*
X233277720Y-152055207D01*
X233308175Y-152067822D01*
X233503734Y-152198491D01*
X233670044Y-152364801D01*
X233795007Y-152551820D01*
X233800714Y-152560362D01*
X233890720Y-152777655D01*
X233936604Y-153008331D01*
X233936604Y-153243531D01*
X233890720Y-153474207D01*
X233815500Y-153655804D01*
X233800713Y-153691502D01*
X233670044Y-153887061D01*
X233503734Y-154053371D01*
X233308175Y-154184040D01*
X233308174Y-154184041D01*
X233308173Y-154184041D01*
X233090880Y-154274047D01*
X232860204Y-154319931D01*
X232625004Y-154319931D01*
X232394328Y-154274047D01*
X232177035Y-154184041D01*
X232177034Y-154184041D01*
X232177033Y-154184040D01*
X231981474Y-154053371D01*
X231815164Y-153887061D01*
X231684495Y-153691502D01*
X231669708Y-153655804D01*
X231594488Y-153474207D01*
X231548604Y-153243531D01*
X231548604Y-153008331D01*
X231594488Y-152777655D01*
X231684494Y-152560362D01*
X231690202Y-152551820D01*
X231815164Y-152364801D01*
X231981474Y-152198491D01*
X232177033Y-152067822D01*
X232207488Y-152055207D01*
X232394328Y-151977815D01*
X232625004Y-151931931D01*
X232860204Y-151931931D01*
X233090880Y-151977815D01*
X233090880Y-151977815D01*
G37*
G36*
X127598481Y-152926764D02*
G01*
X127485003Y-154223810D01*
X126486815Y-154136480D01*
X126600293Y-152839434D01*
X127598481Y-152926764D01*
X127598481Y-152926764D01*
G37*
G36*
X124311039Y-152639150D02*
G01*
X124197561Y-153936196D01*
X123199373Y-153848866D01*
X123312851Y-152551820D01*
X124311039Y-152639150D01*
X124311039Y-152639150D01*
G37*
G36*
X174352869Y-151313688D02*
G01*
X174570162Y-151403694D01*
X174570164Y-151403695D01*
X174765723Y-151534364D01*
X174932033Y-151700674D01*
X175007683Y-151813891D01*
X175062703Y-151896235D01*
X175152709Y-152113528D01*
X175198593Y-152344204D01*
X175198593Y-152579404D01*
X175152709Y-152810080D01*
X175083440Y-152977309D01*
X175062702Y-153027375D01*
X174932033Y-153222934D01*
X174765723Y-153389244D01*
X174570164Y-153519913D01*
X174570163Y-153519914D01*
X174570162Y-153519914D01*
X174352869Y-153609920D01*
X174122193Y-153655804D01*
X173886993Y-153655804D01*
X173656317Y-153609920D01*
X173439024Y-153519914D01*
X173439023Y-153519914D01*
X173439022Y-153519913D01*
X173243463Y-153389244D01*
X173077153Y-153222934D01*
X172946484Y-153027375D01*
X172925746Y-152977309D01*
X172856477Y-152810080D01*
X172810593Y-152579404D01*
X172810593Y-152344204D01*
X172856477Y-152113528D01*
X172946483Y-151896235D01*
X173001504Y-151813891D01*
X173077153Y-151700674D01*
X173243463Y-151534364D01*
X173439022Y-151403695D01*
X173439024Y-151403694D01*
X173656317Y-151313688D01*
X173886993Y-151267804D01*
X174122193Y-151267804D01*
X174352869Y-151313688D01*
X174352869Y-151313688D01*
G37*
G36*
X146783529Y-152214892D02*
G01*
X146670051Y-153511938D01*
X145671863Y-153424608D01*
X145785341Y-152127562D01*
X146783529Y-152214892D01*
X146783529Y-152214892D01*
G37*
G36*
X297813332Y-153264923D02*
G01*
X296815144Y-153352253D01*
X296701666Y-152055207D01*
X297699854Y-151967877D01*
X297813332Y-153264923D01*
X297813332Y-153264923D01*
G37*
G36*
X143496087Y-151927278D02*
G01*
X143382609Y-153224324D01*
X142384421Y-153136994D01*
X142497899Y-151839948D01*
X143496087Y-151927278D01*
X143496087Y-151927278D01*
G37*
G36*
X301100774Y-152977309D02*
G01*
X300102586Y-153064639D01*
X299989108Y-151767593D01*
X300987296Y-151680263D01*
X301100774Y-152977309D01*
X301100774Y-152977309D01*
G37*
G36*
X252068389Y-150317498D02*
G01*
X252285682Y-150407504D01*
X252285684Y-150407505D01*
X252481243Y-150538174D01*
X252647553Y-150704484D01*
X252733549Y-150833185D01*
X252778223Y-150900045D01*
X252868229Y-151117338D01*
X252914113Y-151348014D01*
X252914113Y-151583214D01*
X252868229Y-151813890D01*
X252811668Y-151950439D01*
X252778222Y-152031185D01*
X252647553Y-152226744D01*
X252481243Y-152393054D01*
X252285684Y-152523723D01*
X252285683Y-152523724D01*
X252285682Y-152523724D01*
X252068389Y-152613730D01*
X251837713Y-152659614D01*
X251602513Y-152659614D01*
X251371837Y-152613730D01*
X251154544Y-152523724D01*
X251154543Y-152523724D01*
X251154542Y-152523723D01*
X250958983Y-152393054D01*
X250792673Y-152226744D01*
X250662004Y-152031185D01*
X250628558Y-151950439D01*
X250571997Y-151813890D01*
X250526113Y-151583214D01*
X250526113Y-151348014D01*
X250571997Y-151117338D01*
X250662003Y-150900045D01*
X250706678Y-150833185D01*
X250792673Y-150704484D01*
X250958983Y-150538174D01*
X251154542Y-150407505D01*
X251154544Y-150407504D01*
X251371837Y-150317498D01*
X251602513Y-150271614D01*
X251837713Y-150271614D01*
X252068389Y-150317498D01*
X252068389Y-150317498D01*
G37*
G36*
X278628284Y-152553051D02*
G01*
X277630096Y-152640381D01*
X277516618Y-151343335D01*
X278514806Y-151256005D01*
X278628284Y-152553051D01*
X278628284Y-152553051D01*
G37*
G36*
X281915726Y-152265437D02*
G01*
X280917538Y-152352767D01*
X280804060Y-151055721D01*
X281802248Y-150968391D01*
X281915726Y-152265437D01*
X281915726Y-152265437D01*
G37*
G36*
X210057376Y-149744214D02*
G01*
X210274669Y-149834220D01*
X210274671Y-149834221D01*
X210470230Y-149964890D01*
X210636540Y-150131200D01*
X210761022Y-150317499D01*
X210767210Y-150326761D01*
X210857216Y-150544054D01*
X210903100Y-150774730D01*
X210903100Y-151009930D01*
X210857216Y-151240606D01*
X210789662Y-151403695D01*
X210767209Y-151457901D01*
X210636540Y-151653460D01*
X210470230Y-151819770D01*
X210274671Y-151950439D01*
X210274670Y-151950440D01*
X210274669Y-151950440D01*
X210057376Y-152040446D01*
X209826700Y-152086330D01*
X209591500Y-152086330D01*
X209360824Y-152040446D01*
X209143531Y-151950440D01*
X209143530Y-151950440D01*
X209143529Y-151950439D01*
X208947970Y-151819770D01*
X208781660Y-151653460D01*
X208650991Y-151457901D01*
X208628538Y-151403695D01*
X208560984Y-151240606D01*
X208515100Y-151009930D01*
X208515100Y-150774730D01*
X208560984Y-150544054D01*
X208650990Y-150326761D01*
X208657179Y-150317499D01*
X208781660Y-150131200D01*
X208947970Y-149964890D01*
X209143529Y-149834221D01*
X209143531Y-149834220D01*
X209360824Y-149744214D01*
X209591500Y-149698330D01*
X209826700Y-149698330D01*
X210057376Y-149744214D01*
X210057376Y-149744214D01*
G37*
G36*
X155375360Y-149653371D02*
G01*
X155548946Y-149725273D01*
X155592655Y-149743378D01*
X155788214Y-149874047D01*
X155954524Y-150040357D01*
X156015224Y-150131200D01*
X156085194Y-150235918D01*
X156175200Y-150453211D01*
X156221084Y-150683887D01*
X156221084Y-150919087D01*
X156175200Y-151149763D01*
X156093081Y-151348014D01*
X156085193Y-151367058D01*
X155954524Y-151562617D01*
X155788214Y-151728927D01*
X155592655Y-151859596D01*
X155592654Y-151859597D01*
X155592653Y-151859597D01*
X155375360Y-151949603D01*
X155144684Y-151995487D01*
X154909484Y-151995487D01*
X154678808Y-151949603D01*
X154461515Y-151859597D01*
X154461514Y-151859597D01*
X154461513Y-151859596D01*
X154265954Y-151728927D01*
X154099644Y-151562617D01*
X153968975Y-151367058D01*
X153961087Y-151348014D01*
X153878968Y-151149763D01*
X153833084Y-150919087D01*
X153833084Y-150683887D01*
X153878968Y-150453211D01*
X153968974Y-150235918D01*
X154038945Y-150131200D01*
X154099644Y-150040357D01*
X154265954Y-149874047D01*
X154461513Y-149743378D01*
X154505222Y-149725273D01*
X154678808Y-149653371D01*
X154909484Y-149607487D01*
X155144684Y-149607487D01*
X155375360Y-149653371D01*
X155375360Y-149653371D01*
G37*
G36*
X180900081Y-149336793D02*
G01*
X181117374Y-149426799D01*
X181117376Y-149426800D01*
X181312935Y-149557469D01*
X181479245Y-149723779D01*
X181571043Y-149861163D01*
X181609915Y-149919340D01*
X181699921Y-150136633D01*
X181745805Y-150367309D01*
X181745805Y-150602509D01*
X181699921Y-150833185D01*
X181609915Y-151050478D01*
X181609914Y-151050480D01*
X181479245Y-151246039D01*
X181312935Y-151412349D01*
X181117376Y-151543018D01*
X181117375Y-151543019D01*
X181117374Y-151543019D01*
X180900081Y-151633025D01*
X180669405Y-151678909D01*
X180434205Y-151678909D01*
X180203529Y-151633025D01*
X179986236Y-151543019D01*
X179986235Y-151543019D01*
X179986234Y-151543018D01*
X179790675Y-151412349D01*
X179624365Y-151246039D01*
X179493696Y-151050480D01*
X179493695Y-151050478D01*
X179403689Y-150833185D01*
X179357805Y-150602509D01*
X179357805Y-150367309D01*
X179403689Y-150136633D01*
X179493695Y-149919340D01*
X179532568Y-149861163D01*
X179624365Y-149723779D01*
X179790675Y-149557469D01*
X179986234Y-149426800D01*
X179986236Y-149426799D01*
X180203529Y-149336793D01*
X180434205Y-149290909D01*
X180669405Y-149290909D01*
X180900081Y-149336793D01*
X180900081Y-149336793D01*
G37*
G36*
X239195340Y-148894041D02*
G01*
X239410139Y-148983014D01*
X239412635Y-148984048D01*
X239608194Y-149114717D01*
X239774504Y-149281027D01*
X239811767Y-149336794D01*
X239905174Y-149476588D01*
X239995180Y-149693881D01*
X240041064Y-149924557D01*
X240041064Y-150159757D01*
X239995180Y-150390433D01*
X239969176Y-150453211D01*
X239905173Y-150607728D01*
X239774504Y-150803287D01*
X239608194Y-150969597D01*
X239412635Y-151100266D01*
X239412634Y-151100267D01*
X239412633Y-151100267D01*
X239195340Y-151190273D01*
X238964664Y-151236157D01*
X238729464Y-151236157D01*
X238498788Y-151190273D01*
X238281495Y-151100267D01*
X238281494Y-151100267D01*
X238281493Y-151100266D01*
X238085934Y-150969597D01*
X237919624Y-150803287D01*
X237788955Y-150607728D01*
X237724952Y-150453211D01*
X237698948Y-150390433D01*
X237653064Y-150159757D01*
X237653064Y-149924557D01*
X237698948Y-149693881D01*
X237788954Y-149476588D01*
X237882362Y-149336794D01*
X237919624Y-149281027D01*
X238085934Y-149114717D01*
X238281493Y-148984048D01*
X238283989Y-148983014D01*
X238498788Y-148894041D01*
X238729464Y-148848157D01*
X238964664Y-148848157D01*
X239195340Y-148894041D01*
X239195340Y-148894041D01*
G37*
G36*
X309249963Y-148183174D02*
G01*
X309445675Y-148264241D01*
X309467258Y-148273181D01*
X309662817Y-148403850D01*
X309829127Y-148570160D01*
X309936007Y-148730116D01*
X309959797Y-148765721D01*
X310049803Y-148983014D01*
X310095687Y-149213690D01*
X310095687Y-149448890D01*
X310049803Y-149679566D01*
X309974583Y-149861163D01*
X309959796Y-149896861D01*
X309829127Y-150092420D01*
X309662817Y-150258730D01*
X309467258Y-150389399D01*
X309467257Y-150389400D01*
X309467256Y-150389400D01*
X309249963Y-150479406D01*
X309019287Y-150525290D01*
X308784087Y-150525290D01*
X308553411Y-150479406D01*
X308336118Y-150389400D01*
X308336117Y-150389400D01*
X308336116Y-150389399D01*
X308140557Y-150258730D01*
X307974247Y-150092420D01*
X307843578Y-149896861D01*
X307828791Y-149861163D01*
X307753571Y-149679566D01*
X307707687Y-149448890D01*
X307707687Y-149213690D01*
X307753571Y-148983014D01*
X307843577Y-148765721D01*
X307867368Y-148730116D01*
X307974247Y-148570160D01*
X308140557Y-148403850D01*
X308336116Y-148273181D01*
X308357699Y-148264241D01*
X308553411Y-148183174D01*
X308784087Y-148137290D01*
X309019287Y-148137290D01*
X309249963Y-148183174D01*
X309249963Y-148183174D01*
G37*
G36*
X161922572Y-147676476D02*
G01*
X162096158Y-147748378D01*
X162139867Y-147766483D01*
X162335426Y-147897152D01*
X162501736Y-148063462D01*
X162593534Y-148200846D01*
X162632406Y-148259023D01*
X162722412Y-148476316D01*
X162768296Y-148706992D01*
X162768296Y-148942192D01*
X162722412Y-149172868D01*
X162665908Y-149309280D01*
X162632405Y-149390163D01*
X162501736Y-149585722D01*
X162335426Y-149752032D01*
X162139867Y-149882701D01*
X162139866Y-149882702D01*
X162139865Y-149882702D01*
X161922572Y-149972708D01*
X161691896Y-150018592D01*
X161456696Y-150018592D01*
X161226020Y-149972708D01*
X161008727Y-149882702D01*
X161008726Y-149882702D01*
X161008725Y-149882701D01*
X160813166Y-149752032D01*
X160646856Y-149585722D01*
X160516187Y-149390163D01*
X160482684Y-149309280D01*
X160426180Y-149172868D01*
X160380296Y-148942192D01*
X160380296Y-148706992D01*
X160426180Y-148476316D01*
X160516186Y-148259023D01*
X160555059Y-148200846D01*
X160646856Y-148063462D01*
X160813166Y-147897152D01*
X161008725Y-147766483D01*
X161052434Y-147748378D01*
X161226020Y-147676476D01*
X161456696Y-147630592D01*
X161691896Y-147630592D01*
X161922572Y-147676476D01*
X161922572Y-147676476D01*
G37*
G36*
X98193786Y-147519047D02*
G01*
X98411079Y-147609053D01*
X98411081Y-147609054D01*
X98606640Y-147739723D01*
X98772950Y-147906033D01*
X98848600Y-148019250D01*
X98903620Y-148101594D01*
X98993626Y-148318887D01*
X99039510Y-148549563D01*
X99039510Y-148784763D01*
X98993626Y-149015439D01*
X98928416Y-149172869D01*
X98903619Y-149232734D01*
X98772950Y-149428293D01*
X98606640Y-149594603D01*
X98411081Y-149725272D01*
X98411080Y-149725273D01*
X98411079Y-149725273D01*
X98193786Y-149815279D01*
X97963110Y-149861163D01*
X97727910Y-149861163D01*
X97497234Y-149815279D01*
X97279941Y-149725273D01*
X97279940Y-149725273D01*
X97279939Y-149725272D01*
X97084380Y-149594603D01*
X96918070Y-149428293D01*
X96787401Y-149232734D01*
X96762604Y-149172869D01*
X96697394Y-149015439D01*
X96651510Y-148784763D01*
X96651510Y-148549563D01*
X96697394Y-148318887D01*
X96787400Y-148101594D01*
X96842421Y-148019250D01*
X96918070Y-147906033D01*
X97084380Y-147739723D01*
X97279939Y-147609054D01*
X97279941Y-147609053D01*
X97497234Y-147519047D01*
X97727910Y-147473163D01*
X97963110Y-147473163D01*
X98193786Y-147519047D01*
X98193786Y-147519047D01*
G37*
G36*
X258172849Y-147233724D02*
G01*
X258387648Y-147322697D01*
X258390144Y-147323731D01*
X258585703Y-147454400D01*
X258752013Y-147620710D01*
X258789276Y-147676477D01*
X258882683Y-147816271D01*
X258972689Y-148033564D01*
X259018573Y-148264240D01*
X259018573Y-148499440D01*
X258972689Y-148730116D01*
X258916829Y-148864973D01*
X258882682Y-148947411D01*
X258752013Y-149142970D01*
X258585703Y-149309280D01*
X258390144Y-149439949D01*
X258390143Y-149439950D01*
X258390142Y-149439950D01*
X258172849Y-149529956D01*
X257942173Y-149575840D01*
X257706973Y-149575840D01*
X257476297Y-149529956D01*
X257259004Y-149439950D01*
X257259003Y-149439950D01*
X257259002Y-149439949D01*
X257063443Y-149309280D01*
X256897133Y-149142970D01*
X256766464Y-148947411D01*
X256732317Y-148864973D01*
X256676457Y-148730116D01*
X256630573Y-148499440D01*
X256630573Y-148264240D01*
X256676457Y-148033564D01*
X256766463Y-147816271D01*
X256859871Y-147676477D01*
X256897133Y-147620710D01*
X257063443Y-147454400D01*
X257259002Y-147323731D01*
X257261498Y-147322697D01*
X257476297Y-147233724D01*
X257706973Y-147187840D01*
X257942173Y-147187840D01*
X258172849Y-147233724D01*
X258172849Y-147233724D01*
G37*
G36*
X328227472Y-146522857D02*
G01*
X328444765Y-146612863D01*
X328444767Y-146612864D01*
X328640326Y-146743533D01*
X328806636Y-146909843D01*
X328892632Y-147038544D01*
X328937306Y-147105404D01*
X329027312Y-147322697D01*
X329073196Y-147553373D01*
X329073196Y-147788573D01*
X329027312Y-148019249D01*
X328959412Y-148183174D01*
X328937305Y-148236544D01*
X328806636Y-148432103D01*
X328640326Y-148598413D01*
X328444767Y-148729082D01*
X328444766Y-148729083D01*
X328444765Y-148729083D01*
X328227472Y-148819089D01*
X327996796Y-148864973D01*
X327761596Y-148864973D01*
X327530920Y-148819089D01*
X327313627Y-148729083D01*
X327313626Y-148729083D01*
X327313625Y-148729082D01*
X327118066Y-148598413D01*
X326951756Y-148432103D01*
X326821087Y-148236544D01*
X326798980Y-148183174D01*
X326731080Y-148019249D01*
X326685196Y-147788573D01*
X326685196Y-147553373D01*
X326731080Y-147322697D01*
X326821086Y-147105404D01*
X326865761Y-147038544D01*
X326951756Y-146909843D01*
X327118066Y-146743533D01*
X327313625Y-146612864D01*
X327313627Y-146612863D01*
X327530920Y-146522857D01*
X327761596Y-146476973D01*
X327996796Y-146476973D01*
X328227472Y-146522857D01*
X328227472Y-146522857D01*
G37*
G36*
X79216277Y-145858730D02*
G01*
X79314076Y-145899240D01*
X79433572Y-145948737D01*
X79564327Y-146036105D01*
X79629131Y-146079406D01*
X79795441Y-146245716D01*
X79926111Y-146441277D01*
X80016117Y-146658570D01*
X80062001Y-146889246D01*
X80062001Y-147124446D01*
X80016117Y-147355122D01*
X79948217Y-147519047D01*
X79926110Y-147572417D01*
X79795441Y-147767976D01*
X79629131Y-147934286D01*
X79433572Y-148064955D01*
X79433571Y-148064956D01*
X79433570Y-148064956D01*
X79216277Y-148154962D01*
X78985601Y-148200846D01*
X78750401Y-148200846D01*
X78519725Y-148154962D01*
X78302432Y-148064956D01*
X78302431Y-148064956D01*
X78302430Y-148064955D01*
X78106871Y-147934286D01*
X77940561Y-147767976D01*
X77809892Y-147572417D01*
X77787785Y-147519047D01*
X77719885Y-147355122D01*
X77674001Y-147124446D01*
X77674001Y-146889246D01*
X77719885Y-146658570D01*
X77809891Y-146441277D01*
X77940561Y-146245716D01*
X78106871Y-146079406D01*
X78171675Y-146036105D01*
X78302430Y-145948737D01*
X78421926Y-145899240D01*
X78519725Y-145858730D01*
X78750401Y-145812846D01*
X78985601Y-145812846D01*
X79216277Y-145858730D01*
X79216277Y-145858730D01*
G37*
G36*
X104740998Y-145542152D02*
G01*
X104958291Y-145632158D01*
X104958293Y-145632159D01*
X105153852Y-145762828D01*
X105320162Y-145929138D01*
X105447044Y-146119029D01*
X105450832Y-146124699D01*
X105540838Y-146341992D01*
X105586722Y-146572668D01*
X105586722Y-146807868D01*
X105540838Y-147038544D01*
X105459991Y-147233725D01*
X105450831Y-147255839D01*
X105320162Y-147451398D01*
X105153852Y-147617708D01*
X104958293Y-147748377D01*
X104958292Y-147748378D01*
X104958291Y-147748378D01*
X104740998Y-147838384D01*
X104510322Y-147884268D01*
X104275122Y-147884268D01*
X104044446Y-147838384D01*
X103827153Y-147748378D01*
X103827152Y-147748378D01*
X103827151Y-147748377D01*
X103631592Y-147617708D01*
X103465282Y-147451398D01*
X103334613Y-147255839D01*
X103325453Y-147233725D01*
X103244606Y-147038544D01*
X103198722Y-146807868D01*
X103198722Y-146572668D01*
X103244606Y-146341992D01*
X103334612Y-146124699D01*
X103338401Y-146119029D01*
X103465282Y-145929138D01*
X103631592Y-145762828D01*
X103827151Y-145632159D01*
X103827153Y-145632158D01*
X104044446Y-145542152D01*
X104275122Y-145496268D01*
X104510322Y-145496268D01*
X104740998Y-145542152D01*
X104740998Y-145542152D01*
G37*
G36*
X315354423Y-145099400D02*
G01*
X315571716Y-145189406D01*
X315571718Y-145189407D01*
X315767277Y-145320076D01*
X315933587Y-145486386D01*
X316059104Y-145674234D01*
X316064257Y-145681947D01*
X316154263Y-145899240D01*
X316200147Y-146129916D01*
X316200147Y-146365116D01*
X316154263Y-146595792D01*
X316128259Y-146658570D01*
X316064256Y-146813087D01*
X315933587Y-147008646D01*
X315767277Y-147174956D01*
X315571718Y-147305625D01*
X315571717Y-147305626D01*
X315571716Y-147305626D01*
X315354423Y-147395632D01*
X315123747Y-147441516D01*
X314888547Y-147441516D01*
X314657871Y-147395632D01*
X314440578Y-147305626D01*
X314440577Y-147305626D01*
X314440576Y-147305625D01*
X314245017Y-147174956D01*
X314078707Y-147008646D01*
X313948038Y-146813087D01*
X313884035Y-146658570D01*
X313858031Y-146595792D01*
X313812147Y-146365116D01*
X313812147Y-146129916D01*
X313858031Y-145899240D01*
X313948037Y-145681947D01*
X313953191Y-145674234D01*
X314078707Y-145486386D01*
X314245017Y-145320076D01*
X314440576Y-145189407D01*
X314440578Y-145189406D01*
X314657871Y-145099400D01*
X314888547Y-145053516D01*
X315123747Y-145053516D01*
X315354423Y-145099400D01*
X315354423Y-145099400D01*
G37*
G36*
X289815867Y-144624676D02*
G01*
X290033160Y-144714682D01*
X290033162Y-144714683D01*
X290228721Y-144845352D01*
X290395031Y-145011662D01*
X290506523Y-145178520D01*
X290525701Y-145207223D01*
X290615707Y-145424516D01*
X290661591Y-145655192D01*
X290661591Y-145890392D01*
X290615707Y-146121068D01*
X290540487Y-146302665D01*
X290525700Y-146338363D01*
X290395031Y-146533922D01*
X290228721Y-146700232D01*
X290033162Y-146830901D01*
X290033161Y-146830902D01*
X290033160Y-146830902D01*
X289815867Y-146920908D01*
X289585191Y-146966792D01*
X289349991Y-146966792D01*
X289119315Y-146920908D01*
X288902022Y-146830902D01*
X288902021Y-146830902D01*
X288902020Y-146830901D01*
X288706461Y-146700232D01*
X288540151Y-146533922D01*
X288409482Y-146338363D01*
X288394695Y-146302665D01*
X288319475Y-146121068D01*
X288273591Y-145890392D01*
X288273591Y-145655192D01*
X288319475Y-145424516D01*
X288409481Y-145207223D01*
X288428660Y-145178520D01*
X288540151Y-145011662D01*
X288706461Y-144845352D01*
X288902020Y-144714683D01*
X288902022Y-144714682D01*
X289119315Y-144624676D01*
X289349991Y-144578792D01*
X289585191Y-144578792D01*
X289815867Y-144624676D01*
X289815867Y-144624676D01*
G37*
G36*
X117627882Y-143960549D02*
G01*
X117845175Y-144050555D01*
X117845177Y-144050556D01*
X118040736Y-144181225D01*
X118207046Y-144347535D01*
X118318538Y-144514393D01*
X118337716Y-144543096D01*
X118427722Y-144760389D01*
X118473606Y-144991065D01*
X118473606Y-145226265D01*
X118427722Y-145456941D01*
X118349697Y-145645309D01*
X118337715Y-145674236D01*
X118207046Y-145869795D01*
X118040736Y-146036105D01*
X117845177Y-146166774D01*
X117845176Y-146166775D01*
X117845175Y-146166775D01*
X117627882Y-146256781D01*
X117397206Y-146302665D01*
X117162006Y-146302665D01*
X116931330Y-146256781D01*
X116714037Y-146166775D01*
X116714036Y-146166775D01*
X116714035Y-146166774D01*
X116518476Y-146036105D01*
X116352166Y-145869795D01*
X116221497Y-145674236D01*
X116209515Y-145645309D01*
X116131490Y-145456941D01*
X116085606Y-145226265D01*
X116085606Y-144991065D01*
X116131490Y-144760389D01*
X116221496Y-144543096D01*
X116240675Y-144514393D01*
X116352166Y-144347535D01*
X116518476Y-144181225D01*
X116714035Y-144050556D01*
X116714037Y-144050555D01*
X116931330Y-143960549D01*
X117162006Y-143914665D01*
X117397206Y-143914665D01*
X117627882Y-143960549D01*
X117627882Y-143960549D01*
G37*
G36*
X270630818Y-143912804D02*
G01*
X270848111Y-144002810D01*
X270848113Y-144002811D01*
X270997324Y-144102511D01*
X271043672Y-144133480D01*
X271209982Y-144299790D01*
X271340652Y-144495351D01*
X271430658Y-144712644D01*
X271476542Y-144943320D01*
X271476542Y-145178520D01*
X271430658Y-145409196D01*
X271355438Y-145590793D01*
X271340651Y-145626491D01*
X271209982Y-145822050D01*
X271043672Y-145988360D01*
X270848113Y-146119029D01*
X270848112Y-146119030D01*
X270848111Y-146119030D01*
X270630818Y-146209036D01*
X270400142Y-146254920D01*
X270164942Y-146254920D01*
X269934266Y-146209036D01*
X269716973Y-146119030D01*
X269716972Y-146119030D01*
X269716971Y-146119029D01*
X269521412Y-145988360D01*
X269355102Y-145822050D01*
X269224433Y-145626491D01*
X269209646Y-145590793D01*
X269134426Y-145409196D01*
X269088542Y-145178520D01*
X269088542Y-144943320D01*
X269134426Y-144712644D01*
X269224432Y-144495351D01*
X269355102Y-144299790D01*
X269521412Y-144133480D01*
X269567760Y-144102511D01*
X269716971Y-144002811D01*
X269716973Y-144002810D01*
X269934266Y-143912804D01*
X270164942Y-143866920D01*
X270400142Y-143866920D01*
X270630818Y-143912804D01*
X270630818Y-143912804D01*
G37*
G36*
X85763489Y-143881835D02*
G01*
X85953523Y-143960550D01*
X85980784Y-143971842D01*
X86098586Y-144050555D01*
X86176343Y-144102511D01*
X86342653Y-144268821D01*
X86473323Y-144464382D01*
X86563329Y-144681675D01*
X86609213Y-144912351D01*
X86609213Y-145147551D01*
X86563329Y-145378227D01*
X86506825Y-145514639D01*
X86473322Y-145595522D01*
X86342653Y-145791081D01*
X86176343Y-145957391D01*
X85980784Y-146088060D01*
X85980783Y-146088061D01*
X85980782Y-146088061D01*
X85763489Y-146178067D01*
X85532813Y-146223951D01*
X85297613Y-146223951D01*
X85066937Y-146178067D01*
X84849644Y-146088061D01*
X84849643Y-146088061D01*
X84849642Y-146088060D01*
X84654083Y-145957391D01*
X84487773Y-145791081D01*
X84357104Y-145595522D01*
X84323601Y-145514639D01*
X84267097Y-145378227D01*
X84221213Y-145147551D01*
X84221213Y-144912351D01*
X84267097Y-144681675D01*
X84357103Y-144464382D01*
X84487773Y-144268821D01*
X84654083Y-144102511D01*
X84731840Y-144050555D01*
X84849642Y-143971842D01*
X84876903Y-143960550D01*
X85066937Y-143881835D01*
X85297613Y-143835951D01*
X85532813Y-143835951D01*
X85763489Y-143881835D01*
X85763489Y-143881835D01*
G37*
G36*
X334331932Y-143439083D02*
G01*
X334549225Y-143529089D01*
X334549227Y-143529090D01*
X334744786Y-143659759D01*
X334911096Y-143826069D01*
X334948359Y-143881836D01*
X335041766Y-144021630D01*
X335131772Y-144238923D01*
X335177656Y-144469599D01*
X335177656Y-144704799D01*
X335131772Y-144935475D01*
X335063872Y-145099400D01*
X335041765Y-145152770D01*
X334911096Y-145348329D01*
X334744786Y-145514639D01*
X334549227Y-145645308D01*
X334549226Y-145645309D01*
X334549225Y-145645309D01*
X334331932Y-145735315D01*
X334101256Y-145781199D01*
X333866056Y-145781199D01*
X333635380Y-145735315D01*
X333418087Y-145645309D01*
X333418086Y-145645309D01*
X333418085Y-145645308D01*
X333222526Y-145514639D01*
X333056216Y-145348329D01*
X332925547Y-145152770D01*
X332903440Y-145099400D01*
X332835540Y-144935475D01*
X332789656Y-144704799D01*
X332789656Y-144469599D01*
X332835540Y-144238923D01*
X332925546Y-144021630D01*
X333018954Y-143881836D01*
X333056216Y-143826069D01*
X333222526Y-143659759D01*
X333418085Y-143529090D01*
X333418087Y-143529089D01*
X333635380Y-143439083D01*
X333866056Y-143393199D01*
X334101256Y-143393199D01*
X334331932Y-143439083D01*
X334331932Y-143439083D01*
G37*
G36*
X136812931Y-143248677D02*
G01*
X137030224Y-143338683D01*
X137030226Y-143338684D01*
X137225785Y-143469353D01*
X137392095Y-143635663D01*
X137408196Y-143659759D01*
X137522765Y-143831224D01*
X137612771Y-144048517D01*
X137658655Y-144279193D01*
X137658655Y-144514393D01*
X137612771Y-144745069D01*
X137530652Y-144943320D01*
X137522764Y-144962364D01*
X137392095Y-145157923D01*
X137225785Y-145324233D01*
X137030226Y-145454902D01*
X137030225Y-145454903D01*
X137030224Y-145454903D01*
X136812931Y-145544909D01*
X136582255Y-145590793D01*
X136347055Y-145590793D01*
X136116379Y-145544909D01*
X135899086Y-145454903D01*
X135899085Y-145454903D01*
X135899084Y-145454902D01*
X135703525Y-145324233D01*
X135537215Y-145157923D01*
X135406546Y-144962364D01*
X135398658Y-144943320D01*
X135316539Y-144745069D01*
X135270655Y-144514393D01*
X135270655Y-144279193D01*
X135316539Y-144048517D01*
X135406545Y-143831224D01*
X135521115Y-143659759D01*
X135537215Y-143635663D01*
X135703525Y-143469353D01*
X135899084Y-143338684D01*
X135899086Y-143338683D01*
X136116379Y-143248677D01*
X136347055Y-143202793D01*
X136582255Y-143202793D01*
X136812931Y-143248677D01*
X136812931Y-143248677D01*
G37*
G36*
X124175094Y-141983654D02*
G01*
X124392387Y-142073660D01*
X124392389Y-142073661D01*
X124587948Y-142204330D01*
X124754258Y-142370640D01*
X124869237Y-142542717D01*
X124884928Y-142566201D01*
X124974934Y-142783494D01*
X125020818Y-143014170D01*
X125020818Y-143249370D01*
X124974934Y-143480046D01*
X124918430Y-143616458D01*
X124884927Y-143697341D01*
X124754258Y-143892900D01*
X124587948Y-144059210D01*
X124392389Y-144189879D01*
X124392388Y-144189880D01*
X124392387Y-144189880D01*
X124175094Y-144279886D01*
X123944418Y-144325770D01*
X123709218Y-144325770D01*
X123478542Y-144279886D01*
X123261249Y-144189880D01*
X123261248Y-144189880D01*
X123261247Y-144189879D01*
X123065688Y-144059210D01*
X122899378Y-143892900D01*
X122768709Y-143697341D01*
X122735206Y-143616458D01*
X122678702Y-143480046D01*
X122632818Y-143249370D01*
X122632818Y-143014170D01*
X122678702Y-142783494D01*
X122768708Y-142566201D01*
X122784400Y-142542717D01*
X122899378Y-142370640D01*
X123065688Y-142204330D01*
X123261247Y-142073661D01*
X123261249Y-142073660D01*
X123478542Y-141983654D01*
X123709218Y-141937770D01*
X123944418Y-141937770D01*
X124175094Y-141983654D01*
X124175094Y-141983654D01*
G37*
G36*
X295920327Y-141540902D02*
G01*
X296137620Y-141630908D01*
X296137622Y-141630909D01*
X296333181Y-141761578D01*
X296499491Y-141927888D01*
X296610983Y-142094746D01*
X296630161Y-142123449D01*
X296720167Y-142340742D01*
X296766051Y-142571418D01*
X296766051Y-142806618D01*
X296720167Y-143037294D01*
X296632322Y-143249369D01*
X296630160Y-143254589D01*
X296499491Y-143450148D01*
X296333181Y-143616458D01*
X296137622Y-143747127D01*
X296137621Y-143747128D01*
X296137620Y-143747128D01*
X295920327Y-143837134D01*
X295689651Y-143883018D01*
X295454451Y-143883018D01*
X295223775Y-143837134D01*
X295006482Y-143747128D01*
X295006481Y-143747128D01*
X295006480Y-143747127D01*
X294810921Y-143616458D01*
X294644611Y-143450148D01*
X294513942Y-143254589D01*
X294511780Y-143249369D01*
X294423935Y-143037294D01*
X294378051Y-142806618D01*
X294378051Y-142571418D01*
X294423935Y-142340742D01*
X294513941Y-142123449D01*
X294533120Y-142094746D01*
X294644611Y-141927888D01*
X294810921Y-141761578D01*
X295006480Y-141630909D01*
X295006482Y-141630908D01*
X295223775Y-141540902D01*
X295454451Y-141495018D01*
X295689651Y-141495018D01*
X295920327Y-141540902D01*
X295920327Y-141540902D01*
G37*
G36*
X143360143Y-141271782D02*
G01*
X143577436Y-141361788D01*
X143577438Y-141361789D01*
X143694891Y-141440269D01*
X143772997Y-141492458D01*
X143939307Y-141658768D01*
X144069977Y-141854329D01*
X144159983Y-142071622D01*
X144205867Y-142302298D01*
X144205867Y-142537498D01*
X144159983Y-142768174D01*
X144103479Y-142904586D01*
X144069976Y-142985469D01*
X143939307Y-143181028D01*
X143772997Y-143347338D01*
X143577438Y-143478007D01*
X143577437Y-143478008D01*
X143577436Y-143478008D01*
X143360143Y-143568014D01*
X143129467Y-143613898D01*
X142894267Y-143613898D01*
X142663591Y-143568014D01*
X142446298Y-143478008D01*
X142446297Y-143478008D01*
X142446296Y-143478007D01*
X142250737Y-143347338D01*
X142084427Y-143181028D01*
X141953758Y-142985469D01*
X141920255Y-142904586D01*
X141863751Y-142768174D01*
X141817867Y-142537498D01*
X141817867Y-142302298D01*
X141863751Y-142071622D01*
X141953757Y-141854329D01*
X142084427Y-141658768D01*
X142250737Y-141492458D01*
X142328843Y-141440269D01*
X142446296Y-141361789D01*
X142446298Y-141361788D01*
X142663591Y-141271782D01*
X142894267Y-141225898D01*
X143129467Y-141225898D01*
X143360143Y-141271782D01*
X143360143Y-141271782D01*
G37*
G36*
X276735278Y-140829030D02*
G01*
X276952571Y-140919036D01*
X276952573Y-140919037D01*
X277148132Y-141049706D01*
X277314442Y-141216016D01*
X277351705Y-141271783D01*
X277445112Y-141411577D01*
X277535118Y-141628870D01*
X277581002Y-141859546D01*
X277581002Y-142094746D01*
X277535118Y-142325422D01*
X277447273Y-142537497D01*
X277445111Y-142542717D01*
X277314442Y-142738276D01*
X277148132Y-142904586D01*
X276952573Y-143035255D01*
X276952572Y-143035256D01*
X276952571Y-143035256D01*
X276735278Y-143125262D01*
X276504602Y-143171146D01*
X276269402Y-143171146D01*
X276038726Y-143125262D01*
X275821433Y-143035256D01*
X275821432Y-143035256D01*
X275821431Y-143035255D01*
X275625872Y-142904586D01*
X275459562Y-142738276D01*
X275328893Y-142542717D01*
X275326731Y-142537497D01*
X275238886Y-142325422D01*
X275193002Y-142094746D01*
X275193002Y-141859546D01*
X275238886Y-141628870D01*
X275328892Y-141411577D01*
X275422300Y-141271783D01*
X275459562Y-141216016D01*
X275625872Y-141049706D01*
X275821431Y-140919037D01*
X275821433Y-140919036D01*
X276038726Y-140829030D01*
X276269402Y-140783146D01*
X276504602Y-140783146D01*
X276735278Y-140829030D01*
X276735278Y-140829030D01*
G37*
G36*
X185983785Y-141302395D02*
G01*
X185870307Y-142599441D01*
X184872119Y-142512111D01*
X184985597Y-141215065D01*
X185983785Y-141302395D01*
X185983785Y-141302395D01*
G37*
G36*
X182696343Y-141014781D02*
G01*
X182582865Y-142311827D01*
X181584677Y-142224497D01*
X181698155Y-140927451D01*
X182696343Y-141014781D01*
X182696343Y-141014781D01*
G37*
G36*
X239428028Y-141640553D02*
G01*
X238429840Y-141727883D01*
X238316362Y-140430837D01*
X239314550Y-140343507D01*
X239428028Y-141640553D01*
X239428028Y-141640553D01*
G37*
G36*
X242715470Y-141352939D02*
G01*
X241717282Y-141440269D01*
X241603804Y-140143223D01*
X242601992Y-140055893D01*
X242715470Y-141352939D01*
X242715470Y-141352939D01*
G37*
G36*
X167006276Y-139642078D02*
G01*
X166892798Y-140939124D01*
X165894610Y-140851794D01*
X166008088Y-139554748D01*
X167006276Y-139642078D01*
X167006276Y-139642078D01*
G37*
G36*
X163718834Y-139354464D02*
G01*
X163605356Y-140651510D01*
X162607168Y-140564180D01*
X162720646Y-139267134D01*
X163718834Y-139354464D01*
X163718834Y-139354464D01*
G37*
G36*
X258405537Y-139980236D02*
G01*
X257407349Y-140067566D01*
X257293871Y-138770520D01*
X258292059Y-138683190D01*
X258405537Y-139980236D01*
X258405537Y-139980236D01*
G37*
G36*
X261692979Y-139692622D02*
G01*
X260694791Y-139779952D01*
X260581313Y-138482906D01*
X261579501Y-138395576D01*
X261692979Y-139692622D01*
X261692979Y-139692622D01*
G37*
G36*
X109824702Y-137507753D02*
G01*
X109711224Y-138804799D01*
X108713036Y-138717469D01*
X108826514Y-137420423D01*
X109824702Y-137507753D01*
X109824702Y-137507753D01*
G37*
G36*
X106537260Y-137220139D02*
G01*
X106423782Y-138517185D01*
X105425594Y-138429855D01*
X105539072Y-137132809D01*
X106537260Y-137220139D01*
X106537260Y-137220139D01*
G37*
G36*
X315587111Y-137845912D02*
G01*
X314588923Y-137933242D01*
X314475445Y-136636196D01*
X315473633Y-136548866D01*
X315587111Y-137845912D01*
X315587111Y-137845912D01*
G37*
G36*
X318874553Y-137558298D02*
G01*
X317876365Y-137645628D01*
X317762887Y-136348582D01*
X318761075Y-136261252D01*
X318874553Y-137558298D01*
X318874553Y-137558298D01*
G37*
G36*
X90847193Y-135847436D02*
G01*
X90733715Y-137144482D01*
X89735527Y-137057152D01*
X89849005Y-135760106D01*
X90847193Y-135847436D01*
X90847193Y-135847436D01*
G37*
G36*
X87559751Y-135559822D02*
G01*
X87446273Y-136856868D01*
X86448085Y-136769538D01*
X86561563Y-135472492D01*
X87559751Y-135559822D01*
X87559751Y-135559822D01*
G37*
G36*
X334564620Y-136185595D02*
G01*
X333566432Y-136272925D01*
X333452954Y-134975879D01*
X334451142Y-134888549D01*
X334564620Y-136185595D01*
X334564620Y-136185595D01*
G37*
G36*
X337852062Y-135897981D02*
G01*
X336853874Y-135985311D01*
X336740396Y-134688265D01*
X337738584Y-134600935D01*
X337852062Y-135897981D01*
X337852062Y-135897981D01*
G37*
G36*
X210726184Y-133530579D02*
G01*
X210917453Y-133609805D01*
X210917455Y-133609806D01*
X211089593Y-133724825D01*
X211235985Y-133871217D01*
X211342630Y-134030822D01*
X211351005Y-134043357D01*
X211430231Y-134234626D01*
X211470620Y-134437674D01*
X211470620Y-134644706D01*
X211430231Y-134847754D01*
X211420454Y-134871357D01*
X211351004Y-135039025D01*
X211235985Y-135211163D01*
X211089593Y-135357555D01*
X210917455Y-135472574D01*
X210917454Y-135472575D01*
X210917453Y-135472575D01*
X210726184Y-135551801D01*
X210523136Y-135592190D01*
X210316104Y-135592190D01*
X210113056Y-135551801D01*
X209921787Y-135472575D01*
X209921786Y-135472575D01*
X209921785Y-135472574D01*
X209749647Y-135357555D01*
X209603255Y-135211163D01*
X209488236Y-135039025D01*
X209418786Y-134871357D01*
X209409009Y-134847754D01*
X209368620Y-134644706D01*
X209368620Y-134437674D01*
X209409009Y-134234626D01*
X209488235Y-134043357D01*
X209496611Y-134030822D01*
X209603255Y-133871217D01*
X209749647Y-133724825D01*
X209921785Y-133609806D01*
X209921787Y-133609805D01*
X210113056Y-133530579D01*
X210316104Y-133490190D01*
X210523136Y-133490190D01*
X210726184Y-133530579D01*
X210726184Y-133530579D01*
G37*
G36*
X204226184Y-133530579D02*
G01*
X204417453Y-133609805D01*
X204417455Y-133609806D01*
X204589593Y-133724825D01*
X204735985Y-133871217D01*
X204842630Y-134030822D01*
X204851005Y-134043357D01*
X204930231Y-134234626D01*
X204970620Y-134437674D01*
X204970620Y-134644706D01*
X204930231Y-134847754D01*
X204920454Y-134871357D01*
X204851004Y-135039025D01*
X204735985Y-135211163D01*
X204589593Y-135357555D01*
X204417455Y-135472574D01*
X204417454Y-135472575D01*
X204417453Y-135472575D01*
X204226184Y-135551801D01*
X204023136Y-135592190D01*
X203816104Y-135592190D01*
X203613056Y-135551801D01*
X203421787Y-135472575D01*
X203421786Y-135472575D01*
X203421785Y-135472574D01*
X203249647Y-135357555D01*
X203103255Y-135211163D01*
X202988236Y-135039025D01*
X202918786Y-134871357D01*
X202909009Y-134847754D01*
X202868620Y-134644706D01*
X202868620Y-134437674D01*
X202909009Y-134234626D01*
X202988235Y-134043357D01*
X202996611Y-134030822D01*
X203103255Y-133871217D01*
X203249647Y-133724825D01*
X203421785Y-133609806D01*
X203421787Y-133609805D01*
X203613056Y-133530579D01*
X203816104Y-133490190D01*
X204023136Y-133490190D01*
X204226184Y-133530579D01*
X204226184Y-133530579D01*
G37*
G36*
X231430563Y-133000306D02*
G01*
X231617403Y-133077698D01*
X231647858Y-133090313D01*
X231843417Y-133220982D01*
X232009727Y-133387292D01*
X232134690Y-133574311D01*
X232140397Y-133582853D01*
X232230403Y-133800146D01*
X232276287Y-134030822D01*
X232276287Y-134266022D01*
X232230403Y-134496698D01*
X232169096Y-134644706D01*
X232140396Y-134713993D01*
X232009727Y-134909552D01*
X231843417Y-135075862D01*
X231647858Y-135206531D01*
X231647857Y-135206532D01*
X231647856Y-135206532D01*
X231430563Y-135296538D01*
X231199887Y-135342422D01*
X230964687Y-135342422D01*
X230734011Y-135296538D01*
X230516718Y-135206532D01*
X230516717Y-135206532D01*
X230516716Y-135206531D01*
X230321157Y-135075862D01*
X230154847Y-134909552D01*
X230024178Y-134713993D01*
X229995478Y-134644706D01*
X229934171Y-134496698D01*
X229888287Y-134266022D01*
X229888287Y-134030822D01*
X229934171Y-133800146D01*
X230024177Y-133582853D01*
X230029885Y-133574311D01*
X230154847Y-133387292D01*
X230321157Y-133220982D01*
X230516716Y-133090313D01*
X230547171Y-133077698D01*
X230734011Y-133000306D01*
X230964687Y-132954422D01*
X231199887Y-132954422D01*
X231430563Y-133000306D01*
X231430563Y-133000306D01*
G37*
G36*
X129258798Y-133949255D02*
G01*
X129145320Y-135246301D01*
X128147132Y-135158971D01*
X128260610Y-133861925D01*
X129258798Y-133949255D01*
X129258798Y-133949255D01*
G37*
G36*
X125971356Y-133661641D02*
G01*
X125857878Y-134958687D01*
X124859690Y-134871357D01*
X124973168Y-133574311D01*
X125971356Y-133661641D01*
X125971356Y-133661641D01*
G37*
G36*
X176013186Y-132336179D02*
G01*
X176230479Y-132426185D01*
X176230481Y-132426186D01*
X176426040Y-132556855D01*
X176592350Y-132723165D01*
X176668000Y-132836382D01*
X176723020Y-132918726D01*
X176813026Y-133136019D01*
X176858910Y-133366695D01*
X176858910Y-133601895D01*
X176813026Y-133832571D01*
X176743757Y-133999800D01*
X176723019Y-134049866D01*
X176592350Y-134245425D01*
X176426040Y-134411735D01*
X176230481Y-134542404D01*
X176230480Y-134542405D01*
X176230479Y-134542405D01*
X176013186Y-134632411D01*
X175782510Y-134678295D01*
X175547310Y-134678295D01*
X175316634Y-134632411D01*
X175099341Y-134542405D01*
X175099340Y-134542405D01*
X175099339Y-134542404D01*
X174903780Y-134411735D01*
X174737470Y-134245425D01*
X174606801Y-134049866D01*
X174586063Y-133999800D01*
X174516794Y-133832571D01*
X174470910Y-133601895D01*
X174470910Y-133366695D01*
X174516794Y-133136019D01*
X174606800Y-132918726D01*
X174661821Y-132836382D01*
X174737470Y-132723165D01*
X174903780Y-132556855D01*
X175099339Y-132426186D01*
X175099341Y-132426185D01*
X175316634Y-132336179D01*
X175547310Y-132290295D01*
X175782510Y-132290295D01*
X176013186Y-132336179D01*
X176013186Y-132336179D01*
G37*
G36*
X148443846Y-133237383D02*
G01*
X148330368Y-134534429D01*
X147332180Y-134447099D01*
X147445658Y-133150053D01*
X148443846Y-133237383D01*
X148443846Y-133237383D01*
G37*
G36*
X296153015Y-134287414D02*
G01*
X295154827Y-134374744D01*
X295041349Y-133077698D01*
X296039537Y-132990368D01*
X296153015Y-134287414D01*
X296153015Y-134287414D01*
G37*
G36*
X145156404Y-132949769D02*
G01*
X145042926Y-134246815D01*
X144044738Y-134159485D01*
X144158216Y-132862439D01*
X145156404Y-132949769D01*
X145156404Y-132949769D01*
G37*
G36*
X299440457Y-133999800D02*
G01*
X298442269Y-134087130D01*
X298328791Y-132790084D01*
X299326979Y-132702754D01*
X299440457Y-133999800D01*
X299440457Y-133999800D01*
G37*
G36*
X250408072Y-131339989D02*
G01*
X250625365Y-131429995D01*
X250625367Y-131429996D01*
X250820926Y-131560665D01*
X250987236Y-131726975D01*
X251073232Y-131855676D01*
X251117906Y-131922536D01*
X251207912Y-132139829D01*
X251253796Y-132370505D01*
X251253796Y-132605705D01*
X251207912Y-132836381D01*
X251144128Y-132990368D01*
X251117905Y-133053676D01*
X250987236Y-133249235D01*
X250820926Y-133415545D01*
X250625367Y-133546214D01*
X250625366Y-133546215D01*
X250625365Y-133546215D01*
X250408072Y-133636221D01*
X250177396Y-133682105D01*
X249942196Y-133682105D01*
X249711520Y-133636221D01*
X249494227Y-133546215D01*
X249494226Y-133546215D01*
X249494225Y-133546214D01*
X249298666Y-133415545D01*
X249132356Y-133249235D01*
X249001687Y-133053676D01*
X248975464Y-132990368D01*
X248911680Y-132836381D01*
X248865796Y-132605705D01*
X248865796Y-132370505D01*
X248911680Y-132139829D01*
X249001686Y-131922536D01*
X249046361Y-131855676D01*
X249132356Y-131726975D01*
X249298666Y-131560665D01*
X249494225Y-131429996D01*
X249494227Y-131429995D01*
X249711520Y-131339989D01*
X249942196Y-131294105D01*
X250177396Y-131294105D01*
X250408072Y-131339989D01*
X250408072Y-131339989D01*
G37*
G36*
X276967967Y-133575542D02*
G01*
X275969779Y-133662872D01*
X275856301Y-132365826D01*
X276854489Y-132278496D01*
X276967967Y-133575542D01*
X276967967Y-133575542D01*
G37*
G36*
X280255409Y-133287928D02*
G01*
X279257221Y-133375258D01*
X279143743Y-132078212D01*
X280141931Y-131990882D01*
X280255409Y-133287928D01*
X280255409Y-133287928D01*
G37*
G36*
X157035677Y-130675862D02*
G01*
X157209280Y-130747771D01*
X157252972Y-130765869D01*
X157448531Y-130896538D01*
X157614841Y-131062848D01*
X157649629Y-131114911D01*
X157745511Y-131258409D01*
X157835517Y-131475702D01*
X157881401Y-131706378D01*
X157881401Y-131941578D01*
X157835517Y-132172254D01*
X157753398Y-132370505D01*
X157745510Y-132389549D01*
X157614841Y-132585108D01*
X157448531Y-132751418D01*
X157252972Y-132882087D01*
X157252971Y-132882088D01*
X157252970Y-132882088D01*
X157035677Y-132972094D01*
X156805001Y-133017978D01*
X156569801Y-133017978D01*
X156339125Y-132972094D01*
X156121832Y-132882088D01*
X156121831Y-132882088D01*
X156121830Y-132882087D01*
X155926271Y-132751418D01*
X155759961Y-132585108D01*
X155629292Y-132389549D01*
X155621404Y-132370505D01*
X155539285Y-132172254D01*
X155493401Y-131941578D01*
X155493401Y-131706378D01*
X155539285Y-131475702D01*
X155629291Y-131258409D01*
X155725174Y-131114911D01*
X155759961Y-131062848D01*
X155926271Y-130896538D01*
X156121830Y-130765869D01*
X156165522Y-130747771D01*
X156339125Y-130675862D01*
X156569801Y-130629978D01*
X156805001Y-130629978D01*
X157035677Y-130675862D01*
X157035677Y-130675862D01*
G37*
G36*
X182560398Y-130359284D02*
G01*
X182777691Y-130449290D01*
X182777693Y-130449291D01*
X182932076Y-130552447D01*
X182973252Y-130579960D01*
X183139562Y-130746270D01*
X183270232Y-130941831D01*
X183360238Y-131159124D01*
X183406122Y-131389800D01*
X183406122Y-131625000D01*
X183360238Y-131855676D01*
X183303734Y-131992088D01*
X183270231Y-132072971D01*
X183139562Y-132268530D01*
X182973252Y-132434840D01*
X182777693Y-132565509D01*
X182777692Y-132565510D01*
X182777691Y-132565510D01*
X182560398Y-132655516D01*
X182329722Y-132701400D01*
X182094522Y-132701400D01*
X181863846Y-132655516D01*
X181646553Y-132565510D01*
X181646552Y-132565510D01*
X181646551Y-132565509D01*
X181450992Y-132434840D01*
X181284682Y-132268530D01*
X181154013Y-132072971D01*
X181120510Y-131992088D01*
X181064006Y-131855676D01*
X181018122Y-131625000D01*
X181018122Y-131389800D01*
X181064006Y-131159124D01*
X181154012Y-130941831D01*
X181284682Y-130746270D01*
X181450992Y-130579960D01*
X181492168Y-130552447D01*
X181646551Y-130449291D01*
X181646553Y-130449290D01*
X181863846Y-130359284D01*
X182094522Y-130313400D01*
X182329722Y-130313400D01*
X182560398Y-130359284D01*
X182560398Y-130359284D01*
G37*
G36*
X237535023Y-129916532D02*
G01*
X237749822Y-130005505D01*
X237752318Y-130006539D01*
X237947877Y-130137208D01*
X238114187Y-130303518D01*
X238151450Y-130359285D01*
X238244857Y-130499079D01*
X238334863Y-130716372D01*
X238380747Y-130947048D01*
X238380747Y-131182248D01*
X238334863Y-131412924D01*
X238308859Y-131475702D01*
X238244856Y-131630219D01*
X238114187Y-131825778D01*
X237947877Y-131992088D01*
X237752318Y-132122757D01*
X237752317Y-132122758D01*
X237752316Y-132122758D01*
X237535023Y-132212764D01*
X237304347Y-132258648D01*
X237069147Y-132258648D01*
X236838471Y-132212764D01*
X236621178Y-132122758D01*
X236621177Y-132122758D01*
X236621176Y-132122757D01*
X236425617Y-131992088D01*
X236259307Y-131825778D01*
X236128638Y-131630219D01*
X236064635Y-131475702D01*
X236038631Y-131412924D01*
X235992747Y-131182248D01*
X235992747Y-130947048D01*
X236038631Y-130716372D01*
X236128637Y-130499079D01*
X236222045Y-130359285D01*
X236259307Y-130303518D01*
X236425617Y-130137208D01*
X236621176Y-130006539D01*
X236623672Y-130005505D01*
X236838471Y-129916532D01*
X237069147Y-129870648D01*
X237304347Y-129870648D01*
X237535023Y-129916532D01*
X237535023Y-129916532D01*
G37*
G36*
X307589646Y-129205665D02*
G01*
X307785358Y-129286732D01*
X307806941Y-129295672D01*
X308002500Y-129426341D01*
X308168810Y-129592651D01*
X308275690Y-129752607D01*
X308299480Y-129788212D01*
X308389486Y-130005505D01*
X308435370Y-130236181D01*
X308435370Y-130471381D01*
X308389486Y-130702057D01*
X308314263Y-130883661D01*
X308299479Y-130919352D01*
X308168810Y-131114911D01*
X308002500Y-131281221D01*
X307806941Y-131411890D01*
X307806940Y-131411891D01*
X307806939Y-131411891D01*
X307589646Y-131501897D01*
X307358970Y-131547781D01*
X307123770Y-131547781D01*
X306893094Y-131501897D01*
X306675801Y-131411891D01*
X306675800Y-131411891D01*
X306675799Y-131411890D01*
X306480240Y-131281221D01*
X306313930Y-131114911D01*
X306183261Y-130919352D01*
X306168477Y-130883661D01*
X306093254Y-130702057D01*
X306047370Y-130471381D01*
X306047370Y-130236181D01*
X306093254Y-130005505D01*
X306183260Y-129788212D01*
X306207051Y-129752607D01*
X306313930Y-129592651D01*
X306480240Y-129426341D01*
X306675799Y-129295672D01*
X306697382Y-129286732D01*
X306893094Y-129205665D01*
X307123770Y-129159781D01*
X307358970Y-129159781D01*
X307589646Y-129205665D01*
X307589646Y-129205665D01*
G37*
G36*
X163582889Y-128698967D02*
G01*
X163756492Y-128770876D01*
X163800184Y-128788974D01*
X163995743Y-128919643D01*
X164162053Y-129085953D01*
X164253851Y-129223337D01*
X164292723Y-129281514D01*
X164382729Y-129498807D01*
X164428613Y-129729483D01*
X164428613Y-129964683D01*
X164382729Y-130195359D01*
X164326225Y-130331771D01*
X164292722Y-130412654D01*
X164162053Y-130608213D01*
X163995743Y-130774523D01*
X163800184Y-130905192D01*
X163800183Y-130905193D01*
X163800182Y-130905193D01*
X163582889Y-130995199D01*
X163352213Y-131041083D01*
X163117013Y-131041083D01*
X162886337Y-130995199D01*
X162669044Y-130905193D01*
X162669043Y-130905193D01*
X162669042Y-130905192D01*
X162473483Y-130774523D01*
X162307173Y-130608213D01*
X162176504Y-130412654D01*
X162143001Y-130331771D01*
X162086497Y-130195359D01*
X162040613Y-129964683D01*
X162040613Y-129729483D01*
X162086497Y-129498807D01*
X162176503Y-129281514D01*
X162215376Y-129223337D01*
X162307173Y-129085953D01*
X162473483Y-128919643D01*
X162669042Y-128788974D01*
X162712734Y-128770876D01*
X162886337Y-128698967D01*
X163117013Y-128653083D01*
X163352213Y-128653083D01*
X163582889Y-128698967D01*
X163582889Y-128698967D01*
G37*
G36*
X99854183Y-128541545D02*
G01*
X100071476Y-128631551D01*
X100071478Y-128631552D01*
X100267037Y-128762221D01*
X100433347Y-128928531D01*
X100538534Y-129085953D01*
X100564017Y-129124092D01*
X100654023Y-129341385D01*
X100699907Y-129572061D01*
X100699907Y-129807261D01*
X100654023Y-130037937D01*
X100588816Y-130195359D01*
X100564016Y-130255232D01*
X100433347Y-130450791D01*
X100267037Y-130617101D01*
X100071478Y-130747770D01*
X100071477Y-130747771D01*
X100071476Y-130747771D01*
X99854183Y-130837777D01*
X99623507Y-130883661D01*
X99388307Y-130883661D01*
X99157631Y-130837777D01*
X98940338Y-130747771D01*
X98940337Y-130747771D01*
X98940336Y-130747770D01*
X98744777Y-130617101D01*
X98578467Y-130450791D01*
X98447798Y-130255232D01*
X98422998Y-130195359D01*
X98357791Y-130037937D01*
X98311907Y-129807261D01*
X98311907Y-129572061D01*
X98357791Y-129341385D01*
X98447797Y-129124092D01*
X98473281Y-129085953D01*
X98578467Y-128928531D01*
X98744777Y-128762221D01*
X98940336Y-128631552D01*
X98940338Y-128631551D01*
X99157631Y-128541545D01*
X99388307Y-128495661D01*
X99623507Y-128495661D01*
X99854183Y-128541545D01*
X99854183Y-128541545D01*
G37*
G36*
X256512532Y-128256215D02*
G01*
X256727331Y-128345188D01*
X256729827Y-128346222D01*
X256925386Y-128476891D01*
X257091696Y-128643201D01*
X257128959Y-128698968D01*
X257222366Y-128838762D01*
X257312372Y-129056055D01*
X257358256Y-129286731D01*
X257358256Y-129521931D01*
X257312372Y-129752607D01*
X257256512Y-129887464D01*
X257222365Y-129969902D01*
X257091696Y-130165461D01*
X256925386Y-130331771D01*
X256729827Y-130462440D01*
X256729826Y-130462441D01*
X256729825Y-130462441D01*
X256512532Y-130552447D01*
X256281856Y-130598331D01*
X256046656Y-130598331D01*
X255815980Y-130552447D01*
X255598687Y-130462441D01*
X255598686Y-130462441D01*
X255598685Y-130462440D01*
X255403126Y-130331771D01*
X255236816Y-130165461D01*
X255106147Y-129969902D01*
X255072000Y-129887464D01*
X255016140Y-129752607D01*
X254970256Y-129521931D01*
X254970256Y-129286731D01*
X255016140Y-129056055D01*
X255106146Y-128838762D01*
X255199554Y-128698968D01*
X255236816Y-128643201D01*
X255403126Y-128476891D01*
X255598685Y-128346222D01*
X255601181Y-128345188D01*
X255815980Y-128256215D01*
X256046656Y-128210331D01*
X256281856Y-128210331D01*
X256512532Y-128256215D01*
X256512532Y-128256215D01*
G37*
G36*
X326567155Y-127545348D02*
G01*
X326784448Y-127635354D01*
X326784450Y-127635355D01*
X326854865Y-127682405D01*
X326980009Y-127766024D01*
X327146319Y-127932334D01*
X327276989Y-128127895D01*
X327366995Y-128345188D01*
X327412879Y-128575864D01*
X327412879Y-128811064D01*
X327366995Y-129041740D01*
X327299095Y-129205665D01*
X327276988Y-129259035D01*
X327146319Y-129454594D01*
X326980009Y-129620904D01*
X326784450Y-129751573D01*
X326784449Y-129751574D01*
X326784448Y-129751574D01*
X326567155Y-129841580D01*
X326336479Y-129887464D01*
X326101279Y-129887464D01*
X325870603Y-129841580D01*
X325653310Y-129751574D01*
X325653309Y-129751574D01*
X325653308Y-129751573D01*
X325457749Y-129620904D01*
X325291439Y-129454594D01*
X325160770Y-129259035D01*
X325138663Y-129205665D01*
X325070763Y-129041740D01*
X325024879Y-128811064D01*
X325024879Y-128575864D01*
X325070763Y-128345188D01*
X325160769Y-128127895D01*
X325291439Y-127932334D01*
X325457749Y-127766024D01*
X325582893Y-127682405D01*
X325653308Y-127635355D01*
X325653310Y-127635354D01*
X325870603Y-127545348D01*
X326101279Y-127499464D01*
X326336479Y-127499464D01*
X326567155Y-127545348D01*
X326567155Y-127545348D01*
G37*
G36*
X80876594Y-126881221D02*
G01*
X80974393Y-126921731D01*
X81093889Y-126971228D01*
X81289448Y-127101897D01*
X81455758Y-127268207D01*
X81520093Y-127364490D01*
X81586428Y-127463768D01*
X81676434Y-127681061D01*
X81722318Y-127911737D01*
X81722318Y-128146937D01*
X81676434Y-128377613D01*
X81594315Y-128575864D01*
X81586427Y-128594908D01*
X81455758Y-128790467D01*
X81289448Y-128956777D01*
X81093889Y-129087446D01*
X81093888Y-129087447D01*
X81093887Y-129087447D01*
X80876594Y-129177453D01*
X80645918Y-129223337D01*
X80410718Y-129223337D01*
X80180042Y-129177453D01*
X79962749Y-129087447D01*
X79962748Y-129087447D01*
X79962747Y-129087446D01*
X79767188Y-128956777D01*
X79600878Y-128790467D01*
X79470209Y-128594908D01*
X79462321Y-128575864D01*
X79380202Y-128377613D01*
X79334318Y-128146937D01*
X79334318Y-127911737D01*
X79380202Y-127681061D01*
X79470208Y-127463768D01*
X79536544Y-127364490D01*
X79600878Y-127268207D01*
X79767188Y-127101897D01*
X79962747Y-126971228D01*
X80082243Y-126921731D01*
X80180042Y-126881221D01*
X80410718Y-126835337D01*
X80645918Y-126835337D01*
X80876594Y-126881221D01*
X80876594Y-126881221D01*
G37*
G36*
X106401395Y-126564650D02*
G01*
X106618688Y-126654656D01*
X106618690Y-126654657D01*
X106814249Y-126785326D01*
X106980559Y-126951636D01*
X107107437Y-127141521D01*
X107111229Y-127147197D01*
X107201235Y-127364490D01*
X107247119Y-127595166D01*
X107247119Y-127830366D01*
X107201235Y-128061042D01*
X107165389Y-128147581D01*
X107111228Y-128278337D01*
X106980559Y-128473896D01*
X106814249Y-128640206D01*
X106618690Y-128770875D01*
X106618689Y-128770876D01*
X106618688Y-128770876D01*
X106401395Y-128860882D01*
X106170719Y-128906766D01*
X105935519Y-128906766D01*
X105704843Y-128860882D01*
X105487550Y-128770876D01*
X105487549Y-128770876D01*
X105487548Y-128770875D01*
X105291989Y-128640206D01*
X105125679Y-128473896D01*
X104995010Y-128278337D01*
X104940849Y-128147581D01*
X104905003Y-128061042D01*
X104859119Y-127830366D01*
X104859119Y-127595166D01*
X104905003Y-127364490D01*
X104995009Y-127147197D01*
X104998802Y-127141521D01*
X105125679Y-126951636D01*
X105291989Y-126785326D01*
X105487548Y-126654657D01*
X105487550Y-126654656D01*
X105704843Y-126564650D01*
X105935519Y-126518766D01*
X106170719Y-126518766D01*
X106401395Y-126564650D01*
X106401395Y-126564650D01*
G37*
G36*
X214970362Y-126980722D02*
G01*
X215118321Y-127042009D01*
X215251475Y-127130979D01*
X215364721Y-127244225D01*
X215453691Y-127377379D01*
X215514978Y-127525338D01*
X215546220Y-127682405D01*
X215546220Y-127842555D01*
X215514978Y-127999622D01*
X215453691Y-128147581D01*
X215364721Y-128280735D01*
X215251475Y-128393981D01*
X215118321Y-128482951D01*
X214970362Y-128544238D01*
X214813295Y-128575480D01*
X214653145Y-128575480D01*
X214496078Y-128544238D01*
X214348119Y-128482951D01*
X214214965Y-128393981D01*
X214101719Y-128280735D01*
X214012749Y-128147581D01*
X213951462Y-127999622D01*
X213920220Y-127842555D01*
X213920220Y-127682405D01*
X213951462Y-127525338D01*
X214012749Y-127377379D01*
X214101719Y-127244225D01*
X214214965Y-127130979D01*
X214348119Y-127042009D01*
X214496078Y-126980722D01*
X214653145Y-126949480D01*
X214813295Y-126949480D01*
X214970362Y-126980722D01*
X214970362Y-126980722D01*
G37*
G36*
X199750362Y-126980722D02*
G01*
X199898321Y-127042009D01*
X200031475Y-127130979D01*
X200144721Y-127244225D01*
X200233691Y-127377379D01*
X200294978Y-127525338D01*
X200326220Y-127682405D01*
X200326220Y-127842555D01*
X200294978Y-127999622D01*
X200233691Y-128147581D01*
X200144721Y-128280735D01*
X200031475Y-128393981D01*
X199898321Y-128482951D01*
X199750362Y-128544238D01*
X199593295Y-128575480D01*
X199433145Y-128575480D01*
X199276078Y-128544238D01*
X199128119Y-128482951D01*
X198994965Y-128393981D01*
X198881719Y-128280735D01*
X198792749Y-128147581D01*
X198731462Y-127999622D01*
X198700220Y-127842555D01*
X198700220Y-127682405D01*
X198731462Y-127525338D01*
X198792749Y-127377379D01*
X198881719Y-127244225D01*
X198994965Y-127130979D01*
X199128119Y-127042009D01*
X199276078Y-126980722D01*
X199433145Y-126949480D01*
X199593295Y-126949480D01*
X199750362Y-126980722D01*
X199750362Y-126980722D01*
G37*
G36*
X313694106Y-126121891D02*
G01*
X313911399Y-126211897D01*
X313911401Y-126211898D01*
X314106960Y-126342567D01*
X314273270Y-126508877D01*
X314398787Y-126696725D01*
X314403940Y-126704438D01*
X314493946Y-126921731D01*
X314539830Y-127152407D01*
X314539830Y-127387607D01*
X314493946Y-127618283D01*
X314467385Y-127682406D01*
X314403939Y-127835578D01*
X314273270Y-128031137D01*
X314106960Y-128197447D01*
X313911401Y-128328116D01*
X313911400Y-128328117D01*
X313911399Y-128328117D01*
X313694106Y-128418123D01*
X313463430Y-128464007D01*
X313228230Y-128464007D01*
X312997554Y-128418123D01*
X312780261Y-128328117D01*
X312780260Y-128328117D01*
X312780259Y-128328116D01*
X312584700Y-128197447D01*
X312418390Y-128031137D01*
X312287721Y-127835578D01*
X312224275Y-127682406D01*
X312197714Y-127618283D01*
X312151830Y-127387607D01*
X312151830Y-127152407D01*
X312197714Y-126921731D01*
X312287720Y-126704438D01*
X312292874Y-126696725D01*
X312418390Y-126508877D01*
X312584700Y-126342567D01*
X312780259Y-126211898D01*
X312780261Y-126211897D01*
X312997554Y-126121891D01*
X313228230Y-126076007D01*
X313463430Y-126076007D01*
X313694106Y-126121891D01*
X313694106Y-126121891D01*
G37*
G36*
X288155550Y-125647167D02*
G01*
X288372843Y-125737173D01*
X288372845Y-125737174D01*
X288568404Y-125867843D01*
X288734714Y-126034153D01*
X288846206Y-126201011D01*
X288865384Y-126229714D01*
X288955390Y-126447007D01*
X289001274Y-126677683D01*
X289001274Y-126912883D01*
X288955390Y-127143559D01*
X288880170Y-127325156D01*
X288865383Y-127360854D01*
X288734714Y-127556413D01*
X288568404Y-127722723D01*
X288372845Y-127853392D01*
X288372844Y-127853393D01*
X288372843Y-127853393D01*
X288155550Y-127943399D01*
X287924874Y-127989283D01*
X287689674Y-127989283D01*
X287458998Y-127943399D01*
X287241705Y-127853393D01*
X287241704Y-127853393D01*
X287241703Y-127853392D01*
X287046144Y-127722723D01*
X286879834Y-127556413D01*
X286749165Y-127360854D01*
X286734378Y-127325156D01*
X286659158Y-127143559D01*
X286613274Y-126912883D01*
X286613274Y-126677683D01*
X286659158Y-126447007D01*
X286749164Y-126229714D01*
X286768343Y-126201011D01*
X286879834Y-126034153D01*
X287046144Y-125867843D01*
X287241703Y-125737174D01*
X287241705Y-125737173D01*
X287458998Y-125647167D01*
X287689674Y-125601283D01*
X287924874Y-125601283D01*
X288155550Y-125647167D01*
X288155550Y-125647167D01*
G37*
G36*
X119288199Y-124983040D02*
G01*
X119505492Y-125073046D01*
X119505494Y-125073047D01*
X119701053Y-125203716D01*
X119867363Y-125370026D01*
X119978855Y-125536884D01*
X119998033Y-125565587D01*
X120088039Y-125782880D01*
X120133923Y-126013556D01*
X120133923Y-126248756D01*
X120088039Y-126479432D01*
X120010014Y-126667800D01*
X119998032Y-126696727D01*
X119867363Y-126892286D01*
X119701053Y-127058596D01*
X119505494Y-127189265D01*
X119505493Y-127189266D01*
X119505492Y-127189266D01*
X119288199Y-127279272D01*
X119057523Y-127325156D01*
X118822323Y-127325156D01*
X118591647Y-127279272D01*
X118374354Y-127189266D01*
X118374353Y-127189266D01*
X118374352Y-127189265D01*
X118178793Y-127058596D01*
X118012483Y-126892286D01*
X117881814Y-126696727D01*
X117869832Y-126667800D01*
X117791807Y-126479432D01*
X117745923Y-126248756D01*
X117745923Y-126013556D01*
X117791807Y-125782880D01*
X117881813Y-125565587D01*
X117900992Y-125536884D01*
X118012483Y-125370026D01*
X118178793Y-125203716D01*
X118374352Y-125073047D01*
X118374354Y-125073046D01*
X118591647Y-124983040D01*
X118822323Y-124937156D01*
X119057523Y-124937156D01*
X119288199Y-124983040D01*
X119288199Y-124983040D01*
G37*
G36*
X268970501Y-124935295D02*
G01*
X269187794Y-125025301D01*
X269187796Y-125025302D01*
X269337007Y-125125002D01*
X269383355Y-125155971D01*
X269549665Y-125322281D01*
X269680335Y-125517842D01*
X269770341Y-125735135D01*
X269816225Y-125965811D01*
X269816225Y-126201011D01*
X269770341Y-126431687D01*
X269695121Y-126613284D01*
X269680334Y-126648982D01*
X269549665Y-126844541D01*
X269383355Y-127010851D01*
X269187796Y-127141520D01*
X269187795Y-127141521D01*
X269187794Y-127141521D01*
X268970501Y-127231527D01*
X268739825Y-127277411D01*
X268504625Y-127277411D01*
X268273949Y-127231527D01*
X268056656Y-127141521D01*
X268056655Y-127141521D01*
X268056654Y-127141520D01*
X267861095Y-127010851D01*
X267694785Y-126844541D01*
X267564116Y-126648982D01*
X267549329Y-126613284D01*
X267474109Y-126431687D01*
X267428225Y-126201011D01*
X267428225Y-125965811D01*
X267474109Y-125735135D01*
X267564115Y-125517842D01*
X267694785Y-125322281D01*
X267861095Y-125155971D01*
X267907443Y-125125002D01*
X268056654Y-125025302D01*
X268056656Y-125025301D01*
X268273949Y-124935295D01*
X268504625Y-124889411D01*
X268739825Y-124889411D01*
X268970501Y-124935295D01*
X268970501Y-124935295D01*
G37*
G36*
X87423806Y-124904326D02*
G01*
X87641099Y-124994332D01*
X87641101Y-124994333D01*
X87836660Y-125125002D01*
X88002970Y-125291312D01*
X88115432Y-125459622D01*
X88133640Y-125486873D01*
X88223646Y-125704166D01*
X88269530Y-125934842D01*
X88269530Y-126170042D01*
X88223646Y-126400718D01*
X88154604Y-126567399D01*
X88133639Y-126618013D01*
X88002970Y-126813572D01*
X87836660Y-126979882D01*
X87641101Y-127110551D01*
X87641100Y-127110552D01*
X87641099Y-127110552D01*
X87423806Y-127200558D01*
X87193130Y-127246442D01*
X86957930Y-127246442D01*
X86727254Y-127200558D01*
X86509961Y-127110552D01*
X86509960Y-127110552D01*
X86509959Y-127110551D01*
X86314400Y-126979882D01*
X86148090Y-126813572D01*
X86017421Y-126618013D01*
X85996456Y-126567399D01*
X85927414Y-126400718D01*
X85881530Y-126170042D01*
X85881530Y-125934842D01*
X85927414Y-125704166D01*
X86017420Y-125486873D01*
X86035629Y-125459622D01*
X86148090Y-125291312D01*
X86314400Y-125125002D01*
X86509959Y-124994333D01*
X86509961Y-124994332D01*
X86727254Y-124904326D01*
X86957930Y-124858442D01*
X87193130Y-124858442D01*
X87423806Y-124904326D01*
X87423806Y-124904326D01*
G37*
G36*
X332671615Y-124461574D02*
G01*
X332888908Y-124551580D01*
X332888910Y-124551581D01*
X333084469Y-124682250D01*
X333250779Y-124848560D01*
X333342172Y-124985338D01*
X333381449Y-125044121D01*
X333471455Y-125261414D01*
X333517339Y-125492090D01*
X333517339Y-125727290D01*
X333471455Y-125957966D01*
X333403555Y-126121891D01*
X333381448Y-126175261D01*
X333250779Y-126370820D01*
X333084469Y-126537130D01*
X332888910Y-126667799D01*
X332888909Y-126667800D01*
X332888908Y-126667800D01*
X332671615Y-126757806D01*
X332440939Y-126803690D01*
X332205739Y-126803690D01*
X331975063Y-126757806D01*
X331757770Y-126667800D01*
X331757769Y-126667800D01*
X331757768Y-126667799D01*
X331562209Y-126537130D01*
X331395899Y-126370820D01*
X331265230Y-126175261D01*
X331243123Y-126121891D01*
X331175223Y-125957966D01*
X331129339Y-125727290D01*
X331129339Y-125492090D01*
X331175223Y-125261414D01*
X331265229Y-125044121D01*
X331304507Y-124985338D01*
X331395899Y-124848560D01*
X331562209Y-124682250D01*
X331757768Y-124551581D01*
X331757770Y-124551580D01*
X331975063Y-124461574D01*
X332205739Y-124415690D01*
X332440939Y-124415690D01*
X332671615Y-124461574D01*
X332671615Y-124461574D01*
G37*
G36*
X138473248Y-124271168D02*
G01*
X138690541Y-124361174D01*
X138690543Y-124361175D01*
X138886102Y-124491844D01*
X139052412Y-124658154D01*
X139172168Y-124837380D01*
X139183082Y-124853715D01*
X139273088Y-125071008D01*
X139318972Y-125301684D01*
X139318972Y-125536884D01*
X139273088Y-125767560D01*
X139190969Y-125965811D01*
X139183081Y-125984855D01*
X139052412Y-126180414D01*
X138886102Y-126346724D01*
X138690543Y-126477393D01*
X138690542Y-126477394D01*
X138690541Y-126477394D01*
X138473248Y-126567400D01*
X138242572Y-126613284D01*
X138007372Y-126613284D01*
X137776696Y-126567400D01*
X137559403Y-126477394D01*
X137559402Y-126477394D01*
X137559401Y-126477393D01*
X137363842Y-126346724D01*
X137197532Y-126180414D01*
X137066863Y-125984855D01*
X137058975Y-125965811D01*
X136976856Y-125767560D01*
X136930972Y-125536884D01*
X136930972Y-125301684D01*
X136976856Y-125071008D01*
X137066862Y-124853715D01*
X137077777Y-124837380D01*
X137197532Y-124658154D01*
X137363842Y-124491844D01*
X137559401Y-124361175D01*
X137559403Y-124361174D01*
X137776696Y-124271168D01*
X138007372Y-124225284D01*
X138242572Y-124225284D01*
X138473248Y-124271168D01*
X138473248Y-124271168D01*
G37*
G36*
X199750362Y-124440722D02*
G01*
X199898321Y-124502009D01*
X200031475Y-124590979D01*
X200144721Y-124704225D01*
X200233691Y-124837379D01*
X200294978Y-124985338D01*
X200326220Y-125142405D01*
X200326220Y-125302555D01*
X200294978Y-125459622D01*
X200233691Y-125607581D01*
X200144721Y-125740735D01*
X200031475Y-125853981D01*
X199898321Y-125942951D01*
X199750362Y-126004238D01*
X199593295Y-126035480D01*
X199433145Y-126035480D01*
X199276078Y-126004238D01*
X199128119Y-125942951D01*
X198994965Y-125853981D01*
X198881719Y-125740735D01*
X198792749Y-125607581D01*
X198731462Y-125459622D01*
X198700220Y-125302555D01*
X198700220Y-125142405D01*
X198731462Y-124985338D01*
X198792749Y-124837379D01*
X198881719Y-124704225D01*
X198994965Y-124590979D01*
X199128119Y-124502009D01*
X199276078Y-124440722D01*
X199433145Y-124409480D01*
X199593295Y-124409480D01*
X199750362Y-124440722D01*
X199750362Y-124440722D01*
G37*
G36*
X214970362Y-124440722D02*
G01*
X215118321Y-124502009D01*
X215251475Y-124590979D01*
X215364721Y-124704225D01*
X215453691Y-124837379D01*
X215514978Y-124985338D01*
X215546220Y-125142405D01*
X215546220Y-125302555D01*
X215514978Y-125459622D01*
X215453691Y-125607581D01*
X215364721Y-125740735D01*
X215251475Y-125853981D01*
X215118321Y-125942951D01*
X214970362Y-126004238D01*
X214813295Y-126035480D01*
X214653145Y-126035480D01*
X214496078Y-126004238D01*
X214348119Y-125942951D01*
X214214965Y-125853981D01*
X214101719Y-125740735D01*
X214012749Y-125607581D01*
X213951462Y-125459622D01*
X213920220Y-125302555D01*
X213920220Y-125142405D01*
X213951462Y-124985338D01*
X214012749Y-124837379D01*
X214101719Y-124704225D01*
X214214965Y-124590979D01*
X214348119Y-124502009D01*
X214496078Y-124440722D01*
X214653145Y-124409480D01*
X214813295Y-124409480D01*
X214970362Y-124440722D01*
X214970362Y-124440722D01*
G37*
G36*
X125835411Y-123006145D02*
G01*
X126052704Y-123096151D01*
X126052706Y-123096152D01*
X126248265Y-123226821D01*
X126414575Y-123393131D01*
X126529554Y-123565208D01*
X126545245Y-123588692D01*
X126635251Y-123805985D01*
X126681135Y-124036661D01*
X126681135Y-124271861D01*
X126635251Y-124502537D01*
X126551709Y-124704225D01*
X126545244Y-124719832D01*
X126414575Y-124915391D01*
X126248265Y-125081701D01*
X126052706Y-125212370D01*
X126052705Y-125212371D01*
X126052704Y-125212371D01*
X125835411Y-125302377D01*
X125604735Y-125348261D01*
X125369535Y-125348261D01*
X125138859Y-125302377D01*
X124921566Y-125212371D01*
X124921565Y-125212371D01*
X124921564Y-125212370D01*
X124726005Y-125081701D01*
X124559695Y-124915391D01*
X124429026Y-124719832D01*
X124422561Y-124704225D01*
X124339019Y-124502537D01*
X124293135Y-124271861D01*
X124293135Y-124036661D01*
X124339019Y-123805985D01*
X124429025Y-123588692D01*
X124444717Y-123565208D01*
X124559695Y-123393131D01*
X124726005Y-123226821D01*
X124921564Y-123096152D01*
X124921566Y-123096151D01*
X125138859Y-123006145D01*
X125369535Y-122960261D01*
X125604735Y-122960261D01*
X125835411Y-123006145D01*
X125835411Y-123006145D01*
G37*
G36*
X294260010Y-122563393D02*
G01*
X294477303Y-122653399D01*
X294477305Y-122653400D01*
X294672864Y-122784069D01*
X294839174Y-122950379D01*
X294950666Y-123117237D01*
X294969844Y-123145940D01*
X295059850Y-123363233D01*
X295105734Y-123593909D01*
X295105734Y-123829109D01*
X295059850Y-124059785D01*
X294972005Y-124271860D01*
X294969843Y-124277080D01*
X294839174Y-124472639D01*
X294672864Y-124638949D01*
X294477305Y-124769618D01*
X294477304Y-124769619D01*
X294477303Y-124769619D01*
X294260010Y-124859625D01*
X294029334Y-124905509D01*
X293794134Y-124905509D01*
X293563458Y-124859625D01*
X293346165Y-124769619D01*
X293346164Y-124769619D01*
X293346163Y-124769618D01*
X293150604Y-124638949D01*
X292984294Y-124472639D01*
X292853625Y-124277080D01*
X292851463Y-124271860D01*
X292763618Y-124059785D01*
X292717734Y-123829109D01*
X292717734Y-123593909D01*
X292763618Y-123363233D01*
X292853624Y-123145940D01*
X292872803Y-123117237D01*
X292984294Y-122950379D01*
X293150604Y-122784069D01*
X293346163Y-122653400D01*
X293346165Y-122653399D01*
X293563458Y-122563393D01*
X293794134Y-122517509D01*
X294029334Y-122517509D01*
X294260010Y-122563393D01*
X294260010Y-122563393D01*
G37*
G36*
X145020460Y-122294273D02*
G01*
X145216387Y-122375429D01*
X145237755Y-122384280D01*
X145433314Y-122514949D01*
X145599624Y-122681259D01*
X145653945Y-122762555D01*
X145730294Y-122876820D01*
X145820300Y-123094113D01*
X145866184Y-123324789D01*
X145866184Y-123559989D01*
X145820300Y-123790665D01*
X145763796Y-123927077D01*
X145730293Y-124007960D01*
X145599624Y-124203519D01*
X145433314Y-124369829D01*
X145237755Y-124500498D01*
X145237754Y-124500499D01*
X145237753Y-124500499D01*
X145020460Y-124590505D01*
X144789784Y-124636389D01*
X144554584Y-124636389D01*
X144323908Y-124590505D01*
X144106615Y-124500499D01*
X144106614Y-124500499D01*
X144106613Y-124500498D01*
X143911054Y-124369829D01*
X143744744Y-124203519D01*
X143614075Y-124007960D01*
X143580572Y-123927077D01*
X143524068Y-123790665D01*
X143478184Y-123559989D01*
X143478184Y-123324789D01*
X143524068Y-123094113D01*
X143614074Y-122876820D01*
X143690424Y-122762555D01*
X143744744Y-122681259D01*
X143911054Y-122514949D01*
X144106613Y-122384280D01*
X144127981Y-122375429D01*
X144323908Y-122294273D01*
X144554584Y-122248389D01*
X144789784Y-122248389D01*
X145020460Y-122294273D01*
X145020460Y-122294273D01*
G37*
G36*
X275074961Y-121851521D02*
G01*
X275292254Y-121941527D01*
X275292256Y-121941528D01*
X275487815Y-122072197D01*
X275654125Y-122238507D01*
X275691388Y-122294274D01*
X275784795Y-122434068D01*
X275874801Y-122651361D01*
X275920685Y-122882037D01*
X275920685Y-123117237D01*
X275874801Y-123347913D01*
X275797472Y-123534601D01*
X275784794Y-123565208D01*
X275654125Y-123760767D01*
X275487815Y-123927077D01*
X275292256Y-124057746D01*
X275292255Y-124057747D01*
X275292254Y-124057747D01*
X275074961Y-124147753D01*
X274844285Y-124193637D01*
X274609085Y-124193637D01*
X274378409Y-124147753D01*
X274161116Y-124057747D01*
X274161115Y-124057747D01*
X274161114Y-124057746D01*
X273965555Y-123927077D01*
X273799245Y-123760767D01*
X273668576Y-123565208D01*
X273655898Y-123534601D01*
X273578569Y-123347913D01*
X273532685Y-123117237D01*
X273532685Y-122882037D01*
X273578569Y-122651361D01*
X273668575Y-122434068D01*
X273761983Y-122294274D01*
X273799245Y-122238507D01*
X273965555Y-122072197D01*
X274161114Y-121941528D01*
X274161116Y-121941527D01*
X274378409Y-121851521D01*
X274609085Y-121805637D01*
X274844285Y-121805637D01*
X275074961Y-121851521D01*
X275074961Y-121851521D01*
G37*
G36*
X187644102Y-122324885D02*
G01*
X187530624Y-123621931D01*
X186532436Y-123534601D01*
X186645914Y-122237555D01*
X187644102Y-122324885D01*
X187644102Y-122324885D01*
G37*
G36*
X214970362Y-121900722D02*
G01*
X215118321Y-121962009D01*
X215251475Y-122050979D01*
X215364721Y-122164225D01*
X215453691Y-122297379D01*
X215514978Y-122445338D01*
X215546220Y-122602405D01*
X215546220Y-122762555D01*
X215514978Y-122919622D01*
X215453691Y-123067581D01*
X215364721Y-123200735D01*
X215251475Y-123313981D01*
X215118321Y-123402951D01*
X214970362Y-123464238D01*
X214813295Y-123495480D01*
X214653145Y-123495480D01*
X214496078Y-123464238D01*
X214348119Y-123402951D01*
X214214965Y-123313981D01*
X214101719Y-123200735D01*
X214012749Y-123067581D01*
X213951462Y-122919622D01*
X213920220Y-122762555D01*
X213920220Y-122602405D01*
X213951462Y-122445338D01*
X214012749Y-122297379D01*
X214101719Y-122164225D01*
X214214965Y-122050979D01*
X214348119Y-121962009D01*
X214496078Y-121900722D01*
X214653145Y-121869480D01*
X214813295Y-121869480D01*
X214970362Y-121900722D01*
X214970362Y-121900722D01*
G37*
G36*
X199750362Y-121900722D02*
G01*
X199898321Y-121962009D01*
X200031475Y-122050979D01*
X200144721Y-122164225D01*
X200233691Y-122297379D01*
X200294978Y-122445338D01*
X200326220Y-122602405D01*
X200326220Y-122762555D01*
X200294978Y-122919622D01*
X200233691Y-123067581D01*
X200144721Y-123200735D01*
X200031475Y-123313981D01*
X199898321Y-123402951D01*
X199750362Y-123464238D01*
X199593295Y-123495480D01*
X199433145Y-123495480D01*
X199276078Y-123464238D01*
X199128119Y-123402951D01*
X198994965Y-123313981D01*
X198881719Y-123200735D01*
X198792749Y-123067581D01*
X198731462Y-122919622D01*
X198700220Y-122762555D01*
X198700220Y-122602405D01*
X198731462Y-122445338D01*
X198792749Y-122297379D01*
X198881719Y-122164225D01*
X198994965Y-122050979D01*
X199128119Y-121962009D01*
X199276078Y-121900722D01*
X199433145Y-121869480D01*
X199593295Y-121869480D01*
X199750362Y-121900722D01*
X199750362Y-121900722D01*
G37*
G36*
X184356660Y-122037271D02*
G01*
X184243182Y-123334317D01*
X183244994Y-123246987D01*
X183358472Y-121949941D01*
X184356660Y-122037271D01*
X184356660Y-122037271D01*
G37*
G36*
X237767711Y-122663043D02*
G01*
X236769523Y-122750373D01*
X236656045Y-121453327D01*
X237654233Y-121365997D01*
X237767711Y-122663043D01*
X237767711Y-122663043D01*
G37*
G36*
X241055153Y-122375429D02*
G01*
X240056965Y-122462759D01*
X239943487Y-121165713D01*
X240941675Y-121078383D01*
X241055153Y-122375429D01*
X241055153Y-122375429D01*
G37*
G36*
X168666593Y-120664568D02*
G01*
X168553115Y-121961614D01*
X167554927Y-121874284D01*
X167668405Y-120577238D01*
X168666593Y-120664568D01*
X168666593Y-120664568D01*
G37*
G36*
X165379151Y-120376954D02*
G01*
X165265673Y-121674000D01*
X164267485Y-121586670D01*
X164380963Y-120289624D01*
X165379151Y-120376954D01*
X165379151Y-120376954D01*
G37*
G36*
X256745220Y-121002726D02*
G01*
X255747032Y-121090056D01*
X255633554Y-119793010D01*
X256631742Y-119705680D01*
X256745220Y-121002726D01*
X256745220Y-121002726D01*
G37*
G36*
X214970362Y-119360722D02*
G01*
X215118321Y-119422009D01*
X215251475Y-119510979D01*
X215364721Y-119624225D01*
X215453691Y-119757379D01*
X215514978Y-119905338D01*
X215546220Y-120062405D01*
X215546220Y-120222555D01*
X215514978Y-120379622D01*
X215453691Y-120527581D01*
X215364721Y-120660735D01*
X215251475Y-120773981D01*
X215118321Y-120862951D01*
X214970362Y-120924238D01*
X214813295Y-120955480D01*
X214653145Y-120955480D01*
X214496078Y-120924238D01*
X214348119Y-120862951D01*
X214214965Y-120773981D01*
X214101719Y-120660735D01*
X214012749Y-120527581D01*
X213951462Y-120379622D01*
X213920220Y-120222555D01*
X213920220Y-120062405D01*
X213951462Y-119905338D01*
X214012749Y-119757379D01*
X214101719Y-119624225D01*
X214214965Y-119510979D01*
X214348119Y-119422009D01*
X214496078Y-119360722D01*
X214653145Y-119329480D01*
X214813295Y-119329480D01*
X214970362Y-119360722D01*
X214970362Y-119360722D01*
G37*
G36*
X199750362Y-119360722D02*
G01*
X199898321Y-119422009D01*
X200031475Y-119510979D01*
X200144721Y-119624225D01*
X200233691Y-119757379D01*
X200294978Y-119905338D01*
X200326220Y-120062405D01*
X200326220Y-120222555D01*
X200294978Y-120379622D01*
X200233691Y-120527581D01*
X200144721Y-120660735D01*
X200031475Y-120773981D01*
X199898321Y-120862951D01*
X199750362Y-120924238D01*
X199593295Y-120955480D01*
X199433145Y-120955480D01*
X199276078Y-120924238D01*
X199128119Y-120862951D01*
X198994965Y-120773981D01*
X198881719Y-120660735D01*
X198792749Y-120527581D01*
X198731462Y-120379622D01*
X198700220Y-120222555D01*
X198700220Y-120062405D01*
X198731462Y-119905338D01*
X198792749Y-119757379D01*
X198881719Y-119624225D01*
X198994965Y-119510979D01*
X199128119Y-119422009D01*
X199276078Y-119360722D01*
X199433145Y-119329480D01*
X199593295Y-119329480D01*
X199750362Y-119360722D01*
X199750362Y-119360722D01*
G37*
G36*
X260032662Y-120715112D02*
G01*
X259034474Y-120802442D01*
X258920996Y-119505396D01*
X259919184Y-119418066D01*
X260032662Y-120715112D01*
X260032662Y-120715112D01*
G37*
G36*
X111485018Y-118530244D02*
G01*
X111371540Y-119827290D01*
X110373352Y-119739960D01*
X110486830Y-118442914D01*
X111485018Y-118530244D01*
X111485018Y-118530244D01*
G37*
G36*
X108197576Y-118242630D02*
G01*
X108084098Y-119539676D01*
X107085910Y-119452346D01*
X107199388Y-118155300D01*
X108197576Y-118242630D01*
X108197576Y-118242630D01*
G37*
G36*
X313926794Y-118868403D02*
G01*
X312928606Y-118955733D01*
X312815128Y-117658687D01*
X313813316Y-117571357D01*
X313926794Y-118868403D01*
X313926794Y-118868403D01*
G37*
G36*
X317214236Y-118580789D02*
G01*
X316216048Y-118668119D01*
X316102570Y-117371073D01*
X317100758Y-117283743D01*
X317214236Y-118580789D01*
X317214236Y-118580789D01*
G37*
G36*
X214970362Y-116820722D02*
G01*
X215118321Y-116882009D01*
X215251475Y-116970979D01*
X215364721Y-117084225D01*
X215453691Y-117217379D01*
X215514978Y-117365338D01*
X215546220Y-117522405D01*
X215546220Y-117682555D01*
X215514978Y-117839622D01*
X215453691Y-117987581D01*
X215364721Y-118120735D01*
X215251475Y-118233981D01*
X215118321Y-118322951D01*
X214970362Y-118384238D01*
X214813295Y-118415480D01*
X214653145Y-118415480D01*
X214496078Y-118384238D01*
X214348119Y-118322951D01*
X214214965Y-118233981D01*
X214101719Y-118120735D01*
X214012749Y-117987581D01*
X213951462Y-117839622D01*
X213920220Y-117682555D01*
X213920220Y-117522405D01*
X213951462Y-117365338D01*
X214012749Y-117217379D01*
X214101719Y-117084225D01*
X214214965Y-116970979D01*
X214348119Y-116882009D01*
X214496078Y-116820722D01*
X214653145Y-116789480D01*
X214813295Y-116789480D01*
X214970362Y-116820722D01*
X214970362Y-116820722D01*
G37*
G36*
X199750362Y-116820722D02*
G01*
X199898321Y-116882009D01*
X200031475Y-116970979D01*
X200144721Y-117084225D01*
X200233691Y-117217379D01*
X200294978Y-117365338D01*
X200326220Y-117522405D01*
X200326220Y-117682555D01*
X200294978Y-117839622D01*
X200233691Y-117987581D01*
X200144721Y-118120735D01*
X200031475Y-118233981D01*
X199898321Y-118322951D01*
X199750362Y-118384238D01*
X199593295Y-118415480D01*
X199433145Y-118415480D01*
X199276078Y-118384238D01*
X199128119Y-118322951D01*
X198994965Y-118233981D01*
X198881719Y-118120735D01*
X198792749Y-117987581D01*
X198731462Y-117839622D01*
X198700220Y-117682555D01*
X198700220Y-117522405D01*
X198731462Y-117365338D01*
X198792749Y-117217379D01*
X198881719Y-117084225D01*
X198994965Y-116970979D01*
X199128119Y-116882009D01*
X199276078Y-116820722D01*
X199433145Y-116789480D01*
X199593295Y-116789480D01*
X199750362Y-116820722D01*
X199750362Y-116820722D01*
G37*
G36*
X92507509Y-116869927D02*
G01*
X92394031Y-118166973D01*
X91395843Y-118079643D01*
X91509321Y-116782597D01*
X92507509Y-116869927D01*
X92507509Y-116869927D01*
G37*
G36*
X89220067Y-116582313D02*
G01*
X89106589Y-117879359D01*
X88108401Y-117792029D01*
X88221879Y-116494983D01*
X89220067Y-116582313D01*
X89220067Y-116582313D01*
G37*
G36*
X332904303Y-117208086D02*
G01*
X331906115Y-117295416D01*
X331792637Y-115998370D01*
X332790825Y-115911040D01*
X332904303Y-117208086D01*
X332904303Y-117208086D01*
G37*
G36*
X336191745Y-116920472D02*
G01*
X335193557Y-117007802D01*
X335080079Y-115710756D01*
X336078267Y-115623426D01*
X336191745Y-116920472D01*
X336191745Y-116920472D01*
G37*
G36*
X229770246Y-114022796D02*
G01*
X229957086Y-114100188D01*
X229987541Y-114112803D01*
X230183100Y-114243472D01*
X230349410Y-114409782D01*
X230474373Y-114596801D01*
X230480080Y-114605343D01*
X230570086Y-114822636D01*
X230615970Y-115053312D01*
X230615970Y-115288512D01*
X230570086Y-115519188D01*
X230480080Y-115736481D01*
X230480079Y-115736483D01*
X230349410Y-115932042D01*
X230183100Y-116098352D01*
X229987541Y-116229021D01*
X229987540Y-116229022D01*
X229987539Y-116229022D01*
X229770246Y-116319028D01*
X229539570Y-116364912D01*
X229304370Y-116364912D01*
X229073694Y-116319028D01*
X228856401Y-116229022D01*
X228856400Y-116229022D01*
X228856399Y-116229021D01*
X228660840Y-116098352D01*
X228494530Y-115932042D01*
X228363861Y-115736483D01*
X228363860Y-115736481D01*
X228273854Y-115519188D01*
X228227970Y-115288512D01*
X228227970Y-115053312D01*
X228273854Y-114822636D01*
X228363860Y-114605343D01*
X228369568Y-114596801D01*
X228494530Y-114409782D01*
X228660840Y-114243472D01*
X228856399Y-114112803D01*
X228886854Y-114100188D01*
X229073694Y-114022796D01*
X229304370Y-113976912D01*
X229539570Y-113976912D01*
X229770246Y-114022796D01*
X229770246Y-114022796D01*
G37*
G36*
X130919115Y-114971745D02*
G01*
X130805637Y-116268791D01*
X129807449Y-116181461D01*
X129920927Y-114884415D01*
X130919115Y-114971745D01*
X130919115Y-114971745D01*
G37*
G36*
X127631673Y-114684131D02*
G01*
X127518195Y-115981177D01*
X126520007Y-115893847D01*
X126633485Y-114596801D01*
X127631673Y-114684131D01*
X127631673Y-114684131D01*
G37*
G36*
X214970362Y-114280722D02*
G01*
X215118321Y-114342009D01*
X215251475Y-114430979D01*
X215364721Y-114544225D01*
X215453691Y-114677379D01*
X215514978Y-114825338D01*
X215546220Y-114982405D01*
X215546220Y-115142555D01*
X215514978Y-115299622D01*
X215453691Y-115447581D01*
X215364721Y-115580735D01*
X215251475Y-115693981D01*
X215118321Y-115782951D01*
X214970362Y-115844238D01*
X214813295Y-115875480D01*
X214653145Y-115875480D01*
X214496078Y-115844238D01*
X214348119Y-115782951D01*
X214214965Y-115693981D01*
X214101719Y-115580735D01*
X214012749Y-115447581D01*
X213951462Y-115299622D01*
X213920220Y-115142555D01*
X213920220Y-114982405D01*
X213951462Y-114825338D01*
X214012749Y-114677379D01*
X214101719Y-114544225D01*
X214214965Y-114430979D01*
X214348119Y-114342009D01*
X214496078Y-114280722D01*
X214653145Y-114249480D01*
X214813295Y-114249480D01*
X214970362Y-114280722D01*
X214970362Y-114280722D01*
G37*
G36*
X199750362Y-114280722D02*
G01*
X199898321Y-114342009D01*
X200031475Y-114430979D01*
X200144721Y-114544225D01*
X200233691Y-114677379D01*
X200294978Y-114825338D01*
X200326220Y-114982405D01*
X200326220Y-115142555D01*
X200294978Y-115299622D01*
X200233691Y-115447581D01*
X200144721Y-115580735D01*
X200031475Y-115693981D01*
X199898321Y-115782951D01*
X199750362Y-115844238D01*
X199593295Y-115875480D01*
X199433145Y-115875480D01*
X199276078Y-115844238D01*
X199128119Y-115782951D01*
X198994965Y-115693981D01*
X198881719Y-115580735D01*
X198792749Y-115447581D01*
X198731462Y-115299622D01*
X198700220Y-115142555D01*
X198700220Y-114982405D01*
X198731462Y-114825338D01*
X198792749Y-114677379D01*
X198881719Y-114544225D01*
X198994965Y-114430979D01*
X199128119Y-114342009D01*
X199276078Y-114280722D01*
X199433145Y-114249480D01*
X199593295Y-114249480D01*
X199750362Y-114280722D01*
X199750362Y-114280722D01*
G37*
G36*
X177673503Y-113358669D02*
G01*
X177890796Y-113448675D01*
X177890798Y-113448676D01*
X178086357Y-113579345D01*
X178252667Y-113745655D01*
X178328317Y-113858872D01*
X178383337Y-113941216D01*
X178473343Y-114158509D01*
X178519227Y-114389185D01*
X178519227Y-114624385D01*
X178473343Y-114855061D01*
X178404074Y-115022290D01*
X178383336Y-115072356D01*
X178252667Y-115267915D01*
X178086357Y-115434225D01*
X177890798Y-115564894D01*
X177890797Y-115564895D01*
X177890796Y-115564895D01*
X177673503Y-115654901D01*
X177442827Y-115700785D01*
X177207627Y-115700785D01*
X176976951Y-115654901D01*
X176759658Y-115564895D01*
X176759657Y-115564895D01*
X176759656Y-115564894D01*
X176564097Y-115434225D01*
X176397787Y-115267915D01*
X176267118Y-115072356D01*
X176246380Y-115022290D01*
X176177111Y-114855061D01*
X176131227Y-114624385D01*
X176131227Y-114389185D01*
X176177111Y-114158509D01*
X176267117Y-113941216D01*
X176322138Y-113858872D01*
X176397787Y-113745655D01*
X176564097Y-113579345D01*
X176759656Y-113448676D01*
X176759658Y-113448675D01*
X176976951Y-113358669D01*
X177207627Y-113312785D01*
X177442827Y-113312785D01*
X177673503Y-113358669D01*
X177673503Y-113358669D01*
G37*
G36*
X150104163Y-114259874D02*
G01*
X149990685Y-115556920D01*
X148992497Y-115469590D01*
X149105975Y-114172544D01*
X150104163Y-114259874D01*
X150104163Y-114259874D01*
G37*
G36*
X294492698Y-115309904D02*
G01*
X293494510Y-115397234D01*
X293381032Y-114100188D01*
X294379220Y-114012858D01*
X294492698Y-115309904D01*
X294492698Y-115309904D01*
G37*
G36*
X146816721Y-113972260D02*
G01*
X146703243Y-115269306D01*
X145705055Y-115181976D01*
X145818533Y-113884930D01*
X146816721Y-113972260D01*
X146816721Y-113972260D01*
G37*
G36*
X297780140Y-115022290D02*
G01*
X296781952Y-115109620D01*
X296668474Y-113812574D01*
X297666662Y-113725244D01*
X297780140Y-115022290D01*
X297780140Y-115022290D01*
G37*
G36*
X248747755Y-112362479D02*
G01*
X248940715Y-112442406D01*
X248965050Y-112452486D01*
X249160609Y-112583155D01*
X249326919Y-112749465D01*
X249432569Y-112907580D01*
X249457589Y-112945026D01*
X249547595Y-113162319D01*
X249593479Y-113392995D01*
X249593479Y-113628195D01*
X249547595Y-113858871D01*
X249483811Y-114012858D01*
X249457588Y-114076166D01*
X249326919Y-114271725D01*
X249160609Y-114438035D01*
X248965050Y-114568704D01*
X248965049Y-114568705D01*
X248965048Y-114568705D01*
X248747755Y-114658711D01*
X248517079Y-114704595D01*
X248281879Y-114704595D01*
X248051203Y-114658711D01*
X247833910Y-114568705D01*
X247833909Y-114568705D01*
X247833908Y-114568704D01*
X247638349Y-114438035D01*
X247472039Y-114271725D01*
X247341370Y-114076166D01*
X247315147Y-114012858D01*
X247251363Y-113858871D01*
X247205479Y-113628195D01*
X247205479Y-113392995D01*
X247251363Y-113162319D01*
X247341369Y-112945026D01*
X247366390Y-112907580D01*
X247472039Y-112749465D01*
X247638349Y-112583155D01*
X247833908Y-112452486D01*
X247858243Y-112442406D01*
X248051203Y-112362479D01*
X248281879Y-112316595D01*
X248517079Y-112316595D01*
X248747755Y-112362479D01*
X248747755Y-112362479D01*
G37*
G36*
X275307650Y-114598033D02*
G01*
X274309462Y-114685363D01*
X274195984Y-113388317D01*
X275194172Y-113300987D01*
X275307650Y-114598033D01*
X275307650Y-114598033D01*
G37*
G36*
X278595092Y-114310419D02*
G01*
X277596904Y-114397749D01*
X277483426Y-113100703D01*
X278481614Y-113013373D01*
X278595092Y-114310419D01*
X278595092Y-114310419D01*
G37*
G36*
X158695994Y-111698352D02*
G01*
X158913287Y-111788358D01*
X158913289Y-111788359D01*
X159108848Y-111919028D01*
X159275158Y-112085338D01*
X159309932Y-112137380D01*
X159405828Y-112280899D01*
X159495834Y-112498192D01*
X159541718Y-112728868D01*
X159541718Y-112964068D01*
X159495834Y-113194744D01*
X159437539Y-113335480D01*
X159405827Y-113412039D01*
X159275158Y-113607598D01*
X159108848Y-113773908D01*
X158913289Y-113904577D01*
X158913288Y-113904578D01*
X158913287Y-113904578D01*
X158695994Y-113994584D01*
X158465318Y-114040468D01*
X158230118Y-114040468D01*
X157999442Y-113994584D01*
X157782149Y-113904578D01*
X157782148Y-113904578D01*
X157782147Y-113904577D01*
X157586588Y-113773908D01*
X157420278Y-113607598D01*
X157289609Y-113412039D01*
X157257897Y-113335480D01*
X157199602Y-113194744D01*
X157153718Y-112964068D01*
X157153718Y-112728868D01*
X157199602Y-112498192D01*
X157289608Y-112280899D01*
X157385505Y-112137380D01*
X157420278Y-112085338D01*
X157586588Y-111919028D01*
X157782147Y-111788359D01*
X157782149Y-111788358D01*
X157999442Y-111698352D01*
X158230118Y-111652468D01*
X158465318Y-111652468D01*
X158695994Y-111698352D01*
X158695994Y-111698352D01*
G37*
G36*
X184220715Y-111381774D02*
G01*
X184438008Y-111471780D01*
X184438010Y-111471781D01*
X184633569Y-111602450D01*
X184799879Y-111768760D01*
X184915529Y-111941841D01*
X184930549Y-111964321D01*
X185020555Y-112181614D01*
X185066439Y-112412290D01*
X185066439Y-112647490D01*
X185020555Y-112878166D01*
X184930549Y-113095459D01*
X184930548Y-113095461D01*
X184799879Y-113291020D01*
X184633569Y-113457330D01*
X184438010Y-113587999D01*
X184438009Y-113588000D01*
X184438008Y-113588000D01*
X184220715Y-113678006D01*
X183990039Y-113723890D01*
X183754839Y-113723890D01*
X183524163Y-113678006D01*
X183306870Y-113588000D01*
X183306869Y-113588000D01*
X183306868Y-113587999D01*
X183111309Y-113457330D01*
X182944999Y-113291020D01*
X182814330Y-113095461D01*
X182814329Y-113095459D01*
X182724323Y-112878166D01*
X182678439Y-112647490D01*
X182678439Y-112412290D01*
X182724323Y-112181614D01*
X182814329Y-111964321D01*
X182829350Y-111941841D01*
X182944999Y-111768760D01*
X183111309Y-111602450D01*
X183306868Y-111471781D01*
X183306870Y-111471780D01*
X183524163Y-111381774D01*
X183754839Y-111335890D01*
X183990039Y-111335890D01*
X184220715Y-111381774D01*
X184220715Y-111381774D01*
G37*
G36*
X214970362Y-111740722D02*
G01*
X215118321Y-111802009D01*
X215251475Y-111890979D01*
X215364721Y-112004225D01*
X215453691Y-112137379D01*
X215514978Y-112285338D01*
X215546220Y-112442405D01*
X215546220Y-112602555D01*
X215514978Y-112759622D01*
X215453691Y-112907581D01*
X215364721Y-113040735D01*
X215251475Y-113153981D01*
X215118321Y-113242951D01*
X214970362Y-113304238D01*
X214813295Y-113335480D01*
X214653145Y-113335480D01*
X214496078Y-113304238D01*
X214348119Y-113242951D01*
X214214965Y-113153981D01*
X214101719Y-113040735D01*
X214012749Y-112907581D01*
X213951462Y-112759622D01*
X213920220Y-112602555D01*
X213920220Y-112442405D01*
X213951462Y-112285338D01*
X214012749Y-112137379D01*
X214101719Y-112004225D01*
X214214965Y-111890979D01*
X214348119Y-111802009D01*
X214496078Y-111740722D01*
X214653145Y-111709480D01*
X214813295Y-111709480D01*
X214970362Y-111740722D01*
X214970362Y-111740722D01*
G37*
G36*
X199750362Y-111740722D02*
G01*
X199898321Y-111802009D01*
X200031475Y-111890979D01*
X200144721Y-112004225D01*
X200233691Y-112137379D01*
X200294978Y-112285338D01*
X200326220Y-112442405D01*
X200326220Y-112602555D01*
X200294978Y-112759622D01*
X200233691Y-112907581D01*
X200144721Y-113040735D01*
X200031475Y-113153981D01*
X199898321Y-113242951D01*
X199750362Y-113304238D01*
X199593295Y-113335480D01*
X199433145Y-113335480D01*
X199276078Y-113304238D01*
X199128119Y-113242951D01*
X198994965Y-113153981D01*
X198881719Y-113040735D01*
X198792749Y-112907581D01*
X198731462Y-112759622D01*
X198700220Y-112602555D01*
X198700220Y-112442405D01*
X198731462Y-112285338D01*
X198792749Y-112137379D01*
X198881719Y-112004225D01*
X198994965Y-111890979D01*
X199128119Y-111802009D01*
X199276078Y-111740722D01*
X199433145Y-111709480D01*
X199593295Y-111709480D01*
X199750362Y-111740722D01*
X199750362Y-111740722D01*
G37*
G36*
X235874706Y-110939022D02*
G01*
X236091999Y-111029028D01*
X236092001Y-111029029D01*
X236287560Y-111159698D01*
X236453870Y-111326008D01*
X236566034Y-111493872D01*
X236584540Y-111521569D01*
X236674546Y-111738862D01*
X236720430Y-111969538D01*
X236720430Y-112204738D01*
X236674546Y-112435414D01*
X236586701Y-112647489D01*
X236584539Y-112652709D01*
X236453870Y-112848268D01*
X236287560Y-113014578D01*
X236092001Y-113145247D01*
X236092000Y-113145248D01*
X236091999Y-113145248D01*
X235874706Y-113235254D01*
X235644030Y-113281138D01*
X235408830Y-113281138D01*
X235178154Y-113235254D01*
X234960861Y-113145248D01*
X234960860Y-113145248D01*
X234960859Y-113145247D01*
X234765300Y-113014578D01*
X234598990Y-112848268D01*
X234468321Y-112652709D01*
X234466159Y-112647489D01*
X234378314Y-112435414D01*
X234332430Y-112204738D01*
X234332430Y-111969538D01*
X234378314Y-111738862D01*
X234468320Y-111521569D01*
X234486827Y-111493872D01*
X234598990Y-111326008D01*
X234765300Y-111159698D01*
X234960859Y-111029029D01*
X234960861Y-111029028D01*
X235178154Y-110939022D01*
X235408830Y-110893138D01*
X235644030Y-110893138D01*
X235874706Y-110939022D01*
X235874706Y-110939022D01*
G37*
G36*
X305929329Y-110228156D02*
G01*
X306146622Y-110318162D01*
X306146624Y-110318163D01*
X306342183Y-110448832D01*
X306508493Y-110615142D01*
X306628992Y-110795480D01*
X306639163Y-110810703D01*
X306729169Y-111027996D01*
X306775053Y-111258672D01*
X306775053Y-111493872D01*
X306729169Y-111724548D01*
X306660231Y-111890979D01*
X306639162Y-111941843D01*
X306508493Y-112137402D01*
X306342183Y-112303712D01*
X306146624Y-112434381D01*
X306146623Y-112434382D01*
X306146622Y-112434382D01*
X305929329Y-112524388D01*
X305698653Y-112570272D01*
X305463453Y-112570272D01*
X305232777Y-112524388D01*
X305015484Y-112434382D01*
X305015483Y-112434382D01*
X305015482Y-112434381D01*
X304819923Y-112303712D01*
X304653613Y-112137402D01*
X304522944Y-111941843D01*
X304501875Y-111890979D01*
X304432937Y-111724548D01*
X304387053Y-111493872D01*
X304387053Y-111258672D01*
X304432937Y-111027996D01*
X304522943Y-110810703D01*
X304533115Y-110795480D01*
X304653613Y-110615142D01*
X304819923Y-110448832D01*
X305015482Y-110318163D01*
X305015484Y-110318162D01*
X305232777Y-110228156D01*
X305463453Y-110182272D01*
X305698653Y-110182272D01*
X305929329Y-110228156D01*
X305929329Y-110228156D01*
G37*
G36*
X165243206Y-109721457D02*
G01*
X165460499Y-109811463D01*
X165460501Y-109811464D01*
X165656060Y-109942133D01*
X165822370Y-110108443D01*
X165938020Y-110281524D01*
X165953040Y-110304004D01*
X166043046Y-110521297D01*
X166088930Y-110751973D01*
X166088930Y-110987173D01*
X166043046Y-111217849D01*
X165986542Y-111354261D01*
X165953039Y-111435144D01*
X165822370Y-111630703D01*
X165656060Y-111797013D01*
X165460501Y-111927682D01*
X165460500Y-111927683D01*
X165460499Y-111927683D01*
X165243206Y-112017689D01*
X165012530Y-112063573D01*
X164777330Y-112063573D01*
X164546654Y-112017689D01*
X164329361Y-111927683D01*
X164329360Y-111927683D01*
X164329359Y-111927682D01*
X164133800Y-111797013D01*
X163967490Y-111630703D01*
X163836821Y-111435144D01*
X163803318Y-111354261D01*
X163746814Y-111217849D01*
X163700930Y-110987173D01*
X163700930Y-110751973D01*
X163746814Y-110521297D01*
X163836820Y-110304004D01*
X163851841Y-110281524D01*
X163967490Y-110108443D01*
X164133800Y-109942133D01*
X164329359Y-109811464D01*
X164329361Y-109811463D01*
X164546654Y-109721457D01*
X164777330Y-109675573D01*
X165012530Y-109675573D01*
X165243206Y-109721457D01*
X165243206Y-109721457D01*
G37*
G36*
X101514420Y-109564029D02*
G01*
X101731713Y-109654035D01*
X101731715Y-109654036D01*
X101927274Y-109784705D01*
X102093584Y-109951015D01*
X102198775Y-110108443D01*
X102224254Y-110146576D01*
X102314260Y-110363869D01*
X102360144Y-110594545D01*
X102360144Y-110829745D01*
X102314260Y-111060421D01*
X102232141Y-111258672D01*
X102224253Y-111277716D01*
X102093584Y-111473275D01*
X101927274Y-111639585D01*
X101731715Y-111770254D01*
X101731714Y-111770255D01*
X101731713Y-111770255D01*
X101514420Y-111860261D01*
X101283744Y-111906145D01*
X101048544Y-111906145D01*
X100817868Y-111860261D01*
X100600575Y-111770255D01*
X100600574Y-111770255D01*
X100600573Y-111770254D01*
X100405014Y-111639585D01*
X100238704Y-111473275D01*
X100108035Y-111277716D01*
X100100147Y-111258672D01*
X100018028Y-111060421D01*
X99972144Y-110829745D01*
X99972144Y-110594545D01*
X100018028Y-110363869D01*
X100108034Y-110146576D01*
X100133514Y-110108443D01*
X100238704Y-109951015D01*
X100405014Y-109784705D01*
X100600573Y-109654036D01*
X100600575Y-109654035D01*
X100817868Y-109564029D01*
X101048544Y-109518145D01*
X101283744Y-109518145D01*
X101514420Y-109564029D01*
X101514420Y-109564029D01*
G37*
G36*
X254852215Y-109278705D02*
G01*
X255069508Y-109368711D01*
X255069510Y-109368712D01*
X255265069Y-109499381D01*
X255431379Y-109665691D01*
X255543543Y-109833555D01*
X255562049Y-109861252D01*
X255652055Y-110078545D01*
X255697939Y-110309221D01*
X255697939Y-110544421D01*
X255652055Y-110775097D01*
X255584155Y-110939022D01*
X255562048Y-110992392D01*
X255431379Y-111187951D01*
X255265069Y-111354261D01*
X255069510Y-111484930D01*
X255069509Y-111484931D01*
X255069508Y-111484931D01*
X254852215Y-111574937D01*
X254621539Y-111620821D01*
X254386339Y-111620821D01*
X254155663Y-111574937D01*
X253938370Y-111484931D01*
X253938369Y-111484931D01*
X253938368Y-111484930D01*
X253742809Y-111354261D01*
X253576499Y-111187951D01*
X253445830Y-110992392D01*
X253423723Y-110939022D01*
X253355823Y-110775097D01*
X253309939Y-110544421D01*
X253309939Y-110309221D01*
X253355823Y-110078545D01*
X253445829Y-109861252D01*
X253464336Y-109833555D01*
X253576499Y-109665691D01*
X253742809Y-109499381D01*
X253938368Y-109368712D01*
X253938370Y-109368711D01*
X254155663Y-109278705D01*
X254386339Y-109232821D01*
X254621539Y-109232821D01*
X254852215Y-109278705D01*
X254852215Y-109278705D01*
G37*
G36*
X324906838Y-108567839D02*
G01*
X325124131Y-108657845D01*
X325124133Y-108657846D01*
X325319692Y-108788515D01*
X325486002Y-108954825D01*
X325571998Y-109083526D01*
X325616672Y-109150386D01*
X325706678Y-109367679D01*
X325752562Y-109598355D01*
X325752562Y-109833555D01*
X325706678Y-110064231D01*
X325642312Y-110219623D01*
X325616671Y-110281526D01*
X325486002Y-110477085D01*
X325319692Y-110643395D01*
X325124133Y-110774064D01*
X325124132Y-110774065D01*
X325124131Y-110774065D01*
X324906838Y-110864071D01*
X324676162Y-110909955D01*
X324440962Y-110909955D01*
X324210286Y-110864071D01*
X323992993Y-110774065D01*
X323992992Y-110774065D01*
X323992991Y-110774064D01*
X323797432Y-110643395D01*
X323631122Y-110477085D01*
X323500453Y-110281526D01*
X323474812Y-110219623D01*
X323410446Y-110064231D01*
X323364562Y-109833555D01*
X323364562Y-109598355D01*
X323410446Y-109367679D01*
X323500452Y-109150386D01*
X323545127Y-109083526D01*
X323631122Y-108954825D01*
X323797432Y-108788515D01*
X323992991Y-108657846D01*
X323992993Y-108657845D01*
X324210286Y-108567839D01*
X324440962Y-108521955D01*
X324676162Y-108521955D01*
X324906838Y-108567839D01*
X324906838Y-108567839D01*
G37*
G36*
X214970362Y-109200722D02*
G01*
X215118321Y-109262009D01*
X215251475Y-109350979D01*
X215364721Y-109464225D01*
X215453691Y-109597379D01*
X215514978Y-109745338D01*
X215546220Y-109902405D01*
X215546220Y-110062555D01*
X215514978Y-110219622D01*
X215453691Y-110367581D01*
X215364721Y-110500735D01*
X215251475Y-110613981D01*
X215118321Y-110702951D01*
X214970362Y-110764238D01*
X214813295Y-110795480D01*
X214653145Y-110795480D01*
X214496078Y-110764238D01*
X214348119Y-110702951D01*
X214214965Y-110613981D01*
X214101719Y-110500735D01*
X214012749Y-110367581D01*
X213951462Y-110219622D01*
X213920220Y-110062555D01*
X213920220Y-109902405D01*
X213951462Y-109745338D01*
X214012749Y-109597379D01*
X214101719Y-109464225D01*
X214214965Y-109350979D01*
X214348119Y-109262009D01*
X214496078Y-109200722D01*
X214653145Y-109169480D01*
X214813295Y-109169480D01*
X214970362Y-109200722D01*
X214970362Y-109200722D01*
G37*
G36*
X199750362Y-109200722D02*
G01*
X199898321Y-109262009D01*
X200031475Y-109350979D01*
X200144721Y-109464225D01*
X200233691Y-109597379D01*
X200294978Y-109745338D01*
X200326220Y-109902405D01*
X200326220Y-110062555D01*
X200294978Y-110219622D01*
X200233691Y-110367581D01*
X200144721Y-110500735D01*
X200031475Y-110613981D01*
X199898321Y-110702951D01*
X199750362Y-110764238D01*
X199593295Y-110795480D01*
X199433145Y-110795480D01*
X199276078Y-110764238D01*
X199128119Y-110702951D01*
X198994965Y-110613981D01*
X198881719Y-110500735D01*
X198792749Y-110367581D01*
X198731462Y-110219622D01*
X198700220Y-110062555D01*
X198700220Y-109902405D01*
X198731462Y-109745338D01*
X198792749Y-109597379D01*
X198881719Y-109464225D01*
X198994965Y-109350979D01*
X199128119Y-109262009D01*
X199276078Y-109200722D01*
X199433145Y-109169480D01*
X199593295Y-109169480D01*
X199750362Y-109200722D01*
X199750362Y-109200722D01*
G37*
G36*
X82536911Y-107903712D02*
G01*
X82706890Y-107974120D01*
X82754206Y-107993719D01*
X82874323Y-108073979D01*
X82949765Y-108124388D01*
X83116075Y-108290698D01*
X83246745Y-108486259D01*
X83336751Y-108703552D01*
X83382635Y-108934228D01*
X83382635Y-109169428D01*
X83336751Y-109400104D01*
X83268851Y-109564029D01*
X83246744Y-109617399D01*
X83116075Y-109812958D01*
X82949765Y-109979268D01*
X82754206Y-110109937D01*
X82754205Y-110109938D01*
X82754204Y-110109938D01*
X82536911Y-110199944D01*
X82306235Y-110245828D01*
X82071035Y-110245828D01*
X81840359Y-110199944D01*
X81623066Y-110109938D01*
X81623065Y-110109938D01*
X81623064Y-110109937D01*
X81427505Y-109979268D01*
X81261195Y-109812958D01*
X81130526Y-109617399D01*
X81108419Y-109564029D01*
X81040519Y-109400104D01*
X80994635Y-109169428D01*
X80994635Y-108934228D01*
X81040519Y-108703552D01*
X81130525Y-108486259D01*
X81261195Y-108290698D01*
X81427505Y-108124388D01*
X81502947Y-108073979D01*
X81623064Y-107993719D01*
X81670380Y-107974120D01*
X81840359Y-107903712D01*
X82071035Y-107857828D01*
X82306235Y-107857828D01*
X82536911Y-107903712D01*
X82536911Y-107903712D01*
G37*
G36*
X108061632Y-107587134D02*
G01*
X108278925Y-107677140D01*
X108278927Y-107677141D01*
X108474486Y-107807810D01*
X108640796Y-107974120D01*
X108767678Y-108164011D01*
X108771466Y-108169681D01*
X108861472Y-108386974D01*
X108907356Y-108617650D01*
X108907356Y-108852850D01*
X108861472Y-109083526D01*
X108771466Y-109300819D01*
X108771465Y-109300821D01*
X108640796Y-109496380D01*
X108474486Y-109662690D01*
X108278927Y-109793359D01*
X108278926Y-109793360D01*
X108278925Y-109793360D01*
X108061632Y-109883366D01*
X107830956Y-109929250D01*
X107595756Y-109929250D01*
X107365080Y-109883366D01*
X107147787Y-109793360D01*
X107147786Y-109793360D01*
X107147785Y-109793359D01*
X106952226Y-109662690D01*
X106785916Y-109496380D01*
X106655247Y-109300821D01*
X106655246Y-109300819D01*
X106565240Y-109083526D01*
X106519356Y-108852850D01*
X106519356Y-108617650D01*
X106565240Y-108386974D01*
X106655246Y-108169681D01*
X106659035Y-108164011D01*
X106785916Y-107974120D01*
X106952226Y-107807810D01*
X107147785Y-107677141D01*
X107147787Y-107677140D01*
X107365080Y-107587134D01*
X107595756Y-107541250D01*
X107830956Y-107541250D01*
X108061632Y-107587134D01*
X108061632Y-107587134D01*
G37*
G36*
X312033789Y-107144382D02*
G01*
X312251082Y-107234388D01*
X312251084Y-107234389D01*
X312446643Y-107365058D01*
X312612953Y-107531368D01*
X312712014Y-107679622D01*
X312743623Y-107726929D01*
X312833629Y-107944222D01*
X312879513Y-108174898D01*
X312879513Y-108410098D01*
X312833629Y-108640774D01*
X312772432Y-108788515D01*
X312743622Y-108858069D01*
X312612953Y-109053628D01*
X312446643Y-109219938D01*
X312251084Y-109350607D01*
X312251083Y-109350608D01*
X312251082Y-109350608D01*
X312033789Y-109440614D01*
X311803113Y-109486498D01*
X311567913Y-109486498D01*
X311337237Y-109440614D01*
X311119944Y-109350608D01*
X311119943Y-109350608D01*
X311119942Y-109350607D01*
X310924383Y-109219938D01*
X310758073Y-109053628D01*
X310627404Y-108858069D01*
X310598594Y-108788515D01*
X310537397Y-108640774D01*
X310491513Y-108410098D01*
X310491513Y-108174898D01*
X310537397Y-107944222D01*
X310627403Y-107726929D01*
X310659013Y-107679622D01*
X310758073Y-107531368D01*
X310924383Y-107365058D01*
X311119942Y-107234389D01*
X311119944Y-107234388D01*
X311337237Y-107144382D01*
X311567913Y-107098498D01*
X311803113Y-107098498D01*
X312033789Y-107144382D01*
X312033789Y-107144382D01*
G37*
G36*
X286495233Y-106669657D02*
G01*
X286707608Y-106757626D01*
X286712528Y-106759664D01*
X286908087Y-106890333D01*
X287074397Y-107056643D01*
X287193164Y-107234389D01*
X287205067Y-107252204D01*
X287295073Y-107469497D01*
X287340957Y-107700173D01*
X287340957Y-107935373D01*
X287295073Y-108166049D01*
X287219853Y-108347646D01*
X287205066Y-108383344D01*
X287074397Y-108578903D01*
X286908087Y-108745213D01*
X286712528Y-108875882D01*
X286712527Y-108875883D01*
X286712526Y-108875883D01*
X286495233Y-108965889D01*
X286264557Y-109011773D01*
X286029357Y-109011773D01*
X285798681Y-108965889D01*
X285581388Y-108875883D01*
X285581387Y-108875883D01*
X285581386Y-108875882D01*
X285385827Y-108745213D01*
X285219517Y-108578903D01*
X285088848Y-108383344D01*
X285074061Y-108347646D01*
X284998841Y-108166049D01*
X284952957Y-107935373D01*
X284952957Y-107700173D01*
X284998841Y-107469497D01*
X285088847Y-107252204D01*
X285100751Y-107234389D01*
X285219517Y-107056643D01*
X285385827Y-106890333D01*
X285581386Y-106759664D01*
X285586306Y-106757626D01*
X285798681Y-106669657D01*
X286029357Y-106623773D01*
X286264557Y-106623773D01*
X286495233Y-106669657D01*
X286495233Y-106669657D01*
G37*
G36*
X120948516Y-106005530D02*
G01*
X121160891Y-106093499D01*
X121165811Y-106095537D01*
X121361370Y-106226206D01*
X121527680Y-106392516D01*
X121639172Y-106559374D01*
X121658350Y-106588077D01*
X121748356Y-106805370D01*
X121794240Y-107036046D01*
X121794240Y-107271246D01*
X121748356Y-107501922D01*
X121670331Y-107690290D01*
X121658349Y-107719217D01*
X121527680Y-107914776D01*
X121361370Y-108081086D01*
X121165811Y-108211755D01*
X121165810Y-108211756D01*
X121165809Y-108211756D01*
X120948516Y-108301762D01*
X120717840Y-108347646D01*
X120482640Y-108347646D01*
X120251964Y-108301762D01*
X120034671Y-108211756D01*
X120034670Y-108211756D01*
X120034669Y-108211755D01*
X119839110Y-108081086D01*
X119672800Y-107914776D01*
X119542131Y-107719217D01*
X119530149Y-107690290D01*
X119452124Y-107501922D01*
X119406240Y-107271246D01*
X119406240Y-107036046D01*
X119452124Y-106805370D01*
X119542130Y-106588077D01*
X119561309Y-106559374D01*
X119672800Y-106392516D01*
X119839110Y-106226206D01*
X120034669Y-106095537D01*
X120039589Y-106093499D01*
X120251964Y-106005530D01*
X120482640Y-105959646D01*
X120717840Y-105959646D01*
X120948516Y-106005530D01*
X120948516Y-106005530D01*
G37*
G36*
X267310185Y-105957786D02*
G01*
X267527478Y-106047792D01*
X267527480Y-106047793D01*
X267611885Y-106104191D01*
X267723039Y-106178462D01*
X267889349Y-106344772D01*
X268020019Y-106540333D01*
X268110025Y-106757626D01*
X268155909Y-106988302D01*
X268155909Y-107223502D01*
X268110025Y-107454178D01*
X268034805Y-107635775D01*
X268020018Y-107671473D01*
X267889349Y-107867032D01*
X267723039Y-108033342D01*
X267527480Y-108164011D01*
X267527479Y-108164012D01*
X267527478Y-108164012D01*
X267310185Y-108254018D01*
X267079509Y-108299902D01*
X266844309Y-108299902D01*
X266613633Y-108254018D01*
X266396340Y-108164012D01*
X266396339Y-108164012D01*
X266396338Y-108164011D01*
X266200779Y-108033342D01*
X266034469Y-107867032D01*
X265903800Y-107671473D01*
X265889013Y-107635775D01*
X265813793Y-107454178D01*
X265767909Y-107223502D01*
X265767909Y-106988302D01*
X265813793Y-106757626D01*
X265903799Y-106540333D01*
X266034469Y-106344772D01*
X266200779Y-106178462D01*
X266311933Y-106104191D01*
X266396338Y-106047793D01*
X266396340Y-106047792D01*
X266613633Y-105957786D01*
X266844309Y-105911902D01*
X267079509Y-105911902D01*
X267310185Y-105957786D01*
X267310185Y-105957786D01*
G37*
G36*
X89084123Y-105926817D02*
G01*
X89301416Y-106016823D01*
X89301418Y-106016824D01*
X89496977Y-106147493D01*
X89663287Y-106313803D01*
X89715882Y-106392516D01*
X89793957Y-106509364D01*
X89883963Y-106726657D01*
X89929847Y-106957333D01*
X89929847Y-107192533D01*
X89883963Y-107423209D01*
X89827459Y-107559621D01*
X89793956Y-107640504D01*
X89663287Y-107836063D01*
X89496977Y-108002373D01*
X89301418Y-108133042D01*
X89301417Y-108133043D01*
X89301416Y-108133043D01*
X89084123Y-108223049D01*
X88853447Y-108268933D01*
X88618247Y-108268933D01*
X88387571Y-108223049D01*
X88170278Y-108133043D01*
X88170277Y-108133043D01*
X88170276Y-108133042D01*
X87974717Y-108002373D01*
X87808407Y-107836063D01*
X87677738Y-107640504D01*
X87644235Y-107559621D01*
X87587731Y-107423209D01*
X87541847Y-107192533D01*
X87541847Y-106957333D01*
X87587731Y-106726657D01*
X87677737Y-106509364D01*
X87755813Y-106392516D01*
X87808407Y-106313803D01*
X87974717Y-106147493D01*
X88170276Y-106016824D01*
X88170278Y-106016823D01*
X88387571Y-105926817D01*
X88618247Y-105880933D01*
X88853447Y-105880933D01*
X89084123Y-105926817D01*
X89084123Y-105926817D01*
G37*
G36*
X214970362Y-106660722D02*
G01*
X215118321Y-106722009D01*
X215251475Y-106810979D01*
X215364721Y-106924225D01*
X215453691Y-107057379D01*
X215514978Y-107205338D01*
X215546220Y-107362405D01*
X215546220Y-107522555D01*
X215514978Y-107679622D01*
X215453691Y-107827581D01*
X215364721Y-107960735D01*
X215251475Y-108073981D01*
X215118321Y-108162951D01*
X214970362Y-108224238D01*
X214813295Y-108255480D01*
X214653145Y-108255480D01*
X214496078Y-108224238D01*
X214348119Y-108162951D01*
X214214965Y-108073981D01*
X214101719Y-107960735D01*
X214012749Y-107827581D01*
X213951462Y-107679622D01*
X213920220Y-107522555D01*
X213920220Y-107362405D01*
X213951462Y-107205338D01*
X214012749Y-107057379D01*
X214101719Y-106924225D01*
X214214965Y-106810979D01*
X214348119Y-106722009D01*
X214496078Y-106660722D01*
X214653145Y-106629480D01*
X214813295Y-106629480D01*
X214970362Y-106660722D01*
X214970362Y-106660722D01*
G37*
G36*
X199750362Y-106660722D02*
G01*
X199898321Y-106722009D01*
X200031475Y-106810979D01*
X200144721Y-106924225D01*
X200233691Y-107057379D01*
X200294978Y-107205338D01*
X200326220Y-107362405D01*
X200326220Y-107522555D01*
X200294978Y-107679622D01*
X200233691Y-107827581D01*
X200144721Y-107960735D01*
X200031475Y-108073981D01*
X199898321Y-108162951D01*
X199750362Y-108224238D01*
X199593295Y-108255480D01*
X199433145Y-108255480D01*
X199276078Y-108224238D01*
X199128119Y-108162951D01*
X198994965Y-108073981D01*
X198881719Y-107960735D01*
X198792749Y-107827581D01*
X198731462Y-107679622D01*
X198700220Y-107522555D01*
X198700220Y-107362405D01*
X198731462Y-107205338D01*
X198792749Y-107057379D01*
X198881719Y-106924225D01*
X198994965Y-106810979D01*
X199128119Y-106722009D01*
X199276078Y-106660722D01*
X199433145Y-106629480D01*
X199593295Y-106629480D01*
X199750362Y-106660722D01*
X199750362Y-106660722D01*
G37*
G36*
X331011298Y-105484065D02*
G01*
X331131805Y-105533981D01*
X331228593Y-105574072D01*
X331424152Y-105704741D01*
X331590462Y-105871051D01*
X331649660Y-105959646D01*
X331721132Y-106066612D01*
X331811138Y-106283905D01*
X331857022Y-106514581D01*
X331857022Y-106749781D01*
X331811138Y-106980457D01*
X331743238Y-107144382D01*
X331721131Y-107197752D01*
X331590462Y-107393311D01*
X331424152Y-107559621D01*
X331228593Y-107690290D01*
X331228592Y-107690291D01*
X331228591Y-107690291D01*
X331011298Y-107780297D01*
X330780622Y-107826181D01*
X330545422Y-107826181D01*
X330314746Y-107780297D01*
X330097453Y-107690291D01*
X330097452Y-107690291D01*
X330097451Y-107690290D01*
X329901892Y-107559621D01*
X329735582Y-107393311D01*
X329604913Y-107197752D01*
X329582806Y-107144382D01*
X329514906Y-106980457D01*
X329469022Y-106749781D01*
X329469022Y-106514581D01*
X329514906Y-106283905D01*
X329604912Y-106066612D01*
X329676385Y-105959646D01*
X329735582Y-105871051D01*
X329901892Y-105704741D01*
X330097451Y-105574072D01*
X330194239Y-105533981D01*
X330314746Y-105484065D01*
X330545422Y-105438181D01*
X330780622Y-105438181D01*
X331011298Y-105484065D01*
X331011298Y-105484065D01*
G37*
G36*
X140133564Y-105293659D02*
G01*
X140350857Y-105383665D01*
X140350859Y-105383666D01*
X140546418Y-105514335D01*
X140712728Y-105680645D01*
X140787206Y-105792108D01*
X140843398Y-105876206D01*
X140933404Y-106093499D01*
X140979288Y-106324175D01*
X140979288Y-106559375D01*
X140933404Y-106790051D01*
X140851285Y-106988302D01*
X140843397Y-107007346D01*
X140712728Y-107202905D01*
X140546418Y-107369215D01*
X140350859Y-107499884D01*
X140350858Y-107499885D01*
X140350857Y-107499885D01*
X140133564Y-107589891D01*
X139902888Y-107635775D01*
X139667688Y-107635775D01*
X139437012Y-107589891D01*
X139219719Y-107499885D01*
X139219718Y-107499885D01*
X139219717Y-107499884D01*
X139024158Y-107369215D01*
X138857848Y-107202905D01*
X138727179Y-107007346D01*
X138719291Y-106988302D01*
X138637172Y-106790051D01*
X138591288Y-106559375D01*
X138591288Y-106324175D01*
X138637172Y-106093499D01*
X138727178Y-105876206D01*
X138783371Y-105792108D01*
X138857848Y-105680645D01*
X139024158Y-105514335D01*
X139219717Y-105383666D01*
X139219719Y-105383665D01*
X139437012Y-105293659D01*
X139667688Y-105247775D01*
X139902888Y-105247775D01*
X140133564Y-105293659D01*
X140133564Y-105293659D01*
G37*
G36*
X127495728Y-104028635D02*
G01*
X127708103Y-104116604D01*
X127713023Y-104118642D01*
X127908582Y-104249311D01*
X128074892Y-104415621D01*
X128186384Y-104582479D01*
X128205562Y-104611182D01*
X128295568Y-104828475D01*
X128341452Y-105059151D01*
X128341452Y-105294351D01*
X128295568Y-105525027D01*
X128205562Y-105742320D01*
X128205561Y-105742322D01*
X128074892Y-105937881D01*
X127908582Y-106104191D01*
X127713023Y-106234860D01*
X127713022Y-106234861D01*
X127713021Y-106234861D01*
X127495728Y-106324867D01*
X127265052Y-106370751D01*
X127029852Y-106370751D01*
X126799176Y-106324867D01*
X126581883Y-106234861D01*
X126581882Y-106234861D01*
X126581881Y-106234860D01*
X126386322Y-106104191D01*
X126220012Y-105937881D01*
X126089343Y-105742322D01*
X126089342Y-105742320D01*
X125999336Y-105525027D01*
X125953452Y-105294351D01*
X125953452Y-105059151D01*
X125999336Y-104828475D01*
X126089342Y-104611182D01*
X126108521Y-104582479D01*
X126220012Y-104415621D01*
X126386322Y-104249311D01*
X126581881Y-104118642D01*
X126586801Y-104116604D01*
X126799176Y-104028635D01*
X127029852Y-103982751D01*
X127265052Y-103982751D01*
X127495728Y-104028635D01*
X127495728Y-104028635D01*
G37*
G36*
X292599693Y-103585883D02*
G01*
X292812068Y-103673852D01*
X292816988Y-103675890D01*
X293012547Y-103806559D01*
X293178857Y-103972869D01*
X293290349Y-104139727D01*
X293309527Y-104168430D01*
X293399533Y-104385723D01*
X293445417Y-104616399D01*
X293445417Y-104851599D01*
X293399533Y-105082275D01*
X293311974Y-105293660D01*
X293309526Y-105299570D01*
X293178857Y-105495129D01*
X293012547Y-105661439D01*
X292816988Y-105792108D01*
X292816987Y-105792109D01*
X292816986Y-105792109D01*
X292599693Y-105882115D01*
X292369017Y-105927999D01*
X292133817Y-105927999D01*
X291903141Y-105882115D01*
X291685848Y-105792109D01*
X291685847Y-105792109D01*
X291685846Y-105792108D01*
X291490287Y-105661439D01*
X291323977Y-105495129D01*
X291193308Y-105299570D01*
X291190860Y-105293660D01*
X291103301Y-105082275D01*
X291057417Y-104851599D01*
X291057417Y-104616399D01*
X291103301Y-104385723D01*
X291193307Y-104168430D01*
X291212486Y-104139727D01*
X291323977Y-103972869D01*
X291490287Y-103806559D01*
X291685846Y-103675890D01*
X291690766Y-103673852D01*
X291903141Y-103585883D01*
X292133817Y-103539999D01*
X292369017Y-103539999D01*
X292599693Y-103585883D01*
X292599693Y-103585883D01*
G37*
G36*
X199750362Y-104120722D02*
G01*
X199898321Y-104182009D01*
X200031475Y-104270979D01*
X200144721Y-104384225D01*
X200233691Y-104517379D01*
X200294978Y-104665338D01*
X200326220Y-104822405D01*
X200326220Y-104982555D01*
X200294978Y-105139622D01*
X200233691Y-105287581D01*
X200144721Y-105420735D01*
X200031475Y-105533981D01*
X199898321Y-105622951D01*
X199750362Y-105684238D01*
X199593295Y-105715480D01*
X199433145Y-105715480D01*
X199276078Y-105684238D01*
X199128119Y-105622951D01*
X198994965Y-105533981D01*
X198881719Y-105420735D01*
X198792749Y-105287581D01*
X198731462Y-105139622D01*
X198700220Y-104982555D01*
X198700220Y-104822405D01*
X198731462Y-104665338D01*
X198792749Y-104517379D01*
X198881719Y-104384225D01*
X198994965Y-104270979D01*
X199128119Y-104182009D01*
X199276078Y-104120722D01*
X199433145Y-104089480D01*
X199593295Y-104089480D01*
X199750362Y-104120722D01*
X199750362Y-104120722D01*
G37*
G36*
X214970362Y-104120722D02*
G01*
X215118321Y-104182009D01*
X215251475Y-104270979D01*
X215364721Y-104384225D01*
X215453691Y-104517379D01*
X215514978Y-104665338D01*
X215546220Y-104822405D01*
X215546220Y-104982555D01*
X215514978Y-105139622D01*
X215453691Y-105287581D01*
X215364721Y-105420735D01*
X215251475Y-105533981D01*
X215118321Y-105622951D01*
X214970362Y-105684238D01*
X214813295Y-105715480D01*
X214653145Y-105715480D01*
X214496078Y-105684238D01*
X214348119Y-105622951D01*
X214214965Y-105533981D01*
X214101719Y-105420735D01*
X214012749Y-105287581D01*
X213951462Y-105139622D01*
X213920220Y-104982555D01*
X213920220Y-104822405D01*
X213951462Y-104665338D01*
X214012749Y-104517379D01*
X214101719Y-104384225D01*
X214214965Y-104270979D01*
X214348119Y-104182009D01*
X214496078Y-104120722D01*
X214653145Y-104089480D01*
X214813295Y-104089480D01*
X214970362Y-104120722D01*
X214970362Y-104120722D01*
G37*
G36*
X146680776Y-103316764D02*
G01*
X146898069Y-103406770D01*
X146898071Y-103406771D01*
X147093630Y-103537440D01*
X147259940Y-103703750D01*
X147390610Y-103899311D01*
X147480616Y-104116604D01*
X147526500Y-104347280D01*
X147526500Y-104582480D01*
X147480616Y-104813156D01*
X147464692Y-104851599D01*
X147390609Y-105030451D01*
X147259940Y-105226010D01*
X147093630Y-105392320D01*
X146898071Y-105522989D01*
X146898070Y-105522990D01*
X146898069Y-105522990D01*
X146680776Y-105612996D01*
X146450100Y-105658880D01*
X146214900Y-105658880D01*
X145984224Y-105612996D01*
X145766931Y-105522990D01*
X145766930Y-105522990D01*
X145766929Y-105522989D01*
X145571370Y-105392320D01*
X145405060Y-105226010D01*
X145274391Y-105030451D01*
X145200308Y-104851599D01*
X145184384Y-104813156D01*
X145138500Y-104582480D01*
X145138500Y-104347280D01*
X145184384Y-104116604D01*
X145274390Y-103899311D01*
X145405060Y-103703750D01*
X145571370Y-103537440D01*
X145766929Y-103406771D01*
X145766931Y-103406770D01*
X145984224Y-103316764D01*
X146214900Y-103270880D01*
X146450100Y-103270880D01*
X146680776Y-103316764D01*
X146680776Y-103316764D01*
G37*
G36*
X273414645Y-102874012D02*
G01*
X273631938Y-102964018D01*
X273631940Y-102964019D01*
X273827499Y-103094688D01*
X273993809Y-103260998D01*
X274031072Y-103316765D01*
X274124479Y-103456559D01*
X274214485Y-103673852D01*
X274260369Y-103904528D01*
X274260369Y-104139728D01*
X274214485Y-104370404D01*
X274153605Y-104517380D01*
X274124478Y-104587699D01*
X273993809Y-104783258D01*
X273827499Y-104949568D01*
X273631940Y-105080237D01*
X273631939Y-105080238D01*
X273631938Y-105080238D01*
X273414645Y-105170244D01*
X273183969Y-105216128D01*
X272948769Y-105216128D01*
X272718093Y-105170244D01*
X272500800Y-105080238D01*
X272500799Y-105080238D01*
X272500798Y-105080237D01*
X272305239Y-104949568D01*
X272138929Y-104783258D01*
X272008260Y-104587699D01*
X271979133Y-104517380D01*
X271918253Y-104370404D01*
X271872369Y-104139728D01*
X271872369Y-103904528D01*
X271918253Y-103673852D01*
X272008259Y-103456559D01*
X272101667Y-103316765D01*
X272138929Y-103260998D01*
X272305239Y-103094688D01*
X272500798Y-102964019D01*
X272500800Y-102964018D01*
X272718093Y-102874012D01*
X272948769Y-102828128D01*
X273183969Y-102828128D01*
X273414645Y-102874012D01*
X273414645Y-102874012D01*
G37*
G36*
X199750362Y-101580722D02*
G01*
X199898321Y-101642009D01*
X200031475Y-101730979D01*
X200144721Y-101844225D01*
X200233691Y-101977379D01*
X200294978Y-102125338D01*
X200326220Y-102282405D01*
X200326220Y-102442555D01*
X200294978Y-102599622D01*
X200233691Y-102747581D01*
X200144721Y-102880735D01*
X200031475Y-102993981D01*
X199898321Y-103082951D01*
X199750362Y-103144238D01*
X199593295Y-103175480D01*
X199433145Y-103175480D01*
X199276078Y-103144238D01*
X199128119Y-103082951D01*
X198994965Y-102993981D01*
X198881719Y-102880735D01*
X198792749Y-102747581D01*
X198731462Y-102599622D01*
X198700220Y-102442555D01*
X198700220Y-102282405D01*
X198731462Y-102125338D01*
X198792749Y-101977379D01*
X198881719Y-101844225D01*
X198994965Y-101730979D01*
X199128119Y-101642009D01*
X199276078Y-101580722D01*
X199433145Y-101549480D01*
X199593295Y-101549480D01*
X199750362Y-101580722D01*
X199750362Y-101580722D01*
G37*
G36*
X214970362Y-101580722D02*
G01*
X215118321Y-101642009D01*
X215251475Y-101730979D01*
X215364721Y-101844225D01*
X215453691Y-101977379D01*
X215514978Y-102125338D01*
X215546220Y-102282405D01*
X215546220Y-102442555D01*
X215514978Y-102599622D01*
X215453691Y-102747581D01*
X215364721Y-102880735D01*
X215251475Y-102993981D01*
X215118321Y-103082951D01*
X214970362Y-103144238D01*
X214813295Y-103175480D01*
X214653145Y-103175480D01*
X214496078Y-103144238D01*
X214348119Y-103082951D01*
X214214965Y-102993981D01*
X214101719Y-102880735D01*
X214012749Y-102747581D01*
X213951462Y-102599622D01*
X213920220Y-102442555D01*
X213920220Y-102282405D01*
X213951462Y-102125338D01*
X214012749Y-101977379D01*
X214101719Y-101844225D01*
X214214965Y-101730979D01*
X214348119Y-101642009D01*
X214496078Y-101580722D01*
X214653145Y-101549480D01*
X214813295Y-101549480D01*
X214970362Y-101580722D01*
X214970362Y-101580722D01*
G37*
G36*
X214970362Y-99040722D02*
G01*
X215118321Y-99102009D01*
X215251475Y-99190979D01*
X215364721Y-99304225D01*
X215453691Y-99437379D01*
X215514978Y-99585338D01*
X215546220Y-99742405D01*
X215546220Y-99902555D01*
X215514978Y-100059622D01*
X215453691Y-100207581D01*
X215364721Y-100340735D01*
X215251475Y-100453981D01*
X215118321Y-100542951D01*
X214970362Y-100604238D01*
X214813295Y-100635480D01*
X214653145Y-100635480D01*
X214496078Y-100604238D01*
X214348119Y-100542951D01*
X214214965Y-100453981D01*
X214101719Y-100340735D01*
X214012749Y-100207581D01*
X213951462Y-100059622D01*
X213920220Y-99902555D01*
X213920220Y-99742405D01*
X213951462Y-99585338D01*
X214012749Y-99437379D01*
X214101719Y-99304225D01*
X214214965Y-99190979D01*
X214348119Y-99102009D01*
X214496078Y-99040722D01*
X214653145Y-99009480D01*
X214813295Y-99009480D01*
X214970362Y-99040722D01*
X214970362Y-99040722D01*
G37*
G36*
X199750362Y-99040722D02*
G01*
X199898321Y-99102009D01*
X200031475Y-99190979D01*
X200144721Y-99304225D01*
X200233691Y-99437379D01*
X200294978Y-99585338D01*
X200326220Y-99742405D01*
X200326220Y-99902555D01*
X200294978Y-100059622D01*
X200233691Y-100207581D01*
X200144721Y-100340735D01*
X200031475Y-100453981D01*
X199898321Y-100542951D01*
X199750362Y-100604238D01*
X199593295Y-100635480D01*
X199433145Y-100635480D01*
X199276078Y-100604238D01*
X199128119Y-100542951D01*
X198994965Y-100453981D01*
X198881719Y-100340735D01*
X198792749Y-100207581D01*
X198731462Y-100059622D01*
X198700220Y-99902555D01*
X198700220Y-99742405D01*
X198731462Y-99585338D01*
X198792749Y-99437379D01*
X198881719Y-99304225D01*
X198994965Y-99190979D01*
X199128119Y-99102009D01*
X199276078Y-99040722D01*
X199433145Y-99009480D01*
X199593295Y-99009480D01*
X199750362Y-99040722D01*
X199750362Y-99040722D01*
G37*
M02*
